<svg width="174" height="151" viewBox="0 0 174 151" fill="none" xmlns="http://www.w3.org/2000/svg">
<g filter="url(#filter0_d_202_3573)">
<line x1="87.5" y1="38.0068" x2="87.5" y2="-0.00632095" stroke="#A2A2A2" stroke-width="2"/>
</g>
<g filter="url(#filter1_d_202_3573)">
<path d="M82.6639 42.5C82.6639 45.4455 85.0517 47.8333 87.9972 47.8333C90.9427 47.8333 93.3305 45.4455 93.3305 42.5C93.3305 39.5545 90.9427 37.1667 87.9972 37.1667C85.0517 37.1667 82.6639 39.5545 82.6639 42.5ZM87.9972 43.5H162.997V41.5H87.9972V43.5Z" fill="#A2A2A2"/>
</g>
<g filter="url(#filter2_d_202_3573)">
<path d="M163.5 37.6667C160.554 37.6667 158.167 40.0545 158.167 43C158.167 45.9455 160.554 48.3333 163.5 48.3333C166.446 48.3333 168.833 45.9455 168.833 43C168.833 40.0545 166.446 37.6667 163.5 37.6667ZM163.5 143L169.274 133H157.726L163.5 143ZM162.5 43V134H164.5V43H162.5Z" fill="#A2A2A2"/>
</g>
<g filter="url(#filter3_d_202_3573)">
<path d="M10 42H85" stroke="#A2A2A2" stroke-width="2"/>
</g>
<g filter="url(#filter4_d_202_3573)">
<path d="M10.5 36.6667C7.55448 36.6667 5.16667 39.0545 5.16667 42C5.16667 44.9455 7.55448 47.3333 10.5 47.3333C13.4455 47.3333 15.8333 44.9455 15.8333 42C15.8333 39.0545 13.4455 36.6667 10.5 36.6667ZM10.5 142L16.2735 132H4.7265L10.5 142ZM9.5 42L9.5 133H11.5L11.5 42H9.5Z" fill="#A2A2A2"/>
</g>
<defs>
<filter id="filter0_d_202_3573" x="82.5" y="-0.00634766" width="10" height="46.0132" filterUnits="userSpaceOnUse" color-interpolation-filters="sRGB">
<feFlood flood-opacity="0" result="BackgroundImageFix"/>
<feColorMatrix in="SourceAlpha" type="matrix" values="0 0 0 0 0 0 0 0 0 0 0 0 0 0 0 0 0 0 127 0" result="hardAlpha"/>
<feOffset dy="4"/>
<feGaussianBlur stdDeviation="2"/>
<feComposite in2="hardAlpha" operator="out"/>
<feColorMatrix type="matrix" values="0 0 0 0 0 0 0 0 0 0 0 0 0 0 0 0 0 0 0.25 0"/>
<feBlend mode="normal" in2="BackgroundImageFix" result="effect1_dropShadow_202_3573"/>
<feBlend mode="normal" in="SourceGraphic" in2="effect1_dropShadow_202_3573" result="shape"/>
</filter>
<filter id="filter1_d_202_3573" x="78.6639" y="37.1665" width="88.3333" height="18.667" filterUnits="userSpaceOnUse" color-interpolation-filters="sRGB">
<feFlood flood-opacity="0" result="BackgroundImageFix"/>
<feColorMatrix in="SourceAlpha" type="matrix" values="0 0 0 0 0 0 0 0 0 0 0 0 0 0 0 0 0 0 127 0" result="hardAlpha"/>
<feOffset dy="4"/>
<feGaussianBlur stdDeviation="2"/>
<feComposite in2="hardAlpha" operator="out"/>
<feColorMatrix type="matrix" values="0 0 0 0 0 0 0 0 0 0 0 0 0 0 0 0 0 0 0.25 0"/>
<feBlend mode="normal" in2="BackgroundImageFix" result="effect1_dropShadow_202_3573"/>
<feBlend mode="normal" in="SourceGraphic" in2="effect1_dropShadow_202_3573" result="shape"/>
</filter>
<filter id="filter2_d_202_3573" x="153.727" y="37.6665" width="19.547" height="113.333" filterUnits="userSpaceOnUse" color-interpolation-filters="sRGB">
<feFlood flood-opacity="0" result="BackgroundImageFix"/>
<feColorMatrix in="SourceAlpha" type="matrix" values="0 0 0 0 0 0 0 0 0 0 0 0 0 0 0 0 0 0 127 0" result="hardAlpha"/>
<feOffset dy="4"/>
<feGaussianBlur stdDeviation="2"/>
<feComposite in2="hardAlpha" operator="out"/>
<feColorMatrix type="matrix" values="0 0 0 0 0 0 0 0 0 0 0 0 0 0 0 0 0 0 0.25 0"/>
<feBlend mode="normal" in2="BackgroundImageFix" result="effect1_dropShadow_202_3573"/>
<feBlend mode="normal" in="SourceGraphic" in2="effect1_dropShadow_202_3573" result="shape"/>
</filter>
<filter id="filter3_d_202_3573" x="6" y="41" width="83" height="10" filterUnits="userSpaceOnUse" color-interpolation-filters="sRGB">
<feFlood flood-opacity="0" result="BackgroundImageFix"/>
<feColorMatrix in="SourceAlpha" type="matrix" values="0 0 0 0 0 0 0 0 0 0 0 0 0 0 0 0 0 0 127 0" result="hardAlpha"/>
<feOffset dy="4"/>
<feGaussianBlur stdDeviation="2"/>
<feComposite in2="hardAlpha" operator="out"/>
<feColorMatrix type="matrix" values="0 0 0 0 0 0 0 0 0 0 0 0 0 0 0 0 0 0 0.25 0"/>
<feBlend mode="normal" in2="BackgroundImageFix" result="effect1_dropShadow_202_3573"/>
<feBlend mode="normal" in="SourceGraphic" in2="effect1_dropShadow_202_3573" result="shape"/>
</filter>
<filter id="filter4_d_202_3573" x="0.726498" y="36.6665" width="19.547" height="113.333" filterUnits="userSpaceOnUse" color-interpolation-filters="sRGB">
<feFlood flood-opacity="0" result="BackgroundImageFix"/>
<feColorMatrix in="SourceAlpha" type="matrix" values="0 0 0 0 0 0 0 0 0 0 0 0 0 0 0 0 0 0 127 0" result="hardAlpha"/>
<feOffset dy="4"/>
<feGaussianBlur stdDeviation="2"/>
<feComposite in2="hardAlpha" operator="out"/>
<feColorMatrix type="matrix" values="0 0 0 0 0 0 0 0 0 0 0 0 0 0 0 0 0 0 0.25 0"/>
<feBlend mode="normal" in2="BackgroundImageFix" result="effect1_dropShadow_202_3573"/>
<feBlend mode="normal" in="SourceGraphic" in2="effect1_dropShadow_202_3573" result="shape"/>
</filter>
</defs>
</svg>
