<svg width="24" height="24" viewBox="0 0 24 24" fill="none" xmlns="http://www.w3.org/2000/svg">
<g clip-path="url(#clip0_200_3149)">
<path d="M22.9358 5.70384C22.6056 5.44368 21.72 5.23488 21.0571 5.07936L20.16 4.95936V2.79072L20.6193 2.78352C21.0499 3.00192 21.6701 3.36 21.7022 3.84H23.4321C23.4 2.88 22.6709 2.27424 22.0219 1.79328C21.5913 1.47408 21.12 1.30368 20.16 1.20048V0H19.2V1.16352C18.24 1.25568 17.9299 1.49472 17.4965 1.88496C16.9296 2.3952 16.6771 3.03552 16.6771 3.8064C16.6771 4.6512 16.9185 5.27184 17.4989 5.66928C17.8233 5.8944 18.24 6.10368 19.2 6.2976V8.6472C18.72 8.56224 18.719 8.58384 18.5496 8.38272C18.3864 8.18784 18.3417 7.68 18.2861 7.68H16.5696C16.5696 8.64 16.8293 9.09984 17.4792 9.612C17.9477 9.98112 18.24 10.0464 19.2 10.1434V11.04H20.16V10.1587C21.12 10.0661 21.9355 9.82176 22.4045 9.42144C23.0131 8.9016 23.5109 8.24832 23.5109 7.46208C23.5104 6.69504 23.4489 6.10944 22.9358 5.70384ZM18.7286 4.36656C18.4493 4.2144 18.3417 3.984 18.3417 3.67632C18.3417 3.34128 18.4344 3.0792 18.7176 2.892C18.8669 2.7936 18.72 2.72208 19.2 2.67456V4.56576C18.72 4.4928 18.8342 4.42656 18.7286 4.36656ZM20.8133 8.60016C20.7326 8.628 20.16 8.65008 20.16 8.66976V6.6696C21.12 6.75216 21.0461 6.84096 21.2054 6.93744C21.4555 7.09296 21.5813 7.31472 21.5813 7.5984C21.5813 8.08608 21.3245 8.42064 20.8133 8.60016ZM18.4896 14.4H18.2241L15.275 9.06C15.1478 8.82912 14.8272 8.64 14.5632 8.64H5.6155C5.3515 8.64 5.03086 8.82912 4.90366 9.06L1.95454 14.4H1.68958C1.1611 14.4 0.47998 14.832 0.47998 15.36V20.16C0.47998 20.688 1.1611 21.12 1.68958 21.12H2.39998V22.56C2.39998 23.352 3.29758 24 4.08958 24H4.56958C5.36158 24 5.75998 23.352 5.75998 22.56V21.12H13.92V22.56C13.92 23.352 14.8171 24 15.6096 24H16.0896C16.8816 24 17.28 23.352 17.28 22.56V21.12H18.4896C19.0176 21.12 19.2 20.688 19.2 20.16V15.36C19.2 14.832 19.0171 14.4 18.4896 14.4ZM3.36958 18.24C3.05132 18.24 2.7461 18.1136 2.52105 17.8885C2.29601 17.6635 2.16958 17.3583 2.16958 17.04C2.16958 16.7217 2.29601 16.4165 2.52105 16.1915C2.7461 15.9664 3.05132 15.84 3.36958 15.84C3.68784 15.84 3.99306 15.9664 4.21811 16.1915C4.44315 16.4165 4.56958 16.7217 4.56958 17.04C4.56958 17.3583 4.44315 17.6635 4.21811 17.8885C3.99306 18.1136 3.68784 18.24 3.36958 18.24ZM4.32958 14.4L6.27502 10.5096C6.39262 10.273 6.70558 10.08 6.96958 10.08H13.2096C13.4736 10.08 13.7861 10.273 13.9041 10.5096L15.8496 14.4H4.32958ZM16.8096 18.24C16.4913 18.24 16.1861 18.1136 15.9611 17.8885C15.736 17.6635 15.6096 17.3583 15.6096 17.04C15.6096 16.7217 15.736 16.4165 15.9611 16.1915C16.1861 15.9664 16.4913 15.84 16.8096 15.84C17.1278 15.84 17.4331 15.9664 17.6581 16.1915C17.8832 16.4165 18.0096 16.7217 18.0096 17.04C18.0096 17.3583 17.8832 17.6635 17.6581 17.8885C17.4331 18.1136 17.1278 18.24 16.8096 18.24Z" fill="white"/>
</g>
<defs>
<clipPath id="clip0_200_3149">
<rect width="24" height="24" fill="white"/>
</clipPath>
</defs>
</svg>
