<svg width="256" height="256" viewBox="0 0 256 256" fill="none" xmlns="http://www.w3.org/2000/svg">
<path d="M48.9229 105.854L59.5166 86.6621L135.583 87.9266L166.662 99.6724L187.091 116.645L113.188 121.057L59.4604 114.2L48.9229 105.854Z" fill="#20241E"/>
<path d="M185.855 164.044L239.666 162.58L247.857 161.27C251.594 160.677 254.306 157.497 254.306 153.714C254.306 136.222 242.47 120.972 225.529 116.625L184.208 106.031L164.513 94.6031C149.291 85.7713 131.945 81.1011 114.348 81.1011H93.8917C93.8776 81.1011 93.8664 81.1011 93.8523 81.1011H84.6243C65.4489 81.1011 47.1305 88.2694 33.0467 101.285C31.0264 103.154 28.399 104.18 25.6452 104.18H19.3564C11.7188 104.18 5.26989 109.898 4.35383 117.482L1.5073 141.123C0.728931 147.6 4.46623 153.678 10.5977 155.909L23.5208 160.602L78.0573 164.044H185.855ZM114.348 89.5311C130.461 89.5311 146.343 93.8051 160.281 101.892L173.156 109.361C168.868 110.974 164.386 111.84 159.775 111.84H109.701L100.242 89.5311H114.348ZM66.4773 96.972L68.3207 91.588C73.6119 90.2757 79.0689 89.5311 84.6271 89.5311H91.0873L100.546 111.84H77.0991C73.4264 111.84 70.0966 110.126 67.9638 107.139C65.831 104.152 65.2887 100.445 66.4773 96.972Z" fill="#F7931E"/>
<path d="M247.857 144.413L239.666 145.723L185.855 147.187H78.0573L23.5208 143.741L10.5977 139.049C6.9306 137.714 4.15151 134.991 2.64816 131.642L1.5073 141.123C0.728931 147.6 4.46623 153.678 10.5977 155.909L23.5208 160.601L78.0573 164.044H185.855L239.666 162.58L247.857 161.27C251.594 160.677 254.306 157.496 254.306 153.714C254.306 149.612 253.632 145.641 252.418 141.895C251.277 143.199 249.692 144.121 247.857 144.413Z" fill="#F7931E"/>
<path d="M210.377 174.612C197.207 174.612 186.492 163.898 186.492 150.73C186.492 137.56 197.207 126.845 210.377 126.845C223.545 126.845 234.259 137.56 234.259 150.73C234.262 163.898 223.545 174.612 210.377 174.612Z" fill="#20241E"/>
<path d="M53.928 174.612C40.7575 174.612 30.043 163.898 30.043 150.727C30.043 137.557 40.7575 126.839 53.928 126.839C67.0984 126.839 77.813 137.554 77.813 150.727C77.813 163.898 67.0984 174.612 53.928 174.612Z" fill="#20241E"/>
<path d="M210.35 163.178C207.112 163.178 203.872 161.883 201.579 159.542C200.981 158.991 200.484 158.345 200.037 157.648C199.59 156.949 199.191 156.252 198.888 155.501C198.542 154.757 198.342 153.959 198.143 153.161C197.991 152.363 197.943 151.517 197.943 150.716C197.943 147.431 199.239 144.239 201.579 141.946C204.471 139.007 208.759 137.664 212.794 138.509C213.592 138.655 214.39 138.908 215.135 139.206C215.885 139.557 216.633 139.903 217.282 140.35C217.979 140.802 218.625 141.347 219.176 141.946C221.516 144.239 222.812 147.431 222.812 150.716C222.812 151.514 222.764 152.36 222.565 153.161C222.418 153.959 222.166 154.757 221.868 155.501C221.567 156.252 221.171 156.946 220.718 157.648C220.272 158.345 219.774 158.991 219.176 159.542C216.883 161.883 213.64 163.178 210.35 163.178Z" fill="#50534E"/>
<path d="M53.9303 163.122C50.6483 163.122 47.414 161.782 45.1266 159.494C42.8393 157.207 41.4961 153.973 41.4961 150.688C41.4961 147.408 42.8393 144.222 45.1266 141.887C49.7491 137.264 58.106 137.264 62.7341 141.887C65.0214 144.222 66.3646 147.408 66.3646 150.688C66.3646 153.97 65.0214 157.156 62.7341 159.494C60.3962 161.782 57.2124 163.122 53.9303 163.122Z" fill="#50534E"/>
<path d="M248.787 133.966C247.295 131.493 245.533 129.197 243.527 127.118H226.189C229.747 131.451 235.061 133.966 240.667 133.966H248.787Z" fill="#CED6CE"/>
<path d="M7.8353 127.744C10.2013 127.744 12.1177 125.828 12.1177 123.462V118.654C12.1177 116.288 10.2013 114.372 7.8353 114.372H5.10117C4.75554 115.369 4.48578 116.4 4.35371 117.485L3.12012 127.744H7.8353Z" fill="#F7931E"/>
</svg>
