<svg width="48" height="44" viewBox="0 0 48 44" fill="none" xmlns="http://www.w3.org/2000/svg">
<g clip-path="url(#clip0_142_6548)">
<path d="M38.2 16.1333H35.0001C34.6801 16.1333 34.36 16.3533 34.2801 16.6466L32.0401 22.7333H29.8801L27.7201 19.4333C27.5601 19.2133 27.3201 19.0666 27.0001 19.0666H23.8001V16.8666C23.8001 16.4266 23.4802 16.1333 23.0002 16.1333H17.4V13.2H19.8C20.28 13.2 20.6 12.9067 20.6 12.4667V8.06668C20.6 7.62668 20.28 7.33337 19.8 7.33337H5.4C4.92 7.33337 4.60003 7.62668 4.60003 8.06668V12.4667C4.60003 12.9067 4.92 13.2 5.4 13.2H7.8V16.1333H1.39997C1.15997 16.1333 0.999937 16.2066 0.84 16.3533C0.680062 16.5 0.6 16.6466 0.6 16.8666V19.0666H-4.99997C-5.47997 19.0666 -5.79994 19.3599 -5.79994 19.7999V24.1999H-7.39997V22C-7.39997 21.56 -7.71994 21.2667 -8.19994 21.2667C-8.67994 21.2667 -9 21.56 -9 22V27.8667C-9 28.3067 -8.68003 28.6 -8.20003 28.6C-7.72003 28.6 -7.40006 28.3067 -7.40006 27.8667V25.6667H-5.80003V31.5334C-5.80003 31.9734 -5.48006 32.2667 -5.00006 32.2667H0.999937L3.95991 36.3734C4.11994 36.5201 4.35994 36.6667 4.59994 36.6667H27C27.32 36.6667 27.56 36.52 27.72 36.2267L29.88 32.2667H32.12L34.28 36.2267C34.44 36.52 34.68 36.6667 35 36.6667H38.1999C38.6799 36.6667 38.9999 36.3734 38.9999 35.9334V16.8667C39 16.4267 38.68 16.1333 38.2 16.1333ZM6.19997 8.79998H18.9999V11.7333H16.5999H8.59997H6.19997V8.79998ZM9.40003 13.2H15.8001V16.1333H9.40003V13.2ZM-4.2 30.8V20.5333H0.6V30.8H-4.2ZM26.44 35.2H4.99997L2.19994 31.3153V19.8V17.6H8.59997H16.5999H22.2V19.8C22.2 20.24 22.52 20.5333 23 20.5333H26.52L28.6 23.7111V31.24L26.44 35.2ZM30.2 30.8V24.2H31.8V30.8H30.2ZM37.4 35.2H35.48L33.3999 31.5228V23.4693L35.5599 17.6H37.4V35.2Z" fill="white"/>
</g>
<defs>
<clipPath id="clip0_142_6548">
<rect width="48" height="44" fill="white"/>
</clipPath>
</defs>
</svg>
