<svg width="24" height="24" viewBox="0 0 24 24" fill="none" xmlns="http://www.w3.org/2000/svg">
<path fill-rule="evenodd" clip-rule="evenodd" d="M2.80498 12.7725L2.46148 12L2.80498 11.2275C3.59541 9.44876 4.88478 7.93747 6.51682 6.87678C8.14887 5.8161 10.0535 5.25154 12 5.25154C13.9464 5.25154 15.8511 5.8161 17.4831 6.87678C19.1152 7.93747 20.4046 9.44876 21.195 11.2275L21.537 12L21.1935 12.7725C20.4029 14.5508 19.1135 16.0616 17.4816 17.122C15.8497 18.1824 13.9454 18.7468 11.9992 18.7468C10.0531 18.7468 8.14873 18.1824 6.51685 17.122C4.88497 16.0616 3.59561 14.5508 2.80498 12.7725ZM0.74998 10.314L0.35998 11.1915C0.2469 11.4463 0.188477 11.722 0.188477 12.0007C0.188477 12.2795 0.2469 12.5552 0.35998 12.81L0.74998 13.686C1.71746 15.8618 3.29513 17.7104 5.29188 19.0078C7.28863 20.3052 9.61876 20.9957 12 20.9957C14.3812 20.9957 16.7113 20.3052 18.7081 19.0078C20.7048 17.7104 22.2825 15.8618 23.25 13.686L23.64 12.81C23.7533 12.555 23.8118 12.279 23.8118 12C23.8118 11.7209 23.7533 11.445 23.64 11.19L23.25 10.314C22.2825 8.13816 20.7048 6.28958 18.7081 4.99219C16.7113 3.6948 14.3812 3.00427 12 3.00427C9.61876 3.00427 7.28863 3.6948 5.29188 4.99219C3.29513 6.28958 1.71746 8.13816 0.74998 10.314ZM14.25 12C14.25 12.5967 14.0129 13.169 13.591 13.591C13.169 14.0129 12.5967 14.25 12 14.25C11.4032 14.25 10.8309 14.0129 10.409 13.591C9.98703 13.169 9.74998 12.5967 9.74998 12C9.74998 11.4033 9.98703 10.831 10.409 10.409C10.8309 9.98704 11.4032 9.74999 12 9.74999C12.5967 9.74999 13.169 9.98704 13.591 10.409C14.0129 10.831 14.25 11.4033 14.25 12ZM16.5 12C16.5 13.1935 16.0259 14.3381 15.182 15.182C14.338 16.0259 13.1935 16.5 12 16.5C10.8065 16.5 9.66191 16.0259 8.818 15.182C7.97409 14.3381 7.49998 13.1935 7.49998 12C7.49998 10.8065 7.97409 9.66192 8.818 8.81801C9.66191 7.97409 10.8065 7.49999 12 7.49999C13.1935 7.49999 14.338 7.97409 15.182 8.81801C16.0259 9.66192 16.5 10.8065 16.5 12Z" fill="#2C2B34"/>
</svg>
