<svg width="20" height="20" viewBox="0 0 20 20" fill="none" xmlns="http://www.w3.org/2000/svg">
<g clip-path="url(#clip0_71_4701)">
<path d="M19.3924 7.84901C18.6401 6.61711 17.6912 5.51672 16.5833 4.59151L18.9166 2.25818C19.0684 2.10101 19.1524 1.89051 19.1505 1.67201C19.1486 1.45351 19.0609 1.2445 18.9064 1.08999C18.7519 0.935488 18.5429 0.847847 18.3244 0.845948C18.1059 0.84405 17.8954 0.928045 17.7383 1.07984L15.2008 3.62068C13.6277 2.68636 11.8294 2.1994 9.99992 2.21234C4.84075 2.21234 1.90075 5.74401 0.607421 7.84901C0.207861 8.49526 -0.00378418 9.24004 -0.00378418 9.99984C-0.00378418 10.7596 0.207861 11.5044 0.607421 12.1507C1.35972 13.3826 2.30866 14.483 3.41659 15.4082L1.08325 17.7415C1.00366 17.8184 0.940177 17.9103 0.896503 18.012C0.852829 18.1137 0.82984 18.223 0.828879 18.3337C0.827917 18.4443 0.849002 18.5541 0.890903 18.6565C0.932803 18.7589 0.994681 18.8519 1.07292 18.9302C1.15117 19.0084 1.24421 19.0703 1.34663 19.1122C1.44904 19.1541 1.55877 19.1752 1.66942 19.1742C1.78007 19.1733 1.88942 19.1503 1.99109 19.1066C2.09276 19.0629 2.18471 18.9994 2.26159 18.9198L4.80492 16.3765C6.37598 17.3107 8.17215 17.7985 9.99992 17.7873C15.1591 17.7873 18.0991 14.2557 19.3924 12.1507C19.792 11.5044 20.0036 10.7596 20.0036 9.99984C20.0036 9.24004 19.792 8.49526 19.3924 7.84901V7.84901ZM2.02742 11.2782C1.79003 10.894 1.6643 10.4514 1.6643 9.99984C1.6643 9.54828 1.79003 9.10564 2.02742 8.72151C3.13909 6.91651 5.65159 3.87901 9.99992 3.87901C11.3835 3.87126 12.7476 4.20471 13.9716 4.84984L12.2941 6.52734C11.494 5.99618 10.5348 5.75817 9.57928 5.85371C8.62372 5.94926 7.73064 6.37246 7.05159 7.05151C6.37254 7.73056 5.94933 8.62364 5.85379 9.5792C5.75825 10.5348 5.99626 11.494 6.52742 12.294L4.60242 14.219C3.58167 13.3938 2.71062 12.399 2.02742 11.2782V11.2782ZM12.4999 9.99984C12.4999 10.6629 12.2365 11.2988 11.7677 11.7676C11.2988 12.2365 10.663 12.4998 9.99992 12.4998C9.62868 12.4984 9.26259 12.4129 8.92909 12.2498L12.2499 8.92901C12.413 9.26251 12.4985 9.6286 12.4999 9.99984V9.99984ZM7.49992 9.99984C7.49992 9.3368 7.76331 8.70092 8.23215 8.23208C8.70099 7.76323 9.33688 7.49984 9.99992 7.49984C10.3712 7.50128 10.7373 7.58675 11.0708 7.74984L7.74992 11.0707C7.58683 10.7372 7.50136 10.3711 7.49992 9.99984ZM17.9724 11.2782C16.8608 13.0832 14.3483 16.1207 9.99992 16.1207C8.61636 16.1284 7.25222 15.795 6.02825 15.1498L7.70575 13.4723C8.50581 14.0035 9.465 14.2415 10.4206 14.146C11.3761 14.0504 12.2692 13.6272 12.9483 12.9482C13.6273 12.2691 14.0505 11.376 14.146 10.4205C14.2416 9.46492 14.0036 8.50573 13.4724 7.70568L15.3974 5.78068C16.4182 6.60591 17.2892 7.60072 17.9724 8.72151C18.2098 9.10564 18.3355 9.54828 18.3355 9.99984C18.3355 10.4514 18.2098 10.894 17.9724 11.2782V11.2782Z" fill="#2C2B34"/>
</g>
<defs>
<clipPath id="clip0_71_4701">
<rect width="20" height="20" fill="white"/>
</clipPath>
</defs>
</svg>
