<svg width="18" height="12" viewBox="0 0 18 12" fill="none" xmlns="http://www.w3.org/2000/svg">
<line x1="5.84619" y1="2.5293" x2="16.3077" y2="2.5293" stroke="#F7931E" stroke-width="2" stroke-linecap="round"/>
<line x1="12.1538" y1="9.4707" x2="1.69227" y2="9.4707" stroke="#F7931E" stroke-width="2" stroke-linecap="round"/>
<path d="M5.03846 2.82353C5.03846 4.11598 4.01338 5.14706 2.76923 5.14706C1.52508 5.14706 0.5 4.11598 0.5 2.82353C0.5 1.53108 1.52508 0.5 2.76923 0.5C4.01338 0.5 5.03846 1.53108 5.03846 2.82353Z" fill="#F7931E" stroke="white"/>
<path d="M12.9615 9.17647C12.9615 7.88402 13.9866 6.85294 15.2308 6.85294C16.4749 6.85294 17.5 7.88402 17.5 9.17647C17.5 10.4689 16.4749 11.5 15.2308 11.5C13.9866 11.5 12.9615 10.4689 12.9615 9.17647Z" fill="#F7931E" stroke="white"/>
</svg>
