<svg width="23" height="16" viewBox="0 0 23 16" fill="none" xmlns="http://www.w3.org/2000/svg">
<line x1="7.19226" y1="3.70593" x2="21.1153" y2="3.70593" stroke="#8C9199" stroke-width="2" stroke-linecap="round"/>
<line x1="15.8077" y1="12.2941" x2="1.88466" y2="12.2941" stroke="#8C9199" stroke-width="2" stroke-linecap="round"/>
<path d="M6.57692 3.76471C6.57692 5.5974 5.18782 7.02941 3.53846 7.02941C1.88911 7.02941 0.5 5.5974 0.5 3.76471C0.5 1.93201 1.88911 0.5 3.53846 0.5C5.18782 0.5 6.57692 1.93201 6.57692 3.76471Z" fill="#8C9199" stroke="#8C9199"/>
<path d="M16.4231 12.2353C16.4231 10.4026 17.8122 8.97059 19.4615 8.97059C21.1109 8.97059 22.5 10.4026 22.5 12.2353C22.5 14.068 21.1109 15.5 19.4615 15.5C17.8122 15.5 16.4231 14.068 16.4231 12.2353Z" fill="#8C9199" stroke="#8C9199"/>
</svg>
