<svg width="44" height="44" viewBox="0 0 44 44" fill="none" xmlns="http://www.w3.org/2000/svg">
<g clip-path="url(#clip0_142_6569)">
<path d="M20.9 3.66675H6.2333C5.7933 3.66675 5.5 3.96005 5.5 4.40005V14.6667C5.5 15.1067 5.7933 15.4001 6.2333 15.4001H20.9C21.34 15.4001 21.6333 15.1067 21.6333 14.6667V4.40005C21.6333 3.96005 21.34 3.66675 20.9 3.66675ZM20.1667 13.9334H6.9667V5.13336H20.1667V13.9334Z" fill="white"/>
<path d="M20.9 19.8H6.2333C5.7933 19.8 5.5 20.0934 5.5 20.5334V35.2001C5.5 35.64 5.7933 35.9334 6.2333 35.9334H20.9C21.34 35.9334 21.6333 35.64 21.6333 35.2001V20.5334C21.6333 20.0934 21.34 19.8 20.9 19.8ZM20.1667 34.4667H6.9667V21.2667H20.1667V34.4667Z" fill="white"/>
<path d="M33.5867 7.3333C33.1467 7.26 32.7067 7.40661 32.4134 7.7C32.1201 7.9933 31.9001 8.4333 31.9001 8.8733C31.9001 9.60661 32.3401 10.12 33.0001 10.34C35.0534 10.9267 37.7668 14.96 37.7668 16.8667V34.32C37.7668 35.9333 36.5935 37.2533 35.1268 37.4C34.2468 37.4733 33.4401 37.2533 32.8535 36.6667C32.2669 36.0801 31.9002 35.2734 31.9002 34.4667V20.5333C31.9002 16.7474 28.9926 13.6079 25.3002 13.237V0.733305C25.3002 0.293305 25.0069 0 24.5669 0H2.56687C2.12687 0 1.83357 0.293305 1.83357 0.733305V39.6H1.1C0.660004 39.6 0.366699 39.8933 0.366699 40.3333V43.2666C0.366699 43.7066 0.660004 43.9999 1.1 43.9999H26.0333C26.4733 43.9999 26.7666 43.7066 26.7666 43.2666V40.3333C26.7666 39.8933 26.4733 39.6 26.0333 39.6H25.3V17.6935C26.5615 18.0213 27.5 19.173 27.5 20.5334V34.2467C27.5 38.2067 30.5067 41.5067 34.32 41.8C34.4667 41.8 34.6867 41.8 34.8333 41.8C36.74 41.8 38.5 41.14 39.82 39.82C41.2867 38.4267 42.1667 36.52 42.1667 34.4667V17.6H42.9C43.34 17.6 43.6333 17.3067 43.6333 16.8667C43.6333 12.76 37.9867 8.0667 33.5867 7.3333ZM25.3 42.5333H1.83331V41.0666H2.56661H24.5666H25.2999V42.5333H25.3ZM3.3 39.6V1.4667H23.8333V13.9334V16.8667V39.6H3.3ZM41.4333 16.1333C40.9933 16.1333 40.7 16.4266 40.7 16.8666V34.54C40.7 36.1533 40.04 37.6933 38.8667 38.7933C37.6934 39.8933 36.1534 40.48 34.4667 40.3333C31.3867 40.1133 28.9667 37.4733 28.9667 34.2466V20.5333C28.9667 18.3333 27.3534 16.5733 25.3 16.2066V14.74C28.16 15.1067 30.4333 17.5267 30.4333 20.5333V34.54C30.4333 35.7133 30.9466 36.96 31.9 37.7667C32.78 38.5734 34.0267 39.0134 35.2733 38.8667C37.4733 38.6467 39.2333 36.6667 39.2333 34.32V16.8667C39.2333 14.3734 36.08 9.68 33.3666 8.87339C36.8133 9.38669 41.4333 12.9801 42.0933 16.1334L41.4333 16.1333Z" fill="white"/>
<path d="M9.90005 24.9333H17.2334C17.6734 24.9333 17.9667 24.64 17.9667 24.2C17.9667 23.76 17.6734 23.4667 17.2334 23.4667H9.90005C9.46005 23.4667 9.16675 23.76 9.16675 24.2C9.16675 24.64 9.46005 24.9333 9.90005 24.9333Z" fill="white"/>
<path d="M9.90005 28.6H17.2334C17.6734 28.6 17.9667 28.3067 17.9667 27.8667C17.9667 27.4267 17.6734 27.1334 17.2334 27.1334H9.90005C9.46005 27.1334 9.16675 27.4267 9.16675 27.8667C9.16675 28.3067 9.46005 28.6 9.90005 28.6Z" fill="white"/>
<path d="M9.90005 32.2667H17.2334C17.6734 32.2667 17.9667 31.9734 17.9667 31.5334C17.9667 31.0934 17.6734 30.8 17.2334 30.8H9.90005C9.46005 30.8 9.16675 31.0934 9.16675 31.5334C9.16675 31.9734 9.46005 32.2667 9.90005 32.2667Z" fill="white"/>
</g>
<defs>
<clipPath id="clip0_142_6569">
<rect width="44" height="44" fill="white"/>
</clipPath>
</defs>
</svg>
