<svg width="44" height="44" viewBox="0 0 44 44" fill="none" xmlns="http://www.w3.org/2000/svg">
<path d="M27.8334 38.6458C27.2811 38.6458 26.8334 39.0936 26.8334 39.6458C26.8334 40.1981 27.2811 40.6458 27.8334 40.6458V38.6458ZM15.3334 40.6458C15.8857 40.6458 16.3334 40.1981 16.3334 39.6458C16.3334 39.0936 15.8857 38.6458 15.3334 38.6458V40.6458ZM17 37.2847C17.5523 37.2847 18 36.837 18 36.2847C18 35.7324 17.5523 35.2847 17 35.2847V37.2847ZM24.5 35.2847C23.9478 35.2847 23.5 35.7324 23.5 36.2847C23.5 36.837 23.9478 37.2847 24.5 37.2847V35.2847ZM13.6667 43.1667H30.1667V41.1667H13.6667V43.1667ZM32.1667 41.1667V40.4792H30.1667V41.1667H32.1667ZM13.8334 41.3333V40.6458H11.8334V41.3333H13.8334ZM13.8334 40.6458H14.0834V38.6458H13.8334V40.6458ZM14.0834 40.6458H15.3334V38.6458H14.0834V40.6458ZM15.0834 39.6458V37.2847H13.0834V39.6458H15.0834ZM15.0834 37.2847H15.3334V35.2847H15.0834V37.2847ZM15.3334 37.2847H17V35.2847H15.3334V37.2847ZM16.3334 36.2847V33.9236H14.3334V36.2847H16.3334ZM27.6667 33.9236V35.4445H29.6667V33.9236H27.6667ZM27.6667 35.4445V36.2847H29.6667V35.4445H27.6667ZM28.6667 35.2847H24.5V37.2847H28.6667V35.2847ZM28.6667 37.2847H29.3334V35.2847H28.6667V37.2847ZM30.3334 38.6458H27.8334V40.6458H30.3334V38.6458ZM29.3334 37.2847V39.6458H31.3334V37.2847H29.3334ZM24.5 33.9236H27.6667V31.9236H24.5V33.9236ZM25.5 32.9236V12.757H23.5V32.9236H25.5ZM16.3334 33.9236H19.9167V31.9236H16.3334V33.9236ZM19.9167 33.9236H24.5V31.9236H19.9167V33.9236ZM20.9167 32.9236V12.757H18.9167V32.9236H20.9167ZM16.3334 33.9236L16.3334 33.9236V31.9236C15.2288 31.9236 14.3334 32.819 14.3334 33.9236H16.3334ZM15.0834 37.2847L15.0834 37.2847V35.2847C13.9788 35.2847 13.0834 36.1802 13.0834 37.2847H15.0834ZM29.3334 37.2847L29.3334 37.2847H31.3334C31.3334 36.1802 30.4379 35.2847 29.3334 35.2847V37.2847ZM13.8334 40.6458L13.8334 40.6458V38.6458C12.7288 38.6458 11.8334 39.5413 11.8334 40.6458H13.8334ZM13.6667 41.1667C13.7588 41.1667 13.8334 41.2413 13.8334 41.3333H11.8334C11.8334 42.3459 12.6542 43.1667 13.6667 43.1667V41.1667ZM32.1667 40.4792C32.1667 39.4667 31.3459 38.6458 30.3334 38.6458V40.6458C30.2413 40.6458 30.1667 40.5712 30.1667 40.4792H32.1667ZM29.6667 33.9236C29.6667 32.819 28.7713 31.9236 27.6667 31.9236V33.9236L27.6667 33.9236H29.6667ZM30.1667 43.1667C31.2713 43.1667 32.1667 42.2712 32.1667 41.1667H30.1667L30.1667 41.1667V43.1667Z" fill="white"/>
<ellipse cx="22" cy="7.71532" rx="5.83333" ry="5.88195" stroke="white" stroke-width="2"/>
<path d="M25.6667 7.33337C25.6667 8.5556 24.9333 11 22 11" stroke="white" stroke-width="2" stroke-linecap="round"/>
</svg>
