<svg width="30" height="30" viewBox="0 0 30 30" fill="none" xmlns="http://www.w3.org/2000/svg">
<g clip-path="url(#clip0_68_6230)">
<mask id="mask0_68_6230" style="mask-type:luminance" maskUnits="userSpaceOnUse" x="0" y="0" width="30" height="30">
<path d="M29.446 12.2727H15.4688V18.0682H23.5142C22.7642 21.75 19.6278 23.8636 15.4688 23.8636C10.5597 23.8636 6.60512 19.9091 6.60512 15C6.60512 10.0909 10.5597 6.13637 15.4688 6.13637C17.5824 6.13637 19.4915 6.88637 20.9915 8.11364L25.3551 3.75C22.696 1.43182 19.2869 0 15.4688 0C7.15057 0 0.46875 6.68182 0.46875 15C0.46875 23.3182 7.15057 30 15.4688 30C22.9688 30 29.7869 24.5455 29.7869 15C29.7869 14.1136 29.6506 13.1591 29.446 12.2727Z" fill="white"/>
</mask>
<g mask="url(#mask0_68_6230)">
<path d="M-0.894897 23.8636V6.13635L10.696 15L-0.894897 23.8636Z" fill="#FBBC05"/>
</g>
<mask id="mask1_68_6230" style="mask-type:luminance" maskUnits="userSpaceOnUse" x="0" y="0" width="30" height="30">
<path d="M29.446 12.2727H15.4688V18.0682H23.5142C22.7642 21.75 19.6278 23.8636 15.4688 23.8636C10.5597 23.8636 6.60512 19.9091 6.60512 15C6.60512 10.0909 10.5597 6.13637 15.4688 6.13637C17.5824 6.13637 19.4915 6.88637 20.9915 8.11364L25.3551 3.75C22.696 1.43182 19.2869 0 15.4688 0C7.15057 0 0.46875 6.68182 0.46875 15C0.46875 23.3182 7.15057 30 15.4688 30C22.9688 30 29.7869 24.5455 29.7869 15C29.7869 14.1136 29.6506 13.1591 29.446 12.2727Z" fill="white"/>
</mask>
<g mask="url(#mask1_68_6230)">
<path d="M-0.894897 6.13636L10.696 15L15.4687 10.8409L31.8324 8.18181V-1.36365H-0.894897V6.13636Z" fill="#EA4335"/>
</g>
<mask id="mask2_68_6230" style="mask-type:luminance" maskUnits="userSpaceOnUse" x="0" y="0" width="30" height="30">
<path d="M29.446 12.2727H15.4688V18.0682H23.5142C22.7642 21.75 19.6278 23.8636 15.4688 23.8636C10.5597 23.8636 6.60512 19.9091 6.60512 15C6.60512 10.0909 10.5597 6.13637 15.4688 6.13637C17.5824 6.13637 19.4915 6.88637 20.9915 8.11364L25.3551 3.75C22.696 1.43182 19.2869 0 15.4688 0C7.15057 0 0.46875 6.68182 0.46875 15C0.46875 23.3182 7.15057 30 15.4688 30C22.9688 30 29.7869 24.5455 29.7869 15C29.7869 14.1136 29.6506 13.1591 29.446 12.2727Z" fill="white"/>
</mask>
<g mask="url(#mask2_68_6230)">
<path d="M-0.894897 23.8636L19.5597 8.18181L24.946 8.86363L31.8324 -1.36365V31.3636H-0.894897V23.8636Z" fill="#34A853"/>
</g>
<mask id="mask3_68_6230" style="mask-type:luminance" maskUnits="userSpaceOnUse" x="0" y="0" width="30" height="30">
<path d="M29.446 12.2727H15.4688V18.0682H23.5142C22.7642 21.75 19.6278 23.8636 15.4688 23.8636C10.5597 23.8636 6.60512 19.9091 6.60512 15C6.60512 10.0909 10.5597 6.13637 15.4688 6.13637C17.5824 6.13637 19.4915 6.88637 20.9915 8.11364L25.3551 3.75C22.696 1.43182 19.2869 0 15.4688 0C7.15057 0 0.46875 6.68182 0.46875 15C0.46875 23.3182 7.15057 30 15.4688 30C22.9688 30 29.7869 24.5455 29.7869 15C29.7869 14.1136 29.6506 13.1591 29.446 12.2727Z" fill="white"/>
</mask>
<g mask="url(#mask3_68_6230)">
<path d="M31.8324 31.3636L10.696 15L7.96875 12.9545L31.8324 6.13635V31.3636Z" fill="#4285F4"/>
</g>
</g>
<defs>
<clipPath id="clip0_68_6230">
<rect width="30" height="30" fill="white"/>
</clipPath>
</defs>
</svg>
