<svg width="24" height="24" viewBox="0 0 24 24" fill="none" xmlns="http://www.w3.org/2000/svg">
<path fill-rule="evenodd" clip-rule="evenodd" d="M15.75 9V7.5C15.75 6.50544 15.3549 5.55161 14.6517 4.84835C13.9484 4.14509 12.9946 3.75 12 3.75C11.0054 3.75 10.0516 4.14509 9.34835 4.84835C8.64509 5.55161 8.25 6.50544 8.25 7.5V9H15.75ZM6 7.5V9C4.80653 9 3.66193 9.47411 2.81802 10.318C1.97411 11.1619 1.5 12.3065 1.5 13.5V18C1.5 19.1935 1.97411 20.3381 2.81802 21.182C3.66193 22.0259 4.80653 22.5 6 22.5H18C19.1935 22.5 20.3381 22.0259 21.182 21.182C22.0259 20.3381 22.5 19.1935 22.5 18V13.5C22.5 12.3065 22.0259 11.1619 21.182 10.318C20.3381 9.47411 19.1935 9 18 9V7.5C18 5.9087 17.3679 4.38258 16.2426 3.25736C15.1174 2.13214 13.5913 1.5 12 1.5C10.4087 1.5 8.88258 2.13214 7.75736 3.25736C6.63214 4.38258 6 5.9087 6 7.5ZM15.75 11.25H18C18.5967 11.25 19.169 11.4871 19.591 11.909C20.0129 12.331 20.25 12.9033 20.25 13.5V18C20.25 18.5967 20.0129 19.169 19.591 19.591C19.169 20.0129 18.5967 20.25 18 20.25H6C5.40326 20.25 4.83097 20.0129 4.40901 19.591C3.98705 19.169 3.75 18.5967 3.75 18V13.5C3.75 12.9033 3.98705 12.331 4.40901 11.909C4.83097 11.4871 5.40326 11.25 6 11.25H15.75ZM13.125 14.25C13.125 13.9516 13.0065 13.6655 12.7955 13.4545C12.5845 13.2435 12.2984 13.125 12 13.125C11.7016 13.125 11.4155 13.2435 11.2045 13.4545C10.9935 13.6655 10.875 13.9516 10.875 14.25V17.25C10.875 17.5484 10.9935 17.8345 11.2045 18.0455C11.4155 18.2565 11.7016 18.375 12 18.375C12.2984 18.375 12.5845 18.2565 12.7955 18.0455C13.0065 17.8345 13.125 17.5484 13.125 17.25V14.25Z" fill="white"/>
</svg>
