<svg width="256" height="256" viewBox="0 0 256 256" fill="none" xmlns="http://www.w3.org/2000/svg">
<path d="M34.8735 101.33L45.4672 82.166L121.534 83.4305L152.613 95.1482L173.041 112.121L99.1382 116.532L45.411 109.676L34.8735 101.33Z" fill="#20241E"/>
<path d="M237.953 117.344L173.432 102.71L139.535 83.0399C132.937 79.2127 125.423 77.1895 117.803 77.1895H51.6832C38.347 77.1895 25.9605 83.1916 17.6963 93.6589L8.23219 105.646C5.30417 109.358 3.5704 113.809 3.22196 118.522L1.44885 142.429C0.940244 149.3 5.43062 155.476 12.1269 157.109L22.9482 159.744L77.9455 162.006H174.857L229.385 161.02L242.44 159.604C249.207 158.868 254.307 153.18 254.307 146.377V137.826C254.307 127.952 247.582 119.528 237.953 117.344ZM117.8 85.6195C123.94 85.6195 129.99 87.2493 135.303 90.329L162.26 105.969C156.769 107.768 151.062 108.701 145.228 108.701H106.987L104.649 85.6195H117.8ZM50.5677 96.9466L54.7265 85.6195H96.1768L98.5147 108.701H58.7729C55.8758 108.701 53.2653 107.338 51.6045 104.963C49.9495 102.589 49.5673 99.6666 50.5677 96.9466Z" fill="#F7931E"/>
<path d="M242.44 142.744L229.385 144.16L174.857 145.147H77.9426L22.9452 142.885L12.1239 140.249C7.3975 139.097 3.81475 135.663 2.26925 131.338L1.44592 142.432C0.937315 149.303 5.42769 155.479 12.1239 157.112L22.9452 159.747L77.9426 162.01H174.854L229.382 161.023L242.437 159.607C249.206 158.868 254.307 153.181 254.307 146.378V137.827C254.307 136.228 254.071 134.691 253.736 133.19C252.278 138.262 247.934 142.146 242.44 142.744Z" fill="#F7931E"/>
<path d="M204.758 178.524C191.587 178.524 180.87 167.809 180.87 154.642C180.87 141.471 191.585 130.754 204.758 130.754C217.926 130.754 228.64 141.468 228.64 154.642C228.643 167.807 217.926 178.524 204.758 178.524Z" fill="#20241E"/>
<path d="M48.3083 178.524C35.1379 178.524 24.4233 167.809 24.4233 154.639C24.4233 141.468 35.1379 130.751 48.3083 130.751C61.4788 130.751 72.1933 141.466 72.1933 154.639C72.1933 167.806 61.4788 178.524 48.3083 178.524Z" fill="#20241E"/>
<path d="M204.73 167.09C201.493 167.09 198.253 165.795 195.96 163.454C195.361 162.903 194.864 162.257 194.417 161.56C193.97 160.86 193.571 160.163 193.268 159.413C192.922 158.668 192.723 157.87 192.523 157.072C192.371 156.274 192.324 155.428 192.324 154.628C192.324 151.343 193.619 148.151 195.96 145.858C198.851 142.918 203.139 141.575 207.175 142.421C207.973 142.567 208.771 142.82 209.515 143.118C210.266 143.469 211.013 143.815 211.662 144.262C212.359 144.714 213.005 145.259 213.556 145.858C215.897 148.151 217.192 151.343 217.192 154.628C217.192 155.426 217.144 156.271 216.945 157.072C216.799 157.87 216.546 158.668 216.248 159.413C215.947 160.163 215.551 160.857 215.099 161.56C214.652 162.257 214.155 162.903 213.556 163.454C211.263 165.795 208.02 167.09 204.73 167.09Z" fill="#50534E"/>
<path d="M48.3112 167.034C45.0291 167.034 41.7948 165.693 39.5075 163.406C37.2201 161.119 35.877 157.884 35.877 154.599C35.877 151.32 37.2201 148.134 39.5075 145.799C44.1299 141.173 52.4869 141.173 57.1149 145.799C59.4023 148.134 60.7455 151.32 60.7455 154.599C60.7455 157.882 59.4023 161.068 57.1149 163.406C54.777 165.693 51.5933 167.034 48.3112 167.034Z" fill="#50534E"/>
<path d="M229.002 122.599C232.56 126.932 237.874 129.447 243.48 129.447H252.511C251.387 126.856 249.788 124.527 247.754 122.599H229.002Z" fill="#CED6CE"/>
<path d="M7.833 112.66H4.46662C3.82313 114.548 3.36791 116.504 3.21898 118.525L2.6626 126.036H7.83581C10.2018 126.036 12.1182 124.119 12.1182 121.753V116.945C12.1154 114.577 10.199 112.66 7.833 112.66Z" fill="#F7931E"/>
</svg>
