<svg width="24" height="24" viewBox="0 0 24 24" fill="none" xmlns="http://www.w3.org/2000/svg">
<path d="M12 10.75C12.1989 10.75 12.3897 10.829 12.5303 10.9697C12.671 11.1103 12.75 11.3011 12.75 11.5V16.5C12.75 16.6989 12.671 16.8897 12.5303 17.0303C12.3897 17.171 12.1989 17.25 12 17.25C11.8011 17.25 11.6103 17.171 11.4697 17.0303C11.329 16.8897 11.25 16.6989 11.25 16.5V11.5C11.25 11.3011 11.329 11.1103 11.4697 10.9697C11.6103 10.829 11.8011 10.75 12 10.75ZM12 9C12.2652 9 12.5196 8.89464 12.7071 8.70711C12.8946 8.51957 13 8.26522 13 8C13 7.73478 12.8946 7.48043 12.7071 7.29289C12.5196 7.10536 12.2652 7 12 7C11.7348 7 11.4804 7.10536 11.2929 7.29289C11.1054 7.48043 11 7.73478 11 8C11 8.26522 11.1054 8.51957 11.2929 8.70711C11.4804 8.89464 11.7348 9 12 9Z" fill="white"/>
<path fill-rule="evenodd" clip-rule="evenodd" d="M7.31702 3.76904C10.4295 3.42399 13.5706 3.42399 16.683 3.76904C18.51 3.97304 19.985 5.41104 20.199 7.24904C20.569 10.405 20.569 13.595 20.199 16.752C19.984 18.588 18.509 20.027 16.683 20.232C13.5706 20.5771 10.4295 20.5771 7.31702 20.232C5.49002 20.027 4.01502 18.588 3.80102 16.752C3.43172 13.5948 3.43172 10.4053 3.80102 7.24804C4.01502 5.41104 5.49102 3.97304 7.31702 3.76804M16.517 5.25804C13.5149 4.92527 10.4852 4.92527 7.48302 5.25804C6.92727 5.31969 6.40852 5.56691 6.0106 5.95975C5.61268 6.35259 5.35881 6.86812 5.29002 7.42304C4.93437 10.464 4.93437 13.5361 5.29002 16.577C5.35923 17.1316 5.61328 17.6467 6.01117 18.0391C6.40905 18.4315 6.92756 18.6785 7.48302 18.74C10.46 19.073 13.54 19.073 16.517 18.74C17.0723 18.6783 17.5906 18.4312 17.9883 18.0388C18.386 17.6464 18.6399 17.1314 18.709 16.577C19.0647 13.5361 19.0647 10.464 18.709 7.42304C18.6401 6.86845 18.3863 6.35327 17.9886 5.96065C17.5908 5.56802 17.0725 5.31986 16.517 5.25804Z" fill="white"/>
</svg>
