<svg width="256" height="256" viewBox="0 0 256 256" fill="none" xmlns="http://www.w3.org/2000/svg">
<path d="M50.8628 120.073H203.727L184.675 105.123L168.04 94.6982H52.7455L50.8628 120.073Z" fill="#20241E"/>
<path d="M231.967 115.599L201.617 110.314L179.342 97.3904C173.134 93.7852 166.056 91.8828 158.874 91.8828H50.565C46.0465 91.8828 41.7303 93.5716 38.4117 96.6373L25.0783 108.959H14.7937C9.0697 108.959 4.2365 113.244 3.55086 118.929L1.50518 135.913C0.777387 141.957 4.02013 147.695 9.57269 150.19L11.7926 151.188L57.2696 155.448H200.251L244.832 153.987L245.054 153.95C250.415 153.093 254.307 148.53 254.307 143.103V142.165C254.307 129.025 244.91 117.853 231.967 115.599ZM145.535 100.31H158.874C164.569 100.31 170.184 101.822 175.11 104.68L190.514 113.618C188.196 114.267 185.81 114.624 183.374 114.624H145.535V100.31ZM102.367 100.31H137.105V114.624H102.367V100.31ZM61.1053 107.172L63.4544 100.313H93.9373V114.627H66.4302C64.5897 114.627 62.9177 113.767 61.8499 112.269C60.7793 110.769 60.5068 108.911 61.1053 107.172Z" fill="#F7931E"/>
<path d="M245.056 142.71L244.834 142.746L200.254 144.208H57.2726L11.7927 139.945L9.57281 138.947C5.93948 137.315 3.32337 134.283 2.13474 130.694L1.50811 135.91C0.780317 141.954 4.02306 147.692 9.57562 150.187L11.7955 151.185L57.2726 155.445H200.254L244.834 153.984L245.056 153.947C250.415 153.093 254.307 148.529 254.307 143.103V142.165C254.307 140.001 254.029 137.899 253.545 135.873C252.169 139.411 249.019 142.078 245.056 142.71Z" fill="#F7931E"/>
<path d="M220.578 164.353C211.283 164.353 203.718 156.788 203.718 147.493C203.718 138.197 211.283 130.633 220.578 130.633C229.874 130.633 237.438 138.197 237.438 147.493C237.435 156.791 229.874 164.353 220.578 164.353Z" fill="#20241E"/>
<path d="M41.9382 164.353C32.6428 164.353 25.0811 156.791 25.0811 147.493C25.0811 138.197 32.6428 130.636 41.9382 130.636C51.2337 130.636 58.7982 138.197 58.7982 147.493C58.7954 156.791 51.2337 164.353 41.9382 164.353Z" fill="#20241E"/>
<path d="M41.9385 156.423C37.0154 156.423 33.0083 152.416 33.0083 147.493C33.0083 142.57 37.0154 138.562 41.9385 138.562C46.8616 138.562 50.8687 142.57 50.8687 147.493C50.8658 152.419 46.8616 156.423 41.9385 156.423Z" fill="#50534E"/>
<path d="M220.579 156.423C215.656 156.423 211.648 152.416 211.648 147.493C211.648 142.57 215.656 138.562 220.579 138.562C225.502 138.562 229.509 142.57 229.509 147.493C229.506 152.419 225.502 156.423 220.579 156.423Z" fill="#50534E"/>
<path d="M242.8 120.059H226.811C231.863 126.212 243.368 130.2 252.093 131.498C250.114 126.893 246.9 122.922 242.8 120.059Z" fill="#CED6CE"/>
<path d="M9.879 125.867C11.8685 125.867 13.4814 124.254 13.4814 122.264V118.218C13.4814 116.257 11.9134 114.669 9.9633 114.624H5.0177C4.26743 115.917 3.73915 117.361 3.55088 118.926L2.71631 125.867H9.879Z" fill="#F7931E"/>
</svg>
