<svg width="17" height="21" viewBox="0 0 17 21" fill="none" xmlns="http://www.w3.org/2000/svg">
<path d="M8.50008 10.5C9.073 10.5 9.56362 10.2959 9.97196 9.88754C10.3796 9.4799 10.5834 8.98962 10.5834 8.41671C10.5834 7.84379 10.3796 7.35317 9.97196 6.94483C9.56362 6.53719 9.073 6.33337 8.50008 6.33337C7.92716 6.33337 7.43689 6.53719 7.02925 6.94483C6.62091 7.35317 6.41675 7.84379 6.41675 8.41671C6.41675 8.98962 6.62091 9.4799 7.02925 9.88754C7.43689 10.2959 7.92716 10.5 8.50008 10.5ZM8.50008 20.5261C8.36119 20.5261 8.2223 20.5 8.08342 20.448C7.94453 20.3959 7.823 20.3264 7.71883 20.2396C5.18411 18 3.29175 15.9212 2.04175 14.0032C0.791748 12.0844 0.166748 10.2917 0.166748 8.62504C0.166748 6.02087 1.0046 3.94622 2.68029 2.40108C4.35529 0.855943 6.29522 0.083374 8.50008 0.083374C10.7049 0.083374 12.6449 0.855943 14.3199 2.40108C15.9956 3.94622 16.8334 6.02087 16.8334 8.62504C16.8334 10.2917 16.2084 12.0844 14.9584 14.0032C13.7084 15.9212 11.8161 18 9.28133 20.2396C9.17716 20.3264 9.05564 20.3959 8.91675 20.448C8.77786 20.5 8.63897 20.5261 8.50008 20.5261Z" fill="white"/>
</svg>
