<svg width="24" height="24" viewBox="0 0 24 24" fill="none" xmlns="http://www.w3.org/2000/svg">
<path d="M14.491 15.5H14.5M9.5 15.5H9.509M4.268 18.845C4.493 20.515 5.876 21.824 7.56 21.901C8.976 21.966 10.415 22 12 22C13.585 22 15.024 21.966 16.44 21.9C18.124 21.824 19.507 20.515 19.732 18.845C19.879 17.755 20 16.638 20 15.5C20 14.362 19.879 13.245 19.732 12.155C19.507 10.485 18.124 9.17599 16.44 9.09899C14.961 9.0314 13.4806 8.99839 12 8.99999C10.415 8.99999 8.976 9.034 7.56 9.1C5.876 9.176 4.493 10.485 4.268 12.155C4.12 13.245 4 14.362 4 15.5C4 16.638 4.121 17.755 4.268 18.845Z" stroke="#263238" stroke-width="1.5" stroke-linecap="round" stroke-linejoin="round"/>
<path d="M8 9V6.5C8 5.30653 8.47411 4.16193 9.31802 3.31802C10.1619 2.47411 11.3065 2 12.5 2C13.6935 2 14.8381 2.47411 15.682 3.31802C16.5259 4.16193 17 5.30653 17 6.5V9" stroke="#263238" stroke-width="1.5" stroke-linecap="round" stroke-linejoin="round"/>
</svg>
