<svg width="256" height="256" viewBox="0 0 256 256" fill="none" xmlns="http://www.w3.org/2000/svg">
<path d="M54.0942 94.558L61.8779 75.3657L137.945 76.6302L169.023 88.376L189.452 105.348L115.577 109.732L64.6317 111.334L54.0942 94.558Z" fill="#20241E"/>
<path d="M216.026 108.589L195.412 103.258L182.053 91.6555C164.626 76.5209 142.317 68.1836 119.239 68.1836H69.9174C69.8556 68.1836 69.7966 68.192 69.7348 68.192C69.687 68.1948 69.6421 68.1948 69.5943 68.1976C61.2092 68.2819 53.3272 71.5612 47.3728 77.4819L23.8194 100.895C13.4168 111.238 6.53507 124.336 3.91615 138.771L1.62038 151.438C0.631261 156.898 3.14621 162.507 7.88387 165.401L13.2763 168.694L73.3709 174.652H178.294L236.949 173.188L242.078 172.37C249.162 171.238 254.307 165.21 254.307 158.036C254.304 134.752 238.565 114.419 216.026 108.589ZM119.239 76.6136C140.285 76.6136 160.633 84.2146 176.529 98.0174L182.121 102.876H117.645L113.933 76.6136H119.239ZM65.93 96.4634L72.9045 76.6136H105.419L109.131 102.876H70.471C68.889 102.876 67.4559 102.134 66.5426 100.844C65.6294 99.5516 65.4046 97.9555 65.93 96.4634Z" fill="#F7931E"/>
<path d="M242.078 152.697L236.95 153.515L178.294 154.979H73.371L13.2764 149.021L7.88399 145.728C6.04625 144.607 4.55414 143.067 3.46105 141.294L1.62331 151.435C0.634191 156.895 3.14914 162.504 7.8868 165.398L13.2792 168.691L73.3738 174.649H178.296L236.952 173.185L242.081 172.367C249.165 171.234 254.31 165.207 254.31 158.033C254.31 153.576 253.722 149.232 252.632 145.073C250.57 149.027 246.771 151.947 242.078 152.697Z" fill="#F7931E"/>
<path d="M207.29 187.53C192.72 187.53 180.87 175.677 180.87 161.11C180.87 146.543 192.723 134.69 207.29 134.69C221.857 134.69 233.709 146.543 233.709 161.11C233.709 175.677 221.857 187.53 207.29 187.53Z" fill="#20241E"/>
<path d="M44.3718 187.53C29.8019 187.53 17.9521 175.677 17.9521 161.11C17.9521 146.543 29.8047 134.69 44.3718 134.69C58.9388 134.69 70.7914 146.543 70.7914 161.11C70.7914 175.677 58.9416 187.53 44.3718 187.53Z" fill="#20241E"/>
<path d="M207.292 173.741C206.449 173.741 205.609 173.654 204.806 173.486C204.008 173.362 203.204 173.106 202.448 172.769C201.687 172.477 200.97 172.095 200.253 171.634C199.579 171.167 198.907 170.622 198.357 170.074C195.999 167.711 194.647 164.426 194.647 161.096C194.647 160.293 194.735 159.45 194.903 158.652C195.072 157.848 195.283 157.05 195.62 156.288C195.912 155.53 196.336 154.774 196.755 154.099C197.221 153.383 197.767 152.751 198.357 152.161C198.907 151.568 199.579 151.065 200.253 150.601C200.97 150.135 201.687 149.758 202.448 149.421C203.207 149.129 204.008 148.873 204.806 148.704C208.939 147.906 213.278 149.252 216.228 152.161C216.821 152.748 217.324 153.383 217.788 154.099C218.254 154.774 218.631 155.533 218.968 156.288C219.26 157.05 219.516 157.848 219.685 158.652C219.853 159.45 219.935 160.293 219.935 161.096C219.935 164.426 218.589 167.669 216.225 170.074C215.638 170.622 215.003 171.17 214.287 171.634C213.612 172.095 212.896 172.477 212.137 172.769C211.333 173.106 210.577 173.362 209.734 173.486C208.939 173.654 208.096 173.741 207.292 173.741Z" fill="#50534E"/>
<path d="M44.3691 173.741C41.0393 173.741 37.7937 172.393 35.4333 170.032C34.8432 169.481 34.3374 168.81 33.8738 168.135C33.4101 167.461 33.0308 166.702 32.6936 165.941C32.3985 165.182 32.1428 164.381 31.9742 163.583C31.8084 162.78 31.7241 161.942 31.7241 161.096C31.7241 157.809 33.0729 154.518 35.4333 152.161C36.0234 151.568 36.6557 151.065 37.3722 150.601C38.0466 150.135 38.7632 149.758 39.5219 149.421C40.2806 149.129 41.0814 148.873 41.9244 148.704C46.013 147.906 50.3966 149.252 53.3049 152.161C55.6653 154.518 57.0169 157.766 57.0169 161.096C57.0169 161.939 56.9326 162.78 56.764 163.583C56.5954 164.381 56.3847 165.185 56.0475 165.941C55.7524 166.702 55.3281 167.461 54.9094 168.135C54.443 168.81 53.8978 169.481 53.3049 170.032C52.7176 170.619 52.0826 171.167 51.4082 171.634C50.6916 172.095 49.9751 172.477 49.2164 172.769C48.4577 173.106 47.6568 173.362 46.856 173.486C46.013 173.654 45.2121 173.741 44.3691 173.741Z" fill="#50534E"/>
<path d="M246.214 130.473C243.98 126.991 241.333 123.791 238.324 120.944H217.333C222.284 126.977 229.68 130.473 237.484 130.473H246.214Z" fill="#CED6CE"/>
<path d="M13.9621 131.88C17.1627 131.88 19.7535 129.287 19.7535 126.089V119.584C19.7535 116.383 17.1599 113.792 13.9621 113.792H13.5434C10.0506 119.398 7.38949 125.482 5.56299 131.883L13.9621 131.88Z" fill="#F7931E"/>
</svg>
