<svg width="29" height="28" viewBox="0 0 29 28" fill="none" xmlns="http://www.w3.org/2000/svg">
<path d="M28.2885 13.0309C28.0976 12.6845 27.8076 12.4936 27.4702 12.4936L17.9413 12.5149C17.7306 12.5149 17.5318 12.3949 17.3816 12.177C17.2313 11.9591 17.1486 11.6706 17.1486 11.3649V9.53005C17.1486 8.55119 16.5997 7.75487 15.9206 7.75487L15.7814 7.75548C15.1053 7.75897 14.5545 8.56014 14.5539 9.54113L14.5526 11.5249C14.5521 12.1604 14.1954 12.6775 13.7573 12.6775H8.3054C8.11524 12.6775 8.00667 12.6067 7.98617 12.5408C7.96577 12.475 8.00134 12.31 8.12769 12.1038L10.8937 7.58477C11.3311 6.87024 11.4363 5.77181 11.1332 5.08399C10.9808 4.73802 10.7387 4.53955 10.4693 4.53955C10.1883 4.53955 9.89892 4.75608 9.67498 5.1336L5.81172 11.6483C5.47941 12.2087 4.77935 12.8229 4.28304 12.99L1.65223 13.8745C1.01692 14.0878 0.5 15.0315 0.5 15.9777V22.6305C0.5 23.6124 1.0506 24.411 1.72733 24.411H3.68789C4.10376 26.4819 5.42304 27.9999 6.98288 27.9999C8.54273 27.9999 9.862 26.4817 10.2779 24.411H17.6889C18.1048 26.4819 19.4241 27.9999 20.9839 27.9999C22.5438 27.9999 23.8631 26.4817 24.2789 24.411H25.7157C26.3685 24.411 27.0164 23.6594 27.1601 22.7355L28.4702 14.3051C28.5441 13.83 28.4795 13.3775 28.2885 13.0309ZM6.98288 25.4939C6.04131 25.4939 5.27807 24.3864 5.27807 23.0206C5.27807 21.6545 6.04131 20.5473 6.98288 20.5473C7.92446 20.5473 8.6877 21.6545 8.6877 23.0206C8.6877 24.3865 7.92446 25.4939 6.98288 25.4939ZM20.9838 25.4939C20.0423 25.4939 19.279 24.3864 19.279 23.0206C19.279 21.6545 20.0423 20.5473 20.9838 20.5473C21.9254 20.5473 22.6887 21.6545 22.6887 23.0206C22.6887 24.3865 21.9254 25.4939 20.9838 25.4939Z" fill="white" stroke="white" stroke-width="0.00799988"/>
<path d="M23.387 5.87826C23.4024 5.87826 23.4183 5.87128 23.4332 5.86384C23.4821 5.83971 23.5255 5.80603 23.5621 5.764C23.5981 5.72273 23.6279 5.67174 23.6505 5.61256C23.6725 5.55505 23.6836 5.48161 23.6836 5.39437C23.6836 5.23808 23.6226 5.11259 23.4971 5.01047C23.4722 4.9871 23.4449 4.96358 23.4141 4.93885C23.4043 4.93096 23.3814 4.9126 23.362 4.9126C23.3194 4.9126 23.313 5.03323 23.313 5.10515V5.61454C23.3131 5.78949 23.3379 5.87826 23.387 5.87826Z" fill="white" stroke="white" stroke-width="0.00799988"/>
<path d="M18.0849 6.134L20.3845 8.37744C20.5703 8.55876 20.8916 8.70094 21.1157 8.70094H25.4363C25.7257 8.70094 25.9611 8.35938 25.9611 7.93952V0.76142C25.9611 0.341562 25.7257 0 25.4363 0H21.1157C20.8915 0 20.5703 0.142178 20.3846 0.323505L18.0848 2.56695C17.8764 2.77043 17.7192 3.19848 17.7192 3.56295V5.13814C17.7191 5.50246 17.8763 5.93067 18.0849 6.134ZM22.6798 4.49068C22.4139 4.32786 22.2091 4.16596 22.0652 4.00618C21.8502 3.76765 21.7412 3.42244 21.7412 2.98043C21.7412 2.76163 21.7728 2.56315 21.8349 2.39078C21.8965 2.21901 21.9786 2.07046 22.0788 1.94892C22.1792 1.82814 22.2945 1.72935 22.4214 1.655C22.548 1.58126 22.6962 1.53923 22.7025 1.53756C22.749 1.52466 22.7882 1.45562 22.7882 1.38688V1.18826C22.7882 1.0781 22.8501 0.988571 22.926 0.988571H23.1753C23.2512 0.988571 23.3129 1.07825 23.3129 1.18826V1.37854C23.3129 1.49067 23.3638 1.51267 23.4206 1.52663C23.4889 1.54393 23.5484 1.56381 23.6014 1.58657C23.6919 1.62557 23.7779 1.67822 23.8567 1.74271C23.9362 1.8078 24.0142 1.88671 24.0886 1.9776C24.1623 2.06818 24.2499 2.1832 24.2499 2.1832C24.2774 2.21947 24.2928 2.26848 24.2935 2.32113C24.2942 2.37378 24.2799 2.42325 24.2535 2.46073L23.9947 2.82824C23.9045 2.95539 23.8088 2.96495 23.7253 2.85601C23.677 2.79379 23.6275 2.73189 23.5761 2.67089C23.4898 2.56801 23.3811 2.51126 23.3801 2.51065C23.3425 2.49168 23.3129 2.52051 23.3129 2.57969V3.48663C23.3129 3.66613 23.3595 3.69041 23.397 3.70999L23.41 3.71697C23.6272 3.84427 23.8309 4.00345 24.0155 4.19008C24.267 4.44758 24.3945 4.81691 24.3945 5.2876C24.3945 5.80442 24.2741 6.20425 24.0364 6.47601C23.8855 6.64702 23.6875 6.76371 23.4477 6.82304L23.4339 6.82607C23.38 6.83745 23.3129 6.85171 23.3129 7.03774V7.51284C23.3129 7.623 23.2511 7.71252 23.1753 7.71252H22.926C22.85 7.71252 22.7882 7.62285 22.7882 7.51284V7.10269C22.7882 6.84534 22.7004 6.82289 22.6364 6.8065L22.6172 6.80134C22.4564 6.75142 22.3103 6.67175 22.183 6.56432C22.0066 6.41608 21.7774 6.04553 21.7676 6.0299C21.7433 5.99 21.731 5.93901 21.7335 5.88606C21.7359 5.8328 21.7528 5.78454 21.7806 5.7498L22.0596 5.40368C22.1007 5.34359 22.1458 5.31218 22.1919 5.31218C22.2649 5.31218 22.3197 5.39215 22.3458 5.43995C22.3902 5.52098 22.4383 5.59335 22.4886 5.65481C22.5768 5.76239 22.7206 5.84038 22.722 5.84114C22.7592 5.86117 22.7882 5.83249 22.7882 5.77407V4.73528C22.7882 4.55608 22.7229 4.51662 22.6798 4.49068ZM19.043 3.36448C19.4178 3.36448 19.7227 3.80679 19.7227 4.35047C19.7227 4.8943 19.4178 5.33677 19.043 5.33677C18.6682 5.33677 18.3633 4.8943 18.3633 4.35047C18.3633 3.80679 18.6682 3.36448 19.043 3.36448Z" fill="white" stroke="white" stroke-width="0.00799988"/>
<path d="M22.8035 2.57115C22.8042 2.53383 22.7996 2.50636 22.79 2.4921C22.7828 2.48148 22.7717 2.47632 22.7559 2.47632C22.7314 2.47632 22.7039 2.48922 22.6876 2.49695C22.6451 2.51668 22.6067 2.54551 22.5736 2.58269C22.5403 2.61986 22.5119 2.66538 22.4896 2.71788C22.4679 2.76796 22.457 2.82774 22.457 2.89542C22.457 2.95884 22.4682 3.01438 22.4915 3.06491C22.5158 3.11787 22.5459 3.16475 22.5811 3.20481C22.617 3.24548 22.6573 3.2822 22.7013 3.31406L22.7469 3.34729C22.7506 3.34972 22.7553 3.35124 22.7596 3.35124C22.7667 3.35124 22.7727 3.34638 22.7777 3.33622C22.7846 3.32226 22.7885 3.30056 22.7885 3.27507L22.8035 2.57115Z" fill="white" stroke="white" stroke-width="0.00799988"/>
</svg>
