<svg width="25" height="24" viewBox="0 0 25 24" fill="none" xmlns="http://www.w3.org/2000/svg">
<path d="M18.257 0C16.0445 0 14.1074 1.11026 12.8999 2.98695C11.6924 1.11026 9.75526 0 7.54276 0C5.78157 0.00231647 4.09309 0.819769 2.84774 2.27302C1.6024 3.72626 0.901887 5.69663 0.899902 7.75183C0.899902 16.5039 12.0203 23.5881 12.4938 23.8806C12.6186 23.959 12.7582 24 12.8999 24C13.0416 24 13.1812 23.959 13.306 23.8806C13.7795 23.5881 24.8999 16.5039 24.8999 7.75183C24.8979 5.69663 24.1974 3.72626 22.9521 2.27302C21.7067 0.819769 20.0182 0.00231647 18.257 0ZM12.8999 21.8552C10.9435 20.5248 2.61419 14.4647 2.61419 7.75183C2.61589 6.22708 3.13569 4.76536 4.05961 3.6872C4.98353 2.60904 6.23614 2.00246 7.54276 2.00047C9.62669 2.00047 11.3763 3.29578 12.107 5.37627C12.1716 5.55972 12.2815 5.71663 12.4227 5.82706C12.5638 5.93749 12.7299 5.99645 12.8999 5.99645C13.0699 5.99645 13.236 5.93749 13.3772 5.82706C13.5183 5.71663 13.6282 5.55972 13.6928 5.37627C14.4235 3.29203 16.1731 2.00047 18.257 2.00047C19.5637 2.00246 20.8163 2.60904 21.7402 3.6872C22.6641 4.76536 23.1839 6.22708 23.1856 7.75183C23.1856 14.4547 14.8542 20.5236 12.8999 21.8552Z" fill="#A2A2A2"/>
</svg>
