<svg width="24" height="24" viewBox="0 0 24 24" fill="none" xmlns="http://www.w3.org/2000/svg">
<path d="M0 24V2.27113C0 1.6237 0.205778 1.08356 0.617333 0.6507C1.02889 0.217837 1.54089 0.000936933 2.15333 0H21.8467C22.46 0 22.972 0.2169 23.3827 0.6507C23.7933 1.0845 23.9991 1.62464 24 2.27113V17.4059C24 18.0524 23.7942 18.5925 23.3827 19.0263C22.9711 19.4601 22.4591 19.6765 21.8467 19.6756H4.10267L0 24ZM4.66667 14.7567H14V13.3513H4.66667V14.7567ZM4.66667 10.5405H19.3333V9.13509H4.66667V10.5405ZM4.66667 6.3243H19.3333V4.9189H4.66667V6.3243Z" fill="#A2A2A2"/>
</svg>
