<svg width="256" height="256" viewBox="0 0 256 256" fill="none" xmlns="http://www.w3.org/2000/svg">
<path d="M176.441 107.428L146.374 77.2766L125.973 75.8154H124.625L105.348 80.0585L102.538 96.4408L108.158 108.327L122.32 111.924H161.127L176.441 107.428Z" fill="#20241E"/>
<path d="M254.261 147.439L253.129 131.765C252.44 122.27 245.101 114.419 235.673 113.098L181.848 105.551L160.034 82.8825C154.596 77.2344 146.981 73.9917 139.141 73.9917H103.269C97.2975 73.9917 92.4418 78.8474 92.4418 84.8186V105.309H13.0762C6.64128 105.309 1.40625 110.541 1.40625 116.976V148.946C1.40625 158.162 8.90333 165.66 18.1342 165.66L32.749 165.612H240.18L240.245 165.373C243.859 164.732 247.222 162.953 249.751 160.236C252.957 156.8 254.601 152.132 254.261 147.439ZM117.004 82.4217H139.144C144.705 82.4217 150.103 84.7203 153.958 88.7273L169.914 105.306H124.835C120.519 105.306 117.004 101.794 117.004 97.4749V82.4217Z" fill="#F7931E"/>
<path d="M254.244 147.184C252.811 147.782 251.319 148.263 249.762 148.518L249.692 148.757H24.2319L8.34695 148.802C5.8882 148.802 3.54747 148.347 1.40625 147.532V148.948C1.40625 158.165 8.90333 165.662 18.1342 165.662L32.749 165.614H240.18L240.245 165.376C243.859 164.735 247.222 162.956 249.751 160.239C252.957 156.794 254.601 152.126 254.258 147.434L254.244 147.184Z" fill="#F7931E"/>
<path d="M209.043 181.722C195.878 181.722 185.169 171.01 185.169 157.845C185.169 144.68 195.881 133.971 209.043 133.971C222.208 133.971 232.916 144.683 232.916 157.845C232.916 171.01 222.205 181.722 209.043 181.722Z" fill="#20241E"/>
<path d="M56.2829 181.722C43.1181 181.722 32.4092 171.01 32.4092 157.845C32.4092 144.68 43.1209 133.971 56.2829 133.971C69.4478 133.971 80.1595 144.683 80.1595 157.845C80.1567 171.01 69.4478 181.722 56.2829 181.722Z" fill="#20241E"/>
<path d="M56.2827 170.49C49.3111 170.49 43.6377 164.816 43.6377 157.845C43.6377 150.873 49.3111 145.2 56.2827 145.2C63.2543 145.2 68.9277 150.873 68.9277 157.845C68.9277 164.816 63.2543 170.49 56.2827 170.49Z" fill="#50534E"/>
<path d="M209.042 170.49C202.071 170.49 196.397 164.817 196.397 157.842C196.397 150.871 202.071 145.197 209.042 145.197C216.014 145.197 221.687 150.871 221.687 157.842C221.687 164.817 216.014 170.49 209.042 170.49Z" fill="#50534E"/>
<path d="M253.129 131.765C252.834 127.71 251.274 123.998 248.908 120.924H227.308C233.745 128.767 243.201 133.434 253.283 133.915L253.129 131.765Z" fill="#CED6CE"/>
<path d="M8.02661 115.976L1.50741 115.979C1.47931 116.313 1.40625 116.636 1.40625 116.976V133.407H7.89454C10.9799 133.407 13.4808 130.906 13.4808 127.82V121.548C13.4808 118.511 11.0502 116.049 8.02661 115.976Z" fill="#F7931E"/>
</svg>
