<svg width="44" height="44" viewBox="0 0 44 44" fill="none" xmlns="http://www.w3.org/2000/svg">
<g clip-path="url(#clip0_142_6559)">
<path d="M43.495 10.0635L43.4216 9.99003L34.0926 0.661101C33.2846 -0.220367 31.889 -0.220367 31.0075 0.661101L29.9791 1.68951C29.8321 1.83645 29.7587 1.9833 29.7587 2.20367C29.7587 2.42404 29.8321 2.57098 29.9791 2.71783L30.4932 3.23199L29.5366 4.18861L29.0241 3.67273C28.7303 3.37893 28.2896 3.37893 27.9957 3.67273C27.7018 3.96652 27.7019 4.40726 27.9957 4.70114L28.5082 5.21702L27.4082 6.31722L26.3798 5.28881C26.2328 5.14187 26.086 5.06844 25.8656 5.06844C25.7187 5.06844 25.4983 5.14187 25.4249 5.28881L12.9374 17.7763C12.6436 18.0701 12.6436 18.5108 12.9374 18.8047L13.6719 19.5392C14.7003 20.5677 16.3163 20.5677 17.3447 19.5392L18.8873 17.9967C19.4749 18.0427 20.0479 18.1595 20.5981 18.338L8.97078 29.8965C7.86894 29.5292 6.84054 29.5292 5.88564 29.8231L4.34307 28.3539C4.04928 28.0601 3.60854 28.0601 3.31466 28.3539L0.229522 31.4391C0.0825823 31.586 0.00915527 31.7329 0.00915527 31.9532C0.00915527 32.1736 0.0825823 32.3205 0.156095 32.394L1.69867 33.9365C0.890624 36.2871 1.55173 38.9316 3.31466 40.6945C5.15103 42.5309 7.79543 43.1185 10.146 42.3105L11.6886 43.7796C11.8356 43.9266 12.0559 44 12.2028 44C12.3496 44 12.5701 43.9266 12.7169 43.7796L15.8021 40.7679C15.949 40.621 16.0224 40.4741 16.0224 40.2538C16.0224 40.0334 15.949 39.8864 15.8021 39.7396L14.2595 38.197C14.6268 37.1686 14.5533 36.2137 14.1861 35.1119L25.7655 23.4635C25.9642 24.0415 26.0995 24.6461 26.1593 25.2688L24.6168 26.8114C23.5884 27.8398 23.5884 29.4558 24.6168 30.4842L25.3513 31.2187C25.4982 31.3656 25.6451 31.4391 25.8654 31.4391C26.0858 31.4391 26.3062 31.3656 26.3062 31.2187L38.7939 18.7312C39.0877 18.4374 39.0877 17.9967 38.7939 17.7028L37.7654 16.6744L38.8323 15.6075L39.3814 16.1602C39.5284 16.3072 39.6752 16.3806 39.8956 16.3806C40.116 16.3806 40.2629 16.3072 40.4098 16.1602C40.7036 15.8664 40.7036 15.4257 40.4098 15.1318L39.8607 14.5791L40.8505 13.5892L41.3647 14.1034C41.6585 14.3972 42.0992 14.3972 42.3931 14.1034L43.4215 13.075L43.4949 13.0016C44.1561 12.1936 44.1561 10.8714 43.495 10.0635ZM12.864 34.4507C12.6436 34.6711 12.5702 34.9649 12.717 35.2587C13.2312 36.6544 13.0843 37.4624 12.7904 38.1235C12.6435 38.4173 12.717 38.7112 12.9374 38.9316L14.2596 40.2538L12.2029 42.2371L10.8072 40.9883C10.6603 40.8413 10.4399 40.7679 10.2931 40.7679C10.2196 40.7679 10.1461 40.7679 10.0727 40.8413C8.0894 41.6494 5.88573 41.2087 4.41658 39.7395C2.94744 38.2704 2.50671 35.9933 3.31475 34.0834C3.46169 33.7896 3.38818 33.4957 3.16781 33.2753L1.84561 31.9532L3.90234 29.8965L5.22454 31.2187C5.44491 31.4391 5.7387 31.5125 6.03258 31.3656C6.69368 31.0718 7.50172 30.8515 8.89735 31.4391C9.19115 31.586 9.48503 31.5125 9.70539 31.2921L22.0746 18.9961C23.361 19.735 24.4418 20.8314 25.1736 22.1411L12.864 34.4507ZM25.8656 29.6761L25.6453 29.4558C25.2045 29.015 25.2045 28.2805 25.6453 27.8398L27.4082 26.0768C27.5551 25.9299 27.6286 25.7095 27.6286 25.4892C27.554 24.2779 27.238 23.1142 26.7317 22.0478C26.7191 21.9954 26.7001 21.9426 26.6737 21.8898C26.236 21.0146 25.6583 20.2022 24.9784 19.4858C24.9276 19.4318 24.8762 19.3784 24.8243 19.3255C24.8099 19.311 24.7958 19.2961 24.7813 19.2816C24.0145 18.5109 23.1256 17.8659 22.1545 17.3866C22.1514 17.385 22.1483 17.3834 22.1452 17.3819C21.0467 16.8412 19.8436 16.5126 18.5936 16.454C18.4467 16.454 18.2263 16.5274 18.0794 16.6744L16.3165 18.4373C15.8758 18.8781 15.1412 18.8781 14.7005 18.4373L14.4801 18.217L25.8656 6.83138L26.8939 7.8597L26.894 7.85979L36.2963 17.1886L37.3247 18.217L25.8656 29.6761ZM36.7738 15.6828L28.4366 7.34563L29.5334 6.24879L37.8439 14.6128L36.7738 15.6828ZM30.5619 5.22029L31.5952 4.18698L39.9324 12.5242L38.8722 13.5843L30.5619 5.22029ZM42.4666 12.0468L42.0259 12.4875L41.5117 11.9733C41.4408 11.9024 41.3611 11.849 41.2772 11.8123L32.1093 2.64441L32.1092 2.64432L31.5951 2.13016L32.1092 1.616C32.403 1.3222 32.8438 1.3222 33.1377 1.616L42.4665 10.9448C42.687 11.2387 42.687 11.7529 42.4666 12.0468Z" fill="white"/>
<path d="M21.238 21.8898L14.2597 28.8681C13.9659 29.1619 13.9659 29.6026 14.2597 29.8965C14.4066 30.0435 14.5534 30.1169 14.7738 30.1169C14.9208 30.1169 15.1411 30.0435 15.288 29.8965L22.2663 22.9182C22.5601 22.6244 22.5601 22.1837 22.2663 21.8898C21.9725 21.596 21.5318 21.596 21.238 21.8898Z" fill="white"/>
<path d="M5.44485 33.5692C4.71032 34.2303 4.34302 35.1852 4.34302 36.1402C4.34302 37.0951 4.78375 38.05 5.44485 38.7111C6.10595 39.4457 7.06085 39.813 8.01583 39.813C8.97073 39.813 9.92571 39.3722 10.6602 38.7111C11.3948 38.05 11.7621 37.0951 11.7621 36.1402C11.7621 35.1852 11.3213 34.2303 10.6602 33.5692C9.19109 32.1736 6.84057 32.1736 5.44485 33.5692ZM9.5584 37.6827C8.75036 38.4908 7.2813 38.4908 6.47326 37.6827C6.03253 37.3154 5.81216 36.7278 5.81216 36.1402C5.81216 35.5525 6.03253 35.0383 6.47326 34.5976C6.914 34.1569 7.42816 33.9365 8.01583 33.9365C8.60351 33.9365 9.11767 34.0834 9.5584 34.5976C9.99914 34.9649 10.2195 35.5525 10.2195 36.1402C10.2195 36.7278 9.99914 37.242 9.5584 37.6827Z" fill="white"/>
<path d="M27.9223 13.1486C26.3063 13.1486 24.9841 14.4708 24.9841 16.0868C24.9841 17.7028 26.3063 19.025 27.9223 19.025C29.5383 19.025 30.8605 17.7028 30.8605 16.0868C30.8606 14.4708 29.5384 13.1486 27.9223 13.1486ZM27.9223 17.5559C27.1143 17.5559 26.4532 16.8948 26.4532 16.0868C26.4532 15.2787 27.1143 14.6176 27.9223 14.6176C28.7304 14.6176 29.3915 15.2787 29.3915 16.0868C29.3915 16.8948 28.7304 17.5559 27.9223 17.5559Z" fill="white"/>
</g>
<defs>
<clipPath id="clip0_142_6559">
<rect width="44" height="44" fill="white"/>
</clipPath>
</defs>
</svg>
