<svg width="256" height="256" viewBox="0 0 256 256" fill="none" xmlns="http://www.w3.org/2000/svg">
<path d="M253.438 143.578C246.163 125.828 229.82 113.32 210.785 110.94L153.843 103.817C142.963 94.4146 128.759 86.2291 111.536 79.4991C109.37 78.6505 106.925 79.7239 106.076 81.8904C105.228 84.057 106.301 86.5045 108.468 87.3503C122.495 92.8326 134.339 99.2843 143.843 106.554C137.871 108.51 131.552 109.445 125.339 109.285L85.6363 107.349L82.9303 97.8344C82.2924 95.5948 79.9573 94.2938 77.7234 94.9317C75.4838 95.5695 74.1856 97.899 74.8206 100.139L76.723 106.824C73.5618 106.531 70.4089 106.096 67.3011 105.483L42.5506 100.594C42.4719 100.58 42.3932 100.583 42.3146 100.571C42.1403 100.546 41.9633 100.526 41.7835 100.524C41.6626 100.524 41.5446 100.535 41.4266 100.546C41.3086 100.554 41.1906 100.549 41.0697 100.566L18.2582 104.191C12.6775 105.079 8.13653 109.389 6.95633 114.914L1.65105 139.821C0.470855 145.357 3.58995 150.983 8.90647 152.91L22.9537 158.013L77.1558 161.456H180.184L233.49 160.466L244.064 159.317C247.678 158.927 250.817 156.912 252.677 153.79C254.543 150.668 254.818 146.948 253.438 143.578Z" fill="#F7931E"/>
<path d="M251.202 138.872C249.347 140.87 246.857 142.16 244.067 142.46L233.493 143.609L180.187 144.599H77.1615L22.9566 141.154L8.9094 136.051C6.57429 135.202 4.70002 133.62 3.39056 131.667L1.65398 139.822C0.473784 145.357 3.59288 150.983 8.9094 152.911L22.9566 158.014L77.1587 161.456H180.187L233.493 160.467L244.067 159.317C247.681 158.927 250.819 156.912 252.68 153.79C254.54 150.665 254.818 146.945 253.438 143.576C252.775 141.96 252.011 140.4 251.202 138.872Z" fill="#F7931E"/>
<path d="M209.406 176.503C196.241 176.503 185.532 165.792 185.532 152.627C185.532 139.462 196.244 128.753 209.406 128.753C222.568 128.753 233.28 139.465 233.28 152.627C233.28 165.792 222.568 176.503 209.406 176.503Z" fill="#20241E"/>
<path d="M51.0232 176.503C37.8583 176.503 27.1494 165.792 27.1494 152.627C27.1494 139.462 37.8611 128.753 51.0232 128.753C64.188 128.753 74.8997 139.465 74.8997 152.627C74.8997 165.792 64.188 176.503 51.0232 176.503Z" fill="#20241E"/>
<path d="M51.0229 165.272C44.0513 165.272 38.3779 159.598 38.3779 152.624C38.3779 145.652 44.0513 139.979 51.0229 139.979C57.9945 139.979 63.6679 145.652 63.6679 152.624C63.6679 159.598 57.9945 165.272 51.0229 165.272Z" fill="#50534E"/>
<path d="M209.406 165.272C202.434 165.272 196.761 159.598 196.761 152.624C196.761 145.652 202.434 139.979 209.406 139.979C216.377 139.979 222.051 145.652 222.051 152.624C222.051 159.598 216.377 165.272 209.406 165.272Z" fill="#50534E"/>
<path d="M245.967 130.821C242.412 126.317 238.166 122.425 233.4 119.292H214.599C220.59 126.589 229.534 130.821 238.978 130.821H245.967Z" fill="#CED6CE"/>
<path d="M12.2983 124.785C14.7795 124.785 16.7915 122.773 16.7915 120.292V115.245C16.7915 112.798 14.8357 110.819 12.4023 110.76L8.61439 110.771C7.85569 112.039 7.27683 113.427 6.9593 114.916L4.85742 124.785H12.2983Z" fill="#F7931E"/>
</svg>
