<svg width="256" height="256" viewBox="0 0 256 256" fill="none" xmlns="http://www.w3.org/2000/svg">
<path d="M41.1963 107.625L74.27 91.2706L127.857 89.7251L158.907 101.443L176.526 112.795L105.461 122.827L51.7338 115.97L41.1963 107.625Z" fill="#20241E"/>
<path d="M241.232 120.905L175.571 107.613L152.442 94.1928C142.593 88.4773 131.406 85.4678 120.02 85.4678H106.209C106.203 85.4678 106.198 85.4678 106.192 85.4678H90.425C78.3307 85.4678 66.4163 88.4183 55.7215 94.0664L38.3922 103.213C34.9331 105.039 31.0778 105.995 27.1662 105.995H20.2424C13.4029 105.995 7.51872 110.834 6.19802 117.544L1.584 140.993C0.622985 145.877 3.64935 150.66 8.47131 151.882L30.7968 157.547C32.5867 158.002 34.4189 158.269 36.2622 158.345L80.4972 160.172H185.198C185.108 159.992 185.285 160.354 185.198 160.172L231.717 159.362L244.421 157.985C250.047 157.37 254.307 152.621 254.307 146.967V136.896C254.307 129.163 248.808 122.439 241.232 120.905ZM120.017 93.895C129.905 93.895 139.653 96.5195 148.207 101.482L164.37 110.859C160.164 112.135 155.811 112.803 151.365 112.803H112.868L108.696 93.895H120.017ZM59.6527 101.518C69.0971 96.5307 79.7385 93.895 90.4193 93.895H102.873L107.046 112.803H71.7047C65.5452 112.803 59.5852 110.985 54.4738 107.543L51.7341 105.7L59.6527 101.518Z" fill="#F7931E"/>
<path d="M244.424 143.93L231.72 145.307L185.201 146.116C185.223 146.161 185.246 146.209 185.201 146.116H80.5L36.265 144.29C34.4189 144.214 32.5867 143.947 30.7996 143.492L8.47412 137.827C6.13059 137.231 4.22259 135.787 2.97776 133.907L1.584 140.985C0.622985 145.869 3.64935 150.652 8.47131 151.874L30.7968 157.539C32.5867 157.994 34.4189 158.261 36.2622 158.337L80.4972 160.163H185.195C185.217 160.208 185.237 160.256 185.195 160.163L231.717 159.354L244.421 157.977C250.047 157.37 254.307 152.621 254.307 146.968V136.897C254.307 136.2 254.211 135.525 254.127 134.848C253.284 139.619 249.392 143.39 244.424 143.93Z" fill="#F7931E"/>
<path d="M208.265 170.248C196.359 170.248 186.67 160.562 186.67 148.656C186.67 136.75 196.356 127.062 208.265 127.062C220.168 127.062 229.857 136.748 229.857 148.656C229.857 160.562 220.171 170.248 208.265 170.248Z" fill="#20241E"/>
<path d="M57.4358 170.248C45.5298 170.248 35.8438 160.562 35.8438 148.656C35.8438 136.75 45.5298 127.062 57.4358 127.062C69.3418 127.062 79.0278 136.748 79.0278 148.656C79.0278 160.562 69.3418 170.248 57.4358 170.248Z" fill="#20241E"/>
<path d="M208.24 159.913C205.315 159.913 202.384 158.741 200.31 156.626C199.768 156.128 199.321 155.544 198.916 154.914C198.512 154.282 198.152 153.653 197.877 152.973C197.565 152.298 197.385 151.579 197.202 150.857C197.065 150.134 197.022 149.37 197.022 148.648C197.022 145.678 198.194 142.792 200.31 140.718C202.923 138.06 206.801 136.846 210.449 137.61C211.171 137.742 211.893 137.97 212.565 138.24C213.242 138.557 213.919 138.869 214.506 139.274C215.136 139.684 215.72 140.176 216.218 140.718C218.334 142.792 219.505 145.678 219.505 148.648C219.505 149.37 219.46 150.134 219.28 150.857C219.148 151.579 218.921 152.301 218.651 152.973C218.378 153.65 218.022 154.279 217.611 154.914C217.207 155.544 216.757 156.128 216.218 156.626C214.147 158.741 211.216 159.913 208.24 159.913Z" fill="#50534E"/>
<path d="M57.4382 159.86C54.4709 159.86 51.5485 158.649 49.4803 156.581C47.4122 154.512 46.1982 151.587 46.1982 148.62C46.1982 145.655 47.4122 142.775 49.4803 140.665C53.6588 136.483 61.2149 136.483 65.3962 140.665C67.4643 142.778 68.6782 145.658 68.6782 148.62C68.6782 151.587 67.4643 154.467 65.3962 156.581C63.283 158.649 60.4028 159.86 57.4382 159.86Z" fill="#50534E"/>
<path d="M250.946 127.064H232.51C236.067 131.397 241.381 133.912 246.987 133.912H254.018C253.543 131.383 252.461 129.059 250.946 127.064Z" fill="#CED6CE"/>
<path d="M3.49219 131.293H8.53052C10.8965 131.293 12.813 129.377 12.813 127.011V122.203C12.813 119.837 10.8965 117.92 8.53052 117.92H6.12516L3.49219 131.293Z" fill="#F7931E"/>
</svg>
