<svg width="20" height="20" viewBox="0 0 20 20" fill="none" xmlns="http://www.w3.org/2000/svg">
<path d="M17.8562 2.14842C17.4395 1.72259 16.8228 1.56509 16.2478 1.73175L2.83951 5.60592C2.23284 5.77425 1.80284 6.25509 1.68701 6.86509C1.56867 7.48675 1.98201 8.27675 2.52201 8.60675L6.71451 11.1668C7.14451 11.4301 7.69951 11.3643 8.05534 11.0076L12.8562 6.20675C13.0978 5.95592 13.4978 5.95592 13.7395 6.20675C13.9812 6.44759 13.9812 6.84009 13.7395 7.09009L8.93034 11.8909C8.57367 12.2476 8.50701 12.8009 8.76951 13.2318L11.3312 17.4401C11.6312 17.9393 12.1478 18.2234 12.7145 18.2234C12.7812 18.2234 12.8562 18.2234 12.9228 18.2143C13.5728 18.1318 14.0895 17.6893 14.2812 17.0643L18.2562 3.75675C18.4312 3.19009 18.2728 2.57342 17.8562 2.14842" fill="#F1F3F9"/>
<path opacity="0.4" fill-rule="evenodd" clip-rule="evenodd" d="M2.50876 14.0062C2.34876 14.0062 2.18876 13.9453 2.0671 13.8228C1.82293 13.5787 1.82293 13.1837 2.0671 12.9395L3.2046 11.8012C3.44876 11.5578 3.8446 11.5578 4.08876 11.8012C4.3321 12.0453 4.3321 12.4412 4.08876 12.6853L2.95043 13.8228C2.82876 13.9453 2.66876 14.0062 2.50876 14.0062ZM5.64308 15.0001C5.48308 15.0001 5.32308 14.9393 5.20142 14.8168C4.95725 14.5726 4.95725 14.1776 5.20142 13.9335L6.33892 12.7951C6.58308 12.5518 6.97892 12.5518 7.22308 12.7951C7.46642 13.0393 7.46642 13.4351 7.22308 13.6793L6.08475 14.8168C5.96308 14.9393 5.80308 15.0001 5.64308 15.0001ZM5.85451 17.973C5.97618 18.0955 6.13618 18.1563 6.29618 18.1563C6.45618 18.1563 6.61618 18.0955 6.73785 17.973L7.87618 16.8355C8.11951 16.5913 8.11951 16.1955 7.87618 15.9513C7.63201 15.708 7.23618 15.708 6.99201 15.9513L5.85451 17.0897C5.61035 17.3338 5.61035 17.7288 5.85451 17.973Z" fill="white"/>
</svg>
