<svg width="44" height="44" viewBox="0 0 44 44" fill="none" xmlns="http://www.w3.org/2000/svg">
<circle cx="22" cy="22" r="18.3333" stroke="white" stroke-width="2"/>
<path d="M9.94057 26.3892C9.2479 24.4861 9.01547 22.4461 9.26228 20.436C9.5091 18.4258 10.2282 16.5026 11.3606 14.8236C12.4931 13.1446 14.0069 11.7575 15.7782 10.7757C17.5496 9.79382 19.5281 9.24512 21.5521 9.17444C23.5761 9.10377 25.5881 9.51311 27.4236 10.369C29.2591 11.2249 30.8659 12.5031 32.1128 14.099C33.3596 15.6949 34.2111 17.5632 34.5975 19.5513C34.9839 21.5393 34.8944 23.5906 34.3361 25.5373" stroke="white" stroke-width="2" stroke-linecap="round" stroke-linejoin="round" stroke-dasharray="5 5"/>
<path d="M26.6395 18.4084L23.8935 20.0666C22.921 20.6384 21.8913 21.153 20.9188 21.6105C20.6327 21.7249 20.2895 21.8964 19.9463 22.0679C18.7449 22.697 18.1156 24.012 18.4017 25.3272C18.6305 26.3564 19.4886 27.2141 20.5183 27.4428C20.7471 27.5 20.976 27.5 21.2048 27.5C22.2917 27.5 23.2642 26.871 23.7791 25.899C23.8935 25.6131 24.0652 25.27 24.2368 24.9269C24.7516 23.9548 25.2093 22.9256 25.7814 21.9536L27.4404 19.2089C27.5548 18.9802 27.4976 18.7515 27.326 18.5228C27.1543 18.294 26.8683 18.294 26.6395 18.4084ZM24.8088 21.3246C24.1795 22.3538 23.6647 23.383 23.2071 24.4123C23.0926 24.7554 22.921 25.0413 22.7494 25.3844C22.4061 26.1277 21.6052 26.4708 20.8044 26.2992C20.1751 26.1848 19.6602 25.6702 19.5458 25.0413C19.3742 24.2407 19.7175 23.4403 20.4611 23.0972C20.7472 22.9256 21.0904 22.8113 21.4337 22.6397C22.4634 22.1251 23.5503 21.6105 24.5228 21.0387L25.2665 20.5812L24.8088 21.3246Z" fill="white"/>
<rect x="15" y="32" width="14" height="2" rx="1" fill="white"/>
</svg>
