<svg width="256" height="256" viewBox="0 0 256 256" fill="none" xmlns="http://www.w3.org/2000/svg">
<path d="M155.113 116.364L143.17 102.033L103.69 88.4043L69.2956 90.1184L58.4209 113.947L114.93 132.325L155.113 116.364Z" fill="#20241E"/>
<path d="M253.427 150.345C246 132.215 229.308 119.441 209.917 117.016L157.291 109.738C148.704 102.308 138.076 95.6007 125.634 89.8065C118.235 86.3614 109.923 84.5405 101.6 84.5405H83.2222C82.5 84.5405 81.7835 84.6108 81.0641 84.6305C80.415 84.5068 79.749 84.5321 79.114 84.7119C63.9484 85.5549 49.1875 90.9782 37.1607 100.302L25.058 109.684L12.1404 111.126C10.3364 111.328 8.86398 112.66 8.48463 114.436L1.65633 146.481C0.462076 152.096 3.62895 157.803 9.02134 159.764L23.5968 165.058L78.6222 168.503H178.773L232.894 167.517L243.923 166.32C247.59 165.921 250.774 163.875 252.662 160.706C254.545 157.533 254.826 153.759 253.427 150.345ZM67.8712 109.114L82.1291 93.0155C82.4944 93.0099 82.8541 92.9705 83.2194 92.9705H101.597C108.7 92.9705 115.779 94.5188 122.073 97.4497C131.703 101.934 140.139 106.97 147.282 112.455C141.097 114.509 134.547 115.51 128.12 115.316L84.3209 113.18C82.4551 113.124 75.8544 112.919 69.293 112.534C68.1297 112.466 67.6576 111.626 67.5087 111.269C67.3626 110.91 67.0984 109.985 67.8712 109.114Z" fill="#F7931E"/>
<path d="M251.235 145.711C249.347 147.796 246.792 149.145 243.921 149.457L232.891 150.654L178.771 151.64H78.6195L23.5969 148.198L9.02146 142.904C6.62734 142.036 4.71092 140.403 3.38179 138.394L1.65926 146.484C0.465006 152.098 3.63188 157.806 9.02427 159.767L23.5997 165.061L78.6252 168.506H178.776L232.897 167.52L243.926 166.323C247.593 165.924 250.777 163.878 252.665 160.708C254.551 157.539 254.832 153.762 253.43 150.351C252.775 148.752 252.027 147.217 251.235 145.711Z" fill="#F7931E"/>
<path d="M210.397 182.115C197.232 182.115 186.523 171.403 186.523 158.239C186.523 145.074 197.235 134.365 210.397 134.365C223.559 134.365 234.271 145.076 234.271 158.239C234.271 171.406 223.562 182.115 210.397 182.115Z" fill="#20241E"/>
<path d="M52.0173 182.115C38.8525 182.115 28.1436 171.403 28.1436 158.239C28.1436 145.074 38.8553 134.365 52.0173 134.365C65.1822 134.365 75.8939 145.076 75.8939 158.239C75.8911 171.406 65.1822 182.115 52.0173 182.115Z" fill="#20241E"/>
<path d="M52.0171 170.886C45.0455 170.886 39.3721 165.213 39.3721 158.241C39.3721 151.27 45.0455 145.596 52.0171 145.596C58.9887 145.596 64.6621 151.27 64.6621 158.241C64.6621 165.213 58.9887 170.886 52.0171 170.886Z" fill="#50534E"/>
<path d="M210.397 170.886C203.425 170.886 197.752 165.213 197.752 158.238C197.752 151.267 203.425 145.593 210.397 145.593C217.369 145.593 223.042 151.267 223.042 158.238C223.042 165.213 217.369 170.886 210.397 170.886Z" fill="#50534E"/>
<path d="M245.075 136.436C241.341 131.9 236.907 128.011 231.955 124.906H215.593C221.584 132.204 230.528 136.436 239.972 136.436H245.075Z" fill="#CED6CE"/>
<path d="M13.3998 116.372L8.07199 116.381L5.08496 130.397H13.293C15.7742 130.397 17.7862 128.385 17.7862 125.904V120.857C17.789 118.409 15.8304 116.431 13.3998 116.372Z" fill="#F7931E"/>
</svg>
