<svg width="139" height="123" viewBox="0 0 139 123" fill="none" xmlns="http://www.w3.org/2000/svg">
<g clip-path="url(#clip0_261_257)">
<path d="M93.1995 122.337C89.5178 122.323 85.936 121.138 82.9731 118.953L72.4545 111.258C71.1493 110.297 69.5709 109.779 67.95 109.779C66.3291 109.779 64.7507 110.297 63.4455 111.258L52.9269 118.953C50.2068 120.939 46.9682 122.093 43.6048 122.273C40.2414 122.453 36.8981 121.653 33.9811 119.969C31.0641 118.285 28.6992 115.789 27.1738 112.786C25.6484 109.783 25.0282 106.402 25.3886 103.053L26.8008 90.0995C26.9821 88.4898 26.6425 86.8643 25.8317 85.4619C25.0209 84.0595 23.7818 82.9541 22.2963 82.308L10.3899 77.0487C7.30067 75.6943 4.67292 73.4693 2.82777 70.6457C0.98262 67.8221 0 64.5221 0 61.149C0 57.776 0.98262 54.476 2.82777 51.6523C4.67292 48.8287 7.30067 46.6037 10.3899 45.2494L22.2963 39.9901C23.7818 39.344 25.0209 38.2385 25.8317 36.8361C26.6425 35.4337 26.9821 33.8082 26.8008 32.1985L25.3886 19.2451C25.0282 15.8962 25.6484 12.5147 27.1738 9.51165C28.6992 6.50863 31.0641 4.01339 33.9811 2.32924C36.8981 0.645089 40.2414 -0.155441 43.6048 0.0249587C46.9682 0.205358 50.2068 1.35892 52.9269 3.34542L63.4455 11.0396C64.7507 12.0007 66.3291 12.5191 67.95 12.5191C69.5709 12.5191 71.1493 12.0007 72.4545 11.0396L82.9731 3.34542C84.8462 1.95902 86.9837 0.971462 89.2536 0.443782C91.5235 -0.0838975 93.8774 -0.140493 96.17 0.277492C98.512 0.702448 100.744 1.59666 102.731 2.90635C104.719 4.21604 106.421 5.91417 107.736 7.89861C108.1 8.43237 108.355 9.03333 108.484 9.66646C108.614 10.2996 108.617 10.9522 108.492 11.5863C108.367 12.2204 108.117 12.8233 107.756 13.3598C107.396 13.8963 106.932 14.3557 106.393 14.7112C105.853 15.0667 105.248 15.3112 104.612 15.4305C103.977 15.5497 103.325 15.5414 102.693 15.4059C102.061 15.2704 101.462 15.0104 100.932 14.6412C100.401 14.272 99.9497 13.8009 99.6032 13.2553C99.0155 12.3722 98.2552 11.6171 97.3681 11.0355C96.481 10.4539 95.4854 10.0577 94.4413 9.87084C93.4358 9.68546 92.4027 9.7132 91.4086 9.95227C90.4146 10.1913 89.4818 10.6364 88.6706 11.2587L78.152 18.9529C75.175 21.1349 71.5801 22.3113 67.8891 22.3113C64.1981 22.3113 60.6031 21.1349 57.6262 18.9529L47.1319 11.2587C45.9393 10.3532 44.5063 9.819 43.0119 9.72297C41.5175 9.62694 40.028 9.97328 38.7293 10.7188C37.4305 11.4642 36.3802 12.5758 35.7094 13.9146C35.0387 15.2534 34.7772 16.7602 34.9576 18.2468L36.3698 31.1759C36.7943 34.8343 36.041 38.5327 34.2194 41.7337C32.3978 44.9346 29.6029 47.4712 26.2408 48.9747L14.31 54.234C12.9577 54.8342 11.8086 55.814 11.002 57.0544C10.1955 58.2947 9.76619 59.7425 9.76619 61.2221C9.76619 62.7016 10.1955 64.1494 11.002 65.3898C11.8086 66.6302 12.9577 67.6099 14.31 68.2101L26.2408 73.3233C29.6212 74.8061 32.4391 77.3306 34.2833 80.5283C36.1274 83.7259 36.9011 87.4293 36.4916 91.0978L35.0794 104.027C34.8989 105.513 35.1604 107.02 35.8312 108.359C36.5019 109.698 37.5523 110.809 38.851 111.555C40.1497 112.3 41.6393 112.647 43.1337 112.551C44.6281 112.455 46.061 111.921 47.2537 111.015L57.7479 103.321C60.7249 101.139 64.3198 99.9624 68.0108 99.9624C71.7018 99.9624 75.2968 101.139 78.2738 103.321L88.7924 111.015C89.985 111.921 91.418 112.455 92.9124 112.551C94.4068 112.647 95.8963 112.3 97.195 111.555C98.4938 110.809 99.5441 109.698 100.215 108.359C100.886 107.02 101.147 105.513 100.967 104.027L99.5545 91.0978C99.1296 87.4456 99.8803 83.7531 101.697 80.5566C103.515 77.3602 106.304 74.8264 109.659 73.3233L121.59 68.064C122.942 67.4638 124.091 66.4841 124.898 65.2437C125.704 64.0033 126.134 62.5555 126.134 61.076C126.134 59.5964 125.704 58.1487 124.898 56.9083C124.091 55.6679 122.942 54.6882 121.59 54.0879L115.113 51.4096C114.51 51.1641 113.963 50.8003 113.503 50.3397C113.043 49.879 112.681 49.3308 112.436 48.7276C112.192 48.1243 112.071 47.4782 112.08 46.8274C112.09 46.1766 112.23 45.5344 112.492 44.9386C112.754 44.3428 113.133 43.8056 113.606 43.3588C114.08 42.9119 114.638 42.5645 115.247 42.3369C115.857 42.1094 116.506 42.0064 117.157 42.0341C117.807 42.0617 118.445 42.2195 119.033 42.498L125.51 45.3468C128.599 46.7011 131.227 48.9261 133.072 51.7497C134.917 54.5734 135.9 57.8734 135.9 61.2464C135.9 64.6195 134.917 67.9195 133.072 70.7431C131.227 73.5667 128.599 75.7917 125.51 77.146L113.604 82.4054C112.118 83.0538 110.879 84.1589 110.064 85.56C109.25 86.9611 108.903 88.5854 109.075 90.1969L110.487 103.15C110.896 106.503 110.299 109.901 108.773 112.914C107.247 115.927 104.861 118.418 101.916 120.073C99.2587 121.577 96.2531 122.358 93.1995 122.337Z" fill="#F7931E" fill-opacity="0.8"/>
<path d="M68.5109 78.1931C67.8683 78.1936 67.232 78.067 66.6386 77.8204C66.0452 77.5739 65.5064 77.2123 65.0534 76.7566L44.0893 55.7924C43.5667 55.3582 43.1409 54.8194 42.839 54.2107C42.5372 53.6021 42.366 52.937 42.3366 52.2582C42.3072 51.5794 42.4201 50.902 42.6681 50.2695C42.9161 49.637 43.2938 49.0633 43.7767 48.5855C44.2597 48.1077 44.8373 47.7362 45.4724 47.4949C46.1076 47.2536 46.7861 47.1479 47.4646 47.1846C48.143 47.2213 48.8062 47.3995 49.4116 47.7078C50.0171 48.0161 50.5513 48.4477 50.9799 48.9748L68.5109 66.5058L130.454 4.46555C131.382 3.6278 132.596 3.17894 133.846 3.2119C135.095 3.24486 136.284 3.75712 137.167 4.64262C138.049 5.52811 138.557 6.71902 138.586 7.96876C138.614 9.21851 138.161 10.4314 137.32 11.3562L71.9441 76.7322C71.4959 77.1895 70.9621 77.5538 70.373 77.8045C69.7839 78.0552 69.1511 78.1873 68.5109 78.1931Z" fill="#F7931E"/>
</g>
<defs>
<clipPath id="clip0_261_257">
<rect width="139" height="123" fill="white"/>
</clipPath>
</defs>
</svg>
