<svg width="256" height="256" viewBox="0 0 256 256" fill="none" xmlns="http://www.w3.org/2000/svg">
<path d="M30.0241 105.011L40.6178 85.8472L130.734 87.1117L161.813 98.8294L182.242 115.802L108.339 120.213L20.8916 118.977L30.0241 105.011Z" fill="#20241E"/>
<path d="M230.947 118.342L181.252 106.557L155.996 91.9026C145.793 85.9819 134.165 82.8516 122.363 82.8516H35.7729C29.8326 82.8516 24.1536 85.684 20.5792 90.4301L5.31813 110.704C2.15126 114.916 0.40625 120.132 0.40625 125.398V143.202C0.40625 147.864 3.40733 151.896 7.87804 153.234L28.2084 159.306L80.5756 162.074H184.723L236.533 160.826L243.23 159.902C248.973 159.109 253.306 154.141 253.306 148.341V146.622C253.306 133.092 244.112 121.464 230.947 118.342ZM122.366 91.1916C132.698 91.1916 142.882 93.9314 151.812 99.1158L170.313 109.85C166.171 111.314 161.855 112.095 157.426 112.095H125.46L119.488 91.1916H122.366ZM75.8576 91.1916H110.82L116.791 112.095H67.2674L75.8576 91.1916ZM35.5088 110.086L46.7684 91.1888H66.8459L58.2557 112.092H36.6524C35.978 112.092 35.6408 111.671 35.4975 111.421C35.3514 111.174 35.1631 110.665 35.5088 110.086Z" fill="#F7931E"/>
<path d="M242.821 142.7L236.124 143.624L184.314 144.872H80.1693L27.8021 142.104L7.47179 136.032C3.00108 134.691 0 130.662 0 126V142.86C0 147.522 3.00108 151.554 7.47179 152.892L27.8021 158.964L80.1693 161.732H184.316L236.127 160.484L242.823 159.56C248.567 158.765 252.9 153.797 252.9 147.997V146.277C252.9 143.003 252.352 139.845 251.349 136.886C249.595 139.949 246.507 142.191 242.821 142.7Z" fill="#F7931E"/>
<path d="M204.721 172.859C192.175 172.859 181.966 162.65 181.966 150.104C181.966 137.557 192.172 127.348 204.721 127.348C217.268 127.348 227.477 137.554 227.477 150.104C227.477 162.653 217.268 172.859 204.721 172.859Z" fill="#20241E"/>
<path d="M54.9546 172.859C42.4079 172.859 32.1992 162.65 32.1992 150.104C32.1992 137.557 42.4079 127.348 54.9546 127.348C67.5013 127.348 77.71 137.554 77.71 150.104C77.71 162.653 67.5013 172.859 54.9546 172.859Z" fill="#20241E"/>
<path d="M204.721 161.326C201.72 161.326 198.874 160.2 196.775 158.027C194.603 155.934 193.481 153.082 193.481 150.086C193.481 147.158 194.681 144.239 196.775 142.14C199.402 139.594 203.294 138.321 206.896 139.074C207.644 139.22 208.315 139.448 208.99 139.748C209.67 140.049 210.344 140.35 210.943 140.794C211.544 141.167 212.143 141.62 212.663 142.14C214.762 144.239 215.961 147.158 215.961 150.086C215.961 153.079 214.762 155.934 212.663 158.027C211.617 159.154 210.417 159.902 208.99 160.5C207.641 161.099 206.222 161.326 204.721 161.326Z" fill="#50534E"/>
<path d="M54.9597 161.323C51.9643 161.323 49.1121 160.124 47.0159 157.949C44.8437 155.855 43.7197 153.003 43.7197 150.008C43.7197 149.333 43.7928 148.58 43.9417 147.835C44.0906 147.161 44.3183 146.408 44.5431 145.736C44.8437 145.062 45.2175 144.39 45.594 143.789C46.0436 143.188 46.4932 142.589 47.0187 142.061C51.1381 137.941 58.7083 137.868 62.9064 142.061C63.4291 142.589 63.8787 143.188 64.3311 143.789C64.7048 144.39 65.0813 145.062 65.3033 145.736C65.604 146.411 65.826 147.164 65.9777 147.835C66.1267 148.583 66.2053 149.336 66.2053 150.008C66.2053 153 65.0055 155.855 62.9092 157.949C60.8045 160.124 57.958 161.323 54.9597 161.323Z" fill="#50534E"/>
<path d="M5.23686 124.701C7.71809 124.701 9.73005 122.689 9.73005 120.208V115.161C9.73005 112.714 7.77429 110.735 5.34083 110.676L5.31835 110.707C2.28917 114.728 0.58069 119.674 0.43457 124.701H5.23686Z" fill="#F7931E"/>
<path d="M249.912 132.968C247.937 129.245 245.175 125.988 241.797 123.439H224.173C229.124 129.473 236.52 132.968 244.323 132.968H249.912Z" fill="#CED6CE"/>
</svg>
