<svg width="256" height="256" viewBox="0 0 256 256" fill="none" xmlns="http://www.w3.org/2000/svg">
<path d="M200.608 105.433L184.619 94.9796L124.878 87.8984H86.9993L59.2646 97.7334V108.524L81.7727 114.79L163.347 118.387H202.153L200.608 105.433Z" fill="#20241E"/>
<path d="M231.419 110.216L196.626 96.5562C168.666 86.6397 139.26 82.3853 109.87 83.8971C96.5504 84.5828 83.2338 86.4514 70.0577 89.5171L55.6593 93.7996C55.6509 93.8024 55.6452 93.8024 55.6368 93.8052L38.5211 98.8969C34.9552 99.7258 31.2994 99.9506 27.6492 99.5629L6.06279 97.2727C4.79548 97.1378 3.51974 97.5902 2.62054 98.5007C1.72134 99.4139 1.28298 100.684 1.43191 101.957L5.79584 139.007C6.48991 144.888 9.83662 149.873 14.5518 152.832L71.0525 155.729H177.664H232.984H242.367C248.948 155.729 254.301 150.376 254.301 143.795C254.307 128.854 245.326 115.675 231.419 110.216ZM193.681 104.452L195.659 105.231L186.577 106.962C184.995 107.262 183.382 107.414 181.783 107.414H122.726L116.181 92.0995C142.449 91.4644 168.692 95.5923 193.681 104.452ZM72.2158 97.6633C83.779 94.9741 95.4714 93.2825 107.189 92.5126L113.559 107.414H85.184C79.5892 107.414 74.0592 105.543 69.6137 102.145L66.1237 99.4758L72.2158 97.6633Z" fill="#F7931E"/>
<path d="M247.178 141.676H237.154H178.049H64.1484L5.78467 138.877L5.79872 139.007C6.49279 144.888 9.8395 149.873 14.5547 152.832L71.0553 155.729H177.667H232.987H242.37C248.951 155.729 254.304 150.376 254.304 143.795C254.304 142.432 254.203 141.089 254.057 139.76C252.07 140.96 249.715 141.676 247.178 141.676Z" fill="#F7931E"/>
<path d="M205.005 172.114C191.84 172.114 181.131 161.402 181.131 148.238C181.131 135.073 191.843 124.364 205.005 124.364C218.17 124.364 228.879 135.075 228.879 148.238C228.879 161.405 218.17 172.114 205.005 172.114Z" fill="#20241E"/>
<path d="M46.6252 172.114C33.4604 172.114 22.7515 161.402 22.7515 148.238C22.7515 135.073 33.4632 124.364 46.6252 124.364C59.7901 124.364 70.5018 135.075 70.5018 148.238C70.5018 161.405 59.7901 172.114 46.6252 172.114Z" fill="#20241E"/>
<path d="M46.625 160.886C39.6534 160.886 33.98 155.212 33.98 148.241C33.98 141.269 39.6534 135.596 46.625 135.596C53.5966 135.596 59.27 141.269 59.27 148.241C59.27 155.212 53.5966 160.886 46.625 160.886Z" fill="#50534E"/>
<path d="M205.005 160.886C198.034 160.886 192.36 155.212 192.36 148.238C192.36 141.266 198.034 135.593 205.005 135.593C211.977 135.593 217.65 141.266 217.65 148.238C217.65 155.212 211.977 160.886 205.005 160.886Z" fill="#50534E"/>
<path d="M252.351 132.055C250.907 127.817 248.692 123.914 245.826 120.525H224.251C230.242 127.823 239.186 132.055 248.631 132.055H252.351Z" fill="#CED6CE"/>
<path d="M4.6015 128.826H10.7132C13.1945 128.826 15.2064 126.814 15.2064 124.333V119.286C15.2064 116.839 13.2507 114.86 10.8172 114.801L2.94922 114.804L4.6015 128.826Z" fill="#F7931E"/>
</svg>
