<svg width="256" height="256" viewBox="0 0 256 256" fill="none" xmlns="http://www.w3.org/2000/svg">
<path d="M187.288 108.243L155.198 76.6582H89.0785H51.1997L37.515 86.5213L29.085 97.2836V114.79L127.547 112.767H166.353L187.288 108.243Z" fill="#20241E"/>
<path d="M254.188 148.044L251.134 118.943C250.178 109.853 242.875 102.673 233.768 101.878L181.013 97.2557L164.381 78.6507C160.323 74.1098 154.501 71.5049 148.411 71.5049H38.9085C32.9092 71.5049 27.2751 74.7083 24.2066 79.8618L3.98302 113.815C2.29702 116.645 1.40625 119.882 1.40625 123.175V147.692C1.40625 155.282 5.9725 161.97 13.0396 164.729L23.2428 168.717L79.232 172.443H185.172L240.526 170.448C249.431 166.98 255.222 157.915 254.188 148.044ZM148.411 79.9377C152.104 79.9377 155.633 81.5169 158.095 84.2707L172.96 100.897L165.822 106.964C163.917 108.586 161.489 109.476 158.988 109.476H125.763L118.676 79.9349H148.411V79.9377ZM110.007 79.9377L117.094 109.479H70.6053L80.8056 79.9377H110.007ZM54.5462 79.9377H71.8867L61.6864 109.479H39.7571L54.5462 79.9377Z" fill="#F7931E"/>
<path d="M253.871 145.02C251.384 148.842 247.691 151.888 243.229 153.585L186.599 155.58H78.2176L20.9357 151.854L10.4966 147.867C6.60194 146.38 3.48565 143.73 1.40625 140.437V147.692C1.40625 155.282 5.9725 161.97 13.0396 164.729L23.2428 168.717L79.232 172.443H185.172L240.526 170.448C249.431 166.983 255.225 157.918 254.191 148.046L253.871 145.02Z" fill="#F7931E"/>
<path d="M212.766 185.228C198.823 185.228 187.476 173.882 187.476 159.936C187.476 145.992 198.823 134.646 212.766 134.646C226.709 134.646 238.056 145.992 238.056 159.936C238.056 173.884 226.709 185.228 212.766 185.228Z" fill="#20241E"/>
<path d="M51.5732 185.228C37.63 185.228 26.2832 173.884 26.2832 159.936C26.2832 145.992 37.6272 134.646 51.5732 134.646C65.5192 134.646 76.8632 145.989 76.8632 159.936C76.866 173.882 65.5192 185.228 51.5732 185.228Z" fill="#20241E"/>
<path d="M51.573 173.334C44.1883 173.334 38.1777 167.326 38.1777 159.938C38.1777 152.554 44.1855 146.543 51.573 146.543C58.9577 146.543 64.9683 152.551 64.9683 159.938C64.9683 167.323 58.9605 173.334 51.573 173.334Z" fill="#50534E"/>
<path d="M212.766 173.334C205.381 173.334 199.371 167.323 199.371 159.938C199.371 152.554 205.381 146.543 212.766 146.543C220.151 146.543 226.161 152.554 226.161 159.938C226.161 167.323 220.151 173.334 212.766 173.334Z" fill="#50534E"/>
<path d="M251.134 118.94C250.999 117.668 250.715 116.448 250.344 115.262H222.598C230.862 125.33 229.983 131.518 252.553 132.476L251.134 118.94Z" fill="#CED6CE"/>
<path d="M1.40625 123.175V131.835H6.90261C10.3336 131.835 13.1155 129.054 13.1155 125.623V118.648C13.1155 115.268 10.4095 112.531 7.04873 112.449H4.79511L3.98302 113.815C2.29702 116.645 1.40625 119.882 1.40625 123.175Z" fill="#F7931E"/>
</svg>
