<svg width="256" height="256" viewBox="0 0 256 256" fill="none" xmlns="http://www.w3.org/2000/svg">
<path d="M20.497 72.9492C20.497 72.9492 17.7067 116.664 20.497 117.128C23.2873 117.592 215.458 119.458 215.458 119.458V110.491L181.872 76.1386L166.527 72.9492H20.497Z" fill="#20241E"/>
<path d="M246.936 123.844L219.659 111.278L192.517 78.6225C186.751 71.6875 178.27 67.7085 169.253 67.7085H16.2964C8.08562 67.7085 1.40625 74.3879 1.40625 82.5987V155.625C1.40625 164.221 8.39753 171.212 17.0046 171.212L29.4641 171.173L85.4533 171.142H186.523L242.504 171.201L244.303 171.212C249.819 171.212 254.306 166.724 254.306 161.208V135.356C254.306 130.428 251.415 125.906 246.936 123.844ZM160.41 76.1385H169.253C175.758 76.1385 181.876 79.0075 186.037 84.0121L208.045 110.494H160.41V76.1385ZM116.085 76.1385H151.98V110.494H116.085V76.1385ZM71.763 76.1385H107.655V110.494H71.763V76.1385ZM27.4381 76.1385H63.333V110.494H30.8129C28.9527 110.494 27.4381 108.979 27.4381 107.119V76.1385Z" fill="#F7931E"/>
<path d="M253.25 151.531L192.815 151.472H83.7083L23.2652 151.5L9.81658 151.539C6.75087 151.539 3.88467 150.767 1.40625 149.438V155.622C1.40625 164.218 8.39753 171.209 17.0046 171.209L29.4641 171.17L85.4533 171.139H186.523L242.504 171.201L244.303 171.212C249.819 171.212 254.306 166.725 254.306 161.209V151.537L253.25 151.531Z" fill="#F7931E"/>
<path d="M215.458 188.005C202.293 188.005 191.584 177.293 191.584 164.128C191.584 150.963 202.296 140.254 215.458 140.254C228.62 140.254 239.331 150.966 239.331 164.128C239.331 177.293 228.623 188.005 215.458 188.005Z" fill="#20241E"/>
<path d="M51.4548 188.005C38.29 188.005 27.5811 177.293 27.5811 164.128C27.5811 150.963 38.2928 140.254 51.4548 140.254C64.6197 140.254 75.3314 150.966 75.3314 164.128C75.3314 177.293 64.6225 188.005 51.4548 188.005Z" fill="#20241E"/>
<path d="M51.4555 176.773C44.4839 176.773 38.8105 171.099 38.8105 164.125C38.8105 157.153 44.4839 151.48 51.4555 151.48C58.4272 151.48 64.1005 157.153 64.1005 164.125C64.1034 171.099 58.43 176.773 51.4555 176.773Z" fill="#50534E"/>
<path d="M215.458 176.773C208.487 176.773 202.813 171.099 202.813 164.125C202.813 157.153 208.487 151.48 215.458 151.48C222.43 151.48 228.103 157.153 228.103 164.125C228.103 171.102 222.43 176.773 215.458 176.773Z" fill="#50534E"/>
<path d="M254.306 135.356C254.306 133.884 254.019 132.459 253.539 131.113H232.596C238.019 137.72 245.867 141.777 254.306 142.494V135.356Z" fill="#CED6CE"/>
<path d="M1.40625 139.184H7.51519C9.99642 139.184 12.0084 137.172 12.0084 134.691V129.644C12.0084 127.196 10.0526 125.218 7.61916 125.159L1.40625 125.162V139.184Z" fill="#F7931E"/>
</svg>
