<svg width="44" height="44" viewBox="0 0 44 44" fill="none" xmlns="http://www.w3.org/2000/svg">
<g clip-path="url(#clip0_147_6581)">
<path d="M29.2032 5.68652C29.2032 4.74837 30.1273 4 31.2699 4C32.4162 4 33.3367 4.7627 33.3367 5.68652V13.0951C33.3367 14.0332 32.4126 14.7816 31.2699 14.7816C30.1237 14.7816 29.2032 14.0189 29.2032 13.0951V5.68652ZM14.4171 28.4349L12.1068 36.2015V40.6058H9.18398V36.2015L6.95246 28.4385H9.85738C10.3051 30.8197 10.5666 32.4202 10.6311 33.2402C10.8137 31.944 11.1039 30.3434 11.5122 28.4385H14.4171V28.4349ZM15.2302 28.4349H20.5099V30.8662H18.4002V33.1901H20.3702V35.4961H18.4002V38.1745H20.7248V40.6058H15.2302V28.4349ZM27.3549 28.4349L29.1674 40.6058H25.9329L25.761 38.4216H24.6184L24.4464 40.6058H21.1726L22.7773 28.4349H27.3549ZM25.675 36.266C25.5246 34.8874 25.3634 33.1794 25.195 31.1419C24.8834 33.4801 24.6864 35.1882 24.6005 36.266H25.675ZM29.9805 28.4349H32.2191C33.7128 28.4349 34.7229 28.4922 35.2494 28.6068C35.7796 28.7214 36.2094 29.0186 36.5425 29.4912C36.8756 29.9639 37.044 30.7194 37.044 31.7542C37.044 32.6995 36.9258 33.3369 36.6894 33.6628C36.4565 33.9886 35.9909 34.182 35.2996 34.2464C35.9264 34.404 36.3491 34.6117 36.564 34.873C36.7789 35.1309 36.9114 35.3744 36.9652 35.5928C37.0189 35.8112 37.044 36.4092 37.044 37.3939V40.6058H34.1032V36.556C34.1032 35.9043 34.0531 35.5033 33.9492 35.3457C33.8489 35.1882 33.5839 35.113 33.1504 35.113V40.6058H29.9805V28.4349ZM33.154 30.5117V33.2188C33.5086 33.2188 33.7558 33.1686 33.8955 33.0719C34.0352 32.9753 34.1068 32.6566 34.1068 32.1195V31.4499C34.1068 31.0632 34.0387 30.8089 33.9026 30.6872C33.7665 30.5726 33.5158 30.5117 33.154 30.5117ZM10.5773 5.68652C10.5773 4.74837 11.5015 4 12.6441 4C13.7903 4 14.7108 4.7627 14.7108 5.68652V13.0951C14.7108 14.0332 13.7867 14.7816 12.6441 14.7816C11.4979 14.7816 10.5773 14.0189 10.5773 13.0951V5.68652ZM2.70791 19.7874H41.2563V12.1139C41.2563 11.8275 41.1452 11.5589 40.9554 11.3835C40.7655 11.1937 40.5112 11.0827 40.2247 11.0827H36.8899C36.2524 11.0827 35.7437 10.141 35.7437 9.50358C35.7437 8.86621 36.2524 8.35775 36.8899 8.35775H40.6617C41.5858 8.35775 42.4096 8.74089 43.015 9.34245C43.6203 9.94759 44 10.7891 44 11.695V44.6592C44 45.583 43.6167 46.4066 43.015 47.0117C42.4096 47.6169 41.5679 47.9964 40.6617 47.9964H3.34191C2.41778 47.9964 1.59394 47.6133 0.988603 47.0117C0.383263 46.4102 0 45.5687 0 44.6592V11.695C0 10.7712 0.383263 9.94759 0.985021 9.34245C1.59036 8.73731 2.43211 8.35775 3.33833 8.35775H7.3787C8.01628 8.35775 8.52491 8.86621 8.52491 9.50358C8.52491 10.141 8.01628 11.0827 7.3787 11.0827H3.77532C3.48877 11.0827 3.22012 11.1937 3.0267 11.3835C2.83686 11.5732 2.72582 11.8275 2.72582 12.1318V19.8053L2.70791 19.7874ZM41.2563 22.9421H2.70791V44.2116C2.70791 44.4981 2.81895 44.7666 3.00879 44.96C3.19863 45.1497 3.45295 45.2607 3.75741 45.2607H40.2068C40.4933 45.2607 40.762 45.1497 40.9554 44.96C41.1452 44.7702 41.2563 44.516 41.2563 44.2116V22.9421ZM18.0384 11.0648C17.4008 11.0648 16.8922 10.123 16.8922 9.48568C16.8922 8.84831 17.4008 8.33984 18.0384 8.33984H25.7359C26.3735 8.33984 26.8821 8.84831 26.8821 9.48568C26.8821 10.123 26.3735 11.0648 25.7359 11.0648H18.0384Z" fill="white"/>
</g>
<defs>
<clipPath id="clip0_147_6581">
<rect width="44" height="44" fill="white"/>
</clipPath>
</defs>
</svg>
