<svg width="32" height="33" viewBox="0 0 32 33" fill="none" xmlns="http://www.w3.org/2000/svg">
<g clip-path="url(#clip0_49_17026)">
<path d="M18.052 7.32764C18.1284 7.32764 18.2016 7.2973 18.2556 7.24329C18.3097 7.18927 18.34 7.11602 18.34 7.03964C18.34 6.96326 18.3097 6.89 18.2556 6.83599C18.2016 6.78198 18.1284 6.75164 18.052 6.75164C17.9756 6.75164 17.9024 6.78198 17.8484 6.83599C17.7943 6.89 17.764 6.96326 17.764 7.03964C17.764 7.11602 17.7943 7.18927 17.8484 7.24329C17.9024 7.2973 17.9756 7.32764 18.052 7.32764ZM5.644 9.42897L4.77333 11.161L2.992 10.2276L2.624 10.9623C2.66386 10.9536 2.70453 10.9491 2.74533 10.949C2.82 10.949 2.89333 10.9636 2.95067 10.989L4.94 12.0316L6.12267 9.67964L5.644 9.42897ZM26.608 10.0063L27.0213 9.77964L27.7013 11.0863L28.168 10.833L27.488 9.52764L27.884 9.31431L28.8613 11.193L29.328 10.9396L27.976 8.34231C27.9308 8.44723 27.8539 8.53536 27.756 8.59431L25.8213 9.64364L27.164 12.2236L27.6307 11.9703L26.608 10.0063ZM16.892 7.32764C16.9684 7.32764 17.0416 7.2973 17.0956 7.24329C17.1497 7.18927 17.18 7.11602 17.18 7.03964C17.18 6.96326 17.1497 6.89 17.0956 6.83599C17.0416 6.78198 16.9684 6.75164 16.892 6.75164C16.8156 6.75164 16.7424 6.78198 16.6884 6.83599C16.6343 6.89 16.604 6.96326 16.604 7.03964C16.604 7.11602 16.6343 7.18927 16.6884 7.24329C16.7424 7.2973 16.8156 7.32764 16.892 7.32764ZM23.636 9.35297L23.6387 9.35697C24.6995 10.5531 25.4641 11.9819 25.8709 13.528C26.2777 15.0742 26.3152 16.6943 25.9803 18.2576C25.6455 19.8209 24.9478 21.2835 23.9434 22.5274C22.9391 23.7713 21.6563 24.7616 20.1987 25.4183C20.1867 25.4236 20.1747 25.4316 20.1627 25.4356L20.1653 25.4343L20.1987 25.4183C20.5505 25.2515 20.835 24.9699 21.0055 24.6199C21.1761 24.2699 21.2224 23.8723 21.1369 23.4925C21.0514 23.1126 20.8392 22.7732 20.5351 22.53C20.2311 22.2868 19.8533 22.1543 19.464 22.1543L17.6573 22.1516C17.6264 22.1551 17.5951 22.1519 17.5655 22.1424C17.5359 22.1329 17.5086 22.1173 17.4854 22.0965C17.4622 22.0757 17.4437 22.0503 17.431 22.0219C17.4183 21.9935 17.4117 21.9628 17.4117 21.9316C17.4117 21.9005 17.4183 21.8698 17.431 21.8414C17.4437 21.813 17.4622 21.7875 17.4854 21.7668C17.5086 21.746 17.5359 21.7304 17.5655 21.7209C17.5951 21.7114 17.6264 21.7082 17.6573 21.7116H20.708C21.3976 21.7116 22.0589 21.4377 22.5465 20.9501C23.0341 20.4625 23.308 19.8012 23.308 19.1116C23.308 18.4221 23.0341 17.7608 22.5465 17.2732C22.0589 16.7856 21.3976 16.5116 20.708 16.5116H17.7627C17.7322 16.514 17.7017 16.5101 17.6728 16.5C17.644 16.49 17.6176 16.4742 17.5952 16.4534C17.5728 16.4327 17.5549 16.4076 17.5427 16.3796C17.5305 16.3517 17.5242 16.3215 17.5242 16.291C17.5242 16.2605 17.5305 16.2303 17.5427 16.2023C17.5549 16.1744 17.5728 16.1492 17.5952 16.1285C17.6176 16.1078 17.644 16.0919 17.6728 16.0819C17.7017 16.0719 17.7322 16.0679 17.7627 16.0703L20.0107 16.0676C21.1504 16.0676 22.2434 15.6149 23.0493 14.809C23.8552 14.0031 24.308 12.91 24.308 11.7703C24.3093 10.9309 24.0636 10.1097 23.6013 9.40897L23.588 9.39297C23.5842 9.38749 23.5824 9.38094 23.5827 9.37431C23.5827 9.35697 23.596 9.34364 23.6147 9.34364C23.6253 9.34364 23.6293 9.34364 23.636 9.35297ZM19.292 25.777C18.2356 26.135 17.1275 26.317 16.012 26.3156C14.5324 26.3174 13.0702 25.9957 11.728 25.373V17.3383H14.6147C14.5058 17.0093 14.4504 16.6649 14.4507 16.3183C14.4507 15.781 14.5827 15.2743 14.8133 14.8276H11.728V6.86897C13.0706 6.24612 14.5333 5.92439 16.0133 5.92631C17.7299 5.92384 19.419 6.3569 20.9227 7.18497C21.1307 7.31697 21.2693 7.54897 21.2693 7.81297C21.2695 7.91061 21.2504 8.00733 21.2132 8.09759C21.1759 8.18785 21.1213 8.26987 21.0523 8.33898C20.9833 8.40808 20.9014 8.46291 20.8112 8.50031C20.721 8.53772 20.6243 8.55697 20.5267 8.55697H19.2573C18.9013 8.55697 18.7053 8.66364 18.5827 8.77031C18.228 9.07697 18.3493 9.43964 17.6227 9.43964H15.6213C15.892 10.065 16.5147 10.5156 16.668 10.621H19.128C19.1756 10.6208 19.2222 10.6349 19.2617 10.6616C19.3011 10.6882 19.3317 10.7261 19.3493 10.7703C19.3675 10.8109 19.3722 10.8562 19.3627 10.8996C19.353 10.9549 19.3241 11.0049 19.2812 11.041C19.2383 11.0771 19.1841 11.0969 19.128 11.097H16.624C16.1225 11.3758 15.7477 11.8371 15.5773 12.385H20.0973C20.239 12.385 20.3748 12.4412 20.4749 12.5414C20.5751 12.6415 20.6313 12.7773 20.6313 12.919C20.6313 13.0606 20.5751 13.1964 20.4749 13.2966C20.3748 13.3967 20.239 13.453 20.0973 13.453H17.808C17.0502 13.453 16.3234 13.754 15.7876 14.2899C15.2517 14.8257 14.9507 15.5525 14.9507 16.3103C14.9507 17.0681 15.2517 17.7949 15.7876 18.3307C16.3234 18.8666 17.0502 19.1676 17.808 19.1676H20.6627C20.7853 19.1676 20.884 19.2703 20.884 19.3916C20.884 19.4206 20.8783 19.4492 20.8671 19.4759C20.8559 19.5026 20.8396 19.5269 20.819 19.5472C20.7984 19.5676 20.774 19.5836 20.7472 19.5944C20.7203 19.6053 20.6916 19.6107 20.6627 19.6103H17.7387C17.4638 19.6103 17.1916 19.6645 16.9376 19.7697C16.6836 19.8749 16.4528 20.029 16.2585 20.2234C16.0641 20.4178 15.9099 20.6486 15.8047 20.9026C15.6995 21.1565 15.6453 21.4287 15.6453 21.7036C15.6453 21.9785 15.6995 22.2507 15.8047 22.5047C15.9099 22.7587 16.0641 22.9895 16.2585 23.1838C16.4528 23.3782 16.6836 23.5324 16.9376 23.6376C17.1916 23.7428 17.4638 23.797 17.7387 23.797L18.8427 23.7996C19.4013 23.7996 19.8613 24.2676 19.8613 24.8223C19.8613 25.2756 19.588 25.5943 19.292 25.777ZM9.21733 14.8276H5.9C6.20979 12.3951 7.38786 10.1564 9.21733 8.52364V14.8276ZM9.21733 23.7196C7.36802 22.0689 6.18506 19.7997 5.89067 17.3383H9.21733V23.7196ZM16.0133 5.37431C14.5921 5.35847 13.1818 5.62473 11.8641 6.15767C10.5465 6.69061 9.34766 7.47963 8.33703 8.47906C7.32641 9.47849 6.52408 10.6685 5.9765 11.9801C5.42892 13.2917 5.14697 14.699 5.14697 16.1203C5.14697 17.5417 5.42892 18.9489 5.9765 20.2605C6.52408 21.5721 7.32641 22.7621 8.33703 23.7615C9.34766 24.761 10.5465 25.55 11.8641 26.0829C13.1818 26.6159 14.5921 26.8821 16.0133 26.8663C18.8635 26.8663 21.597 25.7341 23.6124 23.7187C25.6278 21.7033 26.76 18.9698 26.76 16.1196C26.76 13.2694 25.6278 10.536 23.6124 8.5206C21.597 6.50521 18.8635 5.37297 16.0133 5.37297V5.37431ZM15.612 8.05297H18.148C18.1989 8.05297 18.2478 8.03274 18.2838 7.99674C18.3198 7.96073 18.34 7.91189 18.34 7.86097C18.34 7.81005 18.3198 7.76121 18.2838 7.72521C18.2478 7.6892 18.1989 7.66897 18.148 7.66897H15.612C15.5611 7.66897 15.5122 7.6892 15.4762 7.72521C15.4402 7.76121 15.42 7.81005 15.42 7.86097C15.42 7.96631 15.5067 8.05297 15.612 8.05297ZM15.708 7.3263C15.7844 7.3263 15.8576 7.29596 15.9116 7.24195C15.9657 7.18794 15.996 7.11469 15.996 7.03831C15.996 6.96192 15.9657 6.88867 15.9116 6.83466C15.8576 6.78065 15.7844 6.75031 15.708 6.75031C15.6316 6.75031 15.5584 6.78065 15.5044 6.83466C15.4503 6.88867 15.42 6.96192 15.42 7.03831C15.42 7.11469 15.4503 7.18794 15.5044 7.24195C15.5584 7.29596 15.6316 7.3263 15.708 7.3263ZM16.1053 10.8623L16.1413 10.829L16.1053 10.7943C15.5453 10.3863 15.296 9.88097 15.1453 9.4903C15.0427 9.22097 14.9253 8.99964 14.756 8.83697C14.58 8.67031 14.4507 8.58097 14.196 8.58097C14.0925 8.582 13.9896 8.59543 13.8893 8.62097L13.8293 8.63431L13.8667 8.70497C13.9227 8.80897 14.0267 9.00364 14.2107 9.05831C14.2258 9.06282 14.2415 9.06507 14.2573 9.06497C14.2725 9.06475 14.2876 9.06386 14.3027 9.06231L14.3373 9.05964C14.3493 9.05964 14.3533 9.06231 14.3533 9.06231C14.5507 9.17564 14.6547 10.017 14.6547 10.4356C14.6547 10.5076 14.624 10.541 14.5587 10.541C14.4829 10.5368 14.4109 10.5067 14.3547 10.4556C14.2952 10.3929 14.2234 10.3432 14.1438 10.3097C14.0641 10.2762 13.9784 10.2596 13.892 10.261C13.5947 10.261 13.2813 10.461 13.268 10.7943V10.8623C13.2813 11.1956 13.5947 11.3956 13.892 11.3956C13.9783 11.397 14.0639 11.3805 14.1435 11.3473C14.2231 11.314 14.295 11.2646 14.3547 11.2023C14.4109 11.1513 14.4829 11.1212 14.5587 11.117C14.6253 11.117 14.6547 11.149 14.6547 11.2196C14.6547 11.6396 14.5507 12.481 14.3533 12.5943C14.3533 12.5943 14.3493 12.597 14.3373 12.597C14.3257 12.5966 14.3142 12.5957 14.3027 12.5943C14.2876 12.5927 14.2725 12.5919 14.2573 12.5916C14.2415 12.5915 14.2258 12.5938 14.2107 12.5983C14.028 12.6543 13.9227 12.8476 13.8667 12.9516L13.8293 13.0223L13.8893 13.037C13.9897 13.0619 14.0926 13.0749 14.196 13.0756C14.4507 13.0756 14.58 12.9863 14.756 12.8183C14.9253 12.657 15.0427 12.4356 15.1453 12.1663C15.296 11.7756 15.5453 11.2703 16.1053 10.8623ZM3.52 13.6943L3.356 14.765L2.42267 14.061L3.52 13.6943ZM1.82 14.5436C1.86086 14.5261 1.90486 14.517 1.94933 14.517C2.0072 14.5167 2.06415 14.5314 2.11467 14.5596L2.11867 14.5623L4.15333 16.1276L4.25733 15.4476L3.844 15.1356L4.09067 13.5036L4.576 13.341L4.68 12.6623L1.972 13.573L1.82 14.5436ZM16 31.481C7.51733 31.481 0.64 24.6036 0.64 16.121C0.64 7.63831 7.51733 0.760972 16 0.760972C24.4827 0.760972 31.36 7.63831 31.36 16.121C31.36 24.6036 24.4827 31.481 16 31.481ZM16 0.120972C7.164 0.120972 0 7.28497 0 16.121C0 24.957 7.164 32.121 16 32.121C24.836 32.121 32 24.957 32 16.121C32 7.28497 24.836 0.120972 16 0.120972ZM19.556 3.64497C19.6627 3.3383 19.9227 3.16897 20.2907 3.16897C20.444 3.16897 20.608 3.19964 20.776 3.26097C21.3627 3.47164 21.6427 3.89431 21.4893 4.33831C21.3827 4.64631 21.1213 4.81697 20.7547 4.81697C20.6 4.81697 20.4347 4.78497 20.2653 4.72364C19.6813 4.51431 19.4027 4.0903 19.5573 3.64497H19.556ZM20.08 5.26764C20.34 5.36097 20.5987 5.40897 20.848 5.40897C21.4827 5.40897 21.968 5.09697 22.148 4.57697C22.2101 4.3932 22.2278 4.19732 22.1995 4.0054C22.1712 3.81349 22.0978 3.63102 21.9853 3.47297C21.7653 3.14364 21.4013 2.87564 20.9613 2.71831C20.7187 2.62923 20.4625 2.58276 20.204 2.58097C19.564 2.58097 19.0773 2.88897 18.8973 3.40764C18.6427 4.14764 19.1387 4.93031 20.08 5.26764ZM24.2053 5.48097L23.9613 7.42097L23.992 7.44897L25.8493 7.01431L24.828 8.39697L25.3293 8.86364L26.8787 6.81964L26.3027 6.28364L24.6827 6.64631L24.88 4.95697L24.2773 4.39564L24.2027 4.32631C24.1991 4.44184 24.1547 4.55237 24.0773 4.63831L22.4707 6.19831L22.9747 6.66897L24.2053 5.48097ZM29.0387 15.4543C28.9982 15.4618 28.9572 15.4658 28.916 15.4663C28.5147 15.4663 28.2067 15.1156 28.1133 14.553C28.0093 13.929 28.2373 13.4756 28.696 13.3956C28.7357 13.3893 28.7758 13.3862 28.816 13.3863C29.2107 13.3863 29.5253 13.7436 29.616 14.297C29.7213 14.921 29.4933 15.377 29.0387 15.4556V15.4543ZM30.1707 14.1996C30.02 13.301 29.4467 12.6743 28.776 12.6743C28.7099 12.6742 28.6439 12.6795 28.5787 12.6903C27.8213 12.8236 27.392 13.6463 27.56 14.6503C27.712 15.5636 28.272 16.1783 28.9533 16.1783C29.0208 16.1783 29.0882 16.1725 29.1547 16.161C29.9107 16.029 30.3373 15.205 30.1707 14.1996ZM16.576 2.42364C16.792 2.42364 16.9373 2.57831 16.94 2.80764C16.9413 3.03964 16.8013 3.18497 16.572 3.18764L15.2533 3.19831L15.2467 2.43564L16.576 2.42364ZM14.5827 4.45431L15.264 4.44897L15.2587 3.73964L16.4013 3.72897L16.9013 4.43564L17.6613 4.42764L17.0867 3.66764L17.1573 3.63431C17.448 3.49431 17.6133 3.20364 17.6107 2.83697C17.6053 2.25697 17.224 1.88231 16.6387 1.88231L14.56 1.90097H14.44C14.512 1.98764 14.5573 2.10097 14.564 2.19697L14.5827 4.45431ZM10.0707 4.8863L9.13067 5.42631L9.10133 4.25697L10.0707 4.8863ZM8.51733 4.32497V4.32897L8.56267 6.89831L9.15867 6.55564L9.14533 6.03831L10.576 5.2143L11.0053 5.49431L11.6 5.15164L9.2 3.59964L8.34667 4.08764C8.39103 4.11194 8.42939 4.14587 8.45893 4.18694C8.48846 4.22801 8.50842 4.27518 8.51733 4.32497ZM4.99733 7.55431L6.61067 9.10097L7.07733 8.59431L6.48267 8.02364L7.47467 6.94631L7.09067 6.57697L6.09733 7.65431L5.63867 7.21431L7.068 5.66364L6.68267 5.29431L4.70133 7.44497C4.80724 7.45201 4.90897 7.489 4.99467 7.55164L4.99733 7.55431Z" fill="black"/>
</g>
<defs>
<clipPath id="clip0_49_17026">
<rect width="32" height="32" fill="white" transform="translate(0 0.120972)"/>
</clipPath>
</defs>
</svg>
