<svg width="32" height="15" viewBox="0 0 32 15" fill="none" xmlns="http://www.w3.org/2000/svg">
<g clip-path="url(#clip0_49_17029)">
<path fill-rule="evenodd" clip-rule="evenodd" d="M15.9999 6.00942C15.9415 6.00942 15.8985 6.05323 15.8981 6.0542C15.8954 6.05615 14.86 7.0443 14.86 7.0443C14.4782 7.41286 13.9712 7.25856 13.9171 7.24062C13.9171 7.24062 9.49094 6.03319 9.49037 6.0328C8.64571 5.77802 8.47786 5.5032 8.34862 5.16933C8.34862 5.16933 8.27355 4.96169 8.08968 4.90736C8.08968 4.90736 2.67916 3.31907 2.67872 3.31907C2.45793 3.25091 2.33643 3.18858 2.24963 3.02049C2.24963 3.02049 1.95268 2.49752 1.9517 2.49612C1.88577 2.37075 1.76648 2.35748 1.75956 2.35651C1.35037 2.30119 1.23038 2.07311 1.17963 1.97591L0.938282 1.55206C0.862792 1.42072 0.754837 1.40966 0.751521 1.40924C0.518863 1.39445 0.408123 1.33584 0.311927 1.17781C0.311927 1.17781 0.0759529 0.785338 0.0749773 0.783416C-0.0410033 0.56915 -0.000903165 0.415688 0.0526005 0.324732C0.165265 0.13811 0.371532 0.12387 0.454325 0.120972H13.392C13.7583 0.120972 14.0543 0.231992 14.2731 0.451496C14.4303 0.608134 14.5386 0.812452 14.5945 1.05865C14.5955 1.06445 14.6107 1.11589 14.7214 1.11589H17.2786C17.3894 1.11589 17.4046 1.06448 17.4055 1.05865C17.4615 0.812451 17.5698 0.608106 17.727 0.451496C17.9458 0.231963 18.2418 0.120972 18.6081 0.120972H31.5458C31.6285 0.12387 31.8348 0.13811 31.9475 0.324732C32.001 0.415688 32.0411 0.569149 31.9251 0.783416C31.9241 0.785366 31.6882 1.17781 31.6882 1.17781C31.5919 1.33581 31.4812 1.39445 31.2486 1.40924C31.2452 1.40966 31.1373 1.42072 31.0618 1.55206L30.8204 1.97591C30.7697 2.07308 30.6497 2.30119 30.2405 2.35651C30.2336 2.35748 30.1143 2.37075 30.0484 2.49612C30.0474 2.49751 29.7505 3.02049 29.7505 3.02049C29.6637 3.1886 29.5421 3.25094 29.3214 3.31907C29.3209 3.31907 23.9104 4.90736 23.9104 4.90736C23.7265 4.9617 23.6515 5.16933 23.6515 5.16933C23.5222 5.50317 23.3544 5.77801 22.5097 6.0328C22.5092 6.03319 18.083 7.24062 18.083 7.24062C18.0289 7.25859 17.5219 7.41286 17.1401 7.0443C17.1401 7.0443 16.1046 6.05615 16.102 6.0542C16.1016 6.05323 16.0586 6.00942 16.0001 6.00942H15.9999H15.9999Z" fill="black"/>
<path fill-rule="evenodd" clip-rule="evenodd" d="M17.6406 1.11107C17.6858 0.9106 17.7723 0.746243 17.8966 0.621958C18.0687 0.449576 18.3083 0.361937 18.6076 0.361937C18.6076 0.361937 21.5015 0.361937 24.551 0.361937C24.3467 0.514841 24.2394 0.708234 24.2322 0.721108C24.1634 0.850074 24.0774 1.00103 23.9751 1.17012H17.6196C17.6327 1.14691 17.6406 1.1111 17.6406 1.1111L17.6406 1.11107L17.6406 1.11107ZM31.7132 0.668132C31.7099 0.673371 31.4811 1.05397 31.4811 1.05397C31.4377 1.12545 31.4109 1.1578 31.2326 1.16915C31.2316 1.16915 24.1941 1.17009 24.1941 1.17009C24.2728 1.03683 24.3404 0.915866 24.397 0.810532C24.399 0.806798 24.6482 0.362494 25.0909 0.362494L31.5388 0.361937C31.6064 0.364835 31.6943 0.372443 31.7408 0.449159C31.7464 0.459526 31.7597 0.480955 31.7597 0.519522C31.7597 0.553798 31.7488 0.602453 31.7133 0.668135H31.7132L31.7132 0.668132ZM30.8524 1.43304L30.6067 1.8645C30.5731 1.92837 30.5214 2.02693 30.3572 2.08361C30.2199 2.11789 29.9469 2.09604 29.8523 2.08459L23.8655 1.68685C23.9429 1.57212 24.0146 1.46166 24.08 1.35685H30.9041C30.8863 1.37965 30.8687 1.40439 30.8524 1.43301V1.43304L30.8524 1.43304ZM29.8346 2.3836C29.8362 2.38178 29.5992 2.799 29.5499 2.88569C29.5377 2.90188 29.4704 2.97514 29.251 2.94611L23.5142 2.17652C23.5929 2.07366 23.6674 1.97164 23.7372 1.87308L29.8314 2.27745C29.8402 2.27843 29.8659 2.28132 29.9026 2.28464C29.8776 2.31326 29.8547 2.34558 29.8347 2.38362L29.8346 2.38359L29.8346 2.3836ZM27.8615 3.49711C27.6456 3.55435 27.2231 3.48951 27.0764 3.4591C27.0764 3.4591 24.3779 2.90462 23.1344 2.64886C23.2207 2.54751 23.3035 2.44702 23.382 2.34748L29.1431 3.12081L27.8615 3.49712H27.8615L27.8615 3.49711ZM25.9074 4.07055C25.6303 4.14479 25.2685 4.0248 25.265 4.02382L25.2607 4.02243C25.2607 4.02243 25.2602 4.02201 25.2598 4.02201L22.6213 3.20806C22.752 3.07519 22.8763 2.94318 22.9934 2.81087L27.0388 3.64241C27.0477 3.64378 27.1305 3.66094 27.2469 3.6771L25.9074 4.07055H25.9074L25.9074 4.07055ZM23.8464 4.67593C23.6591 4.72681 23.383 4.61869 23.2914 4.57251C23.2914 4.57251 22.5854 4.24199 21.8604 3.90288C22.0782 3.72425 22.2815 3.54192 22.471 3.35764L25.2071 4.20203C25.2124 4.20395 25.2622 4.22014 25.3383 4.23728L23.8464 4.67593L23.8464 4.67593ZM23.4241 5.08885C23.3444 5.29317 23.2611 5.50359 22.6998 5.71454C22.4681 5.78655 22.1926 5.58167 22.1902 5.57933C22.1893 5.57838 21.5644 5.13115 20.8529 4.622C21.1419 4.44352 21.4239 4.24722 21.6975 4.03296L23.2095 4.74063C23.2178 4.74492 23.3737 4.82356 23.5626 4.85881C23.4723 4.96167 23.4314 5.06784 23.424 5.08885H23.4241L23.4241 5.08885ZM21.3094 6.11088L21.0987 6.16798C20.9213 6.21042 20.7048 6.0347 20.6356 5.96172C20.6356 5.96172 20.2955 5.60795 19.8585 5.15161C20.138 5.02498 20.4112 4.88356 20.6779 4.72734L22.0791 5.72987C22.0847 5.73457 22.1648 5.79457 22.2824 5.84557C21.9711 5.93031 21.3094 6.11086 21.3094 6.11086V6.11088L21.3094 6.11088ZM19.4568 6.61616C19.3089 6.63951 19.1372 6.39663 19.0874 6.30606L18.6648 5.59081C19.01 5.49127 19.3474 5.37211 19.6756 5.23164L20.4998 6.09177C20.5072 6.09896 20.5984 6.19365 20.7306 6.26844L19.4568 6.61614L19.4568 6.61616L19.4568 6.61616ZM18.0538 6.99854C17.9542 7.02148 17.8702 7.01139 17.798 6.96772C17.6429 6.87289 17.5913 6.65473 17.5884 6.64188L17.3729 5.86413C17.7499 5.81174 18.118 5.73792 18.4779 5.64267L18.9249 6.39955C18.9403 6.42664 19.031 6.58481 19.167 6.69527L18.0537 6.99857L18.0538 6.99854L18.0538 6.99854ZM17.1445 6.71626C17.1445 6.71626 16.5451 6.14421 16.3418 5.95082C16.6271 5.94087 16.9086 5.91986 17.185 5.88751L17.4055 6.68282C17.4118 6.71046 17.4557 6.8848 17.5782 7.02346C17.4093 6.97533 17.3581 6.92531 17.1445 6.71629V6.71626V6.71626ZM16.0936 5.76888V3.34577H16.4804L17.1343 5.70515C16.794 5.74413 16.4471 5.76556 16.0936 5.76888V5.76888ZM14.8652 5.70515L15.5195 3.34577H15.9063V5.76849C15.5521 5.76559 15.2054 5.74374 14.8652 5.70518V5.70515L14.8652 5.70515ZM14.6935 6.86997C14.6088 6.95237 14.5135 6.99855 14.4213 7.0234C14.5446 6.88432 14.5875 6.70946 14.594 6.68237L14.8145 5.88845C15.091 5.92039 15.3724 5.94126 15.6576 5.95079C15.4292 6.16798 14.6935 6.86997 14.6935 6.86997L14.6935 6.86997ZM14.4111 6.64049C14.4111 6.64283 14.3603 6.87053 14.2012 6.96773C14.129 7.01142 14.0453 7.02148 13.9457 6.99855L12.8325 6.69525C12.9685 6.58423 13.0602 6.42609 13.0759 6.39705C13.0753 6.39761 13.2645 6.07801 13.5209 5.64323C13.8809 5.73848 14.2496 5.8123 14.6266 5.86413L14.411 6.64049H14.4111V6.64049ZM12.5427 6.61616L11.269 6.26847C11.4011 6.19326 11.4928 6.09843 11.4997 6.09138C11.4997 6.09138 11.8638 5.71119 12.3239 5.23164C12.6525 5.37167 12.989 5.49166 13.3343 5.5912L12.9135 6.30425C12.8622 6.3966 12.6905 6.63948 12.5427 6.61613L12.5427 6.61616L12.5427 6.61616ZM10.9005 6.16798L9.71704 5.8456C9.83508 5.79418 9.9157 5.73363 9.92233 5.72836C9.92136 5.72934 10.5835 5.25544 11.3216 4.72737C11.5883 4.88303 11.8615 5.02501 12.1414 5.15163L11.3639 5.96174C11.2947 6.03473 11.0782 6.21042 10.9005 6.16801V6.16798L10.9005 6.16798ZM9.29818 5.71454C8.73926 5.50356 8.65549 5.29359 8.57599 5.08983C8.5695 5.07171 8.52859 4.96306 8.43693 4.85882C8.6262 4.82301 8.78268 4.74451 8.7929 4.73924C8.79137 4.73966 9.54895 4.38589 10.3024 4.03296C10.5753 4.24723 10.8573 4.44394 11.1465 4.62201L9.81106 5.57741C9.80677 5.5817 9.52986 5.78752 9.29818 5.71454L9.29818 5.71454ZM8.1535 4.67593C8.0971 4.65918 7.46977 4.4749 6.66116 4.23728C6.7383 4.22014 6.78904 4.203 6.7947 4.20105C6.79236 4.20203 9.01196 3.51715 9.52885 3.35764C9.71837 3.54151 9.92174 3.72426 10.1395 3.90246L8.71086 4.57115C8.6163 4.61869 8.34079 4.72681 8.15347 4.67593H8.1535L8.1535 4.67593ZM6.09344 4.07097C5.65354 3.942 5.18976 3.80582 4.75234 3.67711C4.86901 3.66094 4.95236 3.64378 4.96109 3.64185C4.96067 3.64241 7.81705 3.05515 9.00646 2.81087C9.12412 2.94274 9.24743 3.07519 9.3782 3.20806L6.73678 4.02299C6.73082 4.0248 6.37056 4.14437 6.0934 4.07097H6.09343L6.09344 4.07097ZM4.13977 3.49767C3.54546 3.32239 3.06245 3.18097 2.85632 3.12083L8.61829 2.34751C8.69696 2.44649 8.77934 2.54698 8.86547 2.64847L4.92305 3.45913C4.77677 3.48953 4.35624 3.55438 4.13975 3.4977L4.13977 3.49767L4.13977 3.49767ZM2.74893 2.94608C2.53104 2.97512 2.46263 2.90322 2.45006 2.88608L2.16334 2.38123C2.14386 2.34364 2.12076 2.31226 2.09685 2.28459C2.13361 2.28127 8.2633 1.87303 8.2633 1.87303C8.33314 1.97159 8.40707 2.07305 8.48573 2.17646L2.74895 2.94606L2.74893 2.94608L2.74893 2.94608ZM1.64285 2.08359C1.47846 2.0269 1.42635 1.92834 1.39277 1.86447C1.29226 1.69362 1.16009 1.43828 1.09513 1.35685H7.92031C7.98582 1.46163 8.05702 1.5721 8.13485 1.68685L2.14713 2.08459C2.05314 2.09607 1.77996 2.11789 1.64283 2.08361V2.08358L1.64285 2.08359ZM0.768871 1.17006C0.604486 1.15778 0.569514 1.13827 0.517822 1.05339C0.518379 1.05394 0.303277 0.696307 0.286139 0.668105C0.25047 0.602451 0.23871 0.553768 0.240243 0.519493C0.244256 0.431852 0.303834 0.364248 0.460751 0.36188L6.90907 0.362437C7.34551 0.362437 7.60292 0.810474 7.60292 0.810474C7.6596 0.91581 7.7272 1.03678 7.80629 1.17003H0.76892L0.768864 1.17006L0.768871 1.17006ZM13.3918 0.361906C13.6916 0.361906 13.9307 0.449546 14.1029 0.621928C14.2272 0.746212 14.3135 0.91057 14.3594 1.11104C14.3594 1.11104 14.3686 1.14532 14.3804 1.17006H8.02493C7.92776 1.01053 7.76767 0.721048 7.76767 0.721048C7.76062 0.708202 7.65319 0.51478 7.44887 0.361877C10.4984 0.361877 13.3918 0.361877 13.3918 0.361877L13.3918 0.361905L13.3918 0.361906ZM22.5951 1.60305V1.35685H23.8586C23.7943 1.45776 23.7241 1.56351 23.6489 1.67258L22.5951 1.60305L22.5951 1.60305ZM22.5951 2.05357V1.79742L23.5177 1.85836C23.4495 1.95306 23.3767 2.0497 23.3007 2.1484L22.5951 2.05357H22.5951ZM22.5951 2.53842V2.24217L23.1657 2.31892C23.089 2.41375 23.0085 2.50941 22.9246 2.60602C22.7775 2.57562 22.6642 2.55266 22.5951 2.53842L22.5951 2.53842ZM22.5951 2.72944L22.7813 2.76746C22.7213 2.83367 22.6589 2.90085 22.5951 2.96709V2.72944ZM20.67 3.34574H22.2123C22.0551 3.50196 21.684 3.80429 21.6719 3.81437C21.2968 3.63853 20.931 3.46808 20.67 3.34574H20.67ZM19.0693 3.34574H20.2283L21.5068 3.94392C21.2411 4.14729 20.9679 4.33392 20.6872 4.50396C20.0702 4.062 19.4201 3.59668 19.0693 3.34577V3.34574L19.0693 3.34574ZM18.1264 3.34574H18.7482L20.5105 4.60776C20.2536 4.75498 19.9897 4.88882 19.7207 5.00784C19.1404 4.40302 18.4414 3.67381 18.1264 3.34574V3.34574ZM17.3387 3.34574H17.8667L19.5365 5.0869C19.2212 5.21837 18.8974 5.3302 18.5662 5.42408L17.3386 3.34574H17.3387ZM17.1212 3.34574L18.379 5.47455C18.0347 5.56414 17.682 5.63269 17.3222 5.68177L16.6745 3.34574H17.1212V3.34574ZM14.8783 3.34574H15.325L14.6773 5.68176C14.3169 5.63269 13.9648 5.56411 13.6205 5.47508C14.0918 4.67785 14.7206 3.61281 14.8783 3.34574V3.34574ZM14.1327 3.34574H14.6609L13.4333 5.42408C13.1021 5.33079 12.7787 5.21837 12.4627 5.08637C13.1324 4.38868 13.9382 3.54855 14.1327 3.34577L14.1327 3.34574V3.34574ZM13.2514 3.34574H13.8732L12.2794 5.00784C12.0098 4.88882 11.7465 4.75501 11.4888 4.60776C12.2537 4.06005 13.0509 3.48909 13.2514 3.34574V3.34574ZM10.3277 3.81437C10.3136 3.80289 9.94418 3.4924 9.78729 3.34574H11.3294L10.3277 3.81437ZM11.7712 3.34574H12.9299L11.3122 4.50351C11.0313 4.33389 10.7582 4.14727 10.4929 3.9439C11.1002 3.65954 11.6625 3.3966 11.7712 3.34571V3.34574V3.34574ZM9.40298 2.72944V2.96514C9.33967 2.89949 9.27814 2.83325 9.2187 2.76746C9.29266 2.75185 9.35461 2.73939 9.40298 2.72944ZM9.40298 2.24214V2.53839L9.0748 2.606C8.99103 2.50894 8.911 2.41372 8.8344 2.31889L9.40298 2.24214L9.40298 2.24214ZM9.40298 1.79742V2.05357L8.69932 2.1484C8.62317 2.0497 8.55099 1.95306 8.48286 1.85836L9.40301 1.79742H9.40298H9.40298ZM9.40298 1.60305L8.35163 1.67258C8.27587 1.56351 8.20606 1.45776 8.14177 1.35685H9.40296V1.60305H9.40299L9.40298 1.60305Z" fill="white"/>
<path fill-rule="evenodd" clip-rule="evenodd" d="M9.59315 3.15858C9.59218 3.15761 9.59134 3.15663 9.59039 3.15569V1.35785H22.4081V3.15666C22.4077 3.15764 22.4072 3.15764 22.4068 3.15805L9.59319 3.15861L9.59316 3.15858L9.59315 3.15858Z" fill="url(#paint0_linear_49_17029)"/>
<path fill-rule="evenodd" clip-rule="evenodd" d="M10.4421 1.64493H10.3886L9.84088 2.8703H9.98921L9.99156 2.86325C10.0359 2.71408 10.093 2.57129 10.1485 2.43413C10.1485 2.43413 10.1564 2.41451 10.16 2.40509C10.1735 2.40509 10.57 2.40509 10.5835 2.40509C10.6408 2.53545 10.6994 2.68504 10.7621 2.86364L10.7646 2.87027H10.9694L10.4421 1.6449V1.64493L10.4421 1.64493ZM10.2014 2.31169C10.2126 2.2846 10.3564 1.94784 10.3735 1.90787C10.3904 1.94784 10.5369 2.28457 10.5485 2.31169C10.5198 2.31169 10.2295 2.31169 10.2014 2.31169H10.2014Z" fill="white"/>
<path fill-rule="evenodd" clip-rule="evenodd" d="M11.0284 2.78322L11.033 2.78793C11.0977 2.85843 11.2435 2.89134 11.322 2.89134C11.579 2.89134 11.759 2.72559 11.759 2.48756C11.759 2.29029 11.6097 2.23222 11.4654 2.17512C11.3372 2.1241 11.2153 2.07697 11.2153 1.93126C11.2153 1.82066 11.3025 1.74076 11.4219 1.74076C11.5175 1.74076 11.5896 1.79123 11.6263 1.88358L11.6287 1.89021H11.6614L11.7125 1.7355L11.7068 1.73026C11.637 1.66736 11.5296 1.64496 11.4532 1.64496C11.2136 1.64496 11.0591 1.77877 11.0591 1.98643C11.0591 2.19794 11.2168 2.25933 11.3556 2.31462C11.4811 2.36313 11.5989 2.40987 11.5989 2.55516C11.5989 2.68995 11.4984 2.79612 11.3704 2.79612C11.2532 2.79612 11.1753 2.74566 11.0996 2.62179L11.0967 2.61708H11.0641L11.0284 2.78325V2.78322L11.0284 2.78322Z" fill="white"/>
<path fill-rule="evenodd" clip-rule="evenodd" d="M12.726 1.67023H11.825V1.79643L11.8366 1.79546C11.94 1.78454 12.0399 1.77501 12.2029 1.77445C12.2029 1.79588 12.2029 2.87417 12.2029 2.87417H12.376C12.376 2.87417 12.376 1.79643 12.376 1.77501C12.4983 1.77501 12.6153 1.78206 12.7246 1.79546L12.7368 1.79685V1.67023H12.726V1.67023Z" fill="white"/>
<path fill-rule="evenodd" clip-rule="evenodd" d="M13.3469 1.64496C12.9646 1.64496 12.6973 1.90264 12.6973 2.27079C12.6973 2.64225 12.9573 2.89135 13.3435 2.89135C13.7428 2.89135 14.0117 2.63133 14.0117 2.24465C14.0117 1.83019 13.6776 1.64496 13.3469 1.64496V1.64496ZM13.6669 2.6775C13.5819 2.76748 13.4751 2.81326 13.3482 2.81326C13.0684 2.81326 12.8875 2.60853 12.8875 2.29183C12.8875 1.94082 13.0703 1.7231 13.364 1.7231C13.5025 1.7231 13.6333 1.78407 13.714 1.88595C13.8028 1.99931 13.8209 2.11752 13.8209 2.25894C13.8214 2.26655 13.8218 2.27511 13.8218 2.28327C13.8218 2.39841 13.775 2.56182 13.6669 2.67753L13.6669 2.6775L13.6669 2.6775Z" fill="white"/>
<path fill-rule="evenodd" clip-rule="evenodd" d="M15.2119 1.67023H15.1045C15.1045 1.67023 15.1045 2.53743 15.1045 2.55844C15.1035 2.55844 15.1031 2.55844 15.1025 2.55844C15.0963 2.55126 14.2826 1.67023 14.2826 1.67023H14.1998V2.87033H14.3179C14.3179 2.87033 14.3179 1.96302 14.3179 1.94162C14.3189 1.94162 14.3194 1.94162 14.3204 1.94162C14.3267 1.94881 15.062 2.76276 15.062 2.76276L15.1543 2.87033H15.1598H15.2226V1.67023H15.2119H15.2119L15.2119 1.67023Z" fill="white"/>
<path fill-rule="evenodd" clip-rule="evenodd" d="M17.1511 1.67023H17.1086L16.8179 2.19735C16.8179 2.19735 16.634 2.53272 16.6173 2.56274C16.438 2.26359 16.2765 1.94881 16.139 1.67591L16.1361 1.67023H16.0751L16.0742 1.68018C16.057 1.85741 15.9538 2.57985 15.9087 2.8584L15.9064 2.8703H16.0518V2.85993C16.0518 2.69087 16.0818 2.43884 16.1137 2.17163C16.1137 2.17163 16.1273 2.05356 16.1328 2.00644C16.1533 2.04542 16.379 2.47412 16.4653 2.65077L16.5629 2.85177H16.5955L16.5983 2.84514C16.6988 2.61454 16.8403 2.3512 17.0343 2.00449C17.0618 2.21115 17.0982 2.6241 17.1182 2.86077L17.1193 2.8703H17.3032L17.3015 2.8584C17.2601 2.56739 17.2148 2.18214 17.1618 1.68018L17.1608 1.67023H17.1511H17.1511V1.67023Z" fill="white"/>
<path fill-rule="evenodd" clip-rule="evenodd" d="M17.9741 1.64492H17.9203L17.3723 2.8703H17.5215L17.5234 2.86325C17.5679 2.71271 17.6253 2.56934 17.681 2.43123C17.681 2.43123 17.6879 2.4141 17.6912 2.40509C17.7048 2.40509 18.1013 2.40509 18.1151 2.40509C18.1734 2.53838 18.2334 2.69168 18.2934 2.86364L18.2959 2.87027H18.5009L17.9741 1.6449V1.64493V1.64492ZM17.7331 2.31169C17.7443 2.2846 17.8882 1.94784 17.9054 1.90787C17.9225 1.94783 18.0686 2.28457 18.0804 2.31169C18.0515 2.31169 17.7615 2.31169 17.7331 2.31169Z" fill="white"/>
<path fill-rule="evenodd" clip-rule="evenodd" d="M19.028 2.27741C19.2446 2.2336 19.3741 2.11027 19.3741 1.94354C19.3741 1.76023 19.2455 1.67023 18.9803 1.67023H18.6042V2.87033H18.7769C18.7769 2.87033 18.7769 2.31598 18.7769 2.29511C18.7905 2.29511 18.8198 2.29511 18.8272 2.29511C18.8329 2.30216 18.9617 2.45367 18.9617 2.45367C18.9612 2.45311 19.1651 2.71701 19.1651 2.71701L19.2768 2.87033H19.2827H19.503C19.503 2.87033 19.0484 2.30269 19.028 2.27741H19.028L19.028 2.27741ZM18.7769 2.20883C18.7769 2.18974 18.7769 1.77448 18.7769 1.75539C18.8481 1.75207 18.9584 1.74739 19.0184 1.75692C19.1381 1.7764 19.1991 1.84637 19.1991 1.964C19.1991 2.08455 19.1199 2.1726 18.9865 2.1993C18.9114 2.21452 18.8207 2.21173 18.7769 2.20883V2.20883Z" fill="white"/>
<path fill-rule="evenodd" clip-rule="evenodd" d="M20.3731 1.67023H19.4717V1.79643L19.4835 1.79546C19.5871 1.78454 19.6869 1.77501 19.8493 1.77445C19.8493 1.79588 19.8493 2.87417 19.8493 2.87417H20.0234C20.0234 2.87417 20.0234 1.79643 20.0234 1.77501C20.1453 1.77501 20.2624 1.78206 20.3717 1.79546L20.3839 1.79685V1.67023H20.3731H20.3731L20.3731 1.67023Z" fill="white"/>
<path fill-rule="evenodd" clip-rule="evenodd" d="M20.5262 2.87038H20.6896V1.67023H20.5262V2.87038Z" fill="white"/>
<path fill-rule="evenodd" clip-rule="evenodd" d="M21.8488 1.67023C21.8488 1.67023 21.8488 2.53743 21.8488 2.55844C21.8482 2.55844 21.8478 2.55844 21.8474 2.55844C21.8409 2.55126 21.0275 1.67023 21.0275 1.67023H20.9445V2.87033H21.0627C21.0627 2.87033 21.0627 1.96302 21.0627 1.94162C21.0637 1.94162 21.0641 1.94162 21.0647 1.94162C21.071 1.94881 21.8073 2.76276 21.8073 2.76276L21.8995 2.87033H21.9669V1.67023H21.8488V1.67023Z" fill="white"/>
<path fill-rule="evenodd" clip-rule="evenodd" d="M6.16461 14.3883C6.09991 14.3844 6.0449 14.3778 5.98627 14.3778C5.92128 14.3778 5.86296 14.3844 5.80433 14.3883C5.7052 14.1034 5.58148 13.7748 5.44407 13.4629H4.57299C4.45285 13.7643 4.32913 14.0658 4.23332 14.3883C4.1852 14.3844 4.1476 14.3778 4.10614 14.3778C4.06161 14.3778 4.02374 14.3844 3.98615 14.3883L5.05656 11.9937H5.13564L6.16458 14.3883H6.16461ZM27.8928 14.3883H27.7894C27.7518 14.3406 27.6829 14.2582 27.6113 14.1791L26.1287 12.5408H26.0951V14.3883C26.0606 14.3844 26.0298 14.3778 25.9984 14.3778C25.9644 14.3778 25.9332 14.3844 25.9025 14.3883V12.0445H26.0366L27.666 13.809H27.7006V12.0445C27.7313 12.0474 27.762 12.0546 27.7968 12.0546C27.8279 12.0546 27.8588 12.0474 27.8928 12.0445V14.3883L27.8928 14.3883ZM25.1149 12.0445C25.1631 12.0474 25.2148 12.0546 25.2659 12.0546C25.3139 12.0546 25.3621 12.0474 25.4167 12.0445V14.3883C25.3621 14.3844 25.3139 14.3778 25.2659 14.3778C25.2148 14.3778 25.163 14.3844 25.1149 14.3883V12.0445ZM24.0155 14.3949C23.9605 14.3916 23.9122 14.3844 23.8638 14.3844C23.8127 14.3844 23.7614 14.3916 23.7133 14.3949V12.2089C23.3672 12.2089 23.1579 12.2294 22.9614 12.2498C22.9657 12.2156 22.9721 12.1813 22.9721 12.1474C22.9721 12.1127 22.9657 12.0821 22.9614 12.0445H24.7322C24.7287 12.0821 24.7224 12.1127 24.7224 12.1474C24.7224 12.1813 24.7287 12.2156 24.7322 12.2498C24.5609 12.2294 24.3204 12.2089 24.0155 12.2089V14.3949H24.0155H24.0155ZM21.2359 12.0445H21.9633C22.4921 12.0445 22.7252 12.2189 22.7252 12.5652C22.7252 12.9623 22.3686 13.1548 22.0219 13.2161L22.7287 14.1106L22.8935 14.3025L22.9582 14.3883C22.8866 14.3844 22.8247 14.3778 22.7594 14.3778C22.6944 14.3778 22.6259 14.3844 22.5632 14.3883C22.4882 14.282 22.4199 14.1854 22.3472 14.0896L21.9428 13.5658L21.6683 13.2442H21.5383V14.3883C21.4831 14.3844 21.4352 14.3778 21.3871 14.3778C21.3354 14.3778 21.284 14.3844 21.2359 14.3883V12.0445L21.2359 12.0445ZM21.5383 13.1133C21.5859 13.1166 21.8054 13.1304 21.9806 13.0961C22.2318 13.0451 22.4199 12.8733 22.4199 12.6065C22.4199 12.3698 22.2994 12.2155 22.0424 12.1741C21.9158 12.1542 21.6817 12.1641 21.5384 12.1713V13.1133L21.5383 13.1133H21.5383ZM20.9982 14.3883C20.9326 14.3844 20.8785 14.3778 20.8194 14.3778C20.7544 14.3778 20.6961 14.3844 20.6384 14.3883C20.5384 14.1034 20.4146 13.7748 20.2774 13.4629H19.4065C19.2861 13.7643 19.1622 14.0658 19.0666 14.3883C19.0184 14.3844 18.9808 14.3778 18.9398 14.3778C18.8953 14.3778 18.857 14.3844 18.8198 14.3883L19.8898 11.9937H19.9687L20.9982 14.3883ZM19.8454 12.4423L19.4713 13.319H20.2262L19.8455 12.4423H19.8454ZM18.3844 12.0445C18.4737 12.8904 18.57 13.7339 18.6622 14.3883C18.6003 14.3844 18.5522 14.3778 18.501 14.3778C18.4457 14.3778 18.3913 14.3844 18.34 14.3883C18.2819 13.6992 18.2121 12.9594 18.1643 12.6203C17.7664 13.3295 17.4713 13.8772 17.2656 14.3506H17.228L17.0394 13.9629C16.8193 13.5114 16.5793 13.0657 16.3461 12.6203C16.2706 13.288 16.178 13.9662 16.178 14.3883C16.1338 14.3844 16.0956 14.3778 16.0584 14.3778C16.0138 14.3778 15.9757 14.3844 15.9347 14.3883C16.0235 13.8367 16.2293 12.4041 16.2637 12.0445H16.3531C16.6276 12.5899 16.957 13.2333 17.3236 13.84C17.6505 13.2533 17.9659 12.6581 18.3122 12.0445H18.3844H18.3844ZM14.518 14.3883H14.4144C14.3771 14.3406 14.3082 14.2582 14.2365 14.1791L12.754 12.5408H12.7198V14.3883C12.6856 14.3844 12.6544 14.3778 12.6236 14.3778C12.5896 14.3778 12.5589 14.3844 12.5277 14.3883V12.0445H12.6618L14.2911 13.809H14.3258V12.0445C14.3565 12.0474 14.3873 12.0546 14.4213 12.0546C14.452 12.0546 14.4833 12.0474 14.518 12.0445V14.3883V14.3883H14.518ZM9.5971 13.2161C9.5971 12.4656 10.156 11.9937 10.8666 11.9937C11.5119 11.9937 12.1668 12.3422 12.1668 13.1647C12.1668 13.9286 11.625 14.4296 10.8604 14.4296C10.102 14.4296 9.59712 13.9496 9.59712 13.2161L9.5971 13.2161L9.5971 13.2161ZM11.6147 12.4384C11.4435 12.2227 11.1758 12.106 10.9006 12.106C10.2974 12.106 9.93359 12.5618 9.93359 13.257C9.93359 13.9534 10.3588 14.3158 10.8702 14.3158C11.5943 14.3158 11.855 13.569 11.8307 13.1923C11.8307 12.9085 11.7931 12.668 11.6147 12.4383V12.4384L11.6147 12.4384ZM8.92026 14.3949C8.86511 14.3916 8.8174 14.3844 8.76916 14.3844C8.71744 14.3844 8.66575 14.3916 8.61835 14.3949V12.2089C8.27163 12.2089 8.06191 12.2294 7.86685 12.2498C7.87016 12.2156 7.87707 12.1813 7.87707 12.1474C7.87707 12.1127 7.87016 12.0821 7.86685 12.0445H9.63704C9.63331 12.0821 9.62681 12.1127 9.62681 12.1474C9.62681 12.1813 9.63331 12.2156 9.63704 12.2498C9.46533 12.2294 9.22562 12.2089 8.92026 12.2089V14.3949ZM6.40522 13.9253C6.53875 14.1449 6.69288 14.282 6.96124 14.282C7.23868 14.282 7.43776 14.052 7.43776 13.7816C7.43776 13.1443 6.36375 13.4257 6.36375 12.6509C6.36375 12.2089 6.71378 11.9937 7.12562 11.9937C7.28984 11.9937 7.48948 12.0446 7.61568 12.1575C7.57461 12.2465 7.55084 12.3422 7.52347 12.4384H7.48948C7.4173 12.2532 7.26649 12.1403 7.0641 12.1403C6.82715 12.1403 6.63194 12.2984 6.63194 12.5408C6.63194 13.1719 7.7123 12.9181 7.7123 13.6482C7.7123 14.1382 7.33075 14.4297 6.8646 14.4297C6.69693 14.4297 6.42236 14.3578 6.30568 14.2306C6.33943 14.131 6.35682 14.0282 6.37067 13.9253H6.40522L6.40522 13.9253ZM5.01186 12.4422L4.63834 13.319H5.39274L5.01189 12.4422H5.01186H5.01186Z" fill="black"/>
</g>
<defs>
<linearGradient id="paint0_linear_49_17029" x1="13.2948" y1="-0.446197" x2="18.7037" y2="4.96271" gradientUnits="userSpaceOnUse">
<stop stop-color="#339966"/>
<stop offset="1" stop-color="#004F32"/>
</linearGradient>
<clipPath id="clip0_49_17029">
<rect width="32" height="14.3087" fill="white" transform="translate(0 0.120972)"/>
</clipPath>
</defs>
</svg>
