<svg width="93" height="33" viewBox="0 0 93 33" fill="none" xmlns="http://www.w3.org/2000/svg">
<g clip-path="url(#clip0_49_17918)">
<path d="M16 2.79657C12.2986 2.92002 8.79386 4.49299 6.2414 7.1764C3.68894 9.8598 2.29314 13.4387 2.35487 17.1417C2.4166 20.8447 3.93093 24.3751 6.57142 26.9719C9.21191 29.5687 12.7671 31.024 16.4706 31.024C20.174 31.024 23.7292 29.5687 26.3697 26.9719C29.0102 24.3751 30.5245 20.8447 30.5862 17.1417C30.648 13.4387 29.2522 9.8598 26.6997 7.1764C24.1472 4.49299 20.6426 2.92002 16.9411 2.79657H16ZM35.7647 2.79657C32.0633 2.92002 28.5586 4.49299 26.0061 7.1764C23.4537 9.8598 22.0578 13.4387 22.1196 17.1417C22.1813 20.8447 23.6956 24.3751 26.3361 26.9719C28.9766 29.5687 32.5318 31.024 36.2353 31.024C39.9387 31.024 43.4939 29.5687 46.1344 26.9719C48.7749 24.3751 50.2892 20.8447 50.351 17.1417C50.4127 13.4387 49.0169 9.8598 46.4644 7.1764C43.912 4.49299 40.4073 2.92002 36.7059 2.79657H35.7647ZM55.5294 2.79657C51.828 2.92002 48.3233 4.49299 45.7708 7.1764C43.2184 9.8598 41.8226 13.4387 41.8843 17.1417C41.946 20.8447 43.4603 24.3751 46.1008 26.9719C48.7413 29.5687 52.2965 31.024 56 31.024C59.7034 31.024 63.2586 29.5687 65.8991 26.9719C68.5396 24.3751 70.0539 20.8447 70.1157 17.1417C70.1774 13.4387 68.7816 9.8598 66.2291 7.1764C63.6767 4.49299 60.172 2.92002 56.4706 2.79657H55.5294ZM75.2941 2.79657C71.5927 2.92002 68.088 4.49299 65.5355 7.1764C62.9831 9.8598 61.5873 13.4387 61.649 17.1417C61.7107 20.8447 63.2251 24.3751 65.8655 26.9719C68.506 29.5687 72.0612 31.024 75.7647 31.024C79.4681 31.024 83.0233 29.5687 85.6638 26.9719C88.3043 24.3751 89.8186 20.8447 89.8804 17.1417C89.9421 13.4387 88.5463 9.8598 85.9938 7.1764C83.4414 4.49299 79.9367 2.92002 76.2353 2.79657H75.2941Z" stroke="black" stroke-width="2.88235"/>
</g>
<defs>
<clipPath id="clip0_49_17918">
<rect width="92.2353" height="32" fill="white" transform="translate(0 0.914185)"/>
</clipPath>
</defs>
</svg>
