<svg width="32" height="12" viewBox="0 0 32 12" fill="none" xmlns="http://www.w3.org/2000/svg">
<g clip-path="url(#clip0_49_17065)">
<path fill-rule="evenodd" clip-rule="evenodd" d="M18.7725 1.34358C17.8259 0.883175 16.9649 0.733276 15.9433 0.733276C15.0173 0.733276 14.0493 0.929695 13.1706 1.30924C12.256 0.990983 10.0651 1.18002 9.58629 1.19072C9.038 1.20328 6.76959 1.0663 6.23388 1.0663C5.69815 1.0663 4.59053 1.08365 3.75502 1.14088C2.48309 1.22838 1.04504 1.10433 0.87151 1.06113C0.78733 1.04046 0.724919 1.09141 0.724919 1.09141C0.687644 1.14088 0.301453 1.57692 0.301453 1.57692L0.339112 1.70208L1.24846 2.16285L1.12405 2.76134L2.00941 3.16045C2.00941 3.16045 2.00941 3.65814 2.0585 3.72054C2.10836 3.78367 2.99372 4.00741 2.99372 4.00741C2.99372 4.00741 3.08194 4.58928 3.14323 4.64282C3.24699 4.73512 4.17814 4.83038 4.17814 4.83038C4.17814 4.83038 4.46426 5.35354 4.5887 5.40339C4.71349 5.45323 5.7107 5.60313 5.89717 5.55292C5.89717 5.55292 5.97987 5.98858 6.15635 6.06722C6.345 6.15066 7.43012 6.11448 7.43012 6.11448C7.43012 6.11448 7.56487 6.54387 7.78087 6.61107C7.98281 6.67346 8.92577 6.42535 8.92577 6.42535C8.92577 6.42535 9.06349 6.74361 9.20046 6.79936C9.40943 6.88465 10.1711 6.61439 10.1711 6.61439C10.5628 8.2282 11.8676 9.37016 13.4043 9.96717L13.6191 10.3991L14.1242 10.2079L14.3882 10.6129L14.8493 10.3622L15.1635 10.7432L15.5778 10.4434L15.9429 10.7824L16.3066 10.4335L16.722 10.7373L17.0347 10.357L17.4966 10.6085L17.7613 10.2068L18.2686 10.4014L18.4776 9.96901C19.902 9.41631 21.2208 8.26549 21.6494 6.80638C21.7827 6.86582 22.0356 6.95221 22.2446 6.96107C22.2446 6.96107 22.4827 6.87505 22.5795 6.57378C22.5795 6.57378 23.4061 6.83185 23.5571 6.7857C23.5571 6.7857 23.6959 6.77832 23.824 6.35557C23.9086 6.39434 23.9788 6.37367 24.1046 6.40099C24.7482 6.54092 25.0288 6.46523 25.0288 6.46523C25.0288 6.46523 25.1728 6.44086 25.2868 5.89886C25.3441 5.90736 25.3851 5.91437 25.4283 5.91179C25.4283 5.91179 26.3838 5.93911 26.5492 5.8564C26.5492 5.8564 26.7002 5.81838 26.7545 5.27527C27.1484 5.33434 27.5028 5.36019 27.7897 5.32733C27.7897 5.32733 28.1109 5.21694 28.2346 4.58522C28.4513 4.57156 29.0904 4.5291 29.1698 4.43495C29.1698 4.43495 29.3271 4.36259 29.3271 3.79512C29.577 3.77887 29.9836 3.72644 30.1301 3.57064C30.1301 3.57064 30.2852 3.3912 30.218 2.95886C30.8084 2.83518 31.0133 2.64282 31.0133 2.64282C31.0092 2.43385 30.8253 2.0495 30.8253 2.0495C30.8253 2.0495 31.4858 1.79475 31.6465 1.66553L31.6985 1.5699C31.6985 1.5699 31.2987 1.09067 31.2366 1.07775C31.0945 1.04821 29.8167 1.23318 28.9907 1.23318C28.1641 1.23318 26.6743 1.10765 26.0611 1.10765C25.4475 1.10765 23.5316 1.24574 22.6304 1.24574C21.7288 1.24574 21.3791 1.10765 20.7157 1.10765C20.3033 1.10765 19.3563 1.13387 18.7725 1.34358Z" fill="black"/>
<path d="M29.6104 2.23443C29.3963 2.2348 29.1829 2.23554 28.9695 2.23554C28.6047 2.25252 28.2133 2.24218 27.8368 2.24809C27.3409 2.25584 26.1993 2.26507 26.1413 2.2695C25.9047 2.2695 25.6676 2.2695 25.4313 2.2695C25.0286 2.2695 24.673 2.26803 24.2706 2.26803C24.2023 2.27098 23.7943 2.28206 23.6654 2.28132C23.6078 2.27984 23.5037 2.27283 23.4465 2.28132C23.3512 2.29609 23.1958 2.49657 23.383 2.49657C23.3911 2.49472 23.4 2.49324 23.4088 2.49214C23.4277 2.48955 23.4465 2.4866 23.4657 2.48328C23.5181 2.46703 23.5864 2.4866 23.6399 2.49066C23.7396 2.49767 23.8404 2.50543 23.9405 2.51244C24.2037 2.53053 24.4666 2.54826 24.7291 2.56672C24.9178 2.58185 25.1072 2.59773 25.2959 2.6125C26.6778 2.69963 28.0431 2.82332 29.4753 2.82332C29.8065 2.82332 30.1022 2.67822 30.2063 2.64499C30.2506 2.63059 30.3437 2.62025 30.3787 2.58887C30.4526 2.52426 30.3677 2.28981 30.2968 2.24698C30.2484 2.21745 29.6639 2.23148 29.6104 2.23443Z" fill="white"/>
<path d="M1.81067 2.33948C1.73831 2.3668 1.70656 2.40298 1.69696 2.4831C1.68919 2.54143 1.73349 2.67583 1.87527 2.7493C1.97643 2.79545 2.36079 2.97488 2.45974 2.99593C2.5513 3.0155 8.33753 2.6773 8.34675 2.67583C8.42502 2.64001 8.63733 2.58131 8.61887 2.45762C8.6137 2.42218 8.55793 2.38711 8.52692 2.37455C8.46158 2.34982 7.74863 2.4148 7.69546 2.41517C7.20406 2.41517 1.94359 2.33948 1.81067 2.33948Z" fill="white"/>
<path d="M22.0909 2.42674C22.027 2.42526 21.9624 2.46366 21.9373 2.5327C21.9163 2.58956 21.9092 2.66709 21.9584 2.7066C22.0093 2.74721 22.0883 2.75866 22.1522 2.77527C22.2552 2.80185 22.3586 2.82844 22.4608 2.85502C22.5797 2.88419 22.6787 2.9008 22.8164 2.91446C22.9227 2.92443 23.015 2.9008 23.0427 2.81551C23.0734 2.71657 23.0623 2.65048 22.9851 2.60654C22.9489 2.58624 22.8002 2.54415 22.5831 2.50427C22.3711 2.4655 22.154 2.4308 22.0909 2.42674Z" fill="white"/>
<path d="M9.68303 2.42211C9.48106 2.48451 9.27247 2.51515 9.06202 2.55429C8.97968 2.56869 8.87113 2.57312 8.80432 2.61964C8.77366 2.64105 8.75667 2.67354 8.7482 2.70788C8.74081 2.74222 8.7456 2.78283 8.76627 2.8072C8.79693 2.84375 8.99149 2.9283 9.11776 2.90651C9.31787 2.85815 9.49214 2.79428 9.67822 2.73409C9.74284 2.71526 9.82702 2.70456 9.87354 2.65324C9.92449 2.59675 9.89088 2.53435 9.85065 2.48599C9.80892 2.43725 9.74394 2.40771 9.68303 2.42211Z" fill="white"/>
<path d="M23.3567 2.74335C23.3327 2.75405 23.3087 2.76107 23.2895 2.78101C23.2241 2.84746 23.2082 2.95712 23.3349 2.95712C23.3862 2.94161 23.525 2.96266 23.5745 2.97041C23.6664 2.98407 23.758 2.99847 23.8492 3.01287C24.2195 3.0712 24.5902 3.12954 24.9605 3.18787C25.4076 3.26098 25.8566 3.33556 26.3111 3.38577C26.6301 3.42121 26.9476 3.47733 27.2699 3.50798C27.7669 3.55524 28.2572 3.62502 28.7825 3.62502C28.8143 3.62391 28.8464 3.62206 28.8782 3.62095C28.8966 3.61874 28.9158 3.61763 28.9346 3.61689C28.9476 3.61468 28.9616 3.61357 28.9745 3.61209C28.9886 3.61062 29.003 3.60914 29.0177 3.60729C29.0332 3.60619 29.0495 3.60471 29.0653 3.6036C29.079 3.60139 29.0916 3.60065 29.1049 3.59917C29.1152 3.59696 29.1252 3.59585 29.1348 3.59437C29.144 3.59326 29.1525 3.59142 29.1617 3.59031C29.1706 3.58883 29.1787 3.58736 29.1872 3.58588C29.196 3.5844 29.2053 3.5833 29.2138 3.58145C29.2614 3.56927 29.309 3.55671 29.3559 3.54416C29.5224 3.49321 29.6073 3.42343 29.6653 3.25839C29.6779 3.2211 29.6937 3.16867 29.6646 3.13508C29.6384 3.10554 29.5977 3.10037 29.5579 3.09853C29.3489 3.09853 29.1396 3.09779 28.9306 3.09779C28.6456 3.08745 28.3616 3.07674 28.0759 3.0664C27.0199 3.01693 25.9714 2.93238 24.9254 2.86519C24.571 2.83786 24.2166 2.81054 23.8617 2.78285C23.7152 2.77141 23.5099 2.74335 23.3567 2.74335Z" fill="white"/>
<path d="M9.93312 2.88886C9.73931 2.92651 9.56687 3.00959 9.38448 3.07088C9.30916 3.09561 9.21243 3.11333 9.1567 3.17462C9.12273 3.21191 9.11387 3.25954 9.12604 3.3116C9.1338 3.3463 9.14931 3.39836 9.17368 3.42568C9.22241 3.48107 9.35125 3.53275 9.43803 3.53275C9.48638 3.53128 9.56096 3.51614 9.59236 3.50359C9.73487 3.42679 9.87665 3.35037 10.0192 3.27357C10.0679 3.24736 10.1307 3.2396 10.1705 3.19825C10.3064 3.05832 10.0487 2.86929 9.93312 2.88886Z" fill="white"/>
<path d="M21.8244 2.95951C21.7432 2.98609 21.5586 3.08651 21.638 3.17623C21.6694 3.21241 21.7702 3.24638 21.8134 3.26115C21.8669 3.28441 21.8632 3.29105 21.9164 3.31432C21.9765 3.34201 22.0356 3.37007 22.0954 3.39739C22.2069 3.45166 22.2664 3.51073 22.4067 3.51073C22.5721 3.50704 22.6463 3.53252 22.7283 3.37597C22.7504 3.33536 22.7356 3.28995 22.712 3.2593C22.6733 3.20872 22.4539 3.12897 22.3587 3.09648C22.1719 3.03298 21.8769 2.94548 21.8244 2.95951Z" fill="white"/>
<path d="M8.49558 2.91492C8.36488 2.92821 7.40976 3.02014 7.06196 3.04229C6.87588 3.05743 3.62759 3.25939 3.34439 3.26345C3.29196 3.26751 2.60524 3.26013 2.534 3.32068C2.49707 3.35206 2.53804 3.53777 2.57349 3.57174C2.63959 3.63561 2.76031 3.65444 2.84708 3.67844C3.09924 3.74933 3.32593 3.82981 3.61873 3.82981C3.63793 3.82834 8.71675 3.18075 8.80905 3.18075C8.82234 3.16782 8.83525 3.15859 8.83304 3.13792C8.82899 3.09177 8.65139 2.95073 8.60708 2.93042C8.57424 2.91566 8.53619 2.91492 8.49558 2.91492Z" fill="white"/>
<path d="M23.0562 3.12366C23.0063 3.14249 22.9469 3.16833 22.9595 3.23737C22.9679 3.28685 22.9894 3.36549 23.0304 3.39687C23.1005 3.45078 23.2578 3.47182 23.3475 3.49508C23.5967 3.55969 23.847 3.62393 24.0966 3.68781C24.4654 3.78269 24.8373 3.86097 25.2124 3.94958C25.6661 4.05738 26.1354 4.1519 26.6028 4.22759C26.8601 4.26857 27.1182 4.31509 27.3833 4.34943C27.5199 4.36678 27.6528 4.39189 27.7968 4.39189C27.8105 4.39078 27.823 4.3893 27.8367 4.38746C27.8607 4.38635 27.8865 4.38487 27.9109 4.38339C27.9283 4.38192 27.9452 4.38081 27.9633 4.37896C27.9759 4.37749 27.9888 4.37638 28.0021 4.37453C28.0213 4.37343 28.0405 4.37195 28.0586 4.37047C28.0782 4.36863 28.0966 4.36715 28.1154 4.36641C28.1346 4.3642 28.1531 4.36309 28.1723 4.36161C28.1871 4.36013 28.2011 4.35866 28.2155 4.35718C28.2288 4.3557 28.2417 4.35423 28.255 4.35312C28.2679 4.35127 28.2812 4.35017 28.2941 4.34869C28.3071 4.34684 28.32 4.34574 28.3337 4.34389C28.3447 4.34278 28.3565 4.3413 28.3676 4.33983C28.3768 4.33872 28.3853 4.33687 28.3946 4.3354C28.4031 4.33392 28.4119 4.33281 28.4208 4.33097C28.4296 4.32949 28.4381 4.32838 28.4462 4.32654C28.4555 4.32543 28.464 4.32358 28.4732 4.32211C28.5245 4.29848 28.5795 4.29958 28.6275 4.26746C28.6925 4.22353 28.8491 4.0068 28.766 3.93813C28.7003 3.88312 28.3436 3.89419 28.2328 3.88533C27.8954 3.85875 27.5598 3.81777 27.2268 3.78565C26.7483 3.7406 26.2727 3.65605 25.8016 3.5955C25.2423 3.52351 24.6914 3.43231 24.1413 3.34038C23.8858 3.29645 23.6296 3.25325 23.3748 3.20894C23.2637 3.18236 23.181 3.12366 23.0562 3.12366Z" fill="white"/>
<path d="M8.42608 3.45201C8.14253 3.50185 7.85971 3.55096 7.57616 3.60043C7.12794 3.6824 5.36499 3.94601 4.93042 3.99438C4.64908 4.02576 4.36848 4.05825 4.0805 4.08114C3.55366 4.05567 3.46062 4.14243 3.52743 4.2831C3.55623 4.34365 3.58467 4.42377 3.64227 4.46733C3.71277 4.52013 4.29946 4.63901 4.5265 4.63901C4.79972 4.64824 6.0111 4.45552 6.21157 4.40604C6.52356 4.32962 8.8994 3.69015 8.96034 3.64991C9.00721 3.61852 8.96881 3.47564 8.91048 3.40291C8.85953 3.33977 8.55678 3.42838 8.42608 3.45201Z" fill="white"/>
<path d="M10.3431 3.38962C10.2581 3.39369 9.67885 3.75403 9.63749 3.80831C9.60908 3.84523 9.60982 3.8899 9.62385 3.93458C9.63493 3.97002 9.64488 4.00694 9.6722 4.03426C9.7357 4.09813 9.87748 4.09998 9.97312 4.09998C9.99896 4.09001 10.0252 4.07967 10.0514 4.06934C10.1023 4.04091 10.1433 3.99771 10.191 3.96079C10.2888 3.88141 10.3634 3.82529 10.4612 3.74628C10.511 3.7112 10.6255 3.68241 10.6576 3.62739C10.7399 3.48488 10.4409 3.38741 10.3431 3.38962Z" fill="white"/>
<path d="M21.448 3.38965C21.3516 3.39482 21.1747 3.45426 21.1585 3.58164C21.1541 3.61413 21.1596 3.64736 21.1836 3.66692C21.2268 3.70311 21.5683 3.87516 21.6772 3.94494C21.7599 3.99736 21.8238 4.0605 21.9335 4.0605C22.0811 4.0557 22.1336 4.01952 22.1697 3.99773C22.2336 3.95823 22.3104 3.86076 22.255 3.7847C22.2063 3.71677 22.1026 3.6876 22.0317 3.65511C21.9534 3.61819 21.8755 3.58127 21.7968 3.54435C21.7444 3.51813 21.5332 3.38965 21.448 3.38965Z" fill="white"/>
<path d="M22.8641 3.64246C22.8128 3.66498 22.7618 3.68787 22.7105 3.71039C22.6404 3.73845 22.4643 3.77611 22.5064 3.88281C22.5407 3.97031 23.371 4.21584 23.6254 4.30666C24.2878 4.53594 24.8545 4.73162 25.5527 4.88558C26.06 4.99745 26.6001 5.12372 27.1617 5.12372C27.1846 5.12261 27.2082 5.1215 27.2304 5.11966C27.247 5.11818 27.2621 5.1167 27.2787 5.1156C27.288 5.11375 27.2961 5.11264 27.3049 5.11117C27.3433 5.0916 27.381 5.08311 27.4172 5.05837C27.4733 5.01812 27.5047 4.95831 27.5483 4.90995C27.5885 4.86564 27.6487 4.83167 27.6727 4.77851C27.683 4.75377 27.6841 4.72165 27.6679 4.6995C27.649 4.6755 27.6206 4.66848 27.5926 4.66073C27.4637 4.64338 27.3345 4.62603 27.2049 4.6083C26.9535 4.56769 26.7024 4.52708 26.4506 4.48647C26.1131 4.42998 25.7742 4.3565 25.4438 4.28451C24.9147 4.16969 24.3952 4.05338 23.8798 3.92084C23.6402 3.8577 23.4002 3.79531 23.1606 3.73254C23.11 3.71667 23.059 3.70153 23.0081 3.68565C22.9597 3.6683 22.9199 3.64615 22.8641 3.64246Z" fill="white"/>
<path d="M10.8519 3.7984C10.7655 3.7984 10.5137 4.05537 10.4207 4.13069C10.3764 4.16761 10.2675 4.26286 10.245 4.3164C10.2025 4.42125 10.2682 4.47737 10.3365 4.52796C10.3993 4.57485 10.5916 4.54494 10.6769 4.48107C10.7393 4.43418 11.1399 4.07531 11.1639 4.03322C11.2798 3.82831 10.9867 3.7984 10.8519 3.7984Z" fill="white"/>
<path d="M9.24034 3.79944C9.20638 3.80867 9.17132 3.81864 9.13735 3.82824C9.04762 3.86627 6.96381 4.51238 5.97619 4.72246C5.69116 4.78301 5.4028 4.82214 5.10891 4.86534C5.01882 4.87863 4.82795 4.86608 4.76519 4.91925C4.72458 4.9558 4.84455 5.14852 4.8789 5.20095C4.96604 5.33054 5.98801 5.37374 6.44249 5.25375C6.62635 5.19984 9.33264 4.25246 9.38803 4.18194C9.44488 4.1092 9.43085 3.92792 9.42312 3.89506C9.40353 3.81162 9.32305 3.79944 9.24034 3.79944Z" fill="white"/>
<path d="M20.9549 3.81262C20.8733 3.83441 20.747 3.79933 20.6961 3.87576C20.668 3.91674 20.6621 3.9832 20.6883 4.02344C20.72 4.07107 21.1613 4.43252 21.2137 4.45947C21.2831 4.49492 21.3735 4.4927 21.4603 4.4927C21.5334 4.49123 21.6844 4.42994 21.6663 4.31401C21.6619 4.28336 21.6412 4.25604 21.618 4.23463C21.5508 4.17371 21.4681 4.13457 21.395 4.08362C21.3326 4.04153 21.2624 3.98837 21.2 3.94628C21.1432 3.90345 21.0933 3.87133 21.0365 3.8285C21.0117 3.81631 20.9851 3.81447 20.9549 3.81262Z" fill="white"/>
<path d="M20.297 4.16121C20.2232 4.1793 20.1383 4.21031 20.1527 4.30889C20.1541 4.32772 20.2697 4.41596 20.3136 4.45879C20.413 4.55847 20.4861 4.73126 20.6123 4.7992C20.7002 4.84682 20.8302 4.90479 20.9291 4.85421C21.0524 4.79403 21.0207 4.67293 21.0004 4.64671C20.9099 4.52931 20.787 4.43922 20.6818 4.334C20.6308 4.28304 20.5828 4.2092 20.5193 4.17967C20.4584 4.15198 20.3716 4.16121 20.297 4.16121Z" fill="white"/>
<path d="M11.3488 4.17711C11.282 4.21588 11.1993 4.32258 11.1465 4.37944C11.1073 4.42116 11.0693 4.46288 11.0309 4.50386C10.953 4.58324 10.7902 4.71948 10.929 4.81695C10.9866 4.85719 11.0822 4.89005 11.1454 4.87159C11.1963 4.84796 11.2443 4.84353 11.2886 4.80587C11.3326 4.76895 11.3621 4.71468 11.3916 4.66779C11.4263 4.61536 11.543 4.4518 11.5722 4.42633C11.6324 4.37316 11.721 4.33292 11.6619 4.22548C11.6357 4.17674 11.412 4.14093 11.3488 4.17711Z" fill="white"/>
<path d="M22.3929 4.18286C22.3339 4.20834 22.1275 4.2807 22.1312 4.33977C22.1374 4.42543 22.2615 4.46309 22.3368 4.48893C22.3937 4.50887 22.4446 4.54099 22.4971 4.56795C22.6041 4.6248 22.7119 4.68129 22.8186 4.73815C22.9888 4.82381 23.159 4.90946 23.3292 4.99512C23.5759 5.12508 23.8273 5.2447 24.0839 5.3514C24.3475 5.46106 24.617 5.59213 24.908 5.64566C25.155 5.69108 25.4415 5.67778 25.7139 5.67778C25.7357 5.67594 25.7579 5.67483 25.7793 5.67335C25.8158 5.67188 25.852 5.6704 25.8886 5.66892C25.9078 5.66745 25.9263 5.66597 25.9451 5.66486C25.9565 5.66265 25.9683 5.66191 25.9802 5.66006C25.9916 5.65859 26.0034 5.65748 26.0152 5.65563C26.0237 5.65416 26.0318 5.65305 26.0407 5.6512C26.0666 5.63976 26.0931 5.62794 26.1197 5.61686C26.1803 5.57404 26.3224 5.42709 26.2626 5.3514C26.2065 5.28199 25.9691 5.26538 25.8757 5.2447C25.6715 5.20003 25.4688 5.1524 25.2698 5.10256C24.5495 4.92238 23.858 4.6872 23.169 4.45349C22.9918 4.38851 22.8142 4.32353 22.637 4.25818C22.5583 4.22901 22.4826 4.18581 22.3929 4.18286Z" fill="white"/>
<path d="M9.61522 4.35708C9.48009 4.36299 8.99312 4.64433 8.79927 4.72518C8.2558 4.95631 7.68908 5.15236 7.12197 5.34139C6.97169 5.38717 6.8207 5.43333 6.67006 5.47837C6.5759 5.50495 6.46331 5.52009 6.37948 5.56661C6.35476 5.57953 6.3337 5.60205 6.32965 5.63048C6.32115 5.68106 6.36362 5.72057 6.39906 5.74715C6.44225 5.7789 6.4836 5.81582 6.53381 5.83465C6.61247 5.86308 6.70403 5.86124 6.79595 5.86567C7.01047 5.87564 7.43689 5.94283 7.71528 5.82099C7.97151 5.70949 9.05476 5.13907 9.34053 4.98437C9.4753 4.90868 10.0671 4.63251 10.059 4.52323C10.0461 4.35081 9.76846 4.35708 9.61522 4.35708Z" fill="white"/>
<path d="M21.8485 4.53607C21.7998 4.56819 21.6705 4.6664 21.6871 4.73323C21.7063 4.80744 21.9471 4.91857 21.9866 4.94737C22.3543 5.22354 22.7209 5.49749 23.1045 5.7467C23.3157 5.88331 23.5302 6.02656 23.765 6.1148C23.9943 6.20083 24.2672 6.23074 24.5378 6.23074C24.5533 6.22963 24.5696 6.22815 24.5858 6.22704C24.6083 6.21708 24.6312 6.20821 24.6541 6.19898C24.7172 6.15985 24.8675 6.03173 24.8217 5.95014C24.8103 5.93057 24.7911 5.91654 24.7711 5.90731C24.7154 5.88848 24.6596 5.86928 24.6039 5.85008C24.5075 5.81501 24.4108 5.77919 24.3148 5.74449C24.0161 5.6245 23.7248 5.49417 23.435 5.35534C23.0377 5.16446 22.6471 4.96288 22.2638 4.75169C22.1439 4.68339 22.0242 4.61434 21.905 4.54567C21.895 4.54309 21.8847 4.5405 21.8747 4.53718C21.8655 4.53718 21.8577 4.53644 21.8485 4.53607Z" fill="white"/>
<path d="M21.2734 4.78888C21.2508 4.80032 21.2302 4.81177 21.2143 4.83392C21.1862 4.87306 21.1766 4.92622 21.1589 4.9709C21.1415 5.01114 21.1235 5.05028 21.1054 5.08978C21.0998 5.11194 21.0995 5.13852 21.1087 5.15846C21.1316 5.20424 21.1921 5.20535 21.2328 5.22639C21.2675 5.24411 21.2992 5.26774 21.3288 5.29506C21.5972 5.54797 21.8497 5.81454 22.1214 6.05379C22.2222 6.1435 22.3105 6.25427 22.4253 6.31555C22.5172 6.3654 22.6287 6.3894 22.7325 6.41635C22.8931 6.45733 23.0493 6.51419 23.2302 6.51419C23.2959 6.48133 23.4912 6.42115 23.4583 6.31482C23.4569 6.31075 23.455 6.30669 23.4528 6.30263C23.4487 6.29636 23.4443 6.28934 23.4399 6.28306C23.3738 6.20996 23.2745 6.17267 23.1947 6.12283C23.0452 6.03016 22.9001 5.93269 22.7535 5.83632C22.3969 5.60151 22.059 5.33198 21.7149 5.07391C21.5879 4.97865 21.5015 4.8306 21.3428 4.79368C21.3335 4.79257 21.3254 4.79183 21.3166 4.78999C21.3096 4.78925 21.3025 4.78925 21.2951 4.78925C21.2874 4.78888 21.2811 4.78888 21.2734 4.78888Z" fill="white"/>
<path d="M10.1953 4.79273C10.0978 4.82005 7.86892 6.04139 7.83678 6.09419C7.78326 6.18058 7.94793 6.3146 8.02989 6.3327C8.15208 6.35965 8.82738 6.2943 9.12015 6.11966C9.20545 6.05579 10.2145 5.26273 10.2939 5.19664C10.3906 5.11394 10.7059 4.95075 10.6708 4.88208C10.6309 4.80417 10.2872 4.76356 10.1953 4.79273Z" fill="white"/>
<path d="M10.8186 5.10246C10.7569 5.0947 10.4017 5.53517 9.55552 6.12738C9.4828 6.17759 9.31775 6.28318 9.28157 6.35813C9.22879 6.50434 9.47025 6.54089 9.55886 6.54089C9.57915 6.53904 10.0381 6.48034 10.2511 6.35666C10.349 6.29943 11.3 5.34355 11.3296 5.30146C11.3429 5.28263 11.3528 5.18553 11.3488 5.17704C11.2986 5.10098 11.1405 5.15341 11.0516 5.14196C10.9833 5.13236 10.8858 5.11279 10.8186 5.10246Z" fill="white"/>
<path d="M20.6106 5.10681C20.5276 5.13266 20.4471 5.23123 20.4843 5.32944C20.5039 5.38224 20.5608 5.39332 20.6007 5.42655C20.6379 5.45904 20.6653 5.49596 20.6926 5.53472C20.8624 5.76954 21.0304 6.00768 21.2124 6.23511C21.2822 6.32151 21.3538 6.43153 21.4495 6.49836C21.5732 6.58549 21.8201 6.67151 21.9881 6.67151C22.0483 6.64124 22.1975 6.6357 22.2004 6.54414C22.2004 6.54045 22.2004 6.53602 22.1997 6.53195C22.1897 6.44482 22.0291 6.3311 21.9656 6.27129C21.7135 6.02946 21.4617 5.78763 21.2087 5.5458C21.1563 5.49226 21.1035 5.4391 21.0507 5.38593C21.002 5.33055 20.961 5.26926 20.9012 5.22164C20.8218 5.15739 20.7218 5.11013 20.6106 5.10681Z" fill="white"/>
<path d="M10.6112 6.95287C10.5728 6.96616 10.5861 7.0352 10.5968 7.07065C10.6156 7.13267 10.8634 7.53659 10.973 7.69867C11.0672 7.83823 11.1573 7.98148 11.2691 8.11218C11.6919 8.6084 12.2025 9.04886 12.7519 9.33131C12.8357 9.3734 13.2928 9.61117 13.3965 9.60157C13.4183 9.59972 13.4257 9.57868 13.4216 9.56612C13.4146 9.53991 13.3917 9.5244 13.3703 9.51074C13.2665 9.46201 13.1624 9.4129 13.0583 9.36417C12.8792 9.27962 12.7028 9.17735 12.5348 9.0688C12.1408 8.81331 11.7775 8.51093 11.443 8.14283C11.2902 7.97484 11.1879 7.80094 11.0495 7.60009C10.9188 7.41143 10.7452 7.06548 10.7013 6.99422C10.6784 6.95656 10.6463 6.93219 10.6112 6.95287Z" fill="white"/>
<path d="M21.1688 6.99365C21.1245 7.01728 20.8756 7.47805 20.6615 7.7893C20.4233 8.13414 20.1225 8.46642 19.7898 8.73447C19.5118 8.95895 19.24 9.12251 18.9306 9.28422C18.7368 9.37837 18.4928 9.48839 18.447 9.52716C18.3857 9.57774 18.4167 9.61687 18.4883 9.61687C18.5511 9.59066 18.8361 9.47141 19.1234 9.31302C19.7278 8.97999 20.3418 8.4295 20.763 7.85575C20.9443 7.60801 21.1895 7.1454 21.216 7.08079C21.2367 7.0302 21.2253 6.99919 21.1688 6.99365Z" fill="white"/>
<path fill-rule="evenodd" clip-rule="evenodd" d="M13.5547 1.48499C13.5547 1.48499 13.493 1.3698 13.6274 1.3026C13.7633 1.23504 14.7698 0.91272 15.9597 0.91272C17.2667 0.91272 18.4024 1.3362 18.4685 1.39011C18.5586 1.46321 18.4766 1.59945 18.3751 1.57914C18.2747 1.5592 17.2446 1.12206 15.9734 1.12206C14.7022 1.12206 13.8143 1.45952 13.736 1.5053C13.6429 1.5592 13.5547 1.48499 13.5547 1.48499Z" fill="white"/>
<path d="M12.1779 5.58014C12.1779 4.01876 13.8485 2.75311 15.9098 2.75311C17.9715 2.75311 19.6425 4.01876 19.6425 5.58014C19.6425 7.14189 17.9715 8.40753 15.9098 8.40753C13.8485 8.40753 12.1779 7.14189 12.1779 5.58014Z" stroke="white" stroke-width="0.2" stroke-miterlimit="3.864"/>
<path d="M15.6298 3.31134C15.6006 3.32832 15.5512 3.31762 15.5165 3.32168C15.3655 3.34162 15.2145 3.36045 15.0682 3.38814C14.6448 3.46678 14.2372 3.63218 13.8923 3.86884C13.8048 3.92903 13.7048 3.99807 13.635 4.08409C13.6331 4.08778 13.6309 4.09111 13.628 4.09517C13.6029 4.13689 13.5586 4.16864 13.5416 4.21442C13.5349 4.23288 13.5286 4.26131 13.5357 4.28199C13.5593 4.34955 13.6852 4.46585 13.748 4.50314C13.779 4.52197 13.8318 4.55779 13.8366 4.59692C13.8432 4.65673 13.8299 4.71396 13.8262 4.76676C13.8255 4.83801 13.8255 4.90927 13.8255 4.98053V6.03056V6.4485C13.8244 6.50979 13.8229 6.56997 13.8211 6.63089C13.8129 6.66116 13.6926 6.77709 13.6642 6.80959C13.6265 6.85278 13.6069 6.90706 13.5759 6.95284C13.5756 6.95653 13.5737 6.95985 13.5722 6.96318C13.5903 6.98016 13.587 7.01302 13.5995 7.03369C13.6361 7.09387 13.697 7.15738 13.755 7.20205C14.2272 7.57089 14.9372 7.77433 15.5685 7.82491C15.8181 7.84447 16.0747 7.82601 16.3276 7.82601C16.349 7.80423 16.5059 7.80423 16.5492 7.80423C16.5694 7.78429 16.6795 7.78282 16.7149 7.78282C16.7356 7.7603 16.8046 7.7603 16.8371 7.7603C16.8497 7.74737 16.8737 7.74737 16.894 7.74737C16.9143 7.72596 16.9623 7.72596 16.9937 7.72596C17.0084 7.70934 17.0487 7.70418 17.0723 7.70418C17.0867 7.68867 17.1236 7.68202 17.1461 7.68202C17.1606 7.66615 17.2019 7.66061 17.2244 7.66061C17.247 7.63587 17.3127 7.61704 17.347 7.61704C17.364 7.59341 17.3946 7.58972 17.4186 7.57865C17.4796 7.54911 17.5401 7.51957 17.6003 7.49004C17.8111 7.36561 18.0005 7.19762 18.112 6.97794C18.1341 6.93548 18.1663 6.89413 18.1663 6.84097C18.1836 6.82361 18.1877 6.78965 18.1877 6.7627C18.2132 6.73759 18.2095 6.67962 18.2095 6.64086C18.2375 6.6091 18.2231 6.512 18.2224 6.46659C18.2161 6.03499 17.8805 5.61963 17.5061 5.45939C17.4991 5.45644 17.4818 5.4557 17.4818 5.44647C17.5091 5.42764 17.5464 5.38961 17.5825 5.38961C17.6103 5.34826 17.7011 5.31282 17.7432 5.27663C17.8314 5.20242 18.0441 4.99271 18.0441 4.88047C18.0588 4.86644 18.0655 4.8454 18.0655 4.82362C18.0832 4.807 18.0876 4.77451 18.0876 4.74904C18.1186 4.71655 18.1094 4.63274 18.1094 4.58363C18.1371 4.55372 18.1179 4.48284 18.112 4.4485C18.0743 4.24285 17.9913 4.0708 17.8499 3.91943C17.8177 3.88509 17.7819 3.85961 17.7502 3.82712C17.6501 3.72338 17.5187 3.65692 17.3961 3.59563C17.052 3.42358 16.6525 3.33165 16.2357 3.31208C16.033 3.31171 15.8314 3.31134 15.6298 3.31134Z" fill="white"/>
<path d="M15.8427 3.68616C16.0786 3.68616 16.3116 3.70646 16.4932 3.81316C16.7753 3.97857 16.8591 4.32009 16.8174 4.64499C16.7915 4.83882 16.7269 5.02601 16.5804 5.1545C16.4371 5.27966 16.2514 5.3103 16.0568 5.33541C15.626 5.39079 15.18 5.24089 15.0574 4.82701C15.0275 4.72695 15.0042 4.61693 15.0027 4.50543C15.0053 4.45042 15.0083 4.39467 15.0109 4.34002C15.0293 4.31972 15.0323 4.2684 15.0323 4.2396C15.0471 4.22483 15.0548 4.19603 15.0548 4.17425C15.0666 4.16354 15.0759 4.14361 15.0759 4.12625C15.0843 4.1185 15.0891 4.10816 15.0891 4.09561C15.1128 4.07715 15.1549 4.01291 15.1549 3.98226C15.1888 3.96306 15.208 3.9254 15.2357 3.89919C15.3103 3.82941 15.4498 3.74301 15.5554 3.74301C15.5658 3.7312 15.5828 3.73009 15.599 3.73009C15.6215 3.70573 15.6861 3.70794 15.7212 3.70794C15.7474 3.67951 15.8106 3.70388 15.8427 3.68616Z" fill="black"/>
<path d="M15.7868 5.67786C16.0763 5.67786 16.3314 5.68192 16.5611 5.78788C17.051 6.01421 17.0964 6.82905 16.7575 7.20269C16.512 7.4759 15.9833 7.5239 15.62 7.42827C15.5369 7.40575 15.4535 7.38803 15.3796 7.34631C15.2818 7.28982 15.2046 7.21745 15.1378 7.12515C15.0432 6.99482 14.989 6.80763 14.9809 6.63632C14.9764 6.53996 14.989 6.44433 14.989 6.35277C15.0071 6.33505 15.0108 6.2937 15.0108 6.266C15.0266 6.25013 15.0322 6.21948 15.0322 6.19622C15.0466 6.18441 15.0547 6.163 15.0547 6.1438C15.0706 6.13014 15.089 6.09691 15.089 6.07365C15.1278 6.04448 15.1533 5.98615 15.181 5.94738C15.2127 5.90307 15.3375 5.80006 15.3899 5.80006C15.408 5.7768 15.4557 5.75576 15.4859 5.75576C15.4996 5.73988 15.5336 5.73435 15.5554 5.73435C15.5723 5.71552 15.6159 5.71256 15.6428 5.71256C15.6746 5.67859 15.7514 5.70813 15.7868 5.67786Z" fill="black"/>
<path d="M19.258 1.56874C19.3134 1.55249 19.3673 1.56504 19.4042 1.60492C19.4393 1.64332 19.4293 1.70793 19.3843 1.73303C19.3477 1.75334 19.299 1.75519 19.258 1.76589C19.1528 1.79321 18.7913 1.84601 18.7714 1.97154C18.7607 2.04391 18.8563 2.12772 18.8928 2.15356C18.9427 2.19713 18.8563 2.11516 18.9061 2.15873C18.9789 2.2226 19.1409 2.33447 19.0534 2.4493C19.032 2.47699 18.9969 2.48991 18.9608 2.48622C18.7884 2.46886 18.5532 2.12661 18.5329 2.07012C18.5081 1.99997 18.5181 1.92797 18.558 1.87001C18.6927 1.67691 19.0508 1.63962 19.258 1.56874Z" fill="black"/>
<path d="M22.1341 2.12548C22.1248 2.27206 22.5446 2.24215 22.6469 2.25138C22.7986 2.26504 23.094 2.37433 23.1505 2.32375C23.2188 2.26283 23.2915 1.97411 23.1689 1.96857C22.991 1.96118 22.9238 1.98112 22.7255 1.99626C22.5217 2.00881 22.1433 1.9826 22.1341 2.12548Z" fill="white"/>
<path d="M9.70717 2.1764C9.71308 2.27756 9.28371 2.27645 9.1818 2.28568C9.03043 2.29934 8.78784 2.40346 8.70626 2.31337C8.64459 2.24581 8.56558 2.04865 8.6889 2.04348C8.86612 2.03573 8.99129 2.04791 9.1888 2.06305C9.39373 2.0756 9.69796 2.02982 9.70717 2.1764Z" fill="white"/>
<path d="M12.9599 1.53887C13.1607 1.58908 13.2755 1.58354 13.3914 1.77257C13.4498 1.86635 13.4535 2.01662 13.3556 2.14658C13.2925 2.2315 13.2685 2.25808 13.1991 2.34263C13.1282 2.42829 13.1197 2.48625 12.9997 2.50361C12.9599 2.50951 12.9255 2.49991 12.9033 2.46779C12.824 2.35297 12.9927 2.21378 13.0817 2.11335C13.1157 2.07495 13.1925 1.96087 13.1799 1.91324C13.1563 1.75633 12.968 1.75891 12.8432 1.72015C12.7974 1.70538 12.6697 1.68175 12.6294 1.65627C12.581 1.62563 12.5954 1.56656 12.6242 1.52262C12.6468 1.48828 12.7634 1.49271 12.9599 1.53887Z" fill="black"/>
<path d="M21.8141 2.07571C21.8572 2.08679 21.9119 2.08789 21.9204 2.14069C21.93 2.20641 21.8801 2.26881 21.7469 2.28357C21.6542 2.27398 21.467 2.10857 21.3942 2.25441C21.3319 2.37772 21.7243 2.42683 21.7066 2.54904C21.6926 2.65131 21.6553 2.66792 21.5648 2.66792C21.5239 2.67014 21.4271 2.61106 21.3942 2.59888C21.3042 2.55716 21.0908 2.38769 21.0103 2.52356C20.9309 2.65795 21.4729 2.84034 21.4585 2.9452C21.4441 3.04451 21.3444 3.12278 21.2691 3.09694C21.165 3.07183 20.8316 2.68047 20.6802 2.83406C20.5406 2.97584 21.0981 3.22432 21.0705 3.31071C21.0232 3.45581 20.8962 3.49901 20.7193 3.35206C20.627 3.27527 20.4816 3.13238 20.3985 3.24425C20.2962 3.38234 20.5909 3.55623 20.6167 3.60239C20.6813 3.71869 20.5329 3.85308 20.435 3.83093C20.3442 3.81874 20.2102 3.47612 20.0832 3.59389C19.9857 3.68361 20.2239 3.89738 20.1991 3.98267C20.1892 4.06205 19.9872 4.16653 19.8934 4.09306C19.7646 4.00741 20.0684 3.56214 19.7701 3.14235C19.6257 2.96402 19.5083 2.68712 19.5002 2.63838C19.4888 2.5531 19.495 2.40652 19.5497 2.33342C19.7587 2.05319 20.7068 2.07202 21.1118 2.05319C21.3832 2.04027 21.536 2.07571 21.8141 2.07571Z" fill="white"/>
<path d="M9.9638 2.11707C9.90915 2.11707 9.8619 2.12888 9.85377 2.18352C9.84343 2.25072 9.85339 2.35742 9.9671 2.36037C10.1011 2.36259 10.2647 2.18426 10.343 2.29687C10.4316 2.42388 9.97375 2.5003 10.0469 2.65463C10.141 2.85179 10.3267 2.67125 10.3607 2.65906C10.453 2.61587 10.741 2.35927 10.858 2.52836C10.9618 2.67715 10.4888 2.89314 10.4316 2.96403C10.4153 2.9847 10.3817 3.0962 10.3946 3.12353C10.498 3.35317 10.7591 3.13313 10.9341 2.94151C10.9991 2.87025 11.0463 2.83111 11.1113 2.81413C11.201 2.79087 11.2793 2.80859 11.3033 2.88908C11.3177 2.93486 11.304 2.98877 11.2704 3.02015C11.2339 3.05522 10.8263 3.34948 10.8399 3.43735C10.868 3.61568 10.9758 3.63931 11.0548 3.60128C11.1397 3.56362 11.3782 3.1586 11.5189 3.21214C11.5562 3.22654 11.6027 3.23281 11.6175 3.26862C11.6381 3.31773 11.63 3.3864 11.599 3.42775C11.5595 3.48092 11.4849 3.5507 11.4347 3.595C11.3919 3.63266 11.3442 3.67734 11.3188 3.72423C11.2523 3.84348 11.3509 3.89812 11.4598 3.89812C11.4982 3.89812 11.5189 3.87671 11.5455 3.85382C11.6119 3.79733 11.681 3.54553 11.8157 3.61273C11.9568 3.68361 11.6957 3.88299 11.7216 4.02439C11.76 4.13109 11.9295 4.15288 11.9763 4.0735C12.028 3.94686 11.9974 3.75155 12.0494 3.5315C12.1 3.33434 12.2418 3.0327 12.3101 2.91382C12.3537 2.84367 12.4065 2.78865 12.4264 2.70484C12.4279 2.69894 12.429 2.6934 12.4301 2.68749C12.4415 2.59925 12.3858 2.52652 12.326 2.47261C12.2278 2.3829 12.0952 2.32788 11.9723 2.2869C11.6097 2.16617 11.2217 2.15509 10.8059 2.1359C10.5265 2.12223 10.2488 2.11707 9.9638 2.11707Z" fill="white"/>
<path d="M19.735 4.3754C19.786 4.27239 20.0175 4.38537 20.0389 4.40493C20.1028 4.46105 20.1246 4.55299 20.1718 4.62018C20.2298 4.70288 20.3804 4.87789 20.3719 4.97167C20.3649 5.04772 20.0721 5.27479 20.0083 5.22125C20.0064 5.21941 20.0049 5.21682 20.002 5.21461C19.9588 4.93179 19.8654 4.66006 19.7284 4.40567C19.7284 4.3946 19.7313 4.38426 19.735 4.3754Z" fill="white"/>
<path d="M20.0519 5.36401C20.1324 5.36401 20.2697 5.3954 20.3254 5.4445C20.3716 5.48474 20.3949 5.54529 20.4277 5.59514L20.5976 5.83475L20.9919 6.36457L21.1724 6.59754C21.206 6.65476 21.1968 6.69722 21.147 6.73673L21.1163 6.74079C20.9328 6.74079 20.6478 6.67249 20.523 6.56246C20.4606 6.50708 20.4274 6.44136 20.3875 6.37527L20.1948 6.01899C20.1637 5.96582 20.053 5.803 20.0334 5.74504C20.0312 5.73839 20.0283 5.72953 20.026 5.71919C20.029 5.67304 20.0301 5.62689 20.0301 5.58C20.0301 5.51834 20.0279 5.45668 20.0234 5.3954C20.0301 5.37767 20.0393 5.36586 20.0519 5.36401Z" fill="white"/>
<path d="M11.368 5.54188C11.4736 5.39567 11.611 5.27494 11.7391 5.29451C11.7686 5.29561 11.79 5.30669 11.804 5.32331C11.7944 5.40785 11.79 5.49388 11.79 5.58027L11.7911 5.62015L11.7878 5.62901C11.7516 5.7586 11.7383 5.7287 11.6508 5.89816C11.5179 6.15476 11.3728 6.52175 11.2871 6.56126C11.1624 6.61886 10.9722 6.61184 10.8349 6.64618C10.6385 6.69602 10.4989 6.64507 10.4989 6.55351C10.4996 6.4361 11.2894 5.66076 11.368 5.54188Z" fill="white"/>
<path d="M11.42 6.75397C11.5355 6.76505 11.5721 6.91901 11.7083 6.9515C11.7947 6.97218 11.8948 6.92566 11.9627 6.88652C12.0066 6.86104 12.0679 6.81083 12.1263 6.81711C12.5176 7.5031 13.2247 8.06171 14.1089 8.38772C14.1108 8.39141 14.1122 8.39473 14.1141 8.39843C14.1211 8.43276 14.1111 8.46119 14.0993 8.47559C14.0528 8.52876 13.6027 9.2369 13.5108 9.25905C13.4303 9.28748 13.1213 9.08958 13.0101 9.02903C12.4235 8.71151 11.8685 8.28619 11.4392 7.73311C11.3033 7.55922 10.9197 7.11284 10.9241 6.92861C10.9278 6.79865 11.352 6.75102 11.42 6.75397Z" fill="white"/>
<path d="M20.4339 6.85904C20.4826 6.83947 20.833 6.96906 20.8389 7.05509C20.8356 7.12598 20.6211 7.42651 20.3807 7.74883C19.9595 8.31446 19.437 8.69733 18.8533 9.0226C18.7278 9.09238 18.5945 9.15588 18.4616 9.21089L18.349 9.2552C18.3139 9.2552 18.2821 9.24597 18.26 9.22234C18.2149 9.17582 17.7597 8.49721 17.7383 8.46805C17.7209 8.44479 17.7258 8.40491 17.742 8.37722C18.5716 8.06376 19.2425 7.54577 19.6386 6.90999C19.7055 6.89153 19.8225 6.99195 19.8734 7.01706C19.962 7.06063 20.0739 7.10456 20.1832 7.07429C20.2977 7.0429 20.3442 6.90002 20.4339 6.85904Z" fill="white"/>
<path d="M16.5277 8.66656C16.5739 8.69389 16.5979 8.74594 16.6152 8.78102C16.6503 8.85265 16.7614 9.49839 16.8194 9.75056C16.8371 9.83437 16.8604 9.96396 16.8467 10.0522C16.8349 10.1294 16.7456 10.2372 16.6525 10.2497C16.5754 10.2612 16.421 10.1445 16.3948 10.0862C16.3609 10.009 16.3664 9.91449 16.3583 9.8244C16.338 9.55266 16.2981 8.89806 16.2981 8.82791C16.2981 8.78656 16.3117 8.72268 16.355 8.68318C16.4129 8.67838 16.4705 8.67321 16.5277 8.66656Z" fill="white"/>
<path d="M17.0597 8.57788C17.0845 8.59966 17.1029 8.62662 17.1177 8.64618C17.1665 8.71264 17.3939 9.34509 17.4969 9.59062C17.5305 9.67147 17.577 9.79885 17.5785 9.89005C17.5803 9.97053 17.5094 10.0953 17.4183 10.1241C17.3415 10.1496 17.1653 10.0599 17.1288 10.0049C17.0801 9.93324 17.069 9.83688 17.0442 9.74679C16.9756 9.47579 16.8183 8.82156 16.8057 8.75104C16.7998 8.71744 16.8002 8.66797 16.8194 8.62477C16.901 8.61111 16.9804 8.59523 17.0597 8.57788Z" fill="white"/>
<path d="M17.5456 8.4455C17.5774 8.46506 17.6025 8.49275 17.6224 8.51343C17.6786 8.57324 17.9817 9.17357 18.1139 9.40433C18.1563 9.48075 18.2187 9.60112 18.232 9.69157C18.2427 9.77095 18.1877 9.90313 18.1006 9.94374C18.0278 9.97771 17.8417 9.91014 17.7986 9.8603C17.7417 9.79495 17.7192 9.7008 17.6837 9.61441C17.5822 9.35375 17.3467 8.72351 17.3256 8.65484C17.3142 8.61828 17.3086 8.56032 17.33 8.51085C17.4028 8.49054 17.4751 8.46912 17.5456 8.4455Z" fill="white"/>
<path d="M15.9948 8.70044C16.0369 8.73404 16.0538 8.78794 16.0671 8.82412C16.0934 8.90018 16.1255 9.55479 16.1513 9.81249C16.1591 9.89704 16.1668 10.0292 16.1425 10.1145C16.1207 10.1898 16.0195 10.2858 15.9257 10.2873C15.8475 10.2884 15.7079 10.1547 15.6898 10.0935C15.6647 10.0126 15.6828 9.91956 15.685 9.82837C15.6983 9.55663 15.7374 8.90203 15.7463 8.83298C15.7511 8.79311 15.771 8.73478 15.8146 8.70044C15.8471 8.70118 15.8788 8.70118 15.9099 8.70118C15.9383 8.70118 15.9667 8.70118 15.9948 8.70044Z" fill="white"/>
<path d="M15.5023 8.68625C15.5362 8.72501 15.5444 8.78002 15.551 8.81658C15.5654 8.89596 15.4945 9.54687 15.4805 9.80605C15.4742 9.8906 15.4613 10.0224 15.424 10.1029C15.3904 10.1738 15.2756 10.2528 15.1833 10.2395C15.105 10.2288 14.9895 10.0741 14.9806 10.011C14.9688 9.92678 15.0005 9.83817 15.0168 9.74883C15.0725 9.48226 15.2143 8.84168 15.2335 8.77486C15.2427 8.74163 15.266 8.69732 15.3026 8.66779C15.3686 8.6748 15.4355 8.68108 15.5023 8.68625Z" fill="white"/>
<path d="M15.006 8.62552C15.0477 8.67241 15.0458 8.7396 15.0466 8.78317C15.0466 8.86366 14.8638 9.49242 14.8044 9.74459C14.7837 9.82766 14.7483 9.95467 14.6973 10.0281C14.6523 10.0916 14.5256 10.1496 14.437 10.1204C14.3624 10.0961 14.2742 9.92439 14.2764 9.86015C14.2794 9.7756 14.3262 9.69364 14.3587 9.60835C14.4592 9.35544 14.7099 8.74957 14.7405 8.68681C14.7564 8.65579 14.7867 8.61518 14.8291 8.59192C14.8867 8.60484 14.9462 8.61555 15.006 8.62552Z" fill="white"/>
<path d="M14.52 8.51902C14.5496 8.57071 14.5374 8.63274 14.5315 8.67372C14.5197 8.75273 14.2405 9.34605 14.1423 9.58603C14.1091 9.66467 14.0537 9.78467 13.9924 9.84854C13.9378 9.90503 13.803 9.94195 13.72 9.89949C13.6505 9.86368 13.5907 9.68018 13.6029 9.61705C13.6188 9.53434 13.6779 9.4605 13.7233 9.38149C13.8621 9.14741 14.2044 8.58843 14.2446 8.53084C14.2612 8.50721 14.2889 8.47878 14.3236 8.46143C14.3882 8.4821 14.4543 8.50093 14.52 8.51902Z" fill="white"/>
<path d="M11.8939 4.35214C11.9622 4.33515 12.098 4.2831 12.1232 4.34992C11.9777 4.60505 11.8769 4.87752 11.8267 5.16218C11.7739 5.19282 11.641 5.11566 11.5047 5.05843C11.3205 4.97979 11.5952 4.82362 11.6908 4.68258C11.7425 4.60615 11.8282 4.40457 11.8939 4.35214Z" fill="white"/>
<path d="M11.8096 5.89535C11.8469 6.16598 11.9278 6.42553 12.0489 6.67068C12.0219 6.72053 11.7505 6.82354 11.604 6.69985C11.5213 6.59758 11.7158 5.88353 11.8096 5.89535Z" fill="white"/>
<path d="M30.5691 1.26746C30.6359 1.26746 30.695 1.26746 30.7474 1.29441C30.8198 1.33133 31.0335 1.54325 31.0313 1.62854C31.0299 1.67395 30.7629 1.75739 30.6429 1.80281C30.5536 1.84305 30.3524 1.92354 30.318 1.93461C30.2955 1.94274 30.1356 1.94421 30.109 1.94348C30.0729 1.94458 29.8237 1.94717 29.7192 1.94717C29.6771 1.94864 28.918 1.96858 28.6599 1.96858C28.373 1.96858 28.0913 1.97523 27.8056 1.97523C27.7417 1.97523 27.4153 1.9804 27.3961 1.98261H26.1715H25.906L25.8015 1.98667L25.7361 1.99073H24.9475C24.8877 1.99073 24.489 2.00255 24.311 2.01289C24.0655 2.03319 23.7037 2.06384 23.6878 2.06495C23.6398 2.06495 23.5438 2.08304 23.5294 2.0295C23.5143 1.97227 23.6328 1.94532 23.6701 1.93831C24.1091 1.85191 24.5495 1.74669 25.0465 1.68466C25.8731 1.58091 26.2711 1.56836 26.4059 1.52849C26.4842 1.50449 26.4683 1.40259 26.4059 1.39483C25.5194 1.29035 23.5368 1.67912 23.2521 1.7382C22.7234 1.85228 22.3317 1.88071 22.2014 1.88182H20.9686C20.2829 1.88071 19.9861 1.95603 19.9392 1.96526C19.8067 1.99553 19.6815 2.03725 19.5637 2.09817C19.3141 2.22629 19.1554 2.38431 19.2606 2.68411C19.2979 2.74872 19.3333 2.8377 19.3695 2.90231C19.4544 3.07104 19.5637 3.2789 19.652 3.44394C19.7158 3.56134 19.7554 3.70866 19.7554 3.85597L19.7199 4.0391C19.7177 4.07048 19.6409 4.20561 19.6007 4.18161C19.5966 4.17866 19.5896 4.17091 19.5804 4.16057C19.532 4.08968 19.4807 4.0199 19.426 3.95234C19.4083 3.9276 19.3943 3.90766 19.388 3.90028C19.3241 3.81684 19.5087 3.70275 19.4917 3.59679C19.457 3.38671 19.1484 2.98464 18.9165 2.79302C18.7807 2.68078 18.6547 2.53199 18.534 2.39465C18.4842 2.32634 18.4284 2.26986 18.3778 2.20229C18.3335 2.14248 18.3129 2.10519 18.2948 2.03209C18.2597 1.88625 18.3472 1.79764 18.4413 1.72269C18.4975 1.67802 18.6038 1.61156 18.6906 1.57611C18.9246 1.47975 19.4736 1.38228 19.7985 1.33982C19.9064 1.32911 20.17 1.29773 20.3671 1.29367C20.5872 1.29367 20.7969 1.30032 21.0029 1.31619C21.4046 1.34757 21.7971 1.42252 22.2146 1.42843C22.8224 1.43803 23.4072 1.4 23.9968 1.37157C24.2597 1.35902 24.537 1.34167 24.8183 1.31804C25.2499 1.28112 26.5658 1.29773 26.76 1.30991C26.8556 1.31545 27.7269 1.35127 28.1674 1.38523C28.2652 1.39262 28.3446 1.40185 28.4077 1.41292C28.6012 1.40886 28.7932 1.41735 28.9826 1.40591C29.3367 1.38339 29.6918 1.34425 30.0415 1.31619L30.5691 1.26746Z" fill="white"/>
<path d="M6.19671 1.23296C6.75865 1.23296 7.2556 1.28022 7.79834 1.30644C8.07707 1.31899 8.34698 1.3249 8.62572 1.33782C8.9067 1.35111 9.19504 1.37252 9.4808 1.37252C9.99326 1.37252 10.4762 1.33929 10.975 1.31603L11.3586 1.31493C11.5978 1.31087 11.8622 1.3009 12.104 1.32416C12.2547 1.33819 12.4068 1.33929 12.5526 1.35628C12.7509 1.37917 13.0935 1.41978 13.2375 1.48476C13.3704 1.54384 13.4672 1.63355 13.5181 1.69004C13.6159 1.79785 13.7618 1.96621 13.6802 2.09322C13.6466 2.15709 13.5532 2.25013 13.5044 2.30625C13.4394 2.37898 12.9318 2.80062 12.8055 2.98005C12.6911 3.13992 12.6579 3.26028 12.5873 3.38581C12.491 3.54716 12.5969 3.66715 12.5615 3.76167C12.4566 3.87317 12.3603 3.98947 12.2742 4.11131C12.2554 4.12165 12.2388 4.12497 12.2255 4.11537C12.1384 4.05445 12.1553 3.92412 12.1764 3.75502C12.1856 3.62765 12.2879 3.3644 12.3252 3.29647C12.3968 3.16134 12.6279 2.87778 12.6464 2.82646C12.7945 2.41147 12.382 2.15488 12.0686 2.0526C11.9645 2.01864 11.8604 1.97987 11.7511 1.95993C11.3472 1.88683 10.9145 1.89495 10.4788 1.88129C10.1793 1.87206 9.86369 1.86025 9.55872 1.86025L8.90041 1.85877C8.69034 1.84216 8.47768 1.82997 8.28162 1.78345C7.94564 1.7037 7.66395 1.6306 7.32797 1.55639C7.0422 1.49362 6.73354 1.43898 6.42819 1.41978C6.22034 1.40686 5.85852 1.38397 5.6429 1.38397C5.48414 1.38397 4.3082 1.37179 4.13432 1.42015C4.07412 1.43197 4.08372 1.54531 4.12433 1.55528C4.35029 1.61989 5.18913 1.63835 5.74516 1.61915C6.07192 1.63503 6.43705 1.67564 6.74609 1.71995C7.14593 1.77681 7.51514 1.84954 7.88582 1.96695L8.28162 2.07033C8.34698 2.09063 8.43225 2.1342 8.3429 2.19549C8.09813 2.19549 7.87179 2.14786 7.62369 2.14417C6.99899 2.14417 6.09777 2.12534 5.47121 2.12534C5.40587 2.12128 2.36838 2.08879 2.00582 2.06811C1.60229 2.04485 1.23861 1.85139 1.10274 1.78456C1.05105 1.76167 0.898935 1.64352 0.90818 1.62026C0.937332 1.54531 1.10274 1.26287 1.23234 1.25253C1.50703 1.27838 1.84558 1.31493 2.12878 1.32748C2.12878 1.32748 4.15756 1.30496 4.21738 1.30053C4.52308 1.27653 5.24933 1.24515 5.56315 1.23961C5.73703 1.23666 6.03131 1.22558 6.19671 1.23296Z" fill="white"/>
<path d="M20.0399 6.03577C20.1337 6.02396 20.329 6.83289 20.2049 6.89418C20.0794 6.96101 19.7807 6.80779 19.746 6.76717C19.7394 6.76016 19.7357 6.75167 19.7349 6.74281C19.849 6.52793 19.9321 6.30197 19.9804 6.06679C19.9967 6.05017 20.0151 6.04094 20.0399 6.03577Z" fill="white"/>
<path d="M15.9806 1.29565C14.9645 1.29565 13.875 1.5829 13.8344 1.64492C13.7402 1.79298 13.9425 1.78707 13.9374 1.99272C13.9311 2.24452 13.7354 2.41325 13.6675 2.48598C13.4087 2.76067 13.0786 2.9006 12.8504 3.20741C12.8331 3.2303 12.8161 3.33368 12.8394 3.36543C12.8995 3.44592 13.0409 3.35694 13.0749 3.32999C13.5549 2.95451 14.0053 2.80387 14.5495 2.63477C14.6847 2.59231 15.3703 2.44906 16.2549 2.48709C17.0369 2.52069 17.7579 2.72523 18.3856 3.0937C18.6363 3.24064 18.86 3.4234 19.0978 3.62093C19.1842 3.69366 19.2518 3.58733 19.2547 3.54782C19.258 3.50204 19.2207 3.43743 19.1971 3.39903C19.0166 3.09739 18.6182 2.82491 18.342 2.50075C18.2054 2.34014 18.1371 2.28218 18.0858 2.19025C17.9171 1.90485 18.1751 1.8886 18.1427 1.7579C18.1176 1.65379 17.1166 1.29565 15.9806 1.29565Z" fill="white"/>
</g>
<defs>
<clipPath id="clip0_49_17065">
<rect width="32" height="10.6562" fill="white" transform="translate(0 0.429688)"/>
</clipPath>
</defs>
</svg>
