<svg width="800" height="800" viewBox="0 0 800 800" fill="none" xmlns="http://www.w3.org/2000/svg">
<g clip-path="url(#clip0_606_257)">
<path d="M399.999 800C506.842 800 607.289 758.391 682.841 682.841C758.391 607.29 800 506.842 800 399.999C800 293.158 758.391 192.71 682.841 117.159C607.29 41.6078 506.842 0 399.999 0C179.438 0 0 179.438 0 399.999C0 506.842 41.6078 607.29 117.159 682.841C192.71 758.391 293.158 800 399.999 800Z" fill="white"/>
<path d="M13.8398 399.999C13.8398 296.855 54.0081 199.882 126.945 126.945C199.882 54.0065 296.854 13.8398 399.999 13.8398C503.145 13.8398 600.118 54.0065 673.054 126.945C745.99 199.882 786.159 296.854 786.159 399.999C786.159 612.93 612.928 786.16 399.999 786.16C296.854 786.16 199.882 745.992 126.945 673.055C54.0081 600.117 13.8398 503.145 13.8398 399.999Z" fill="black"/>
<path d="M399.999 29.7546C195.521 29.7546 29.7547 195.521 29.7547 399.999C29.7547 604.477 195.521 770.245 399.999 770.245C604.477 770.245 770.244 604.477 770.244 399.999C770.244 195.521 604.477 29.7546 399.999 29.7546Z" fill="white"/>
<path d="M399.999 636.499C269.386 636.499 163.499 530.614 163.499 399.999C163.499 269.386 269.386 163.499 399.999 163.499C530.613 163.499 636.499 269.386 636.499 399.999C636.499 530.614 530.614 636.499 399.999 636.499Z" fill="black"/>
<path d="M178.714 399.999H399.999V178.714C277.789 178.714 178.714 277.79 178.714 399.999ZM399.999 399.999V621.286C522.21 621.286 621.284 522.212 621.284 399.999H399.999Z" fill="white"/>
<path d="M226.2 174.351C218.361 166.731 206.243 164.435 194.867 171.488C197.04 165.857 196.152 160.11 194.998 156.939C190.097 148.001 188.386 146.883 184.347 143.494C171.271 132.522 157.51 141.889 147.668 153.618L100.114 210.289L174.868 273.016L225.016 213.253C236.474 199.598 238.246 186.059 226.2 174.351ZM412.387 147.422L438.059 79.3768V147.422H457.57V49.9688H428.255L401.591 119.744H401.867L375.203 49.9688H345.89V147.422H365.4V79.3768L391.073 147.422H412.387ZM674.708 187.966L637.974 239.973L694.922 212.937L710.001 231.557L620.366 275.007L602.67 252.978L637.926 201.427L637.717 201.169L579.962 224.936L562.093 203.046L623.231 124.404L638.309 143.025L600.024 193.108L658.532 167.989L674.708 187.966Z" fill="black"/>
<path d="M158.059 167.644C161.368 163.7 168.846 163.862 173.656 167.896C178.944 172.334 178.957 178.624 175.405 182.855L147.165 216.509L129.497 201.682L158.059 167.644ZM208.304 207.346L178.53 242.828L159.859 227.162L189.874 191.391C193.263 187.351 200.82 186.175 205.917 190.453C211.687 195.292 212.258 202.634 208.304 207.346Z" fill="white"/>
</g>
<defs>
<clipPath id="clip0_606_257">
<rect width="800" height="800" fill="white"/>
</clipPath>
</defs>
</svg>
