<svg width="32" height="22" viewBox="0 0 32 22" fill="none" xmlns="http://www.w3.org/2000/svg">
<path fill-rule="evenodd" clip-rule="evenodd" d="M18.1821 12.0298V17.2095H23.3683C24.8013 17.2095 25.9631 16.05 25.9631 14.6196C25.9631 13.1893 24.8013 12.0298 23.3683 12.0298H18.1821ZM24.1509 4.27634L18.1821 4.28921V7.82651H24.1509C25.1515 7.82651 25.9631 6.9501 25.9631 6.01734C25.9631 5.08446 25.1515 4.27634 24.1509 4.27634ZM0 0.0859375H26.4187C29.4958 0.0859375 31.9898 2.57523 31.9898 5.64597C31.9898 7.18129 31.3672 8.57133 30.3585 9.57759L29.417 10.2111L30.1614 10.7119C31.2906 11.8398 32.1011 12.8472 31.9898 15.1188C31.9898 18.5608 29.1944 21.4194 25.7451 21.4194L0 21.4128V14.167H3.75887V17.2095H12.7827V12.0297H9.60238V13.5398H5.84468V6.2941H9.60238V7.82651H12.7827V4.28921H3.75887V7.33178H0V0.0859375Z" fill="black"/>
</svg>
