<svg width="32" height="31" viewBox="0 0 32 31" fill="none" xmlns="http://www.w3.org/2000/svg">
<path d="M26.5869 8.60158L26.0308 8.54024L15.9938 7.4208V7.79593L25.9909 8.90942L26.5869 8.60158Z" fill="#A1C1E4"/>
<path d="M26.587 8.60109L26.0309 8.53976L15.994 7.42031V7.79545L25.991 8.90894L26.587 8.60109Z" fill="url(#paint0_linear_49_17145)"/>
<path d="M15.9938 7.79452L25.9909 8.90801L24.4814 11.5965C24.4814 11.5965 24.2956 15.212 24.1723 16.6328C24.0491 18.0547 24.0181 19.1676 22.9398 19.6308C20.7819 20.5586 18.1208 21.388 15.9938 21.8519V7.79452Z" fill="#D3E2F5"/>
<path d="M15.994 7.79263L25.991 8.90612L24.4815 11.5946C24.4815 11.5946 24.2957 15.2101 24.1724 16.6309C24.0492 18.0528 24.0182 19.1657 22.9399 19.629C20.782 20.5567 18.1209 21.3861 15.994 21.85V7.79263Z" fill="url(#paint1_linear_49_17145)"/>
<path d="M26.5867 8.60087L25.9906 8.90872L24.4811 11.5972L24.8497 11.6508L26.3121 9.09033L26.5867 8.60087Z" fill="#415050"/>
<path d="M26.5865 8.60001L25.9904 8.90786L24.481 11.5963L24.8496 11.6499L26.3119 9.08947L26.5865 8.60001Z" fill="url(#paint2_linear_49_17145)"/>
<path d="M5.40063 8.60344L5.95676 8.54211L15.9936 7.42267V7.7978L5.99783 8.91129L7.50731 11.5997C7.50731 11.5997 7.69246 15.2153 7.81572 16.636C7.93838 18.058 7.96879 19.1709 9.04834 19.6341C11.2051 20.5618 13.8679 21.3913 15.9936 21.8551V22.2374C13.7357 21.745 10.9812 20.8691 8.90246 19.9759C7.68119 19.4501 7.58233 18.2717 7.4674 16.9076L7.44713 16.6688C7.33459 15.3796 7.16613 12.2131 7.13755 11.6533L5.6751 9.0929L5.40063 8.60344Z" fill="#F6F8FD"/>
<path d="M5.40051 8.60485L5.95664 8.54352L15.9935 7.42408V7.79921L5.99771 8.9127L7.50719 11.6011C7.50719 11.6011 7.69234 15.2167 7.8156 16.6374C7.93826 18.0594 7.96867 19.1723 9.04822 19.6355C11.2049 20.5632 13.8677 21.3927 15.9935 21.8566V22.2388C13.7356 21.7464 10.981 20.8705 8.90233 19.9773C7.68107 19.4515 7.5822 18.2731 7.46728 16.909L7.447 16.6702C7.33446 15.3811 7.16601 12.2145 7.13743 11.6547L5.67498 9.09431L5.40051 8.60485Z" fill="url(#paint3_linear_49_17145)"/>
<path d="M5.40063 8.60158L5.95676 8.54024L15.9936 7.4208V7.79593L5.99783 8.90942L5.40063 8.60158Z" fill="#BECDE1"/>
<path d="M5.40051 8.60109L5.95664 8.53976L15.9935 7.42031V7.79545L5.99771 8.90894L5.40051 8.60109Z" fill="url(#paint4_linear_49_17145)"/>
<path d="M15.9936 7.79452L5.99786 8.90801L7.50735 11.5965C7.50735 11.5965 7.6925 15.212 7.81575 16.6328C7.93842 18.0547 7.96883 19.1676 9.04837 19.6308C11.2051 20.5586 13.8679 21.388 15.9936 21.8519V7.79452Z" fill="#F4F6FD"/>
<path d="M15.9935 7.79263L5.99774 8.90612L7.50722 11.5946C7.50722 11.5946 7.69237 15.2101 7.81563 16.6309C7.9383 18.0528 7.9687 19.1657 9.04825 19.629C11.205 20.5567 13.8678 21.3861 15.9935 21.85V7.79263Z" fill="url(#paint5_linear_49_17145)"/>
<path d="M5.40063 8.60087L5.99783 8.90872L7.50731 11.5972L7.13755 11.6508L5.6751 9.09033L5.40063 8.60087Z" fill="#415050"/>
<path d="M5.40051 8.60001L5.99771 8.90786L7.50719 11.5963L7.13743 11.6499L5.67498 9.08947L5.40051 8.60001Z" fill="url(#paint6_linear_49_17145)"/>
<path d="M24.4814 11.5997C24.4814 11.5997 24.2956 15.2153 24.1724 16.636C24.0491 18.058 24.0182 19.1709 22.9398 19.6341C20.7819 20.5618 18.1208 21.3913 15.9939 21.8551V22.2374C18.2524 21.745 21.007 20.8691 23.0857 19.9759C24.307 19.4501 24.4059 18.2717 24.5202 16.9076L24.5404 16.6688C24.6535 15.3796 24.8203 12.2131 24.85 11.6533L24.4814 11.5997Z" fill="#7D8283"/>
<path d="M24.8221 11.6486C24.7941 12.166 24.625 15.3671 24.5124 16.6664C24.5124 16.6736 24.4922 16.9016 24.4916 16.9094C24.3772 18.2676 24.2784 19.4317 23.0744 19.9491C20.9903 20.8459 18.2429 21.7176 15.9939 22.2083L15.9659 21.8278C18.0917 21.3639 20.7552 20.535 22.9119 19.6079C23.9908 19.1441 24.0224 18.0425 24.1444 16.6206C24.2683 15.1998 24.4529 11.5837 24.4529 11.5837L24.8221 11.6486Z" fill="#787E80"/>
<path d="M24.7928 11.6445C24.769 12.1185 24.597 15.3541 24.4844 16.6641C24.4826 16.6796 24.4641 16.8964 24.4636 16.9112C24.3492 18.2629 24.251 19.4127 23.0631 19.9224C20.9719 20.8215 18.2328 21.6903 15.9939 22.178L15.9379 21.8023C18.0649 21.3378 20.7266 20.5083 22.8833 19.5812C23.9622 19.1174 23.9944 18.0265 24.1176 16.6052C24.2415 15.1832 24.426 11.5677 24.426 11.5677L24.7928 11.6445Z" fill="#737A7C"/>
<path d="M24.7649 11.6408C24.7428 12.0713 24.5702 15.3421 24.4565 16.6616C24.4547 16.6849 24.4362 16.8903 24.435 16.9135C24.3213 18.2574 24.2224 19.3936 23.0524 19.8973C20.9558 20.7976 18.2221 21.6628 15.9939 22.1493L15.91 21.7742C18.0363 21.3103 20.6992 20.4814 22.8565 19.5537C23.9348 19.0899 23.967 18.0097 24.0897 16.5884C24.2135 15.1671 24.3981 11.5515 24.3981 11.5515L24.7649 11.6408Z" fill="#6E7578"/>
<path d="M24.7369 11.6367C24.7161 12.0243 24.5429 15.3291 24.4273 16.6593C24.425 16.6897 24.4077 16.885 24.4059 16.9153C24.2934 18.2527 24.1951 19.3751 23.0411 19.87C20.938 20.7744 18.2126 21.6367 15.994 22.1196L15.882 21.7486C18.0078 21.2836 20.6712 20.4547 22.8279 19.527C23.9069 19.0637 23.9396 17.9949 24.0629 16.5724C24.1856 15.1504 24.3714 11.5355 24.3714 11.5355L24.7369 11.6367Z" fill="#687173"/>
<path d="M24.7077 11.6325C24.6905 11.9773 24.5154 15.3166 24.3993 16.6563C24.3958 16.695 24.3808 16.8796 24.3772 16.9165C24.2641 18.2486 24.1665 19.3555 23.0286 19.845C20.9213 20.7506 18.2013 21.6087 15.9939 22.0904L15.854 21.7212C17.9809 21.2568 20.6432 20.4267 22.7999 19.502C23.8783 19.0369 23.9122 17.9776 24.0355 16.5569C24.1587 15.1356 24.3433 11.5194 24.3433 11.5194L24.7077 11.6325Z" fill="#646D70"/>
<path d="M24.6798 11.6284C24.6649 11.9297 24.4881 15.3041 24.3713 16.654C24.3666 16.7004 24.3528 16.8737 24.3492 16.919C24.2367 18.2438 24.1385 19.3359 23.0184 19.8182C20.904 20.7269 18.1917 21.5813 15.9939 22.0607L15.8266 21.6945C17.9529 21.2306 20.6158 20.4006 22.7719 19.4734C23.8509 19.0102 23.8848 17.9622 24.0075 16.5409C24.1319 15.1189 24.3153 11.504 24.3153 11.504L24.6798 11.6284Z" fill="#5F696C"/>
<path d="M24.6518 11.6243C24.6387 11.8827 24.4606 15.2917 24.3427 16.6517C24.3379 16.7058 24.3243 16.869 24.3189 16.9202C24.2088 18.2397 24.1105 19.3175 23.0065 19.7921C20.8867 20.7037 18.181 21.554 15.9939 22.0309L15.798 21.6665C17.9256 21.2039 20.5866 20.3744 22.7445 19.4467C23.8235 18.9834 23.8568 17.9462 23.9801 16.5248C24.1039 15.1035 24.2886 11.4879 24.2886 11.4879L24.6518 11.6243Z" fill="#5A6569"/>
<path d="M24.6226 11.62C24.6119 11.8356 24.4332 15.2791 24.3141 16.6486C24.3094 16.7105 24.2957 16.8635 24.291 16.9225C24.1808 18.2349 24.0831 19.2983 22.9952 19.7658C20.8695 20.6792 18.1709 21.5271 15.9939 22.0023L15.7706 21.6408C17.897 21.1764 20.5592 20.3469 22.7166 19.4198C23.7943 18.9565 23.83 17.9312 23.9539 16.5087C24.0766 15.0867 24.2606 11.4712 24.2606 11.4712L24.6226 11.62Z" fill="#556266"/>
<path d="M24.5946 11.6159C24.5857 11.7885 24.4059 15.266 24.285 16.6462C24.2796 16.7153 24.2677 16.857 24.2617 16.9243C24.1528 18.2307 24.0545 19.2799 22.9839 19.739C20.8522 20.656 18.1608 21.5003 15.9939 21.9731L15.7421 21.6134C17.8684 21.1496 20.5319 20.3201 22.6886 19.393C23.7675 18.9297 23.8021 17.9145 23.9253 16.4926C24.0492 15.0718 24.2343 11.4557 24.2343 11.4557L24.5946 11.6159Z" fill="#515E62"/>
<path d="M24.566 11.6117C24.5595 11.7409 24.3785 15.2529 24.2576 16.6445C24.2511 16.7213 24.2397 16.8517 24.2332 16.9261C24.1242 18.2254 24.0266 19.2603 22.9732 19.7134C20.835 20.6316 18.1501 21.473 15.994 21.9434L15.7153 21.5861C17.841 21.124 20.5039 20.2946 22.66 19.3663C23.739 18.9024 23.7753 17.8985 23.898 16.4771C24.0224 15.0552 24.2064 11.4396 24.2064 11.4396L24.566 11.6117Z" fill="#4C5A5F"/>
<path d="M24.538 11.6076C24.5332 11.694 24.3511 15.2404 24.2296 16.6421C24.2219 16.7273 24.2117 16.8464 24.2052 16.9279C24.0956 18.2213 23.9991 19.2413 22.963 19.6873C20.8176 20.6096 18.1411 21.4456 15.9939 21.9136L15.6873 21.5593C17.8124 21.0967 20.4753 20.2672 22.6332 19.3395C23.7109 18.8763 23.7479 17.8824 23.8711 16.4605C23.9944 15.0392 24.1789 11.4236 24.1789 11.4236L24.538 11.6076Z" fill="#48575C"/>
<path d="M24.5089 11.6034C24.5065 11.6463 24.3231 15.2279 24.201 16.6397C24.1927 16.732 24.1844 16.841 24.1766 16.9297C24.0676 18.2164 23.9706 19.2227 22.9512 19.661C20.8004 20.5851 18.1304 21.4188 15.9939 21.8844L15.6587 21.5337C17.785 21.0698 20.4473 20.2398 22.604 19.3127C23.6836 18.8494 23.7193 17.8669 23.8431 16.445C23.9664 15.023 24.1516 11.4069 24.1516 11.4069L24.5089 11.6034Z" fill="#435459"/>
<path d="M15.6307 21.5069C17.7565 21.043 20.4188 20.213 22.5761 19.2859C23.6556 18.8226 23.6925 17.8502 23.8152 16.4289C23.9396 15.0076 24.1242 11.392 24.1242 11.392L24.4815 11.5998C24.4815 11.5998 24.2957 15.2154 24.1724 16.6361C24.1629 16.7367 24.1564 16.8356 24.1481 16.9321C24.0397 18.2111 23.9426 19.2037 22.9399 19.6342C20.782 20.5619 18.1209 21.3914 15.994 21.8552L15.6307 21.5069Z" fill="#3F5257"/>
<path d="M7.50132 11.5997C7.50132 11.5997 7.68648 15.2153 7.80915 16.636C7.93241 18.058 7.96341 19.1709 9.04177 19.6341C11.1991 20.5618 13.8619 21.3913 15.987 21.8551V22.2374C13.7291 21.745 10.9746 20.8691 8.89647 19.9759C7.6752 19.4501 7.57574 18.2717 7.46141 16.9076L7.44055 16.6688C7.3292 15.3796 7.16075 12.2131 7.13098 11.6533L7.50132 11.5997Z" fill="#7D8283"/>
<path d="M7.1601 11.6486C7.18689 12.166 7.3566 15.3671 7.46974 16.6664C7.47034 16.6736 7.48935 16.9016 7.48995 16.9094C7.60427 18.2676 7.70317 19.4317 8.90835 19.9491C10.9924 20.8459 13.7392 21.7176 15.987 22.2083L16.0156 21.8278C13.8892 21.3639 11.227 20.535 9.0703 19.6079C7.99194 19.1441 7.95977 18.0425 7.83652 16.6206C7.71326 15.1998 7.52869 11.5837 7.52869 11.5837L7.1601 11.6486Z" fill="#787E80"/>
<path d="M7.18866 11.6445C7.21307 12.1185 7.38398 15.3541 7.4983 16.6641C7.4983 16.6796 7.51797 16.8964 7.51917 16.9112C7.6323 18.2629 7.73113 19.4127 8.91845 19.9224C11.0097 20.8215 13.7493 21.6903 15.987 22.178L16.0442 21.8023C13.9179 21.3378 11.2538 20.5083 9.0977 19.5812C8.01934 19.1174 7.98835 18.0265 7.8645 16.6052C7.74124 15.1832 7.55667 11.5677 7.55667 11.5677L7.18866 11.6445Z" fill="#737A7C"/>
<path d="M7.21661 11.6408C7.23924 12.0713 7.41135 15.3421 7.52568 16.6616C7.52806 16.6849 7.54533 16.8903 7.54712 16.9135C7.66025 18.2574 7.75911 19.3936 8.92976 19.8973C11.0269 20.7976 13.7594 21.6628 15.987 22.1493L16.0709 21.7742C13.9452 21.3103 11.2836 20.4814 9.12565 19.5537C8.0473 19.0899 8.01514 18.0097 7.89129 16.5884C7.76863 15.1671 7.58463 11.5515 7.58463 11.5515L7.21661 11.6408Z" fill="#6E7578"/>
<path d="M7.24524 11.6367C7.26548 12.0243 7.43938 15.3291 7.5543 16.6593C7.55728 16.6897 7.57335 16.885 7.57633 16.9153C7.68887 18.2527 7.78771 19.3751 8.94109 19.87C11.0448 20.7744 13.7696 21.6367 15.987 22.1196L16.0996 21.7486C13.9732 21.2836 11.311 20.4547 9.15428 19.527C8.07533 19.0637 8.04259 17.9949 7.91933 16.5724C7.79548 15.1504 7.61143 11.5355 7.61143 11.5355L7.24524 11.6367Z" fill="#687173"/>
<path d="M7.27386 11.6325C7.29113 11.9773 7.46673 15.3166 7.58344 16.6563C7.58641 16.695 7.6019 16.8796 7.60488 16.9165C7.71682 18.2486 7.81572 19.3555 8.95183 19.845C11.0615 20.7506 13.7803 21.6087 15.987 22.0904L16.1275 21.7212C14.0018 21.2568 11.339 20.4267 9.18167 19.502C8.10391 19.0369 8.06933 17.9776 7.94607 16.5569C7.82341 15.1356 7.63824 11.5194 7.63824 11.5194L7.27386 11.6325Z" fill="#646D70"/>
<path d="M7.30298 11.6284C7.31727 11.9297 7.49408 15.3041 7.61139 16.654C7.61496 16.7004 7.6293 16.8737 7.63407 16.919C7.74482 18.2438 7.84249 19.3359 8.96372 19.8182C11.0776 20.7269 13.7904 21.5813 15.987 22.0607L16.1555 21.6945C14.0291 21.2306 11.3669 20.4006 9.2102 19.4734C8.13006 19.0102 8.09728 17.9622 7.97402 16.5409C7.85076 15.1189 7.66503 11.504 7.66503 11.504L7.30298 11.6284Z" fill="#5F696C"/>
<path d="M7.33099 11.6243C7.34409 11.8827 7.5215 15.2917 7.6394 16.6517C7.64417 16.7058 7.65791 16.869 7.66208 16.9202C7.77283 18.2397 7.87165 19.3175 8.97502 19.7921C11.096 20.7037 13.8017 21.554 15.987 22.0309L16.1829 21.6665C14.0572 21.2039 11.395 20.3744 9.23705 19.4467C8.15929 18.9834 8.12413 17.9462 8.00087 16.5248C7.8794 15.1035 7.69363 11.4879 7.69363 11.4879L7.33099 11.6243Z" fill="#5A6569"/>
<path d="M7.3584 11.62C7.3709 11.8356 7.54895 15.2791 7.66804 16.6486C7.6734 16.7105 7.6859 16.8635 7.69007 16.9225C7.80142 18.2349 7.89907 19.2983 8.98636 19.7658C11.1133 20.6792 13.8107 21.5271 15.987 22.0023L16.2109 21.6408C14.0857 21.1764 11.4229 20.3469 9.26562 19.4198C8.18726 18.9565 8.15212 17.9312 8.02886 16.5087C7.9056 15.0867 7.72045 11.4712 7.72045 11.4712L7.3584 11.62Z" fill="#556266"/>
<path d="M7.38751 11.6159C7.39585 11.7885 7.57632 15.266 7.69541 16.6462C7.70196 16.7153 7.715 16.857 7.71976 16.9243C7.82992 18.2307 7.9276 19.2799 8.99643 19.739C11.1299 20.656 13.8213 21.5003 15.987 21.9731L16.2388 21.6134C14.1131 21.1496 11.4503 20.3201 9.29357 19.393C8.21522 18.9297 8.18005 17.9145 8.05739 16.4926C7.93294 15.0718 7.7484 11.4557 7.7484 11.4557L7.38751 11.6159Z" fill="#515E62"/>
<path d="M7.41559 11.6117C7.42273 11.7409 7.60439 15.2529 7.72407 16.6445C7.73122 16.7213 7.74135 16.8517 7.74849 16.9261C7.85686 18.2254 7.95569 19.2603 9.00844 19.7134C11.1473 20.6316 13.831 21.473 15.9871 21.9434L16.2669 21.5861C14.1412 21.124 11.4784 20.2946 9.32107 19.3663C8.24331 18.9024 8.20698 17.8985 8.08372 16.4771C7.95987 15.0552 7.77524 11.4396 7.77524 11.4396L7.41559 11.6117Z" fill="#4C5A5F"/>
<path d="M7.44415 11.6076C7.44892 11.694 7.63108 15.2404 7.75314 16.6421C7.76029 16.7273 7.77042 16.8464 7.77757 16.9279C7.88594 18.2213 7.98361 19.2413 9.02029 19.6873C11.1639 20.6096 13.8404 21.4456 15.987 21.9136L16.2948 21.5593C14.1691 21.0967 11.5069 20.2672 9.34898 19.3395C8.27122 18.8763 8.23547 17.8824 8.11222 16.4605C7.98836 15.0392 7.80315 11.4236 7.80315 11.4236L7.44415 11.6076Z" fill="#48575C"/>
<path d="M7.47333 11.6034C7.47511 11.6463 7.65848 15.2279 7.78174 16.6397C7.78948 16.732 7.79843 16.841 7.80558 16.9297C7.91395 18.2164 8.01158 19.2227 9.03158 19.661C11.1817 20.5851 13.8512 21.4188 15.987 21.8844L16.3228 21.5337C14.1971 21.0698 11.5343 20.2398 9.37699 19.3127C8.29923 18.8494 8.26167 17.8669 8.13841 16.445C8.01515 15.023 7.83116 11.4069 7.83116 11.4069L7.47333 11.6034Z" fill="#435459"/>
<path d="M16.3508 21.5069C14.225 21.043 11.5622 20.213 9.40552 19.2859C8.32717 18.8226 8.28962 17.8502 8.16636 16.4289C8.04251 15.0076 7.85679 11.392 7.85679 11.392L7.50128 11.5998C7.50128 11.5998 7.68645 15.2154 7.80911 16.6361C7.81864 16.7367 7.82636 16.8356 7.8347 16.9321C7.94307 18.2111 8.03959 19.2037 9.04173 19.6342C11.199 20.5619 13.8618 21.3914 15.987 21.8552L16.3508 21.5069Z" fill="#3F5257"/>
<path d="M15.9925 7.78134L5.99544 8.89363L5.974 8.89661L5.98476 8.91567L7.49424 11.6041L7.49242 11.5976C7.49421 11.6339 7.67943 15.2304 7.8009 16.6357L7.82053 16.875C7.93069 18.1761 8.01704 19.2056 9.04181 19.6456C11.0991 20.5299 13.7619 21.3808 15.9901 21.8673L15.9936 21.8679L15.9966 21.8673C18.2272 21.3808 20.8889 20.5299 22.9449 19.6456C23.9715 19.2056 24.0572 18.1761 24.1661 16.875L24.187 16.6357C24.3091 15.2304 24.493 11.6339 24.4948 11.5976L24.4931 11.6041L26.0031 8.91567L26.0138 8.89661L25.9918 8.89363L15.9954 7.78134H15.9925ZM25.9781 8.90078L24.4681 11.5904L24.4657 11.5928V11.597C24.4633 11.6327 24.2793 15.2286 24.1573 16.6333L24.1376 16.8726C24.028 18.1654 23.9429 19.1848 22.9336 19.6189C20.8781 20.5013 18.2182 21.3528 15.9901 21.8381H15.9966C13.7696 21.3528 11.1092 20.5013 9.05308 19.6189C8.04558 19.1848 7.95922 18.1654 7.85026 16.8726L7.83005 16.6333C7.70798 15.2286 7.52401 11.6327 7.52222 11.597V11.5928L7.52041 11.5904L6.00918 8.90078L5.99842 8.92341L15.9954 7.81051H15.9925L25.9888 8.92341L25.9781 8.90078Z" fill="white"/>
<path d="M12.019 0.941389C6.34739 2.59674 1.44205 6.82621 1.44205 13.9662C1.44205 21.3093 7.74485 27.5675 16.0001 27.9932L15.9966 29.4288C8.74045 29.4288 0.37915 23.469 0.37915 14.3521C0.37915 6.51598 5.23745 2.5622 11.0335 0.693684C11.105 0.678202 11.1818 0.684155 11.2479 0.697254C11.4962 0.746675 11.7499 0.800268 12.019 0.941389Z" fill="#D7D8D9"/>
<path d="M16.0068 29.8775C6.6952 29.8775 0 21.9539 0 14.4262C0 11.6532 1.90131 5.47245 6.1016 5.47245C5.22987 6.34419 2.81348 9.23569 2.81348 13.377C2.81348 19.0624 6.65651 25.2431 15.9967 26.1863C18.4821 26.437 20.6811 29.8775 16.0068 29.8775Z" fill="#D7D8D9"/>
<path d="M15.914 26.2045C18.0183 26.4076 19.8046 28.8346 17.6128 29.5766C17.1859 29.7195 16.6131 29.8022 15.8658 29.7987C7.03765 29.726 0.632373 22.6062 0.0940879 15.4067C0.0690791 15.075 0.0566264 14.7427 0.0578173 14.4123C0.0655581 12.1674 1.27193 7.93379 3.78591 6.26832C4.43614 5.84674 5.18044 5.60737 6.0224 5.63476C5.32454 6.37312 3.65672 8.39467 3.04996 11.2743C2.90586 11.9674 2.82184 12.7087 2.82601 13.4941C2.86353 19.1901 6.77152 25.2983 15.914 26.2045Z" fill="#D3D5D6"/>
<path d="M15.8307 26.2259C17.9576 26.4206 19.6499 28.8256 17.4586 29.5199C17.0299 29.6527 16.4612 29.7277 15.7258 29.7182C6.96621 29.5753 0.665138 22.5698 0.14948 15.3846C0.124471 15.0547 0.112586 14.726 0.114372 14.3973C0.131045 12.0977 1.35944 7.94323 3.82102 6.33314C4.4391 5.94729 5.14293 5.74305 5.94202 5.79723C5.25189 6.57013 3.63109 8.5881 3.04815 11.4111C2.90941 12.1001 2.83203 12.836 2.83917 13.6131C2.91122 19.3181 6.88584 25.3553 15.8307 26.2259Z" fill="#CED0D1"/>
<path d="M15.7467 26.2457C17.8963 26.4321 19.4945 28.8156 17.3044 29.4617C16.8727 29.5844 16.3082 29.6522 15.5854 29.6391C6.8942 29.4236 0.698557 22.5348 0.203144 15.3615C0.179921 15.0346 0.169739 14.7077 0.171525 14.3832C0.197129 12.0282 1.44585 7.95172 3.85623 6.39581C4.44036 6.04688 5.10666 5.87777 5.86288 5.95875C5.1805 6.76559 3.60488 8.78178 3.04635 11.547C2.91357 12.2324 2.84033 12.9618 2.85104 13.7305C2.96061 19.4463 7.00079 25.4115 15.7467 26.2457Z" fill="#CBCDCF"/>
<path d="M15.6633 26.2659C17.8337 26.4434 19.339 28.8049 17.1495 29.4033C16.7166 29.5177 16.1557 29.5778 15.4441 29.5599C6.82263 29.2723 0.731177 22.4991 0.257795 15.3389C0.235168 15.0137 0.22628 14.691 0.228067 14.3689C0.263198 11.9585 1.53328 7.96065 3.89125 6.46012C4.44204 6.1475 5.06966 6.01294 5.78241 6.12131C5.10777 6.96149 3.57866 8.9747 3.04394 11.684C2.91711 12.3652 2.84983 13.0892 2.86412 13.8484C3.00881 19.5737 7.11502 25.4674 15.6633 26.2659Z" fill="#C7C9CB"/>
<path d="M15.5799 26.2862C17.7724 26.4565 19.1836 28.7949 16.9947 29.3457C16.5594 29.4505 16.0039 29.5017 15.3042 29.479C6.7518 29.1218 0.763986 22.4629 0.31204 15.3163C0.2912 14.9942 0.281646 14.6732 0.285219 14.3541C0.328091 11.8895 1.61902 7.97025 3.92638 6.5245C4.44382 6.24821 5.03215 6.14818 5.70262 6.28394C5.03512 7.15806 3.55304 9.16829 3.04215 11.8192C2.92068 12.4974 2.85931 13.2156 2.87599 13.9664C3.05819 19.7024 7.22876 25.5241 15.5799 26.2862Z" fill="#C3C6C7"/>
<path d="M15.4966 26.3059C17.7104 26.4679 19.0276 28.7854 16.8399 29.2885C16.404 29.3832 15.852 29.4273 15.1625 29.4005C6.67974 28.9694 0.798479 22.4278 0.366779 15.2937C0.347129 14.9733 0.338202 14.6554 0.341775 14.3398C0.394174 11.8193 1.70718 7.9798 3.96215 6.58824C4.44565 6.34827 4.99582 6.28337 5.62224 6.44652C4.96307 7.35458 3.52628 9.36124 3.04099 11.9556C2.92547 12.6308 2.86831 13.3412 2.88915 14.0843C3.10649 19.8304 7.34428 25.5807 15.4966 26.3059Z" fill="#BFC2C4"/>
<path d="M15.4138 26.3261C17.6491 26.4791 18.8728 28.7746 16.6857 29.2307C16.2463 29.3158 15.6997 29.3527 15.0226 29.3206C6.60716 28.818 0.830134 22.392 0.421061 15.2704C0.402007 14.9536 0.394869 14.638 0.399037 14.3248C0.459773 11.7501 1.79415 7.98805 3.99731 6.65246C4.44747 6.44882 4.95834 6.41845 5.54307 6.6084C4.89045 7.5504 3.50073 9.55408 3.03807 12.0919C2.9291 12.7635 2.8773 13.468 2.90171 14.2027C3.15537 19.9584 7.45864 25.6371 15.4138 26.3261Z" fill="#BCBFC1"/>
<path d="M15.3298 26.347C17.5884 26.4923 18.7173 28.7651 16.5308 29.1736C16.0896 29.248 15.5466 29.2784 14.8815 29.2409C6.53688 28.6669 0.864044 22.3557 0.475812 15.2478C0.458544 14.934 0.451336 14.6214 0.456695 14.3106C0.524576 11.6805 1.88042 7.99765 4.03237 6.71624C4.44918 6.54832 4.9214 6.55369 5.46386 6.77043C4.81839 7.74697 3.47385 9.74767 3.0362 12.2283C2.93259 12.8952 2.88617 13.5943 2.91416 14.3201C3.20533 20.0858 7.57292 25.6932 15.3298 26.347Z" fill="#B8BCBE"/>
<path d="M15.2464 26.3663C17.527 26.5032 18.562 28.7558 16.3761 29.1155C15.9336 29.181 15.3942 29.2024 14.7421 29.1619C6.46422 28.5158 0.897334 22.3214 0.530538 15.2254C0.512674 14.9134 0.507893 14.6038 0.512657 14.2971C0.590065 11.6111 1.96738 8.00681 4.06812 6.78019C4.45099 6.64919 4.88447 6.68909 5.38346 6.93322C4.74573 7.9431 3.44709 9.94083 3.03445 12.3649C2.93679 13.0282 2.89627 13.7213 2.92723 14.4383C3.25294 20.2147 7.68782 25.75 15.2464 26.3663Z" fill="#B5B8BA"/>
<path d="M15.1624 26.3863C17.465 26.5161 18.4071 28.746 16.2224 29.0581C15.7764 29.114 15.2422 29.1277 14.6009 29.0819C6.39328 28.3638 0.929479 22.2842 0.584715 15.202C0.569233 14.8929 0.563859 14.5863 0.569814 14.282C0.656154 11.5412 2.05485 8.01551 4.1026 6.84367C4.45391 6.74958 4.84747 6.82402 5.30418 7.09554C4.6736 8.13936 3.42081 10.1341 3.03258 12.5004C2.94029 13.1608 2.90454 13.8467 2.94027 14.5559C3.3023 20.3419 7.80211 25.8063 15.1624 26.3863Z" fill="#B1B5B7"/>
<path d="M15.0798 26.4066C17.4044 26.5281 18.2511 28.7354 16.0676 28.9998C15.6198 29.0463 15.0899 29.0528 14.4599 29.0022C6.32131 28.2132 0.962242 22.2498 0.638914 15.1795C0.624028 14.8728 0.620502 14.5685 0.627647 14.2684C0.722919 11.4716 2.14181 8.02514 4.13776 6.90748C4.45572 6.84972 4.81126 6.95988 5.22391 7.2576C4.60107 8.33477 3.39528 10.3277 3.03147 12.6363C2.94453 13.2937 2.91414 13.9743 2.95166 14.6745C3.3512 20.4706 7.91713 25.8624 15.0798 26.4066Z" fill="#AEB1B3"/>
<path d="M14.9958 26.4274C17.343 26.5393 18.0963 28.7258 15.9122 28.942C15.4626 28.9783 14.9363 28.9765 14.32 28.9223C6.24989 28.0619 0.995023 22.214 0.694322 15.1573C0.680031 14.8525 0.677073 14.5506 0.684218 14.254C0.787231 11.4024 2.22821 8.03398 4.17354 6.9717C4.45757 6.95026 4.77314 7.09436 5.1447 7.42007C4.52901 8.53177 3.36907 10.5212 3.02967 12.7726C2.94809 13.4258 2.92367 14.1004 2.96476 14.7917C3.40063 20.5991 8.0314 25.9195 14.9958 26.4274Z" fill="#AAAEB1"/>
<path d="M14.9118 26.4472C17.2805 26.5514 17.9397 28.7164 15.7585 28.8849C15.3066 28.9111 14.785 28.9016 14.1794 28.8432C6.17838 27.9102 1.02836 22.1778 0.747307 15.1342C0.735994 14.8329 0.733024 14.534 0.740765 14.2387C0.853305 11.3329 2.31573 8.04304 4.20806 7.03554C4.45874 7.05042 4.7368 7.22965 5.06489 7.58275C4.45634 8.72721 3.34345 10.7142 3.02727 12.909C2.95164 13.5587 2.93199 14.2274 2.97784 14.9103C3.44884 20.7267 8.14633 25.9756 14.9118 26.4472Z" fill="#A6ABAD"/>
<path d="M14.8291 26.467C17.2198 26.564 17.7849 28.7053 15.6037 28.8268C15.15 28.844 14.632 28.8268 14.0389 28.7642C6.10636 27.7597 1.06171 22.1428 0.803283 15.1124C0.790778 14.8123 0.789031 14.5163 0.798558 14.2246C0.918243 11.2634 2.4027 8.05275 4.24383 7.10003C4.46176 7.15005 4.69994 7.365 4.98516 7.7449C4.38376 8.92389 3.3167 10.9079 3.02553 13.0456C2.95646 13.691 2.94158 14.3532 2.991 15.0284C3.49952 20.8549 8.26012 26.0323 14.8291 26.467Z" fill="#A2A7AA"/>
<path d="M14.7458 26.4869C17.1579 26.5756 17.6301 28.6954 15.449 28.7693C14.9929 28.7764 14.4802 28.752 13.8978 28.6835C6.03491 27.6075 1.0945 22.1068 0.858703 15.0888C0.846794 14.7917 0.8456 14.4993 0.855723 14.2099C0.98434 11.1934 2.48963 8.06134 4.27955 7.16281C4.46354 7.25094 4.66304 7.50043 4.90538 7.90712C4.31172 9.12065 3.29053 11.1005 3.02258 13.1816C2.96066 13.8235 2.94989 14.4797 3.00288 15.1454C3.54772 20.982 8.37506 26.0874 14.7458 26.4869Z" fill="#9FA4A7"/>
<path d="M14.6618 26.5072C17.0972 26.5876 17.4741 28.686 15.2942 28.711C14.8363 28.7092 14.3277 28.6759 13.7584 28.6044C5.96342 27.4558 1.12781 22.0706 0.911667 15.0657C0.902735 14.7716 0.902735 14.4816 0.911667 14.1958C1.04981 11.1238 2.57594 8.07037 4.31405 7.22722C4.4653 7.35107 4.62548 7.6351 4.82555 8.06859C4.23903 9.31665 3.26492 11.2935 3.02198 13.3181C2.96481 13.9558 2.9594 14.6054 3.01478 15.264C3.59713 21.1107 8.48996 26.1446 14.6618 26.5072Z" fill="#9CA1A3"/>
<path d="M14.5784 26.527C17.0358 26.6003 17.3199 28.6748 15.1399 28.6546C14.6802 28.6415 14.1747 28.6016 13.6179 28.5242C5.892 27.3047 1.16058 22.0362 0.967059 15.0432C0.958127 14.752 0.959349 14.4644 0.968876 14.1816C1.11536 11.0543 2.66346 8.08005 4.34858 7.29048C4.46767 7.45125 4.58914 7.77101 4.74574 8.23129C4.16697 9.51329 3.23811 11.4872 3.01958 13.454C2.96837 14.0893 2.96892 14.733 3.02787 15.382C3.64535 21.2389 8.60429 26.2013 14.5784 26.527Z" fill="#989EA1"/>
<path d="M14.4956 26.5472C16.9739 26.6127 17.1638 28.6658 14.9851 28.5962C14.5236 28.5735 14.0234 28.5277 13.4762 28.4443C5.81992 27.154 1.19394 21.9998 1.02186 15.0205C1.01292 14.7317 1.01469 14.4471 1.026 14.1667C1.18141 10.9852 2.74982 8.08892 4.38492 7.35533C4.46888 7.55123 4.55167 7.90672 4.666 8.39379C4.09496 9.70973 3.21187 11.6807 3.01776 13.5909C2.97191 14.2214 2.9779 14.8586 3.04102 15.4999C3.69363 21.3668 8.71918 26.2572 14.4956 26.5472Z" fill="#959B9D"/>
<path d="M14.4117 26.5678C16.9125 26.6243 17.0078 28.6566 14.8303 28.5387C14.3664 28.5071 13.871 28.4518 13.3363 28.3642C5.74847 27.0024 1.22667 21.9638 1.07542 14.9976C1.06887 14.7106 1.07122 14.4296 1.08313 14.1527C1.24628 10.9152 2.83674 8.09755 4.41944 7.41874C4.47065 7.65156 4.5147 8.04098 4.58735 8.55605C4.02167 9.90474 3.1857 11.8733 3.01659 13.7263C2.9755 14.3533 2.98682 14.9851 3.05352 15.6175C3.74304 21.494 8.8335 26.3141 14.4117 26.5678Z" fill="#91979A"/>
<path d="M14.3289 26.5879C16.85 26.6367 16.853 28.6463 14.6755 28.4808C14.2104 28.4403 13.7186 28.3772 13.1952 28.2861C5.67707 26.8516 1.26006 21.9285 1.13025 14.9748C1.12489 14.6914 1.12786 14.4127 1.13977 14.1382C1.31245 10.846 2.92433 8.10752 4.45523 7.4829C4.47309 7.75264 4.47843 8.1766 4.50582 8.71845C3.94907 10.1023 3.16013 12.0673 3.01305 13.8631C2.97911 14.4866 2.99639 15.1124 3.06546 15.7364C3.7925 21.6236 8.94783 26.3699 14.3289 26.5879Z" fill="#8E9496"/>
<path d="M14.2449 26.6074C16.7893 26.6485 16.6976 28.6355 14.5206 28.4235C14.0526 28.3723 13.5662 28.3014 13.0547 28.2056C5.60563 26.7003 1.29275 21.8926 1.18497 14.9527C1.17961 14.671 1.18439 14.3947 1.19689 14.1238C1.37791 10.7762 3.01062 8.11633 4.4909 7.54708C4.47483 7.85255 4.44093 8.31164 4.42723 8.88148C3.87763 10.2981 3.13328 12.2607 3.0118 13.9988C2.98322 14.6186 3.00528 15.2379 3.07911 15.8536C3.84069 21.7509 9.06275 26.4264 14.2449 26.6074Z" fill="#8A9194"/>
<path d="M14.1615 26.6279C16.7279 26.6607 16.5422 28.6263 14.3664 28.3655C13.8972 28.3047 13.4143 28.2261 12.9141 28.1267C5.5335 26.5487 1.32549 21.8572 1.23975 14.9286C1.23558 14.6511 1.2403 14.3778 1.25399 14.1086C1.44275 10.7062 3.09811 8.12557 4.5254 7.60931C4.47598 7.95169 4.40457 8.44592 4.34681 9.04256C3.80495 10.4937 3.1065 12.4533 3.00945 14.1348C2.98682 14.7517 3.01417 15.3644 3.09158 15.9724C3.89008 21.8786 9.17703 26.4826 14.1615 26.6279Z" fill="#878D90"/>
<path d="M14.0771 26.6486C16.6667 26.6724 16.3862 28.6166 14.2123 28.3081C13.7395 28.2379 13.2613 28.1521 12.7742 28.0467C5.46271 26.3979 1.35827 21.8219 1.29396 14.907C1.29098 14.6307 1.29698 14.3604 1.31068 14.096C1.50837 10.637 3.18456 8.13435 4.56064 7.67467C4.47847 8.05278 4.36708 8.58273 4.26764 9.20497C3.73233 10.6906 3.08151 12.6473 3.00827 14.2716C2.991 14.885 3.02258 15.4917 3.10356 16.0901C3.93898 22.0071 9.29144 26.5397 14.0771 26.6486Z" fill="#838A8D"/>
<path d="M13.9949 26.6679C16.6041 26.6846 16.2314 28.6055 14.0574 28.25C13.584 28.1696 13.1089 28.0767 12.6331 27.9666C5.39066 26.2463 1.39222 21.7864 1.34756 14.8846C1.34577 14.6101 1.3529 14.3421 1.36719 14.0807C1.57381 10.567 3.27201 8.14291 4.59629 7.738C4.48017 8.15303 4.33011 8.71632 4.18721 9.36774C3.66024 10.8855 3.05531 12.8398 3.00649 14.4076C2.99517 15.0162 3.03265 15.617 3.11661 16.2077C3.98775 22.1348 9.40695 26.5953 13.9949 26.6679Z" fill="#81878A"/>
<path d="M13.9109 26.6885C16.5428 26.6968 16.0759 28.5963 13.9026 28.192C13.4262 28.1027 12.9576 28.0009 12.4937 27.8871C5.31919 26.0948 1.42436 21.7505 1.40352 14.8623C1.40233 14.5914 1.40888 14.3252 1.42496 14.0668C1.63992 10.4989 3.35898 8.15339 4.63146 7.80208C4.482 8.25402 4.29324 8.85185 4.10746 9.53066C3.58763 11.083 3.02907 13.0337 3.00466 14.5437C2.9987 15.1493 3.04157 15.7442 3.1291 16.3265C4.03656 22.2631 9.52127 26.6522 13.9109 26.6885Z" fill="#7D8387"/>
<path d="M13.7484 28.1352C5.74552 26.4709 1.4577 22.1521 1.4577 14.8394C1.4577 10.7582 3.35957 8.1829 4.66718 7.86553C4.07233 9.45061 3.00287 12.5803 3.00287 14.6798C3.00287 21.518 9.23073 26.7079 13.827 26.7079C16.4815 26.7079 15.9205 28.5865 13.7484 28.1352Z" fill="#798083"/>
<path d="M19.3857 1.37062C19.3797 1.37717 19.3743 1.38372 19.3708 1.39146L19.3452 1.45399C23.9796 2.90271 29.1796 6.96129 29.1796 13.3737C29.1796 18.9453 25.302 25.3892 15.9969 26.1883L16.0005 26.5575C25.3062 25.7566 29.4869 19.0471 29.4869 13.5767C29.4869 7.16612 24.8983 2.82411 19.3857 1.37062Z" fill="#3C535A"/>
<path d="M19.3859 1.37191C19.3799 1.37846 19.3745 1.385 19.371 1.39274L19.3454 1.45527C23.9797 2.90399 29.1798 6.96257 29.1798 13.375C29.1798 18.9466 25.3022 25.3905 15.9971 26.1896L16.0007 26.5588C25.3064 25.7579 29.487 19.0484 29.487 13.578C29.487 7.1674 24.8985 2.8254 19.3859 1.37191Z" fill="url(#paint7_linear_49_17145)"/>
<path d="M19.9732 0.936189C25.6442 2.59273 30.5662 6.82696 30.5662 13.967C30.5662 21.3101 24.255 27.5682 16.0003 27.994L15.9968 29.4296C23.2541 29.4296 31.613 23.465 31.613 14.3481C31.613 6.51316 26.7541 2.55759 20.9586 0.690266C20.8866 0.674188 20.7937 0.684906 20.7264 0.694433C20.6186 0.70932 20.4733 0.745051 20.3066 0.795069C20.1917 0.835559 20.0524 0.896294 19.9732 0.936189Z" fill="#DEE4E9"/>
<path d="M19.3856 1.37144C24.8983 2.82493 29.4868 7.16694 29.4868 13.5775L30.5663 13.9688C30.5663 6.82873 25.6443 2.59449 19.9733 0.937954C19.7083 1.06359 19.497 1.2458 19.3856 1.37144Z" fill="#C6DAF1"/>
<path d="M19.3858 1.37327C24.8985 2.82676 29.487 7.16877 29.487 13.5794L30.5665 13.9706C30.5665 6.83056 25.6445 2.59632 19.9735 0.939785C19.7085 1.06542 19.4972 1.24763 19.3858 1.37327Z" fill="url(#paint8_linear_49_17145)"/>
<path d="M30.5662 13.9652C30.5662 21.3083 24.2604 27.5665 16.0069 27.9934V26.5554C25.312 25.7545 29.4867 19.0444 29.4867 13.574L30.5662 13.9652Z" fill="white"/>
<path d="M30.5662 13.9638C30.5662 21.3068 24.2604 27.565 16.0069 27.9919V26.5539C25.312 25.7531 29.4867 19.0429 29.4867 13.5726L30.5662 13.9638Z" fill="url(#paint9_linear_49_17145)"/>
<path d="M12.6067 1.37572C7.09342 2.82921 2.50433 7.17122 2.50433 13.5818C2.50433 19.0516 6.69326 25.7569 16.0001 26.5578V27.9952C7.74482 27.5695 1.44202 21.3113 1.44202 13.9683C1.44202 6.82824 6.34736 2.59877 12.019 0.943422C12.2238 1.03691 12.4846 1.22804 12.6067 1.37572Z" fill="#7093AE"/>
<path d="M12.6065 1.37712C7.09323 2.83061 2.50415 7.17262 2.50415 13.5832C2.50415 19.053 6.69308 25.7584 15.9999 26.5592V27.9966C7.74464 27.5709 1.44183 21.3127 1.44183 13.9697C1.44183 6.82964 6.34717 2.60017 12.0188 0.944826C12.2237 1.03831 12.4844 1.22945 12.6065 1.37712Z" fill="url(#paint10_linear_49_17145)"/>
<path d="M2.81363 13.379C2.81363 6.96486 8.01369 2.90807 12.6475 1.45875L12.6225 1.39623C12.6177 1.38849 12.6129 1.38194 12.607 1.37539C7.09373 2.82887 2.50464 7.17089 2.50464 13.5815C2.50464 19.0513 6.69357 25.7566 16.0004 26.5575L15.9969 26.1883C6.69775 25.3892 2.81363 18.8482 2.81363 13.379Z" fill="#3C535A"/>
<path d="M2.81375 13.3803C2.81375 6.96614 8.01381 2.90935 12.6476 1.46003L12.6226 1.39751C12.6178 1.38977 12.6131 1.38322 12.6071 1.37667C7.09385 2.83016 2.50476 7.17217 2.50476 13.5828C2.50476 19.0526 6.69369 25.7579 16.0006 26.5588L15.997 26.1896C6.69787 25.3905 2.81375 18.8495 2.81375 13.3803Z" fill="url(#paint11_linear_49_17145)"/>
<path d="M19.3773 1.37705C20.7647 1.74325 22.0723 2.2857 23.2656 2.98952C24.4994 3.71716 25.5819 4.60021 26.4846 5.61485C27.4313 6.67832 28.1673 7.87517 28.6699 9.16849C29.2046 10.5416 29.4749 12.0237 29.4749 13.5736C29.4749 14.9634 29.1992 16.4222 28.6782 17.7924C28.1155 19.2697 27.2896 20.6202 26.2249 21.8069C25.0638 23.1014 23.652 24.1571 22.0277 24.9473C20.2431 25.8154 18.2156 26.3525 15.9993 26.5437L16.0011 26.5669C18.2192 26.3752 20.2514 25.8381 22.0389 24.9681C23.6645 24.1768 25.0787 23.1192 26.2428 21.8224C27.3087 20.6338 28.1352 19.2798 28.6991 17.8013C29.2219 16.4276 29.4988 14.9658 29.4988 13.5736C29.4988 12.0207 29.2272 10.5362 28.6913 9.16015C28.1869 7.86326 27.451 6.66582 26.5018 5.59937C25.5979 4.58294 24.5136 3.6981 23.2781 2.96987C22.086 2.26724 20.7802 1.72538 19.397 1.35739C19.3916 1.3568 19.3719 1.37526 19.3773 1.37705Z" fill="#EDF1FB"/>
<path d="M15.8678 30.1673C25.1795 30.1673 32.0003 21.9543 32.0003 14.4266C32.0003 11.6536 30.0978 5.47286 25.8987 5.47286C26.7705 6.3446 29.1868 9.23609 29.1868 13.3774C29.1868 19.0628 25.3437 25.2435 16.0035 26.1867C13.5169 26.4374 11.193 30.1673 15.8678 30.1673Z" fill="#DEE4E9"/>
<path d="M15.941 30.093C25.1884 30.0132 31.8961 21.9723 31.8961 14.4542C31.8961 11.6186 29.9949 5.60996 25.9315 5.59448C26.7902 6.50015 29.1439 9.40356 29.1439 13.4467C29.1439 19.1874 25.1866 25.3205 16.0714 26.219C13.5777 26.4578 11.3102 30.1281 15.941 30.093Z" fill="#D6DCE1"/>
<path d="M16.0137 30.0165C25.1997 29.8593 31.7918 21.9881 31.7918 14.4819C31.7918 11.5838 29.89 5.74666 25.9654 5.71629C26.8103 6.65591 29.0992 9.57063 29.0992 13.5161C29.0992 19.3116 25.0293 25.3982 16.1399 26.2515C13.639 26.4784 11.4281 30.0898 16.0137 30.0165Z" fill="#CFD5DA"/>
<path d="M16.0868 29.9411C25.2109 29.7053 31.6882 22.0062 31.6882 14.5095C31.6882 11.5489 29.7857 5.88381 25.9987 5.83796C26.8311 6.81212 29.0557 9.73755 29.0557 13.5871C29.0557 19.4368 24.8721 25.4759 16.2083 26.2845C13.6991 26.4994 11.5454 30.0507 16.0868 29.9411Z" fill="#C8CED2"/>
<path d="M16.1602 29.8662C25.2211 29.5524 31.5841 22.0235 31.5841 14.5364C31.5841 11.5145 29.6816 6.02028 26.0327 5.95954C26.852 6.96763 29.0118 9.90498 29.0118 13.6563C29.0118 19.5608 24.715 25.5534 16.2775 26.3173C13.7594 26.5204 11.6622 30.0115 16.1602 29.8662Z" fill="#C0C7CB"/>
<path d="M16.2322 29.7911C25.2324 29.3987 31.4792 22.0407 31.4792 14.5642C31.4792 11.4798 29.578 6.15651 26.0666 6.08149C26.8722 7.12352 28.9694 10.0722 28.9694 13.7264C28.9694 19.6869 24.5572 25.6312 16.3459 26.3494C13.82 26.5399 11.7806 29.9739 16.2322 29.7911Z" fill="#BAC0C4"/>
<path d="M16.3055 29.7154C25.2438 29.245 31.3757 22.0567 31.3757 14.5916C31.3757 11.444 29.4744 6.2934 26.1 6.20349C26.8931 7.27946 28.9248 10.2382 28.9248 13.7961C28.9248 19.8113 24.4006 25.7086 16.415 26.3826C13.8802 26.5619 11.8986 29.9351 16.3055 29.7154Z" fill="#B2B9BD"/>
<path d="M16.378 29.6411C25.2538 29.0915 31.2714 22.0748 31.2714 14.6191C31.2714 11.4097 29.3707 6.43054 26.1339 6.32514C26.9127 7.43446 28.8807 10.4058 28.8807 13.8659C28.8807 19.9359 24.2427 25.7862 16.4829 26.415C13.9409 26.5823 12.0152 29.8972 16.378 29.6411Z" fill="#ABB2B6"/>
<path d="M16.4508 29.5646C25.2646 28.9376 31.1673 22.0917 31.1673 14.6457C31.1673 11.3749 29.266 6.5678 26.1685 6.44692C26.9336 7.59018 28.8373 10.5734 28.8373 13.9359C28.8373 20.0601 24.085 25.8627 16.5519 26.4474C14.0022 26.6023 12.1332 29.8576 16.4508 29.5646Z" fill="#A4ABAF"/>
<path d="M16.5246 29.4896C25.2765 28.784 31.0636 22.1096 31.0636 14.6736C31.0636 11.3397 29.1618 6.70413 26.2018 6.56837C26.9545 7.74616 28.7932 10.7395 28.7932 14.0055C28.7932 20.1851 23.9284 25.9407 16.6217 26.4796C14.0624 26.6237 12.2498 29.8194 16.5246 29.4896Z" fill="#9DA3A7"/>
<path d="M16.5967 29.415C25.2866 28.6302 30.9595 22.1268 30.9595 14.7015C30.9595 11.3051 29.0575 6.841 26.2351 6.69035C26.9741 7.90149 28.7503 10.9067 28.7503 14.0757C28.7503 20.31 23.7712 26.0186 16.6889 26.5128C14.1231 26.6438 12.3678 29.7801 16.5967 29.415Z" fill="#979DA1"/>
<path d="M16.6693 29.3389C25.2973 28.4761 30.8552 22.1441 30.8552 14.7283C30.8552 11.27 28.9534 6.97799 26.2691 6.81186C26.9961 8.05694 28.7057 11.0735 28.7057 14.1454C28.7057 20.4345 23.6134 26.0961 16.758 26.545C14.1833 26.6647 12.4851 29.742 16.6693 29.3389Z" fill="#8F9699"/>
<path d="M16.7431 29.2636C25.3081 28.324 30.7517 22.1611 30.7517 14.7561C30.7517 11.2352 28.8498 7.11473 26.303 6.93371C27.0152 8.21333 28.6634 11.2412 28.6634 14.216C28.6634 20.56 23.4568 26.1738 16.8265 26.5787C14.2441 26.6865 12.6024 29.7037 16.7431 29.2636Z" fill="#888F92"/>
<path d="M16.8152 29.1889C25.3194 28.1689 30.6468 22.1781 30.6468 14.7832C30.6468 11.1998 28.7456 7.25199 26.3358 7.05549C27.036 8.36845 28.6193 11.4076 28.6193 14.2848C28.6193 20.6841 23.2996 26.2516 16.8956 26.6106C14.3054 26.7065 12.7203 29.6647 16.8152 29.1889Z" fill="#81878A"/>
<path d="M16.8877 29.1132C25.3294 28.0158 30.5426 22.1953 30.5426 14.8105C30.5426 11.1652 28.6414 7.38828 26.3691 7.17749C27.0569 8.52439 28.5752 11.5743 28.5752 14.3556C28.5752 20.8091 23.1424 26.3289 16.964 26.6439C14.3654 26.7267 12.8375 29.6259 16.8877 29.1132Z" fill="#7A7F83"/>
<path d="M16.9616 29.0382C25.3408 27.8622 30.439 22.2126 30.439 14.8374C30.439 11.1307 28.5372 7.52468 26.4031 7.299C27.0771 8.68044 28.5312 11.7416 28.5312 14.4241C28.5312 20.9336 22.9834 26.4069 17.0331 26.6761C14.4268 26.7475 12.9554 29.5878 16.9616 29.0382Z" fill="#73787B"/>
<path d="M17.0343 28.9631C25.3515 27.7073 30.3348 22.2297 30.3348 14.8646C30.3348 11.0955 28.4335 7.6615 26.4364 7.42094C27.0973 8.83573 28.4883 11.9094 28.4883 14.4943C28.4883 21.0573 22.8268 26.4842 17.1022 26.7081C14.487 26.7683 13.0722 29.549 17.0343 28.9631Z" fill="#6C7174"/>
<path d="M17.1069 28.8875C25.3616 27.5555 30.2311 22.2477 30.2311 14.8921C30.2311 11.061 28.3299 7.79912 26.4703 7.54249C27.1175 8.99121 28.4442 12.0756 28.4442 14.5646C28.4442 21.1836 22.6701 26.5617 17.1694 26.7415C14.5482 26.7892 13.1894 29.5098 17.1069 28.8875Z" fill="#656A6C"/>
<path d="M17.1796 28.8132C25.373 27.4008 30.1264 22.2638 30.1264 14.9202C30.1264 11.0265 28.2245 7.93616 26.5048 7.66403C27.1378 9.1467 28.4008 12.243 28.4008 14.6338C28.4008 21.3081 22.5118 26.6392 17.2385 26.7744C14.6085 26.8107 13.308 29.4717 17.1796 28.8132Z" fill="#5D6265"/>
<path d="M17.2523 28.7372C25.3843 27.248 30.0229 22.282 30.0229 14.9478C30.0229 10.9917 28.121 8.07277 26.5383 7.78636C27.1587 9.30238 28.3568 12.4106 28.3568 14.7049C28.3568 21.4317 22.3553 26.7175 17.3071 26.8074C14.6692 26.8312 13.4247 29.4327 17.2523 28.7372Z" fill="#565A5C"/>
<path d="M17.3255 28.6626C25.395 27.0942 29.918 22.2979 29.918 14.975C29.918 10.9569 28.0173 8.20955 26.5716 7.90825C27.1801 9.4582 28.3139 12.5772 28.3139 14.7744C28.3139 21.5571 22.198 26.7947 17.3761 26.8393C14.7299 26.8512 13.542 29.3944 17.3255 28.6626Z" fill="#4F5355"/>
<path d="M17.3986 28.5869C25.405 26.9399 29.8144 22.3169 29.8144 15.003C29.8144 10.9212 27.9131 8.34703 26.6055 8.02966C27.1997 9.61415 28.2698 12.7444 28.2698 14.844C28.2698 21.6821 22.0408 26.872 17.4445 26.872C14.79 26.872 13.6592 29.3551 17.3986 28.5869Z" fill="#474B4C"/>
<path d="M15.997 29.4508C17.9578 29.4508 20.0294 29.0114 21.9873 28.1807C23.9779 27.3364 25.8225 26.0972 27.3219 24.5991C28.664 23.2558 29.7168 21.732 30.4516 20.0677C31.2423 18.2719 31.643 16.3486 31.643 14.352C31.643 12.4656 31.3572 10.7204 30.7922 9.16745C30.2682 7.72468 29.4923 6.41409 28.4836 5.27083C26.7073 3.25286 24.1809 1.70588 20.9738 0.672186C20.9625 0.669209 20.95 0.675165 20.9458 0.687075C20.9417 0.698387 20.9488 0.711491 20.9601 0.715063C24.1595 1.74638 26.6794 3.28859 28.4509 5.29942C29.4548 6.43911 30.2277 7.74611 30.7511 9.18233C31.3138 10.7311 31.599 12.4704 31.599 14.352C31.599 16.5308 31.1221 18.6142 30.1807 20.5447C29.3125 22.3233 28.0805 23.9215 26.5162 25.2922C25.0562 26.573 23.3187 27.6252 21.4918 28.3331C19.687 29.0352 17.7858 29.4061 15.997 29.4061C15.9845 29.4061 15.9756 29.4157 15.9756 29.4288C15.9756 29.4407 15.9845 29.4508 15.997 29.4508Z" fill="#E5E6E6"/>
<path d="M12.6033 1.36041C11.2087 1.7278 9.89398 2.27264 8.69534 2.98063C7.46157 3.70886 6.37964 4.5931 5.47694 5.60834C4.53197 6.6736 3.79718 7.87104 3.29462 9.16733C2.75991 10.5434 2.49017 12.0279 2.49017 13.5802C2.49017 14.973 2.76765 16.4354 3.29165 17.8079C3.85494 19.2864 4.68321 20.6398 5.75144 21.829C8.21065 24.5662 11.7548 26.2049 15.9985 26.5717L16.0015 26.5419C11.7643 26.1769 8.22791 24.5406 5.77407 21.8087C4.70762 20.6226 3.88174 19.2733 3.31904 17.7978C2.79623 16.4276 2.51994 14.9688 2.51994 13.5802C2.51994 12.0314 2.78909 10.55 3.32201 9.17865C3.82338 7.88534 4.55638 6.69146 5.49898 5.62799C6.39989 4.61394 7.48003 3.73208 8.70963 3.00623C9.90648 2.30003 11.2272 1.75579 12.6199 1.3884L12.6033 1.36041Z" fill="#EDF1FB"/>
<path d="M20.2346 1.55072C21.6767 1.57394 22.5622 1.7895 23.9948 2.6785C22.5389 2.62431 21.3004 2.00564 20.2346 1.55072Z" fill="#E5E6E6"/>
<path d="M23.9951 2.67627C22.5624 1.78727 21.677 1.57171 20.2349 1.54849C21.7003 1.86586 22.6625 2.15942 23.9951 2.67627Z" fill="#232E30"/>
<path d="M23.9953 2.67444C22.5627 1.78543 21.6773 1.56988 20.2351 1.54666C21.7005 1.86403 22.6627 2.15759 23.9953 2.67444Z" fill="url(#paint12_linear_49_17145)"/>
<path d="M24.0953 1.99157C24.6032 2.88832 25.535 3.74576 26.6521 4.55676C26.19 3.43732 25.9745 2.96632 24.0953 1.99157Z" fill="#7093AE"/>
<path d="M24.095 1.99249C24.6029 2.88923 25.5348 3.74668 26.6519 4.55768C26.1898 3.43824 25.9743 2.96724 24.095 1.99249Z" fill="url(#paint13_linear_49_17145)"/>
<path d="M26.6521 4.55676C25.9209 3.64573 25.1498 2.72516 24.0953 1.99157C24.6032 2.88832 25.535 3.74576 26.6521 4.55676Z" fill="#232E30"/>
<path d="M26.6519 4.55768C25.9206 3.64664 25.1496 2.72608 24.095 1.99249C24.6029 2.88923 25.5348 3.74668 26.6519 4.55768Z" fill="url(#paint14_linear_49_17145)"/>
<path d="M25.5422 4.5892C26.7325 4.91372 27.3339 5.14535 28.2932 6.55835C26.8838 5.97957 26.6051 5.71281 25.5422 4.5892Z" fill="#9CB3CF"/>
<path d="M25.5421 4.59091C26.7324 4.91543 27.3338 5.14706 28.2931 6.56006C26.8837 5.98128 26.605 5.71452 25.5421 4.59091Z" fill="url(#paint15_linear_49_17145)"/>
<path d="M25.5422 4.5892C26.3294 4.99351 27.3304 5.6878 28.2932 6.55835C27.3339 5.14535 26.7325 4.91372 25.5422 4.5892Z" fill="#232E30"/>
<path d="M25.5421 4.59091C26.3293 4.99522 27.3302 5.68951 28.2931 6.56006C27.3338 5.14706 26.7324 4.91543 25.5421 4.59091Z" fill="url(#paint16_linear_49_17145)"/>
<path d="M28.2598 5.14454C28.3854 6.3265 28.8821 7.55491 29.6681 8.73688C29.6454 7.53109 29.7603 6.55754 28.2598 5.14454Z" fill="#9CB3CF"/>
<path d="M28.2595 5.1457C28.3852 6.32766 28.8818 7.55607 29.6678 8.73804C29.6452 7.53225 29.7601 6.5587 28.2595 5.1457Z" fill="url(#paint17_linear_49_17145)"/>
<path d="M28.184 7.88554C29.4827 8.85851 30.0305 9.66236 30.2615 11.1819C29.5166 10.3888 28.9087 9.74632 28.184 7.88554Z" fill="#9CB3CF"/>
<path d="M28.1843 7.88463C29.4829 8.85759 30.0308 9.66145 30.2618 11.181C29.5169 10.3879 28.9089 9.7454 28.1843 7.88463Z" fill="url(#paint18_linear_49_17145)"/>
<path d="M28.184 7.88554C29.1814 9.04131 29.7072 9.92674 30.2615 11.1819C30.0305 9.66236 29.4827 8.85851 28.184 7.88554Z" fill="#232E30"/>
<path d="M28.1843 7.88463C29.1816 9.04039 29.7074 9.92582 30.2618 11.181C30.0308 9.66145 29.4829 8.85759 28.1843 7.88463Z" fill="url(#paint19_linear_49_17145)"/>
<path d="M31.1591 10.7039C30.9632 11.5155 30.7422 11.7245 30.6726 12.3497C30.6041 12.9761 30.628 14.1235 30.5928 14.9113C30.9971 14.0771 31.9909 13.2536 31.1591 10.7039Z" fill="#9CB3CF"/>
<path d="M31.1588 10.7024C30.9629 11.514 30.742 11.723 30.6723 12.3482C30.6039 12.9746 30.6277 14.1221 30.5926 14.9099C30.9969 14.0756 31.9907 13.2521 31.1588 10.7024Z" fill="url(#paint20_linear_49_17145)"/>
<path d="M30.6726 12.3497C30.6041 12.9761 30.628 14.1235 30.5928 14.9113C31.0734 13.3137 31.2222 12.1925 31.1591 10.7039C30.9632 11.5155 30.7422 11.7245 30.6726 12.3497Z" fill="#232E30"/>
<path d="M30.6723 12.3482C30.6039 12.9746 30.6277 14.1221 30.5926 14.9099C31.0731 13.3123 31.2219 12.191 31.1588 10.7024C30.9629 11.514 30.742 11.723 30.6723 12.3482Z" fill="url(#paint21_linear_49_17145)"/>
<path d="M29.6107 13.8113C29.9578 14.9355 30.72 15.9555 29.8536 17.9949C29.8071 17.0332 29.1248 16.43 29.6107 13.8113Z" fill="#9CB3CF"/>
<path d="M29.6109 13.8105C29.958 14.9347 30.7201 15.9547 29.8538 17.9941C29.8073 17.0325 29.125 16.4293 29.6109 13.8105Z" fill="url(#paint22_linear_49_17145)"/>
<path d="M29.8536 17.9949C30.72 15.9555 29.9578 14.9355 29.6107 13.8113C29.7893 15.5357 30.0715 16.5682 29.8536 17.9949Z" fill="#232E30"/>
<path d="M29.8537 17.9941C30.7201 15.9547 29.9579 14.9347 29.6108 13.8105C29.7894 15.5349 30.0716 16.5674 29.8537 17.9941Z" fill="url(#paint23_linear_49_17145)"/>
<path d="M31.2515 17.4637C30.7198 18.2181 29.8766 18.4521 28.6053 20.8589C30.3262 19.9795 30.8698 19.1905 31.2515 17.4637Z" fill="#9CB3CF"/>
<path d="M31.2514 17.4653C30.7197 18.2197 29.8766 18.4537 28.6053 20.8605C30.3261 19.9811 30.8698 19.1921 31.2514 17.4653Z" fill="url(#paint24_linear_49_17145)"/>
<path d="M28.6053 20.8589C29.9749 19.5793 30.6942 18.7469 31.2515 17.4637C30.7198 18.2181 29.8766 18.4521 28.6053 20.8589Z" fill="#232E30"/>
<path d="M28.6053 20.8605C29.9748 19.5809 30.6941 18.7485 31.2514 17.4653C30.7197 18.2197 29.8766 18.4537 28.6053 20.8605Z" fill="url(#paint25_linear_49_17145)"/>
<path d="M28.5402 18.3859C27.9935 19.4136 27.7553 19.9858 27.6547 20.3175C27.5541 20.6492 27.4963 22.0116 27.4272 22.298C28.1984 21.425 28.3162 20.8016 28.3936 20.4545C28.4692 20.1067 28.5783 19.1504 28.5402 18.3859Z" fill="#9CB3CF"/>
<path d="M28.5404 18.3863C27.9938 19.414 27.7556 19.9863 27.6549 20.3179C27.5543 20.6496 27.4966 22.012 27.4275 22.2984C28.1986 21.4255 28.3164 20.802 28.3939 20.4549C28.4695 20.1072 28.5785 19.1509 28.5404 18.3863Z" fill="url(#paint26_linear_49_17145)"/>
<path d="M27.4272 22.2988C27.8435 21.3021 28.318 19.5497 28.5402 18.3867C27.9935 19.4145 27.7553 19.9867 27.6547 20.3184C27.557 20.6393 27.4963 22.0124 27.4272 22.2988C27.4284 22.2982 27.4272 22.2994 27.4272 22.2988Z" fill="#232E30"/>
<path d="M27.4275 22.2998C27.8437 21.303 28.3183 19.5506 28.5404 18.3877C27.9938 19.4155 27.7556 19.9877 27.6549 20.3194C27.5573 20.6403 27.4966 22.0134 27.4275 22.2998C27.4287 22.2992 27.4275 22.3004 27.4275 22.2998Z" fill="url(#paint27_linear_49_17145)"/>
<path d="M25.8514 22.2723C25.1268 22.9517 24.6956 23.3692 24.3491 23.9104C24.0025 24.4517 23.9025 25.0811 23.5399 25.6134C25.4816 24.5321 25.5204 23.3072 25.8514 22.2723Z" fill="#9CB3CF"/>
<path d="M25.8514 22.2723C25.1268 22.9517 24.6956 23.3692 24.3491 23.9104C24.0025 24.4517 23.9025 25.0811 23.5399 25.6134C25.4816 24.5321 25.5204 23.3072 25.8514 22.2723Z" fill="url(#paint28_linear_49_17145)"/>
<path d="M24.3491 23.9104C24.0025 24.4517 23.9025 25.0811 23.5399 25.6134C24.3366 24.8453 25.2268 23.493 25.8514 22.2723C25.1268 22.9517 24.6956 23.3692 24.3491 23.9104Z" fill="#232E30"/>
<path d="M24.3491 23.9104C24.0025 24.4517 23.9025 25.0811 23.5399 25.6134C24.3366 24.8453 25.2268 23.493 25.8514 22.2723C25.1268 22.9517 24.6956 23.3692 24.3491 23.9104Z" fill="url(#paint29_linear_49_17145)"/>
<path d="M28.7791 22.7417C28.1717 23.0156 27.5863 23.112 26.9635 23.3848C26.3413 23.6593 25.575 24.4125 25.1153 24.7162C26.7706 24.6078 27.977 24.0755 28.7791 22.7417Z" fill="#9CB3CF"/>
<path d="M28.7788 22.7403C28.1715 23.0142 27.5861 23.1106 26.9633 23.3834C26.341 23.6579 25.5747 24.4111 25.1151 24.7148C26.7704 24.6064 27.9767 24.0741 28.7788 22.7403Z" fill="url(#paint30_linear_49_17145)"/>
<path d="M18.5802 27.5784C19.1584 27.0448 19.3382 26.5459 19.8926 26.1171C20.4469 25.6884 21.3604 25.2258 21.9481 25.0513C21.2675 25.8748 20.4058 27.2187 18.5802 27.5784Z" fill="#9CB3CF"/>
<path d="M18.58 27.5764C19.1582 27.0429 19.338 26.5439 19.8924 26.1152C20.4467 25.6865 21.3602 25.2238 21.9479 25.0493C21.2673 25.8728 20.4057 27.2168 18.58 27.5764Z" fill="url(#paint31_linear_49_17145)"/>
<path d="M18.5802 27.5784C20.0128 26.7959 20.6446 25.8968 21.9481 25.0513C21.3604 25.2258 20.4469 25.6884 19.8926 26.1171C19.3382 26.5459 19.1584 27.0448 18.5802 27.5784Z" fill="#232E30"/>
<path d="M18.58 27.5764C20.0127 26.794 20.6444 25.8949 21.9479 25.0493C21.3602 25.2238 20.4467 25.6865 19.8924 26.1152C19.338 26.5439 19.1582 27.0429 18.58 27.5764Z" fill="url(#paint32_linear_49_17145)"/>
<path d="M22.6777 27.2671C21.4409 27.3475 21.22 27.1332 20.6204 27.1272C22.4234 26.4091 22.7468 26.3513 24.8964 26.4907C24.1913 27.0468 23.5083 27.2005 22.6777 27.2671Z" fill="#9CB3CF"/>
<path d="M22.6777 27.2671C21.4409 27.3475 21.22 27.1332 20.6204 27.1272C22.4234 26.4091 22.7468 26.3513 24.8964 26.4907C24.1913 27.0468 23.5083 27.2005 22.6777 27.2671Z" fill="url(#paint33_linear_49_17145)"/>
<path d="M20.6202 27.1252C22.1345 26.6858 23.5439 27.0103 24.8962 26.4887C22.7466 26.3494 22.4233 26.4071 20.6202 27.1252Z" fill="#232E30"/>
<path d="M20.6201 27.1233C22.1343 26.6839 23.5437 27.0084 24.896 26.4868C22.7464 26.3474 22.4231 26.4052 20.6201 27.1233Z" fill="url(#paint34_linear_49_17145)"/>
<path d="M18.5632 28.7955C17.364 28.705 16.5965 28.2162 16.0909 28.0203C17.2914 27.9101 18.4846 27.8232 19.2337 27.9619C19.9988 28.1024 20.3144 28.4716 20.8634 28.4948C19.9387 28.8199 19.1986 28.8438 18.5632 28.7955Z" fill="#9CB3CF"/>
<path d="M18.5633 28.7946C17.3641 28.704 16.5965 28.2152 16.091 28.0193C17.2914 27.9091 18.4847 27.8222 19.2338 27.9609C19.9989 28.1014 20.3145 28.4706 20.8635 28.4938C19.9387 28.819 19.1986 28.8428 18.5633 28.7946Z" fill="url(#paint35_linear_49_17145)"/>
<path d="M16.0909 28.021C17.6736 28.205 19.0026 28.4843 20.8634 28.4956C20.3144 28.4724 19.9988 28.1032 19.2337 27.9627C18.4846 27.8239 17.2914 27.9109 16.0909 28.021Z" fill="#232E30"/>
<path d="M16.091 28.0207C17.6737 28.2047 19.0027 28.484 20.8635 28.4953C20.3145 28.4721 19.9989 28.1029 19.2338 27.9624C18.4847 27.8236 17.2914 27.9106 16.091 28.0207Z" fill="url(#paint36_linear_49_17145)"/>
<path d="M25.1153 24.7162C26.0746 24.185 27.4857 23.8629 28.7791 22.7417C28.1717 23.0156 27.5863 23.112 26.9635 23.3848C26.3413 23.6593 25.575 24.4125 25.1153 24.7162Z" fill="#232E30"/>
<path d="M25.1151 24.7148C26.0743 24.1836 27.4855 23.8615 28.7788 22.7403C28.1715 23.0142 27.5861 23.1106 26.9633 23.3834C26.341 23.6579 25.5747 24.4111 25.1151 24.7148Z" fill="url(#paint37_linear_49_17145)"/>
<path d="M28.2598 5.14454C28.3854 6.3265 28.8821 7.55491 29.6681 8.73688C29.3507 7.24766 28.9344 6.51883 28.2598 5.14454Z" fill="#232E30"/>
<path d="M28.2595 5.1457C28.3852 6.32766 28.8818 7.55607 29.6678 8.73804C29.3505 7.24882 28.9342 6.51999 28.2595 5.1457Z" fill="url(#paint38_linear_49_17145)"/>
<path d="M11.772 1.54849C10.3322 1.57171 9.44614 1.78727 8.01349 2.67627C9.46876 2.62208 10.7085 2.00341 11.772 1.54849Z" fill="#F1F5FC"/>
<path d="M11.7719 1.54666C10.3321 1.56988 9.44608 1.78543 8.01343 2.67444C9.4687 2.62025 10.7084 2.00158 11.7719 1.54666Z" fill="url(#paint39_radial_49_17145)"/>
<path d="M8.01349 2.67627C9.44614 1.78727 10.3322 1.57171 11.772 1.54849C10.334 1.88075 9.3461 2.15942 8.01349 2.67627Z" fill="#232E30"/>
<path d="M8.01343 2.67444C9.44608 1.78543 10.3321 1.56988 11.7719 1.54666C10.3339 1.87892 9.34604 2.15759 8.01343 2.67444Z" fill="url(#paint40_linear_49_17145)"/>
<path d="M7.91307 1.99157C7.40575 2.88832 6.47325 3.74576 5.35559 4.55676C5.81766 3.43732 6.03324 2.96632 7.91307 1.99157Z" fill="#232E30"/>
<path d="M7.91313 1.99249C7.40581 2.88923 6.47331 3.74668 5.35565 4.55768C5.81772 3.43824 6.0333 2.96724 7.91313 1.99249Z" fill="url(#paint41_linear_49_17145)"/>
<path d="M5.35559 4.55676C6.23209 3.60285 6.58284 3.04313 7.91307 1.99157C7.40575 2.88832 6.47325 3.74576 5.35559 4.55676Z" fill="#587089"/>
<path d="M5.35565 4.55768C6.23215 3.60377 6.5829 3.04405 7.91313 1.99249C7.40581 2.88923 6.47331 3.74668 5.35565 4.55768Z" fill="url(#paint42_linear_49_17145)"/>
<path d="M6.46418 4.5892C5.27507 4.91372 4.67373 5.14535 3.71387 6.55835C5.12389 5.97957 5.4025 5.71281 6.46418 4.5892Z" fill="#F1F5FC"/>
<path d="M6.46418 4.59091C5.27507 4.91543 4.67373 5.14706 3.71387 6.56006C5.12389 5.98128 5.4025 5.71452 6.46418 4.59091Z" fill="url(#paint43_radial_49_17145)"/>
<path d="M6.46418 4.5892C5.67879 4.99351 4.68802 5.72532 3.71387 6.55835C4.67373 5.14535 5.27507 4.91372 6.46418 4.5892Z" fill="#232E30"/>
<path d="M6.46418 4.59091C5.67879 4.99522 4.68802 5.72703 3.71387 6.56006C4.67373 5.14706 5.27507 4.91543 6.46418 4.59091Z" fill="url(#paint44_linear_49_17145)"/>
<path d="M3.74933 5.14454C3.6219 6.3265 3.19978 7.5037 2.33936 8.73688C2.36317 7.53109 2.33454 6.5885 3.74933 5.14454Z" fill="#9CB3CF"/>
<path d="M3.74909 5.1457C3.62166 6.32766 3.19953 7.50486 2.33911 8.73804C2.36293 7.53225 2.3343 6.58966 3.74909 5.1457Z" fill="url(#paint45_linear_49_17145)"/>
<path d="M3.74933 5.14454C3.6219 6.3265 3.11642 7.55372 2.33936 8.73688C2.74426 7.07915 3.19318 6.4575 3.74933 5.14454Z" fill="#232E30"/>
<path d="M3.74909 5.1457C3.62166 6.32766 3.11617 7.55488 2.33911 8.73804C2.74402 7.08031 3.19294 6.45866 3.74909 5.1457Z" fill="url(#paint46_linear_49_17145)"/>
<path d="M3.8309 7.89074C2.52449 8.85299 1.96957 9.65208 1.72662 11.1705C2.47808 10.3827 3.09076 9.74497 3.8309 7.89074Z" fill="#F1F5FC"/>
<path d="M3.83066 7.8919C2.52424 8.85415 1.96932 9.65324 1.72638 11.1716C2.47784 10.3839 3.09051 9.74613 3.83066 7.8919Z" fill="url(#paint47_radial_49_17145)"/>
<path d="M3.8309 7.89074C3.10862 8.66363 1.89394 10.6292 1.72662 11.1705C1.96957 9.65208 2.52449 8.85299 3.8309 7.89074Z" fill="#232E30"/>
<path d="M3.83066 7.8919C3.10838 8.66479 1.8937 10.6304 1.72638 11.1716C1.96932 9.65324 2.52424 8.85415 3.83066 7.8919Z" fill="url(#paint48_linear_49_17145)"/>
<path d="M1.33383 12.3497C1.40349 12.9761 1.38026 14.1235 1.4148 14.9113C0.973573 13.5882 0.921216 12.2145 0.848572 10.7039C1.04447 11.5155 1.26476 11.7245 1.33383 12.3497Z" fill="#232E30"/>
<path d="M1.33377 12.3482C1.40343 12.9746 1.3802 14.1221 1.41474 14.9099C0.973512 13.5868 0.921155 12.2131 0.848511 10.7024C1.04441 11.514 1.26469 11.723 1.33377 12.3482Z" fill="url(#paint49_linear_49_17145)"/>
<path d="M2.39718 13.8113C2.05063 14.9355 1.28788 15.9555 2.15426 17.9949C2.2013 17.0332 2.88247 16.43 2.39718 13.8113Z" fill="#F1F5FC"/>
<path d="M2.39706 13.8105C2.05051 14.9347 1.28776 15.9547 2.15414 17.9941C2.20118 17.0325 2.88235 16.4293 2.39706 13.8105Z" fill="url(#paint50_radial_49_17145)"/>
<path d="M2.15426 17.9949C1.28788 15.9555 2.05063 14.9355 2.39718 13.8113C2.36324 15.5732 1.87261 16.5682 2.15426 17.9949Z" fill="#232E30"/>
<path d="M2.15414 17.9941C1.28776 15.9547 2.05051 14.9347 2.39706 13.8105C2.36312 15.5725 1.87249 16.5674 2.15414 17.9941Z" fill="url(#paint51_linear_49_17145)"/>
<path d="M0.756775 17.4637C1.28791 18.2181 2.13165 18.4521 3.40293 20.8589C1.68089 19.9795 1.13727 19.1905 0.756775 17.4637Z" fill="#9CB3CF"/>
<path d="M0.756775 17.4653C1.28791 18.2197 2.13165 18.4537 3.40293 20.8605C1.68089 19.9811 1.13727 19.1921 0.756775 17.4653Z" fill="url(#paint52_linear_49_17145)"/>
<path d="M3.46848 18.3859C4.01451 19.4136 4.25384 19.9858 4.35388 20.3175C4.45392 20.6492 4.51166 22.0116 4.58073 22.298C3.81022 21.425 3.59887 20.8201 3.52205 20.4729C3.44524 20.1246 3.42978 19.1504 3.46848 18.3859Z" fill="#232E30"/>
<path d="M3.46836 18.3863C4.01439 19.414 4.25372 19.9863 4.35376 20.3179C4.45379 20.6496 4.51154 22.012 4.58061 22.2984C3.8101 21.4255 3.59875 20.8205 3.52193 20.4734C3.44512 20.125 3.42966 19.1509 3.46836 18.3863Z" fill="url(#paint53_linear_49_17145)"/>
<path d="M4.58057 22.2988C4.00477 21.436 3.81785 19.4752 3.46832 18.3867C4.01435 19.4145 4.25368 19.9867 4.35372 20.3184C4.45018 20.6393 4.5115 22.0124 4.58057 22.2988C4.58057 22.2994 4.57998 22.2982 4.58057 22.2988Z" fill="#F1F5FC"/>
<path d="M4.58033 22.2998C4.00453 21.437 3.81761 19.4762 3.46808 18.3877C4.0141 19.4155 4.25344 19.9877 4.35347 20.3194C4.44994 20.6403 4.51126 22.0134 4.58033 22.2998C4.58033 22.3004 4.57973 22.2992 4.58033 22.2998Z" fill="url(#paint54_radial_49_17145)"/>
<path d="M6.15576 22.2723C6.88102 22.9517 7.31215 23.3692 7.6587 23.9104C8.00585 24.4517 8.10647 25.0811 8.4685 25.6134C6.52615 24.5321 6.48862 23.3072 6.15576 22.2723Z" fill="#232E30"/>
<path d="M6.15576 22.2723C6.88102 22.9517 7.31215 23.3692 7.6587 23.9104C8.00585 24.4517 8.10647 25.0811 8.4685 25.6134C6.52615 24.5321 6.48862 23.3072 6.15576 22.2723Z" fill="url(#paint55_linear_49_17145)"/>
<path d="M7.6587 23.9104C8.00585 24.4517 8.10647 25.0811 8.4685 25.6134C8.01715 25.3163 6.61426 23.1667 6.15576 22.2723C6.88102 22.9517 7.31215 23.3692 7.6587 23.9104Z" fill="#F1F5FC"/>
<path d="M7.6587 23.9104C8.00585 24.4517 8.10647 25.0811 8.4685 25.6134C8.01715 25.3163 6.61426 23.1667 6.15576 22.2723C6.88102 22.9517 7.31215 23.3692 7.6587 23.9104Z" fill="url(#paint56_radial_49_17145)"/>
<path d="M3.22955 22.7412C3.83751 23.0121 4.42341 23.105 5.04744 23.3747C5.67088 23.6457 6.44134 24.3942 6.90401 24.696C5.24747 24.5954 4.03758 24.069 3.22955 22.7412Z" fill="#9CB3CF"/>
<path d="M3.22937 22.7395C3.83732 23.0105 4.42323 23.1034 5.04726 23.3731C5.6707 23.644 6.44116 24.3925 6.90382 24.6944C5.24728 24.5938 4.03739 24.0674 3.22937 22.7395Z" fill="url(#paint57_linear_49_17145)"/>
<path d="M6.90401 24.696C5.93997 24.1709 4.6229 23.8088 3.22955 22.7412C3.83751 23.0121 4.42341 23.105 5.04744 23.3747C5.67088 23.6457 6.44134 24.3942 6.90401 24.696Z" fill="#232E30"/>
<path d="M6.90382 24.6944C5.93979 24.1692 4.62272 23.8072 3.22937 22.7395C3.83732 23.0105 4.42323 23.1034 5.04726 23.3731C5.6707 23.644 6.44116 24.3925 6.90382 24.6944Z" fill="url(#paint58_linear_49_17145)"/>
<path d="M13.4282 27.5784C12.8494 27.0448 12.6702 26.5459 12.1159 26.1171C11.5609 25.6884 10.648 25.2258 10.0585 25.0513C10.7403 25.8748 11.6014 27.2187 13.4282 27.5784Z" fill="#232E30"/>
<path d="M13.4285 27.5764C12.8497 27.0429 12.6705 26.5439 12.1161 26.1152C11.5611 25.6865 10.6483 25.2238 10.0588 25.0493C10.7406 25.8728 11.6016 27.2168 13.4285 27.5764Z" fill="url(#paint59_linear_49_17145)"/>
<path d="M13.4282 27.5784C12.1986 26.9002 11.4775 25.9647 10.0585 25.0513C10.648 25.2258 11.5609 25.6884 12.1159 26.1171C12.6702 26.5459 12.8494 27.0448 13.4282 27.5784Z" fill="#F1F5FC"/>
<path d="M13.4285 27.5764C12.1989 26.8982 11.4777 25.9627 10.0588 25.0493C10.6483 25.2238 11.5611 25.6865 12.1161 26.1152C12.6705 26.5439 12.8497 27.0429 13.4285 27.5764Z" fill="url(#paint60_radial_49_17145)"/>
<path d="M9.33068 27.2671C10.5668 27.3475 10.7889 27.1332 11.3879 27.1272C9.58551 26.4091 9.26097 26.3513 7.112 26.4907C7.81701 27.0468 8.49944 27.2005 9.33068 27.2671Z" fill="#9CB3CF"/>
<path d="M9.33068 27.2671C10.5668 27.3475 10.7889 27.1332 11.3879 27.1272C9.58551 26.4091 9.26097 26.3513 7.112 26.4907C7.81701 27.0468 8.49944 27.2005 9.33068 27.2671Z" fill="url(#paint61_linear_49_17145)"/>
<path d="M11.3881 27.1252C9.80601 26.8073 8.46385 27.0103 7.11218 26.4887C9.26116 26.3494 9.58569 26.4071 11.3881 27.1252Z" fill="#232E30"/>
<path d="M11.3883 27.1233C9.80619 26.8053 8.46403 27.0084 7.11237 26.4868C9.26134 26.3474 9.58588 26.4052 11.3883 27.1233Z" fill="url(#paint62_linear_49_17145)"/>
<path d="M13.4435 28.7955C14.6439 28.705 15.4114 28.2162 15.9169 28.0203C14.7171 27.9101 13.5244 27.8232 12.7742 27.9619C12.009 28.1024 11.6935 28.4716 11.1445 28.4948C12.0692 28.8199 12.8093 28.8438 13.4435 28.7955Z" fill="#9CB3CF"/>
<path d="M13.4434 28.7946C14.6438 28.704 15.4113 28.2152 15.9169 28.0193C14.717 27.9091 13.5244 27.8222 12.7741 27.9609C12.009 28.1014 11.6934 28.4706 11.1444 28.4938C12.0691 28.819 12.8093 28.8428 13.4434 28.7946Z" fill="url(#paint63_linear_49_17145)"/>
<path d="M15.9169 28.021C14.3342 28.205 13.0052 28.4843 11.1445 28.4956C11.6935 28.4724 12.009 28.1032 12.7742 27.9627C13.5244 27.8239 14.7171 27.9109 15.9169 28.021Z" fill="#232E30"/>
<path d="M15.9169 28.0207C14.3342 28.2047 13.0052 28.484 11.1444 28.4953C11.6934 28.4721 12.009 28.1029 12.7741 27.9624C13.5244 27.8236 14.717 27.9106 15.9169 28.0207Z" fill="url(#paint64_linear_49_17145)"/>
<path d="M3.40293 20.8589C2.57823 20.0331 1.27779 18.8654 0.756775 17.4637C1.28791 18.2181 2.13165 18.4521 3.40293 20.8589Z" fill="#232E30"/>
<path d="M3.40293 20.8605C2.57823 20.0346 1.27779 18.867 0.756775 17.4653C1.28791 18.2197 2.13165 18.4537 3.40293 20.8605Z" fill="url(#paint65_linear_49_17145)"/>
<path d="M24.8975 26.4803C22.7628 26.3415 22.4437 26.3898 20.6151 27.1192C20.6073 27.1216 20.6032 27.1305 20.6061 27.1371C20.6097 27.1454 20.6186 27.149 20.6258 27.1466C22.4484 26.4201 22.7676 26.3719 24.8945 26.5095C24.9035 26.5112 24.9106 26.5029 24.9106 26.4952C24.9112 26.4874 24.9047 26.4803 24.8975 26.4803Z" fill="#818384"/>
<path d="M28.7681 22.7203C28.4626 22.8578 28.1554 22.9531 27.8577 23.0442C27.5653 23.1341 27.2622 23.2276 26.9544 23.3628C26.5512 23.5414 26.0922 23.9142 25.6873 24.2434C25.4694 24.4215 25.2645 24.5888 25.1008 24.696L25.0805 24.7103L25.1079 24.752L25.1288 24.7377C25.2937 24.6287 25.4997 24.4608 25.7183 24.2821C26.1214 23.9541 26.5769 23.5831 26.9741 23.4098C27.2801 23.2746 27.5814 23.1812 27.872 23.0912C28.1715 22.9995 28.48 22.9049 28.7884 22.7655L28.8116 22.7548L28.7914 22.7102L28.7681 22.7203Z" fill="#88898A"/>
<path d="M30.2738 11.1716L30.2625 11.1609C29.5123 10.3606 28.9198 9.72942 28.1993 7.88174C28.1951 7.87281 28.1868 7.86864 28.1785 7.87162C28.1695 7.87519 28.1654 7.88412 28.1689 7.89306C28.8918 9.74788 29.4861 10.3814 30.2387 11.1829L30.25 11.1948C30.2554 11.2014 30.2661 11.202 30.2733 11.1954C30.2798 11.1895 30.2804 11.1781 30.2738 11.1716Z" fill="#D0D1D3"/>
<path d="M29.7102 8.73672L29.7066 8.45924C29.6959 7.37017 29.6864 6.42996 28.2871 5.11461L28.2299 5.17475C29.6024 6.46687 29.6113 7.39041 29.6232 8.45984L29.6268 8.73792L29.7102 8.73672Z" fill="#EBF1FB"/>
<path d="M28.2993 6.54153C26.9012 5.96692 26.6249 5.70731 25.5555 4.57595C25.5483 4.56881 25.5382 4.56881 25.5305 4.57476C25.5245 4.58071 25.5245 4.59144 25.5305 4.59799C26.6053 5.7341 26.8815 5.99431 28.2868 6.57189C28.2951 6.57606 28.3047 6.5719 28.3088 6.56356C28.3124 6.55463 28.3088 6.5451 28.2993 6.54153Z" fill="#C3C4C6"/>
<path d="M7.11323 26.505C9.23958 26.3669 9.55933 26.4151 11.3814 27.1415C11.3897 27.1445 11.3981 27.1409 11.4016 27.1332C11.4046 27.1255 11.4011 27.1171 11.3933 27.1141C9.5641 26.3853 9.24494 26.3371 7.11085 26.4752C7.10311 26.477 7.09656 26.4836 7.09656 26.4913C7.09715 26.4996 7.10489 26.5056 7.11323 26.505Z" fill="#939596"/>
<path d="M11.1462 28.5099C11.4284 28.4974 11.6464 28.3967 11.8994 28.2806C12.1352 28.1699 12.4032 28.046 12.7777 27.9763C13.5375 27.8364 14.7445 27.9287 15.9157 28.0353C15.9235 28.0359 15.9312 28.0299 15.9324 28.0216C15.9336 28.0139 15.9276 28.0061 15.9181 28.0049C14.7445 27.8989 13.5345 27.806 12.7712 27.9472C12.3948 28.0174 12.1245 28.1425 11.8863 28.2532C11.6356 28.3682 11.4207 28.4682 11.1444 28.4801C11.1361 28.4801 11.1295 28.4872 11.1301 28.4956C11.1307 28.5039 11.1367 28.5099 11.1462 28.5099Z" fill="#838486"/>
<path d="M20.8872 28.5099C20.6049 28.4974 20.3864 28.3967 20.1339 28.2806C19.8976 28.1699 19.6296 28.046 19.2563 27.9763C18.4953 27.8364 17.2883 27.9287 16.1176 28.0353C16.1087 28.0359 16.1022 28.0299 16.1004 28.0216C16.0998 28.0139 16.1063 28.0061 16.1147 28.0049C17.2883 27.8989 18.4977 27.806 19.2616 27.9472C19.6391 28.0174 19.9083 28.1425 20.147 28.2532C20.3971 28.3682 20.6115 28.4682 20.889 28.4801C20.8973 28.4801 20.9033 28.4872 20.9033 28.4956C20.9033 28.5039 20.8961 28.5099 20.8872 28.5099Z" fill="#838486"/>
<path d="M0.834236 10.7092C0.923553 11.076 1.01645 11.319 1.09862 11.5345C1.19687 11.7906 1.28142 12.0115 1.31953 12.3533C1.3618 12.7367 1.37014 13.3232 1.37788 13.8901C1.38205 14.2432 1.38622 14.6088 1.40051 14.9143C1.40111 14.9226 1.40706 14.928 1.41599 14.928C1.42433 14.9274 1.43028 14.9202 1.43028 14.9131C1.41659 14.6076 1.41123 14.2432 1.40587 13.8895C1.39932 13.3221 1.39217 12.7343 1.34811 12.3503C1.3106 12.0043 1.22485 11.7822 1.1266 11.5226C1.04384 11.3094 0.952137 11.0671 0.864011 10.7027C0.86163 10.6943 0.853885 10.6902 0.845549 10.6914C0.837212 10.6937 0.832449 10.7021 0.834236 10.7092Z" fill="#94A3AF"/>
<path d="M3.22382 22.7567C3.53226 22.8942 3.84189 22.9877 4.14081 23.0788C4.43258 23.1658 4.73447 23.2575 5.04172 23.3903C5.44127 23.5635 5.89976 23.9327 6.30407 24.2584C6.5232 24.4359 6.73041 24.6032 6.89595 24.711C6.90309 24.7145 6.91203 24.7133 6.91619 24.7062C6.92096 24.699 6.91858 24.6901 6.91203 24.6854C6.74828 24.5794 6.54166 24.412 6.32253 24.2352C5.91763 23.9083 5.45675 23.5385 5.05363 23.3629C4.74459 23.2295 4.4421 23.1378 4.14914 23.0491C3.85082 22.9597 3.54357 22.8657 3.23513 22.7299C3.22799 22.7269 3.21905 22.7299 3.21548 22.7376C3.2125 22.7442 3.21548 22.7537 3.22382 22.7567Z" fill="#818384"/>
<path d="M0.743703 17.4711C0.91162 17.7087 1.11169 17.8969 1.34272 18.1136C1.83933 18.5787 2.51933 19.2158 3.38928 20.8658C3.39345 20.8729 3.40238 20.8753 3.40893 20.8712C3.41608 20.8682 3.41905 20.8586 3.41548 20.8515C2.54196 19.1979 1.86136 18.5578 1.36357 18.0916C1.13313 17.8755 0.934247 17.6897 0.769307 17.4539C0.763949 17.4467 0.754422 17.4461 0.747276 17.4497C0.740727 17.4557 0.739535 17.4646 0.743703 17.4711Z" fill="#838486"/>
<path d="M3.73465 5.14161C3.60127 6.38848 3.1404 7.56151 2.32702 8.7274C2.32225 8.73395 2.32344 8.74288 2.33059 8.74824C2.33773 8.75241 2.34666 8.75062 2.35083 8.74407C3.16779 7.57461 3.62926 6.39622 3.76443 5.14399C3.76502 5.13625 3.75907 5.12911 3.75073 5.12791C3.74239 5.12732 3.73525 5.13268 3.73465 5.14161Z" fill="#BABBBD"/>
<path d="M19.975 0.950125C23.0046 1.83258 25.5686 3.37122 27.3901 5.4005C28.3922 6.51637 29.1681 7.77932 29.6963 9.15302C30.2637 10.6279 30.5513 12.247 30.5513 13.9666C30.5513 15.7643 30.1768 17.5226 29.4372 19.1899C28.7209 20.8119 27.6884 22.2827 26.3707 23.5623C23.6525 26.2049 19.972 27.7739 16.0051 27.9781C15.9968 27.9787 15.9902 27.9859 15.9914 27.9936C15.9914 28.0031 15.998 28.0085 16.0069 28.0085C19.9797 27.8031 23.6685 26.2323 26.3915 23.5837C27.7116 22.3011 28.7453 20.8268 29.4658 19.203C30.2054 17.531 30.5811 15.7696 30.5811 13.9666C30.5811 12.2434 30.2923 10.6202 29.7242 9.14231C29.1937 7.76503 28.4166 6.49911 27.4121 5.38145C25.5871 3.3474 23.0177 1.80519 19.9833 0.920949C19.975 0.919161 19.9636 0.931666 19.9613 0.940002C19.9589 0.947146 19.9672 0.947743 19.975 0.950125Z" fill="white"/>
<path d="M16.0009 27.9791C12.034 27.7742 8.35416 26.2052 5.63534 23.5632C4.3194 22.283 3.28749 20.8122 2.56997 19.1902C1.83162 17.523 1.45767 15.7646 1.45767 13.967C1.45767 12.2491 1.74409 10.6313 2.31036 9.15813C2.83912 7.78443 3.61439 6.52267 4.61534 5.4074C6.43503 3.37871 8.99665 1.83947 12.0227 0.955231C12.0311 0.952849 12.0447 0.955232 12.043 0.947491C12.04 0.940346 12.0049 0.929625 12.0001 0.930817C8.97581 1.81684 6.41419 3.35787 4.59271 5.38775C3.58938 6.50541 2.81291 7.77014 2.28356 9.14741C1.7155 10.6241 1.42731 12.2461 1.42731 13.967C1.42731 15.77 1.80244 17.5313 2.54199 19.2033C3.26188 20.8271 4.29558 22.3015 5.6151 23.5852C8.33868 26.2326 12.0257 27.8034 15.9991 28.0088C16.0081 28.0088 16.0146 28.0035 16.0146 27.9951C16.0158 27.9862 16.0086 27.9797 16.0009 27.9791Z" fill="white"/>
<path d="M16.0051 21.8793C18.1315 21.4167 20.7937 20.5741 22.9511 19.6476C23.2178 19.5339 23.4155 19.3576 23.5757 19.1313V17.4897L16.0051 15.6861V21.8793Z" fill="#D3E2F5"/>
<path d="M16.0051 21.8793C18.1315 21.4167 20.7937 20.5741 22.9511 19.6476C23.2178 19.5339 23.4155 19.3576 23.5757 19.1313V17.4897L16.0051 15.6861V21.8793Z" fill="url(#paint66_linear_49_17145)"/>
<path d="M19.9666 10.3412H24.3182L24.8815 9.41884H19.8112V11.9942H16.0897V9.41884H15.9307V11.2689H8.32385L8.37982 11.366C8.37982 11.366 8.37982 11.3791 8.37982 11.4035H15.9307V12.7099H8.39414C8.39414 12.7534 8.39471 12.8052 8.3953 12.8492H15.9307V14.5838H8.41558C8.41618 14.6266 8.41675 14.6749 8.41675 14.7177H12.0978V17.1996H8.45607C8.45607 17.2025 8.45607 17.2049 8.45607 17.2061C8.46679 17.5652 8.50307 17.8808 8.57869 18.1529H12.102V18.9984H9.12239C9.26172 19.1026 9.42904 19.1848 9.62792 19.2461C10.4264 19.4897 11.3523 19.7415 12.2348 19.9672V17.3347L15.9307 17.3306V20.7693C15.9444 20.7711 15.961 20.774 15.9759 20.7764C16.0033 20.7723 16.0617 20.7669 16.0897 20.7633V18.0689H23.5197C23.5292 18.0266 23.5388 17.9748 23.5477 17.9308H16.0897V16.6339H23.6298C23.631 16.5928 23.6317 16.5237 23.6335 16.4785H16.0897V14.7177H23.6578C23.6578 14.6749 23.6585 14.6183 23.659 14.5748H19.9666V12.124H23.6865C23.6912 11.6625 23.6954 11.366 23.6954 11.366L23.8246 11.1528H19.9666V10.3412Z" fill="#BCD0ED"/>
<path d="M19.9667 10.3406H24.3182L24.8816 9.41829H19.8113V11.9936H16.0897V9.41829H15.9308V11.2684H8.32391L8.37988 11.3654C8.37988 11.3654 8.37988 11.3785 8.37988 11.4029H15.9308V12.7093H8.3942C8.3942 12.7528 8.39477 12.8046 8.39536 12.8487H15.9308V14.5832H8.41564C8.41624 14.6261 8.41681 14.6743 8.41681 14.7172H12.0979V17.199H8.45613C8.45613 17.202 8.45613 17.2044 8.45613 17.2056C8.46685 17.5646 8.50313 17.8802 8.57875 18.1523H12.102V18.9979H9.12245C9.26178 19.1021 9.4291 19.1842 9.62798 19.2456C10.4265 19.4891 11.3524 19.741 12.2348 19.9667V17.3342L15.9308 17.33V20.7687C15.9445 20.7705 15.9611 20.7735 15.976 20.7759C16.0034 20.7717 16.0618 20.7663 16.0897 20.7628V18.0684H23.5198C23.5293 18.0261 23.5388 17.9743 23.5478 17.9302H16.0897V16.6333H23.6299C23.6311 16.5923 23.6317 16.5232 23.6335 16.4779H16.0897V14.7172H23.6579C23.6579 14.6743 23.6585 14.6178 23.6591 14.5743H19.9667V12.1234H23.6865C23.6913 11.6619 23.6955 11.3654 23.6955 11.3654L23.8246 11.1522H19.9667V10.3406Z" fill="url(#paint67_linear_49_17145)"/>
<path d="M23.1791 18.3471L16.2594 20.5544L16.048 20.8128V18.0279H23.5721L23.1791 18.3471Z" fill="#606969"/>
<path d="M16.2594 20.5544L23.1791 18.3471L23.5721 18.0279L23.5602 18.0797C23.4065 18.7258 23.057 19.1045 22.4592 19.2867C20.4716 19.8934 17.6342 20.574 16.0962 20.8051L16.048 20.8128L16.2594 20.5544Z" fill="#E3EBF7"/>
<path d="M8.91865 16.744L12.1388 14.6766V17.243H8.41669L8.91865 16.744Z" fill="#E3EBF7"/>
<path d="M8.91865 16.744L8.41668 17.243L8.41549 17.2019C8.40477 16.8291 8.39167 15.9937 8.375 14.7189V14.6766H12.1388L8.91865 16.744Z" fill="#606969"/>
<path d="M15.7246 17.582L15.9711 17.289V20.8182L15.9235 20.8111C15.0762 20.686 13.7388 20.3931 12.2496 20.0126L12.2186 20.0054L15.7246 17.582Z" fill="#E3EBF7"/>
<path d="M15.7246 17.582L12.2186 20.0054V17.289H15.9711L15.7246 17.582Z" fill="#606969"/>
<path d="M9.1902 18.8025L11.8923 18.3363L12.1436 18.1124V19.0407H9.12231L9.1902 18.8025Z" fill="#E3EBF7"/>
<path d="M11.8924 18.3363L9.19023 18.8025L9.12235 19.0407H9.10747L9.09675 19.0329C8.8282 18.8341 8.6448 18.5494 8.53881 18.1648L8.52393 18.1124H12.1437L11.8924 18.3363Z" fill="#606969"/>
<path d="M15.8354 12.9643L8.7799 14.2981L8.37381 14.6268L8.37321 14.5846L8.35297 12.85V12.8077H15.9711L15.8354 12.9643Z" fill="#606969"/>
<path d="M8.77988 14.2981L15.8353 12.9643L15.9711 12.8077V14.6268H8.37378L8.77988 14.2981Z" fill="#E3EBF7"/>
<path d="M16.3588 11.7404L19.5403 9.73251L19.8529 9.37762V12.0363H16.048L16.3588 11.7404Z" fill="#E3EBF7"/>
<path d="M19.5403 9.73251L16.3588 11.7404L16.048 12.0363V9.37762H19.8529L19.5403 9.73251Z" fill="#606969"/>
<path d="M15.7747 11.5462L15.9712 11.3622V12.7526H8.35242L15.7747 11.5462Z" fill="#E3EBF7"/>
<path d="M15.7747 11.5462L8.35244 12.7526L8.35125 12.7103L8.33934 11.4045L8.33875 11.3622H15.9712L15.7747 11.5462Z" fill="#606969"/>
<path d="M8.41969 11.1092L15.7955 9.57174L15.9712 9.37762V11.311H8.3006L8.41969 11.1092Z" fill="#E3EBF7"/>
<path d="M15.7955 9.57174L8.41968 11.1092L8.30059 11.311L8.28868 11.2914L7.15792 9.44015L7.11981 9.37762H15.9712L15.7955 9.57174Z" fill="#606969"/>
<path d="M23.2565 12.5789L20.2947 14.3093L19.9255 14.6171V12.0829H23.7287L23.2565 12.5789Z" fill="#606969"/>
<path d="M20.2947 14.3093L23.2565 12.5789L23.7287 12.0829V12.1246L23.7013 14.576L23.7001 14.6171H19.9255L20.2947 14.3093Z" fill="#E3EBF7"/>
<path d="M23.9264 10.5322L20.1536 11.0253L19.9255 11.195V10.3006H24.3414L23.9264 10.5322Z" fill="#606969"/>
<path d="M20.1536 11.0253L23.9264 10.5322L24.3414 10.3006L24.3021 10.3637L23.8079 11.1747L23.796 11.195H19.9255L20.1536 11.0253Z" fill="#E3EBF7"/>
<path d="M23.2779 16.8774L16.2647 17.7753L16.048 17.9724V16.5939H23.6733L23.2779 16.8774Z" fill="#606969"/>
<path d="M16.2647 17.7753L23.2779 16.8774L23.6733 16.5939V16.6356L23.659 17.2084C23.6513 17.4889 23.6286 17.7277 23.5875 17.9385L23.5822 17.9724H16.048L16.2647 17.7753Z" fill="#E3EBF7"/>
<path d="M23.4619 14.9028L16.304 16.2837L16.048 16.5201V14.6766H23.6995L23.4619 14.9028Z" fill="#606969"/>
<path d="M16.304 16.2837L23.4619 14.9028L23.6995 14.6766L23.6983 14.7189C23.6894 15.4489 23.6816 16.0407 23.6751 16.4796L23.6739 16.5201H16.048L16.304 16.2837Z" fill="#E3EBF7"/>
<path d="M19.6504 13.0905L16.3147 13.627L16.048 13.8622V12.9208H19.8529L19.6504 13.0905Z" fill="#606969"/>
<path d="M16.3147 13.627L19.6504 13.0905L19.8529 12.9208V13.8622H16.048L16.3147 13.627Z" fill="#E3EBF7"/>
<path d="M12.3717 16.2887L15.8021 15.701L15.9712 15.5057V16.4459H12.2157L12.3717 16.2887Z" fill="#E3EBF7"/>
<path d="M15.8021 15.701L12.3717 16.2887L12.2157 16.4459V15.5057H15.9712L15.8021 15.701Z" fill="#606969"/>
<path d="M16.0894 20.7621C17.5227 20.5465 20.3612 19.8808 22.4464 19.2449C23.0651 19.0555 23.3783 18.6655 23.5194 18.0677H16.0894V20.7621Z" fill="#D4B066"/>
<path d="M16.0892 20.7602C17.5225 20.5446 20.361 19.8789 22.4463 19.243C23.0649 19.0536 23.3781 18.6636 23.5193 18.0658H16.0892V20.7602Z" fill="url(#paint68_linear_49_17145)"/>
<path d="M12.0979 14.7185H8.41687C8.42997 15.7712 8.44488 16.7698 8.45619 17.2003H12.0979V14.7185Z" fill="#D91121"/>
<path d="M12.0981 14.7189H8.41705C8.43015 15.7717 8.44506 16.7702 8.45638 17.2007H12.0981V14.7189Z" fill="url(#paint69_linear_49_17145)"/>
<path d="M12.2596 17.3309V19.9723C13.7024 20.3403 15.0511 20.6398 15.9306 20.7697V17.3309H12.2596Z" fill="#D91121"/>
<path d="M12.2596 17.3309V19.9723C13.7024 20.3403 15.0511 20.6398 15.9306 20.7697V17.3309H12.2596Z" fill="url(#paint70_linear_49_17145)"/>
<path d="M12.1019 18.152H8.57867C8.67871 18.5134 8.84846 18.7968 9.12237 18.9975H12.1019V18.152Z" fill="#003971"/>
<path d="M12.102 18.1506H8.57874C8.67877 18.5121 8.84852 18.7955 9.12243 18.9962H12.102V18.1506Z" fill="url(#paint71_linear_49_17145)"/>
<path d="M15.9309 12.8479H8.39545C8.40081 13.376 8.40799 13.9786 8.41573 14.5824H15.9309V12.8479Z" fill="#D4B066"/>
<path d="M15.931 12.846H8.39563C8.40099 13.3742 8.40817 13.9768 8.41591 14.5806H15.931V12.846Z" fill="url(#paint72_linear_49_17145)"/>
<path d="M16.0897 11.9945H19.8112V9.41937H16.0897V11.9945Z" fill="#D91121"/>
<path d="M19.8108 11.9918V9.41645H16.0892V11.9918H19.8108Z" fill="url(#paint73_linear_49_17145)"/>
<path d="M15.9305 9.41911H7.19354L8.32367 11.2692H15.9305V9.41911Z" fill="#D4B066"/>
<path d="M15.9304 9.4188H7.19336L8.32349 11.2689H15.9304V9.4188Z" fill="url(#paint74_linear_49_17145)"/>
<path d="M19.9664 14.5764H23.6588C23.6701 13.6695 23.6802 12.752 23.6862 12.1255H19.9664V14.5764Z" fill="#D91121"/>
<path d="M19.9662 14.5774H23.6586C23.6699 13.6705 23.68 12.7529 23.686 12.1265H19.9662V14.5774Z" fill="url(#paint75_linear_49_17145)"/>
<path d="M19.9664 10.3422V11.1537H23.7725L24.2661 10.3422H19.9664Z" fill="#003971"/>
<path d="M19.9662 10.3428V11.1544H23.7723L24.266 10.3428H19.9662Z" fill="url(#paint76_linear_49_17145)"/>
<path d="M16.0897 17.9315H23.5477C23.5887 17.7135 23.6096 17.473 23.6179 17.2068C23.6215 17.0645 23.6262 16.8853 23.6298 16.6346H16.0897V17.9315Z" fill="#141314"/>
<path d="M16.0894 16.4778H23.6332C23.6409 15.9907 23.6498 15.3643 23.6575 14.717H16.0894V16.4778Z" fill="#D4B066"/>
<path d="M16.0892 16.4763H23.633C23.6408 15.9892 23.6496 15.3628 23.6574 14.7156H16.0892V16.4763Z" fill="url(#paint77_linear_49_17145)"/>
<path d="M12.2579 16.4043H15.9307V15.5463H12.2579V16.4043Z" fill="#003971"/>
<path d="M15.931 16.4011H12.2583V15.543H15.931V16.4011Z" fill="url(#paint78_linear_49_17145)"/>
<path d="M16.0897 13.821H19.8112V12.9615H16.0897V13.821Z" fill="#003971"/>
<path d="M19.8108 13.8216H16.0892V12.9624H19.8108V13.8216Z" fill="url(#paint79_linear_49_17145)"/>
<path d="M15.9306 11.404H8.37976C8.38214 11.5409 8.38691 12.0459 8.39405 12.7104H15.9306V11.404Z" fill="#141314"/>
<path d="M23.4669 18.1119C23.3133 18.7038 22.9929 19.0367 22.4344 19.2075C20.4706 19.806 17.6773 20.4788 16.1328 20.7158V18.1119H23.4669Z" fill="#D4B066"/>
<path d="M23.4671 18.1124C23.3135 18.7042 22.9931 19.0371 22.4346 19.208C20.4708 19.8064 17.6775 20.4793 16.1329 20.7162V18.1124H23.4671Z" fill="url(#paint80_linear_49_17145)"/>
<path d="M24.2663 10.3418H19.9666V11.1534H20.0268V10.4013H24.2663V10.3418Z" fill="#233B4D"/>
<path d="M19.8112 12.9615H16.0897V13.8208H16.1492V13.0205H19.8112V12.9615Z" fill="#233B4D"/>
<path d="M19.8112 9.41937H16.0897V11.9947H16.1492V9.47892H19.8112V9.41937Z" fill="#96423A"/>
<path d="M15.9306 9.41937H7.1936L8.32376 11.2694H8.39165L7.30436 9.47892H15.9306V9.41937Z" fill="#716543"/>
<path d="M15.9307 12.85H8.39172L8.41137 14.5845H8.47449L8.45484 12.9089H15.9307V12.85Z" fill="#716543"/>
<path d="M12.0977 14.7183H8.41248L8.45178 17.2001H8.52025L8.47976 14.7778H12.0977V14.7183Z" fill="#95473F"/>
<path d="M23.6864 12.1246H19.9666V14.5743H20.0268V12.1842H23.6864V12.1246Z" fill="#96423A"/>
<path d="M15.9307 15.5463H12.2579V16.4044H12.3169V15.6059H15.9307V15.5463Z" fill="#264865"/>
<path d="M15.9337 17.3312H12.2598V19.9726L12.3193 19.9899V17.3902H15.9337V17.3312Z" fill="#95473F"/>
<path d="M23.5143 18.0696H16.0897V20.7688H16.1492V18.1292H23.5143V18.0696Z" fill="#716543"/>
<path d="M23.6578 14.7183H16.0897V16.479H16.1492V14.7778H23.6578V14.7183Z" fill="#716543"/>
<path d="M8.57867 18.1536C8.58284 18.1679 8.58761 18.1815 8.59178 18.1964L8.59654 18.2131C8.69062 18.5186 8.9026 18.8074 9.13542 18.9991H9.2295C8.99847 18.827 8.76148 18.5352 8.65846 18.2131H12.1019V18.1536H8.57867Z" fill="#264865"/>
<path d="M24.9315 9.36774C24.6933 9.82683 24.2848 10.5253 23.7751 11.3315C23.7584 13.0935 23.7156 16.0767 23.6923 17.1967C23.6673 18.3995 23.3148 19.0462 22.5503 19.2939C21.8089 19.535 17.4687 20.6991 16.011 20.8277L16.0474 20.7807C17.6479 20.5991 21.7923 19.4779 22.5324 19.2379C23.269 18.9985 23.6072 18.3679 23.6334 17.1967C23.6566 16.0737 23.6995 13.0833 23.7144 11.3226L23.7156 11.3149L23.7191 11.3071L24.8576 9.43979L24.9315 9.36774Z" fill="#E3EBF7"/>
<path d="M24.9314 9.36774H7.09717L7.12635 9.41359L8.32379 11.3619C8.33987 13.0875 8.39227 16.032 8.41787 17.2265C8.44288 18.4001 8.78229 19.008 9.55756 19.2593C10.3757 19.5255 14.4539 20.6509 16.011 20.8277L16.0146 20.8283L16.0182 20.8277C17.6205 20.6467 21.7762 19.5219 22.5175 19.2808C23.2815 19.0331 23.634 18.3858 23.659 17.1854C23.6834 16.063 23.7263 13.0804 23.7411 11.319L24.9029 9.41299L24.9314 9.36774ZM23.6816 11.3018V11.3101C23.6673 13.0702 23.6238 16.0606 23.6006 17.1836C23.575 18.3554 23.2356 18.9854 22.499 19.2242C21.7589 19.4648 17.6152 20.5866 16.0146 20.7676C14.4593 20.5913 10.3936 19.4689 9.57542 19.2034C8.8198 18.9574 8.50064 18.3846 8.47682 17.2253C8.45181 16.029 8.39822 13.0774 8.38334 11.353V11.344L8.37857 11.3369L7.20435 9.42728H24.8237L23.6864 11.2946L23.6816 11.3018Z" fill="#606E7B"/>
<path d="M29.1341 26.0439C29.249 26.1588 29.3062 26.2982 29.3062 26.4619C29.3062 26.6263 29.249 26.7668 29.1341 26.8829C29.0192 26.999 28.8799 27.0568 28.7161 27.0568C28.5518 27.0568 28.4124 26.999 28.2981 26.8829C28.1838 26.7668 28.1266 26.6263 28.1266 26.4619C28.1266 26.2982 28.1844 26.1588 28.2987 26.0439C28.4142 25.9278 28.5536 25.8695 28.7161 25.8695C28.8793 25.8695 29.0186 25.9278 29.1341 26.0439ZM29.202 25.9772C29.0686 25.8439 28.9061 25.7772 28.7161 25.7772C28.5268 25.7772 28.3654 25.8439 28.2326 25.9772C28.0986 26.1112 28.0308 26.2726 28.0308 26.4619C28.0308 26.6525 28.0975 26.815 28.2308 26.9496C28.3642 27.0842 28.5262 27.1509 28.7161 27.1509C28.9061 27.1509 29.0686 27.0842 29.202 26.9496C29.3366 26.8144 29.4033 26.6519 29.4033 26.4619C29.4033 26.272 29.3366 26.1106 29.202 25.9772ZM28.8179 26.4298C28.79 26.4411 28.7477 26.4464 28.6917 26.4464H28.572V26.1737H28.6852C28.759 26.1737 28.812 26.1827 28.8453 26.2017C28.8787 26.2202 28.8954 26.2571 28.8954 26.3119C28.8954 26.3696 28.8697 26.4095 28.8179 26.4298ZM28.4392 26.8371H28.572V26.5393H28.6762C28.7471 26.5393 28.7965 26.5477 28.8245 26.5637C28.8715 26.5911 28.8954 26.6495 28.8954 26.737V26.7966L28.8983 26.821C28.8989 26.8246 28.8995 26.8263 28.9007 26.8293C28.9007 26.8317 28.9013 26.8347 28.9025 26.8371H29.0264L29.0216 26.8275C29.0186 26.821 29.0168 26.8085 29.015 26.7882C29.0138 26.768 29.0133 26.7495 29.0133 26.7323V26.6769C29.0133 26.6388 28.9996 26.6001 28.9722 26.5602C28.9454 26.5197 28.9013 26.4953 28.8418 26.4863C28.8888 26.4786 28.9251 26.4667 28.9519 26.4494C29.0007 26.4179 29.0258 26.3678 29.0258 26.3006C29.0258 26.2059 28.9865 26.1428 28.9085 26.11C28.865 26.0922 28.7965 26.0826 28.7024 26.0826H28.4392V26.8371Z" fill="black"/>
<defs>
<linearGradient id="paint0_linear_49_17145" x1="27.9272" y1="8.74835" x2="27.8865" y2="9.11699" gradientUnits="userSpaceOnUse">
<stop stop-color="#A1C1E4"/>
<stop offset="1" stop-color="#CCDCF3"/>
</linearGradient>
<linearGradient id="paint1_linear_49_17145" x1="21.8261" y1="24.7352" x2="14.3269" y2="22.9262" gradientUnits="userSpaceOnUse">
<stop stop-color="#D3E2F5"/>
<stop offset="1" stop-color="#9EBDE2"/>
</linearGradient>
<linearGradient id="paint2_linear_49_17145" x1="27.0631" y1="7.00588" x2="27.3845" y2="7.18744" gradientUnits="userSpaceOnUse">
<stop stop-color="#415050"/>
<stop offset="1" stop-color="#576162"/>
</linearGradient>
<linearGradient id="paint3_linear_49_17145" x1="19.0259" y1="7.6987" x2="17.3193" y2="22.1655" gradientUnits="userSpaceOnUse">
<stop stop-color="#F6F8FD"/>
<stop offset="1" stop-color="#4B616C"/>
</linearGradient>
<linearGradient id="paint4_linear_49_17145" x1="17.0862" y1="5.90754" x2="17.3606" y2="6.80554" gradientUnits="userSpaceOnUse">
<stop stop-color="#BECDE1"/>
<stop offset="1" stop-color="#D7E6F7"/>
</linearGradient>
<linearGradient id="paint5_linear_49_17145" x1="15.0946" y1="23.0411" x2="6.74926" y2="23.0411" gradientUnits="userSpaceOnUse">
<stop stop-color="#F4F6FD"/>
<stop offset="1" stop-color="#C9DCF2"/>
</linearGradient>
<linearGradient id="paint6_linear_49_17145" x1="8.33521" y1="13.0453" x2="8.01285" y2="13.2274" gradientUnits="userSpaceOnUse">
<stop stop-color="#415050"/>
<stop offset="1" stop-color="#576162"/>
</linearGradient>
<linearGradient id="paint7_linear_49_17145" x1="36.6893" y1="7.67717" x2="29.9896" y2="29.8763" gradientUnits="userSpaceOnUse">
<stop stop-color="#3C535A"/>
<stop offset="1" stop-color="#87A3C1"/>
</linearGradient>
<linearGradient id="paint8_linear_49_17145" x1="18.5897" y1="16.8657" x2="15.1309" y2="1.93818" gradientUnits="userSpaceOnUse">
<stop stop-color="#C6DAF1"/>
<stop offset="1" stop-color="#84A3C2"/>
</linearGradient>
<linearGradient id="paint9_linear_49_17145" x1="32.8608" y1="53.0907" x2="14.5675" y2="29.0404" gradientUnits="userSpaceOnUse">
<stop stop-color="white"/>
<stop offset="1" stop-color="#C6DAF1"/>
</linearGradient>
<linearGradient id="paint10_linear_49_17145" x1="16.4542" y1="-1.93623" x2="27.3914" y2="23.1588" gradientUnits="userSpaceOnUse">
<stop stop-color="#7093AE"/>
<stop offset="1" stop-color="#F6F8FD"/>
</linearGradient>
<linearGradient id="paint11_linear_49_17145" x1="17.2871" y1="1.42108" x2="19.1955" y2="25.8586" gradientUnits="userSpaceOnUse">
<stop stop-color="#3C535A"/>
<stop offset="1" stop-color="#8AAACA"/>
</linearGradient>
<linearGradient id="paint12_linear_49_17145" x1="24.7136" y1="-0.14697" x2="25.1816" y2="0.350754" gradientUnits="userSpaceOnUse">
<stop stop-color="#232E30"/>
<stop offset="1" stop-color="#7F919D"/>
</linearGradient>
<linearGradient id="paint13_linear_49_17145" x1="22.7834" y1="-2.10772" x2="27.3985" y2="0.546369" gradientUnits="userSpaceOnUse">
<stop stop-color="#7093AE"/>
<stop offset="1" stop-color="#F6F8FD"/>
</linearGradient>
<linearGradient id="paint14_linear_49_17145" x1="26.5696" y1="-0.474821" x2="29.1265" y2="2.08957" gradientUnits="userSpaceOnUse">
<stop stop-color="#232E30"/>
<stop offset="1" stop-color="#7F919D"/>
</linearGradient>
<linearGradient id="paint15_linear_49_17145" x1="27.9121" y1="9.61912" x2="25.4954" y2="8.35137" gradientUnits="userSpaceOnUse">
<stop stop-color="#9CB3CF"/>
<stop offset="1" stop-color="#F1F5FC"/>
</linearGradient>
<linearGradient id="paint16_linear_49_17145" x1="24.1559" y1="7.19481" x2="23.7697" y2="6.0957" gradientUnits="userSpaceOnUse">
<stop stop-color="#232E30"/>
<stop offset="1" stop-color="#7F919D"/>
</linearGradient>
<linearGradient id="paint17_linear_49_17145" x1="31.1667" y1="5.10607" x2="31.3449" y2="6.05664" gradientUnits="userSpaceOnUse">
<stop stop-color="#9CB3CF"/>
<stop offset="1" stop-color="#F1F5FC"/>
</linearGradient>
<linearGradient id="paint18_linear_49_17145" x1="26.0863" y1="8.0547" x2="26.3836" y2="7.60883" gradientUnits="userSpaceOnUse">
<stop stop-color="#9CB3CF"/>
<stop offset="1" stop-color="#F1F5FC"/>
</linearGradient>
<linearGradient id="paint19_linear_49_17145" x1="31.7305" y1="8.54599" x2="31.8643" y2="9.43754" gradientUnits="userSpaceOnUse">
<stop stop-color="#232E30"/>
<stop offset="1" stop-color="#7F919D"/>
</linearGradient>
<linearGradient id="paint20_linear_49_17145" x1="28.4444" y1="14.4973" x2="28.8343" y2="12.4664" gradientUnits="userSpaceOnUse">
<stop stop-color="#9CB3CF"/>
<stop offset="1" stop-color="#F1F5FC"/>
</linearGradient>
<linearGradient id="paint21_linear_49_17145" x1="31.0416" y1="16.1552" x2="30.5956" y2="16.1403" gradientUnits="userSpaceOnUse">
<stop stop-color="#232E30"/>
<stop offset="1" stop-color="#7F919D"/>
</linearGradient>
<linearGradient id="paint22_linear_49_17145" x1="27.8639" y1="18.0251" x2="27.6189" y2="13.9762" gradientUnits="userSpaceOnUse">
<stop stop-color="#9CB3CF"/>
<stop offset="1" stop-color="#F1F5FC"/>
</linearGradient>
<linearGradient id="paint23_linear_49_17145" x1="31.9773" y1="13.7118" x2="32.2284" y2="17.8498" gradientUnits="userSpaceOnUse">
<stop stop-color="#232E30"/>
<stop offset="1" stop-color="#7F919D"/>
</linearGradient>
<linearGradient id="paint24_linear_49_17145" x1="25.7581" y1="17.832" x2="27.5411" y2="16.1556" gradientUnits="userSpaceOnUse">
<stop stop-color="#9CB3CF"/>
<stop offset="1" stop-color="#F1F5FC"/>
</linearGradient>
<linearGradient id="paint25_linear_49_17145" x1="31.1849" y1="22.1974" x2="29.521" y2="22.3905" gradientUnits="userSpaceOnUse">
<stop stop-color="#232E30"/>
<stop offset="1" stop-color="#7F919D"/>
</linearGradient>
<linearGradient id="paint26_linear_49_17145" x1="27.2692" y1="23.8337" x2="26.779" y2="23.6703" gradientUnits="userSpaceOnUse">
<stop stop-color="#9CB3CF"/>
<stop offset="1" stop-color="#F1F5FC"/>
</linearGradient>
<linearGradient id="paint27_linear_49_17145" x1="27.1156" y1="23.7479" x2="26.7593" y2="23.644" gradientUnits="userSpaceOnUse">
<stop stop-color="#232E30"/>
<stop offset="1" stop-color="#7F919D"/>
</linearGradient>
<linearGradient id="paint28_linear_49_17145" x1="23.4998" y1="27.4567" x2="23.054" y2="27.204" gradientUnits="userSpaceOnUse">
<stop stop-color="#9CB3CF"/>
<stop offset="1" stop-color="#F1F5FC"/>
</linearGradient>
<linearGradient id="paint29_linear_49_17145" x1="23.534" y1="27.2293" x2="22.8865" y2="26.999" gradientUnits="userSpaceOnUse">
<stop stop-color="#232E30"/>
<stop offset="1" stop-color="#7F919D"/>
</linearGradient>
<linearGradient id="paint30_linear_49_17145" x1="26.0799" y1="21.0528" x2="27.4765" y2="21.2311" gradientUnits="userSpaceOnUse">
<stop stop-color="#9CB3CF"/>
<stop offset="1" stop-color="#F1F5FC"/>
</linearGradient>
<linearGradient id="paint31_linear_49_17145" x1="18.1392" y1="29.4409" x2="17.8457" y2="29.1793" gradientUnits="userSpaceOnUse">
<stop stop-color="#9CB3CF"/>
<stop offset="1" stop-color="#F1F5FC"/>
</linearGradient>
<linearGradient id="paint32_linear_49_17145" x1="17.6207" y1="29.0098" x2="17.2651" y2="28.6401" gradientUnits="userSpaceOnUse">
<stop stop-color="#232E30"/>
<stop offset="1" stop-color="#7F919D"/>
</linearGradient>
<linearGradient id="paint33_linear_49_17145" x1="20.4941" y1="25.0945" x2="22.7743" y2="24.9533" gradientUnits="userSpaceOnUse">
<stop stop-color="#9CB3CF"/>
<stop offset="1" stop-color="#F1F5FC"/>
</linearGradient>
<linearGradient id="paint34_linear_49_17145" x1="19.3091" y1="27.3915" x2="19.2159" y2="26.6801" gradientUnits="userSpaceOnUse">
<stop stop-color="#232E30"/>
<stop offset="1" stop-color="#7F919D"/>
</linearGradient>
<linearGradient id="paint35_linear_49_17145" x1="16.4727" y1="25.7091" x2="18.3696" y2="26.0225" gradientUnits="userSpaceOnUse">
<stop stop-color="#9CB3CF"/>
<stop offset="1" stop-color="#F1F5FC"/>
</linearGradient>
<linearGradient id="paint36_linear_49_17145" x1="14.7276" y1="27.5557" x2="14.7742" y2="27.3084" gradientUnits="userSpaceOnUse">
<stop stop-color="#232E30"/>
<stop offset="1" stop-color="#7F919D"/>
</linearGradient>
<linearGradient id="paint37_linear_49_17145" x1="28.4794" y1="26.3802" x2="25.9105" y2="27.1915" gradientUnits="userSpaceOnUse">
<stop stop-color="#232E30"/>
<stop offset="1" stop-color="#7F919D"/>
</linearGradient>
<linearGradient id="paint38_linear_49_17145" x1="26.7006" y1="8.20524" x2="26.4629" y2="7.09092" gradientUnits="userSpaceOnUse">
<stop stop-color="#232E30"/>
<stop offset="1" stop-color="#7F919D"/>
</linearGradient>
<radialGradient id="paint39_radial_49_17145" cx="0" cy="0" r="1" gradientUnits="userSpaceOnUse" gradientTransform="translate(9.20099 0.506725) scale(1.99744 1.99744)">
<stop stop-color="#7F9FBD"/>
<stop offset="1" stop-color="#F1F5FC"/>
</radialGradient>
<linearGradient id="paint40_linear_49_17145" x1="11.5904" y1="4.46583" x2="10.6397" y2="4.88176" gradientUnits="userSpaceOnUse">
<stop stop-color="#232E30"/>
<stop offset="1" stop-color="#7F919D"/>
</linearGradient>
<linearGradient id="paint41_linear_49_17145" x1="10.3474" y1="4.5775" x2="7.74316" y2="7.03019" gradientUnits="userSpaceOnUse">
<stop stop-color="#232E30"/>
<stop offset="1" stop-color="#7F919D"/>
</linearGradient>
<linearGradient id="paint42_linear_49_17145" x1="4.80373" y1="6.22379" x2="4.51369" y2="6.00812" gradientUnits="userSpaceOnUse">
<stop stop-color="#587089"/>
<stop offset="1" stop-color="#E0ECF9"/>
</linearGradient>
<radialGradient id="paint43_radial_49_17145" cx="0" cy="0" r="1" gradientUnits="userSpaceOnUse" gradientTransform="translate(4.20903 4.28779) scale(2.08423 2.08427)">
<stop stop-color="#7F9FBD"/>
<stop offset="1" stop-color="#F1F5FC"/>
</radialGradient>
<linearGradient id="paint44_linear_49_17145" x1="2.32752" y1="7.47711" x2="2.10489" y2="7.16545" gradientUnits="userSpaceOnUse">
<stop stop-color="#232E30"/>
<stop offset="1" stop-color="#7F919D"/>
</linearGradient>
<linearGradient id="paint45_linear_49_17145" x1="3.781" y1="3.52025" x2="4.18015" y2="3.66992" gradientUnits="userSpaceOnUse">
<stop stop-color="#9CB3CF"/>
<stop offset="1" stop-color="#F1F5FC"/>
</linearGradient>
<linearGradient id="paint46_linear_49_17145" x1="4.00762" y1="3.61135" x2="4.38397" y2="3.75001" gradientUnits="userSpaceOnUse">
<stop stop-color="#232E30"/>
<stop offset="1" stop-color="#7F919D"/>
</linearGradient>
<radialGradient id="paint47_radial_49_17145" cx="0" cy="0" r="1" gradientUnits="userSpaceOnUse" gradientTransform="translate(1.41788 8.1124) scale(2.30299 2.30303)">
<stop stop-color="#7F9FBD"/>
<stop offset="1" stop-color="#F1F5FC"/>
</radialGradient>
<linearGradient id="paint48_linear_49_17145" x1="4.1067" y1="12.6677" x2="3.21524" y2="12.9648" gradientUnits="userSpaceOnUse">
<stop stop-color="#232E30"/>
<stop offset="1" stop-color="#7F919D"/>
</linearGradient>
<linearGradient id="paint49_linear_49_17145" x1="0.688169" y1="9.44138" x2="1.12362" y2="9.41169" gradientUnits="userSpaceOnUse">
<stop stop-color="#232E30"/>
<stop offset="1" stop-color="#7F919D"/>
</linearGradient>
<radialGradient id="paint50_radial_49_17145" cx="0" cy="0" r="1" gradientUnits="userSpaceOnUse" gradientTransform="translate(0.989627 15.7832) scale(2.05244 2.05248)">
<stop stop-color="#7F9FBD"/>
<stop offset="1" stop-color="#F1F5FC"/>
</radialGradient>
<linearGradient id="paint51_linear_49_17145" x1="2.42457" y1="19.2338" x2="1.94921" y2="19.2536" gradientUnits="userSpaceOnUse">
<stop stop-color="#232E30"/>
<stop offset="1" stop-color="#7F919D"/>
</linearGradient>
<linearGradient id="paint52_linear_49_17145" x1="4.51004" y1="22.1247" x2="4.27231" y2="22.3327" gradientUnits="userSpaceOnUse">
<stop stop-color="#9CB3CF"/>
<stop offset="1" stop-color="#F1F5FC"/>
</linearGradient>
<linearGradient id="paint53_linear_49_17145" x1="4.51059" y1="23.7188" x2="4.07477" y2="23.798" gradientUnits="userSpaceOnUse">
<stop stop-color="#232E30"/>
<stop offset="1" stop-color="#7F919D"/>
</linearGradient>
<radialGradient id="paint54_radial_49_17145" cx="0" cy="0" r="1" gradientUnits="userSpaceOnUse" gradientTransform="translate(2.42168 20.883) scale(2.16793 2.16802)">
<stop stop-color="#7F9FBD"/>
<stop offset="1" stop-color="#F1F5FC"/>
</radialGradient>
<linearGradient id="paint55_linear_49_17145" x1="9.34567" y1="27.0286" x2="8.92966" y2="27.3258" gradientUnits="userSpaceOnUse">
<stop stop-color="#232E30"/>
<stop offset="1" stop-color="#7F919D"/>
</linearGradient>
<radialGradient id="paint56_radial_49_17145" cx="0" cy="0" r="1" gradientUnits="userSpaceOnUse" gradientTransform="translate(5.21346 25.1891) scale(2.89365 2.89363)">
<stop stop-color="#7F9FBD"/>
<stop offset="1" stop-color="#F1F5FC"/>
</radialGradient>
<linearGradient id="paint57_linear_49_17145" x1="8.11084" y1="21.6169" x2="8.52677" y2="23.3697" gradientUnits="userSpaceOnUse">
<stop stop-color="#9CB3CF"/>
<stop offset="1" stop-color="#F1F5FC"/>
</linearGradient>
<linearGradient id="paint58_linear_49_17145" x1="1.65295" y1="22.5643" x2="1.87088" y2="21.9898" gradientUnits="userSpaceOnUse">
<stop stop-color="#232E30"/>
<stop offset="1" stop-color="#7F919D"/>
</linearGradient>
<linearGradient id="paint59_linear_49_17145" x1="13.0575" y1="22.9301" x2="15.3713" y2="24.306" gradientUnits="userSpaceOnUse">
<stop stop-color="#232E30"/>
<stop offset="1" stop-color="#7F919D"/>
</linearGradient>
<radialGradient id="paint60_radial_49_17145" cx="0" cy="0" r="1" gradientUnits="userSpaceOnUse" gradientTransform="translate(11.1283 26.9231) scale(1.20932 1.20931)">
<stop stop-color="#7F9FBD"/>
<stop offset="1" stop-color="#F1F5FC"/>
</radialGradient>
<linearGradient id="paint61_linear_49_17145" x1="12.7036" y1="26.3887" x2="12.6442" y2="27.4138" gradientUnits="userSpaceOnUse">
<stop stop-color="#9CB3CF"/>
<stop offset="1" stop-color="#F1F5FC"/>
</linearGradient>
<linearGradient id="paint62_linear_49_17145" x1="5.81202" y1="26.7209" x2="5.85656" y2="26.0825" gradientUnits="userSpaceOnUse">
<stop stop-color="#232E30"/>
<stop offset="1" stop-color="#7F919D"/>
</linearGradient>
<linearGradient id="paint63_linear_49_17145" x1="17.2055" y1="27.8067" x2="17.2501" y2="28.3412" gradientUnits="userSpaceOnUse">
<stop stop-color="#9CB3CF"/>
<stop offset="1" stop-color="#F1F5FC"/>
</linearGradient>
<linearGradient id="paint64_linear_49_17145" x1="9.8579" y1="28.7267" x2="9.78365" y2="27.9842" gradientUnits="userSpaceOnUse">
<stop stop-color="#232E30"/>
<stop offset="1" stop-color="#7F919D"/>
</linearGradient>
<linearGradient id="paint65_linear_49_17145" x1="-0.420538" y1="16.2643" x2="-0.0837723" y2="16.0067" gradientUnits="userSpaceOnUse">
<stop stop-color="#232E30"/>
<stop offset="1" stop-color="#7F919D"/>
</linearGradient>
<linearGradient id="paint66_linear_49_17145" x1="21.821" y1="24.7606" x2="14.3223" y2="22.9517" gradientUnits="userSpaceOnUse">
<stop stop-color="#D3E2F5"/>
<stop offset="1" stop-color="#748A9B"/>
</linearGradient>
<linearGradient id="paint67_linear_49_17145" x1="28.9592" y1="20.5774" x2="14.3862" y2="27.5363" gradientUnits="userSpaceOnUse">
<stop stop-color="#BCD0ED"/>
<stop offset="1" stop-color="#C7D9EF"/>
</linearGradient>
<linearGradient id="paint68_linear_49_17145" x1="19.8534" y1="16.8748" x2="28.2609" y2="16.8748" gradientUnits="userSpaceOnUse">
<stop stop-color="#D4B066"/>
<stop offset="1" stop-color="#E7CC8F"/>
</linearGradient>
<linearGradient id="paint69_linear_49_17145" x1="8.22776" y1="13.528" x2="15.6972" y2="13.528" gradientUnits="userSpaceOnUse">
<stop stop-color="#D91121"/>
<stop offset="1" stop-color="#DC7866"/>
</linearGradient>
<linearGradient id="paint70_linear_49_17145" x1="12.2597" y1="16.1398" x2="15.8095" y2="16.1398" gradientUnits="userSpaceOnUse">
<stop stop-color="#D91121"/>
<stop offset="1" stop-color="#DC7866"/>
</linearGradient>
<linearGradient id="paint71_linear_49_17145" x1="8.18913" y1="16.96" x2="15.6502" y2="16.96" gradientUnits="userSpaceOnUse">
<stop stop-color="#003971"/>
<stop offset="1" stop-color="#5687C0"/>
</linearGradient>
<linearGradient id="paint72_linear_49_17145" x1="8.16644" y1="11.655" x2="15.7019" y2="11.655" gradientUnits="userSpaceOnUse">
<stop stop-color="#D4B066"/>
<stop offset="1" stop-color="#E7CC8F"/>
</linearGradient>
<linearGradient id="paint73_linear_49_17145" x1="18.2372" y1="8.22556" x2="33.6685" y2="8.22556" gradientUnits="userSpaceOnUse">
<stop stop-color="#D91121"/>
<stop offset="1" stop-color="#DC7866"/>
</linearGradient>
<linearGradient id="paint74_linear_49_17145" x1="6.9653" y1="8.22791" x2="15.7023" y2="8.22791" gradientUnits="userSpaceOnUse">
<stop stop-color="#D4B066"/>
<stop offset="1" stop-color="#E7CC8F"/>
</linearGradient>
<linearGradient id="paint75_linear_49_17145" x1="18.2368" y1="10.9356" x2="33.6638" y2="10.9356" gradientUnits="userSpaceOnUse">
<stop stop-color="#D91121"/>
<stop offset="1" stop-color="#DC7866"/>
</linearGradient>
<linearGradient id="paint76_linear_49_17145" x1="18.745" y1="9.15205" x2="29.9242" y2="9.15205" gradientUnits="userSpaceOnUse">
<stop stop-color="#003971"/>
<stop offset="1" stop-color="#5687C0"/>
</linearGradient>
<linearGradient id="paint77_linear_49_17145" x1="19.8536" y1="13.5246" x2="28.2615" y2="13.5246" gradientUnits="userSpaceOnUse">
<stop stop-color="#D4B066"/>
<stop offset="1" stop-color="#E7CC8F"/>
</linearGradient>
<linearGradient id="paint78_linear_49_17145" x1="8.18998" y1="14.3519" x2="15.6506" y2="14.3519" gradientUnits="userSpaceOnUse">
<stop stop-color="#003971"/>
<stop offset="1" stop-color="#5687C0"/>
</linearGradient>
<linearGradient id="paint79_linear_49_17145" x1="18.7454" y1="11.7713" x2="29.9261" y2="11.7713" gradientUnits="userSpaceOnUse">
<stop stop-color="#003971"/>
<stop offset="1" stop-color="#5687C0"/>
</linearGradient>
<linearGradient id="paint80_linear_49_17145" x1="19.8548" y1="16.9213" x2="28.2628" y2="16.9213" gradientUnits="userSpaceOnUse">
<stop stop-color="#D4B066"/>
<stop offset="1" stop-color="#E7CC8F"/>
</linearGradient>
</defs>
</svg>
