<svg width="32" height="33" viewBox="0 0 32 33" fill="none" xmlns="http://www.w3.org/2000/svg">
<path d="M31.8734 13.9595H21.2267V11.9088C21.2269 11.8812 21.2216 11.8539 21.2112 11.8283C21.2007 11.8028 21.1853 11.7795 21.1659 11.76C21.1464 11.7404 21.1233 11.7248 21.0978 11.7142C21.0723 11.7036 21.045 11.6982 21.0174 11.6982H10.984C10.9564 11.6982 10.9291 11.7036 10.9036 11.7142C10.8781 11.7248 10.855 11.7404 10.8355 11.76C10.8161 11.7795 10.8007 11.8028 10.7903 11.8283C10.7798 11.8539 10.7745 11.8812 10.7747 11.9088V13.9595H3.14404C3.02804 13.9595 2.8867 14.0528 2.82804 14.1702L0.0267045 19.6582C-0.0332955 19.7755 0.0120378 19.8675 0.129371 19.8675H10.7734V21.9208C10.7734 22.0355 10.8667 22.1302 10.9827 22.1302H21.016C21.132 22.1302 21.2254 22.0368 21.2254 21.9208V19.8675H28.856C28.972 19.8675 29.1134 19.7742 29.1734 19.6582L31.9734 14.1702C32.0334 14.0542 31.988 13.9595 31.872 13.9595M28.5467 15.2875L26.888 18.5368H19.912V20.8142H12.0934V18.5368H3.46004L5.12004 15.2875H12.096V13.0115H19.9147V15.2875H28.5467Z" fill="black"/>
</svg>
