<svg width="36" height="33" viewBox="0 0 36 33" fill="none" xmlns="http://www.w3.org/2000/svg">
<path fill-rule="evenodd" clip-rule="evenodd" d="M34.4695 31.2273C31.3665 28.5668 22.1477 20.9963 17.7714 20.9963C13.3932 20.9963 4.18143 28.5617 1.07655 31.2241C1.0579 30.5952 1.04053 30.2132 1.04053 29.653C1.04053 29.653 0.96465 28.7282 1.78267 27.8028C8.51335 21.7043 15.5701 18.7203 15.7868 18.629C17.891 17.7396 17.7727 17.9068 17.7708 14.3376C17.7708 14.3376 17.8647 14.3318 17.9245 14.3382C20.8879 14.6064 28.8552 22.3391 33.5704 27.5668C33.5788 27.5758 34.501 28.6434 34.501 29.7688C34.5023 30.2961 34.4869 30.8164 34.4695 31.2273ZM34.3428 26.8633C33.8418 26.3076 22.0429 13.2836 17.7714 13.2836C13.5012 13.2836 1.70164 26.3076 1.20131 26.8626L1.20067 26.8633C1.15179 26.9179 0 28.2343 0 29.7694C0 30.9643 0.0791013 32.1669 0.0803875 32.1785C0.0829599 32.2338 0.110613 32.7418 0.392934 32.8801C0.438594 32.9026 0.488113 32.9142 0.538918 32.9142C0.643743 32.9142 0.760788 32.8672 0.887478 32.7746C1.01481 32.6621 13.035 22.0452 17.7714 22.0452C22.5085 22.0452 34.5293 32.6621 34.6496 32.7695C34.7808 32.866 34.8991 32.9142 35.0052 32.9142C35.0566 32.9142 35.1049 32.9026 35.1512 32.8807C35.4329 32.7431 35.4605 32.2344 35.4631 32.1772C35.4637 32.1682 35.5428 30.9656 35.5428 29.7707C35.5428 28.2343 34.391 26.9179 34.3428 26.8633ZM34.4528 18.8399C31.353 16.1827 22.1432 8.61981 17.7721 8.61981C13.3983 8.61981 4.19558 16.1782 1.09391 18.8374C1.07526 18.2097 1.0579 17.8271 1.0579 17.2682C1.0579 17.2682 0.982013 16.3441 1.79939 15.4199C8.52364 9.32722 15.5733 6.34645 15.7894 6.25513C17.8917 5.36636 17.7733 5.53357 17.7714 1.96823C17.7714 1.96823 17.8647 1.96244 17.9251 1.96887C20.8853 2.23704 28.8449 9.96195 33.555 15.1839C33.5634 15.1929 34.4849 16.2592 34.4849 17.384C34.4856 17.91 34.4695 18.4296 34.4528 18.8399ZM34.3261 14.4804C33.8251 13.9254 22.0384 0.914185 17.7714 0.914185C13.5057 0.914185 1.71772 13.9254 1.21803 14.4797L1.21739 14.4804C1.16851 14.535 0.0173642 15.8502 0.0173642 17.384C0.0173642 18.5776 0.0971085 19.7789 0.0977516 19.7904C0.100324 19.8458 0.127977 20.3532 0.409655 20.4914C0.455315 20.5139 0.504833 20.5249 0.555638 20.5249C0.660464 20.5249 0.776865 20.4779 0.903556 20.3853C1.03153 20.2728 13.0395 9.66677 17.7714 9.66677C22.504 9.66677 34.5126 20.2728 34.6328 20.3802C34.7634 20.4766 34.8817 20.5242 34.9878 20.5242C35.0393 20.5242 35.0875 20.5133 35.1338 20.4908C35.4149 20.3532 35.4432 19.8451 35.4451 19.7879C35.4457 19.7789 35.5248 18.5776 35.5248 17.384C35.5255 15.8502 34.375 14.535 34.3261 14.4804Z" fill="#6E6E6E"/>
</svg>
