<svg width="60" height="33" viewBox="0 0 60 33" fill="none" xmlns="http://www.w3.org/2000/svg">
<g clip-path="url(#clip0_49_17958)">
<path fill-rule="evenodd" clip-rule="evenodd" d="M4.09003 0.914185V5.83294H22.2939V8.31291V10.793H4.09003V15.7118H24.1895C24.6506 15.7118 24.9545 15.5839 25.2687 15.2679L30.5606 10.1204L35.8527 15.2679C36.1669 15.5839 36.4708 15.7118 36.9319 15.7118H57.0314V10.793H38.8274V8.31291V5.83294H57.0314V0.914185H36.9319C36.4708 0.914185 36.1669 1.04208 35.8527 1.35803L30.5606 6.50559L25.2687 1.35803C24.9545 1.04208 24.6506 0.914185 24.1895 0.914185H4.09003Z" fill="#241F21"/>
<path fill-rule="evenodd" clip-rule="evenodd" d="M0.797546 26.7579V28.7906L8.2788 28.8385C8.4574 28.8385 8.55628 28.8795 8.66987 28.9931L9.46546 29.6806C9.52366 29.7388 9.55035 29.776 9.55035 29.836C9.55035 29.8959 9.52366 29.9333 9.46546 29.9915L8.66987 30.679C8.55628 30.7926 8.4574 30.8336 8.2788 30.8336L0.797546 30.8815V32.9142H9.21551C9.51612 32.9142 9.66433 32.865 9.85715 32.6722L12.2626 30.1858C12.3532 30.0952 12.4125 29.9538 12.4125 29.836C12.4125 29.7181 12.3532 29.5768 12.2626 29.4862L9.85715 26.9997C9.66433 26.8069 9.51612 26.7579 9.21551 26.7579H0.797546Z" fill="#241F21"/>
<path d="M19.7891 26.7579C19.6567 26.7579 19.5817 26.7844 19.5298 26.8363L13.6242 32.7662C13.5622 32.8285 13.5901 32.9142 13.6865 32.9142H16.558L19.6035 29.755C19.6667 29.6918 19.7142 29.6654 19.7891 29.6654C19.864 29.6654 19.9115 29.6918 19.9747 29.755L23.0202 32.9142H25.8917C25.9881 32.9142 26.0161 32.8285 25.954 32.7662L20.0485 26.8363C19.9965 26.7844 19.9215 26.7579 19.7891 26.7579Z" fill="#241F21"/>
<path fill-rule="evenodd" clip-rule="evenodd" d="M38.8299 26.7579V28.7906L31.3487 28.8385C31.1701 28.8385 31.0712 28.8795 30.9576 28.9931L30.162 29.6806C30.1038 29.7388 30.0771 29.776 30.0771 29.836C30.0771 29.8959 30.1038 29.9333 30.162 29.9915L30.9576 30.679C31.0712 30.7926 31.1701 30.8336 31.3487 30.8336L38.8299 30.8815V32.9142H30.412C30.1114 32.9142 29.9632 32.865 29.7703 32.6722L27.3649 30.1858C27.2743 30.0952 27.215 29.9538 27.215 29.836C27.215 29.7181 27.2743 29.5768 27.3649 29.4862L29.7703 26.9997C29.9632 26.8069 30.1114 26.7579 30.412 26.7579H38.8299Z" fill="#241F21"/>
<path d="M44.6975 26.7579H42.3444V32.9142H44.6975V26.7579Z" fill="#241F21"/>
<path d="M53.1917 26.7579C53.0593 26.7579 52.9843 26.7844 52.9324 26.8363L47.0268 32.7662C46.9647 32.8285 46.9927 32.9142 47.0891 32.9142H49.9606L53.0061 29.755C53.0693 29.6918 53.1168 29.6654 53.1917 29.6654C53.2666 29.6654 53.3141 29.6918 53.3773 29.755L56.4228 32.9142H59.2943C59.3907 32.9142 59.4186 32.8285 59.3566 32.7662L53.4511 26.8363C53.3991 26.7844 53.3241 26.7579 53.1917 26.7579Z" fill="#241F21"/>
</g>
<defs>
<clipPath id="clip0_49_17958">
<rect width="58.5921" height="32" fill="white" transform="translate(0.797546 0.914185)"/>
</clipPath>
</defs>
</svg>
