<svg width="33" height="33" viewBox="0 0 33 33" fill="none" xmlns="http://www.w3.org/2000/svg">
<g clip-path="url(#clip0_49_18034)">
<path d="M29.0261 9.24752C29.6781 10.7782 29.9941 12.5035 29.9941 14.5222C29.9941 15.6129 29.9034 16.7755 29.7194 18.0769C29.3381 20.7569 28.3221 23.5569 27.3861 25.4022C27.2341 25.6995 27.1127 25.8969 26.8687 26.1129C26.4421 26.4889 26.0661 26.5822 25.9274 26.5009C25.8154 26.4342 25.7527 26.0982 25.7754 25.6035C25.7941 25.1822 25.8941 24.8702 26.0474 24.3715C26.7644 22.0088 27.2993 19.5946 27.6474 17.1502C28.1607 13.5982 28.1407 10.4035 27.3794 8.45685C27.3025 8.25704 27.2041 8.06615 27.0861 7.88752C27.0034 7.76752 26.9447 7.70618 26.9447 7.70618C25.3701 6.12885 21.1181 5.33818 16.8647 5.33818C12.6114 5.33818 8.36075 6.12885 6.78741 7.70618C6.78741 7.70618 6.72741 7.76618 6.64608 7.88752C6.5267 8.0651 6.42784 8.25565 6.35141 8.45552C5.58875 10.4022 5.57008 13.5982 6.08341 17.1502C6.43008 19.5595 6.97941 22.1102 7.71941 24.4889C7.84741 24.8982 7.93008 25.1769 7.95008 25.6089C7.97141 26.1009 7.91008 26.4355 7.79808 26.5022C7.65941 26.5822 7.27941 26.4889 6.85141 26.1089C6.54475 25.8355 6.39141 25.5689 6.19808 25.1742C5.29141 23.3275 4.34075 20.6449 3.97541 18.0769C3.79998 16.8999 3.70819 15.7121 3.70075 14.5222C3.70075 12.5035 4.01808 10.7795 4.66875 9.25019C5.15808 8.10352 5.97941 7.14352 7.04475 6.47285C9.66295 4.81693 12.6547 3.84414 15.7461 3.64352C16.1079 3.62134 16.4703 3.60978 16.8327 3.60885H16.8594C17.2247 3.60885 17.5901 3.62218 17.9501 3.64352C20.9927 3.82752 24.0021 4.80752 26.6501 6.47285C27.7067 7.13419 28.5358 8.10151 29.0261 9.24752ZM22.6754 28.6155C22.5581 28.6409 22.1941 28.7262 21.8327 28.8249C21.5087 28.9142 21.1887 28.9849 21.0367 29.0155C19.6674 29.2733 18.2768 29.4006 16.8834 29.3955H16.8461C15.3567 29.3955 13.9434 29.2582 12.6941 29.0155C12.4434 28.9642 12.1944 28.905 11.9474 28.8382C11.6804 28.7668 11.4119 28.7011 11.1421 28.6409C10.5847 28.5142 10.0807 28.4235 10.0527 28.5302C10.0194 28.6542 10.2687 28.9142 10.5874 29.1595C10.6621 29.2155 10.8474 29.3462 11.0634 29.4529C11.2634 29.5502 11.4901 29.6235 11.5781 29.6529C13.0421 30.1262 14.7061 30.3222 16.8327 30.3222H16.8621C18.9461 30.3222 20.5874 30.1329 22.0314 29.6782C22.5261 29.5222 22.8181 29.3969 23.1687 29.1182C23.4621 28.8862 23.6821 28.6475 23.6501 28.5315C23.6234 28.4315 23.1861 28.5035 22.6754 28.6155ZM19.3314 14.8649C19.1381 13.7849 18.9047 12.9555 18.6407 12.3982L18.6381 12.3929H18.6101L17.7007 12.3849H17.6874L17.6514 16.3822H19.5527L19.5514 16.3689C19.5514 16.3622 19.4767 15.6729 19.3314 14.8649ZM27.0114 17.1142C26.5821 20.0849 25.8381 23.2782 24.7981 26.0489C24.6247 26.5155 24.4674 26.6889 24.0914 26.9822C23.1213 27.6653 22.016 28.1327 20.8501 28.3529C19.6541 28.5862 18.3061 28.7155 16.8847 28.7155H16.8461C15.5162 28.7211 14.1889 28.5997 12.8821 28.3529C11.7152 28.1331 10.609 27.6657 9.63808 26.9822C9.26208 26.6889 9.10608 26.5155 8.93541 26.0489C7.89275 23.2782 7.14875 20.0849 6.72075 17.1142C6.22341 13.6782 6.25408 10.6515 6.96075 8.84485C7.05008 8.61818 7.14475 8.45552 7.21408 8.35285C7.27541 8.26618 7.31808 8.21952 7.31808 8.21952C8.74208 6.79285 12.7314 6.01685 16.8647 6.01685C20.9994 6.01685 24.9887 6.79285 26.4114 8.22085C26.4114 8.22085 26.4541 8.26485 26.5154 8.35418C26.5847 8.45552 26.6807 8.61685 26.7687 8.84485C27.4767 10.6515 27.5074 13.6782 27.0114 17.1142ZM12.6647 11.0009L9.08875 10.9809L9.44475 23.4302L10.9407 23.4462L10.9194 17.7795H12.2714V16.3169H10.9194V12.4609H12.6661V10.9995L12.6647 11.0009ZM15.1661 10.9742L13.3461 10.9782L13.5874 23.4449H15.1301L15.1661 10.9742ZM19.7634 10.9929H16.1207L16.2647 23.4382H17.7207L17.7327 17.8089H19.6234L19.6261 17.8182C19.7967 18.8809 19.8101 23.3795 19.8101 23.4249V23.4449H21.2274L21.2394 22.8062C21.3034 19.5795 21.4127 14.1809 19.7634 10.9929ZM25.5234 10.9755L21.0647 10.9929V12.4289H22.3954V12.4422L22.3394 23.4449H23.8487L24.2154 12.4289H25.5234V10.9755ZM32.7594 16.9142C32.7594 25.7369 25.5967 32.9142 16.7914 32.9142C7.98875 32.9142 0.82608 25.7369 0.82608 16.9142C0.82608 8.09152 7.98875 0.914185 16.7927 0.914185C25.5981 0.914185 32.7594 8.09152 32.7594 16.9142ZM32.3194 16.9035C32.3127 8.32885 25.3501 1.35418 16.7901 1.35418C8.31541 1.35418 1.40608 8.19818 1.27008 16.6622C1.45905 16.2294 1.77772 15.866 2.18208 15.6222C3.05541 15.1049 3.29408 13.7755 3.37275 12.9809L3.38875 12.8982C3.33675 13.4249 3.29541 13.9515 3.29541 14.5222C3.29541 15.6315 3.38875 16.8129 3.57541 18.1329C4.12475 21.9995 5.99275 26.1422 7.09141 27.4102L7.15275 27.4769L7.40875 27.7462L7.41808 27.7542C10.0981 29.9502 12.5607 30.7275 16.8327 30.7275H16.8621C21.1327 30.7275 23.5954 29.9502 26.2754 27.7542L26.2874 27.7462L26.5341 27.4835L26.6034 27.4089C27.7047 26.1369 29.5714 21.9995 30.1207 18.1329C30.3074 16.8129 30.3994 15.6315 30.3994 14.5222C30.3994 13.9169 30.3714 13.3355 30.3141 12.7769L30.3221 12.7849C30.4021 13.5809 30.8274 15.6395 31.6487 16.2329C31.9287 16.4355 32.1487 16.6555 32.3194 16.9035Z" fill="black"/>
</g>
<defs>
<clipPath id="clip0_49_18034">
<rect width="32" height="32" fill="white" transform="translate(0.792755 0.914185)"/>
</clipPath>
</defs>
</svg>
