<svg width="63" height="24" viewBox="0 0 63 24" fill="none" xmlns="http://www.w3.org/2000/svg">
<path d="M31.39 0.367096C14.1704 0.367096 0.367126 5.52852 0.367126 11.9998C0.367126 18.4316 14.2842 23.6329 31.39 23.6329C48.4963 23.6329 62.4134 18.4141 62.4134 11.9998C62.4134 5.58538 48.4963 0.367096 31.39 0.367096Z" fill="#003478"/>
<path d="M43.6098 14.464C43.6181 14.5172 43.688 14.5683 43.7557 14.5924C43.7807 14.6007 43.7929 14.6174 43.7668 14.674C43.5737 15.0881 43.3961 15.3268 43.1539 15.6865C42.9311 16.019 42.6802 16.2783 42.3764 16.5278C41.9182 16.9069 41.2819 17.3197 40.7558 17.0422C40.5221 16.9209 40.421 16.5939 40.4255 16.3291C40.4366 15.5846 40.7679 14.8203 41.3794 14.0691C42.125 13.1512 42.9493 12.6751 43.4902 12.9353C44.0499 13.2022 43.8713 13.8502 43.6206 14.3588C43.6012 14.3982 43.6012 14.4315 43.6096 14.4637M49.6154 8.66268C49.6557 8.59165 49.6133 8.53976 49.5236 8.53976C49.0561 8.53976 48.4428 8.54082 47.9557 8.54082C47.8397 8.54082 47.7798 8.55467 47.7251 8.66289C47.5453 9.00735 45.3543 12.2909 44.9465 12.9286C44.8777 13.0257 44.7939 13.0121 44.7842 12.9008C44.7429 12.5221 44.4158 12.0867 43.9005 11.8784C43.5078 11.7191 43.1239 11.6903 42.7247 11.7433C42.0041 11.8401 41.3621 12.2202 40.7977 12.649C39.947 13.2957 39.213 14.1339 38.2655 14.7532C37.7483 15.0904 37.04 15.3844 36.566 14.9455C36.1371 14.5478 36.1856 13.6646 36.8419 12.9815C36.911 12.9099 36.9939 12.9704 36.9809 13.0339C36.919 13.3428 36.9947 13.6501 37.2295 13.8655C37.5158 14.1222 37.9256 14.1511 38.2763 13.9798C38.6901 13.7748 38.9333 13.3788 39.0042 12.9294C39.1138 12.2323 38.5772 11.6174 37.9058 11.5681C37.3603 11.5298 36.8372 11.7196 36.3275 12.1403C36.0719 12.3523 35.9268 12.5089 35.7058 12.8232C35.652 12.9006 35.5692 12.9084 35.5717 12.794C35.5967 11.9015 35.2279 11.3994 34.4901 11.383C33.9173 11.3691 33.3054 11.68 32.8285 12.0603C32.3057 12.4802 31.8485 13.0366 31.3584 13.5594C31.2974 13.6238 31.2444 13.6208 31.2271 13.4959C31.2133 12.9045 31.0637 12.3318 30.7901 11.925C30.6932 11.7835 30.4893 11.7135 30.3181 11.809C30.239 11.8523 29.9639 11.9788 29.7636 12.1401C29.6642 12.222 29.6253 12.3405 29.6695 12.4923C29.9336 13.3758 29.8756 14.3803 29.5171 15.2287C29.188 16.0057 28.5484 16.7065 27.7965 16.9437C27.3012 17.1008 26.7864 17.0239 26.4678 16.5848C26.0302 15.9788 26.2069 14.9249 26.8592 14.0499C27.4348 13.2793 28.2675 12.7898 29.0979 12.4746C29.1956 12.4369 29.2159 12.3742 29.1881 12.2912C29.1432 12.1547 29.071 11.9687 29.0419 11.8839C28.9656 11.681 28.7524 11.6483 28.4919 11.6766C27.8885 11.7468 27.3441 11.9535 26.8064 12.2415C25.3983 12.9955 24.6924 14.4548 24.383 15.2355C24.234 15.6105 24.1066 15.8445 23.942 16.0519C23.72 16.3309 23.4414 16.5849 22.9319 17.0324C22.8858 17.0735 22.8514 17.1589 22.8903 17.2385C22.9422 17.3462 23.2072 17.7205 23.2819 17.7538C23.3649 17.7946 23.4612 17.7372 23.4997 17.71C23.8563 17.4683 24.2828 17.0852 24.4916 16.8254C24.5648 16.7363 24.64 16.7738 24.6789 16.909C24.8737 17.6039 25.3837 18.1714 26.0891 18.4088C27.3801 18.8442 28.7192 18.214 29.73 17.1169C30.3724 16.4195 30.6042 15.971 30.8505 15.6662C31.2678 15.1492 32.0909 13.9925 33.0713 13.2499C33.4309 12.976 33.8563 12.7672 34.0702 12.9059C34.242 13.0172 34.2975 13.2758 34.022 13.7768C33.0224 15.6022 31.5517 17.7468 31.2819 18.2668C31.2325 18.357 31.2764 18.428 31.3702 18.428C31.8933 18.4254 32.4118 18.4267 32.8866 18.4267C32.9657 18.424 33.0009 18.3868 33.0406 18.331C33.8077 17.1302 34.5296 15.9874 35.3035 14.8057C35.3467 14.7361 35.3867 14.7891 35.3883 14.8196C35.405 15.0938 35.4716 15.4687 35.6345 15.715C35.927 16.1702 36.3415 16.3658 36.8012 16.3688C37.167 16.3743 37.3521 16.3174 37.7465 16.17C38.0675 16.051 38.3252 15.8948 38.5229 15.7534C38.6384 15.6729 38.6586 15.8075 38.6558 15.828C38.4782 16.7813 38.6975 17.9108 39.6449 18.3792C40.7787 18.9382 42.0243 18.1524 42.741 17.4431C42.8112 17.3748 42.8864 17.382 42.8936 17.5294C42.9103 17.8002 43.0313 18.1216 43.2553 18.3465C43.856 18.9493 45.0679 18.7104 46.2843 17.769C47.0652 17.1662 47.8823 16.3146 48.6203 15.4128C48.6481 15.3779 48.6681 15.3218 48.6148 15.2649C48.5024 15.1473 48.3398 15.0127 48.2283 14.9091C48.1776 14.8658 48.1029 14.8782 48.0602 14.9105C47.3036 15.6301 46.6226 16.4506 45.6383 17.1292C45.3063 17.3609 44.7773 17.5478 44.5396 17.2261C44.447 17.1012 44.4575 16.9286 44.548 16.7019C44.8349 15.9862 49.3785 9.06865 49.6144 8.66065" fill="white"/>
<path d="M28.2386 9.49742C28.258 9.60009 28.298 9.62009 28.3446 9.61149C28.576 9.56515 28.8293 9.37477 28.9792 9.15411C29.1158 8.95404 29.1799 8.66532 29.0442 8.54964C28.9232 8.44558 28.7262 8.47497 28.5801 8.604C28.2893 8.86096 28.201 9.22555 28.2385 9.49763M16.6581 18.4021C14.964 18.4132 13.4715 17.367 13.3002 15.5546C13.205 14.5502 13.4889 13.6552 14.0573 12.9178C14.5616 12.2607 15.4149 11.7148 16.1372 11.5814C16.3723 11.5384 16.6881 11.5648 16.8186 11.7213C17.0234 11.9597 16.9646 12.2215 16.7598 12.326C16.2087 12.6073 15.5456 13.089 15.2175 13.7467C14.9514 14.2836 14.8976 14.9305 15.3041 15.5469C15.9844 16.574 17.8808 16.6023 19.6441 14.9642C20.0808 14.5632 20.4716 14.178 20.8688 13.7218C21.6454 12.8338 21.9037 12.5102 22.9361 11.0783C22.9472 11.0616 22.9527 11.0399 22.9472 11.0294C22.9388 11.01 22.925 11.0072 22.8942 11.0044C22.205 11.0238 21.6042 11.2289 21.0202 11.6654C20.852 11.788 20.61 11.7708 20.504 11.6093C20.3861 11.4267 20.4707 11.189 20.6647 11.0548C21.6042 10.4014 22.6304 10.2829 23.6785 10.106C23.6776 10.106 23.7512 10.1088 23.8112 10.03C24.2414 9.47784 24.5662 8.97978 25.0249 8.42138C25.487 7.85483 26.0839 7.33457 26.54 6.94377C27.1766 6.39639 27.5848 6.21219 27.9998 5.98642C28.1091 5.92926 27.9859 5.861 27.9526 5.861C25.6361 5.42562 23.2282 4.86223 20.9277 5.71391C19.3344 6.30849 18.6361 7.57199 18.972 8.41626C19.2109 9.01514 19.9985 9.1125 20.7359 8.75165C21.3484 8.45157 21.9152 7.96793 22.3169 7.34535C22.5417 6.99959 23.0154 7.24904 22.7595 7.84943C22.0862 9.43174 20.8001 10.6869 19.2335 10.7399C17.9003 10.7831 17.04 9.80229 17.0428 8.59223C17.0484 6.20552 19.7053 4.63334 22.4977 4.3983C25.8605 4.12039 29.0456 5.01616 32.3846 5.42116C34.9428 5.73095 37.3954 5.73739 39.9668 5.1467C40.2708 5.08065 40.484 5.27461 40.4642 5.58163C40.4392 6.02543 40.0954 6.45284 39.2485 6.91473C38.2854 7.44296 37.2778 7.60324 36.2254 7.61185C33.6808 7.63405 31.3104 6.64113 28.8576 6.10816C28.8603 6.21554 28.8887 6.34345 28.7987 6.41124C27.4401 7.4134 26.2119 8.43111 25.3894 9.8605C25.3617 9.89352 25.3755 9.92489 25.4246 9.92156C26.1388 9.88354 26.781 9.86521 27.4477 9.81194C27.5643 9.80084 27.5687 9.77308 27.5584 9.68817C27.4993 9.19548 27.6433 8.63365 28.0767 8.24719C28.5203 7.84949 29.0757 7.80426 29.4439 8.09069C29.8624 8.41686 29.8254 9.00344 29.5965 9.44335C29.3634 9.8897 28.9784 10.1284 28.609 10.2443C28.609 10.2443 28.5313 10.261 28.5429 10.3315C28.5568 10.4441 29.0608 10.7231 29.1039 10.7974C29.1455 10.8682 29.1233 10.9778 29.0476 11.0619C28.9943 11.1229 28.9108 11.1801 28.804 11.1781C28.7177 11.1764 28.6652 11.1465 28.5548 11.0869C28.3289 10.9645 28.0466 10.7633 27.8583 10.5261C27.7942 10.4459 27.7614 10.4442 27.6013 10.4531C26.8798 10.4947 25.7549 10.6035 24.9927 10.6987C24.8079 10.7209 24.7807 10.7561 24.7427 10.8202C23.5275 12.8241 22.2299 14.9851 20.8053 16.4319C19.2773 17.9832 18.0071 18.3917 16.6587 18.4022" fill="white"/>
<path d="M31.3894 2.26929C15.5478 2.26929 2.70706 6.64683 2.70706 12.0035C2.70706 17.3605 15.5478 21.7384 31.3894 21.7384C47.2307 21.7384 60.0706 17.3605 60.0706 12.0035C60.0706 6.64683 47.2307 2.26929 31.3894 2.26929ZM31.3894 22.6206C14.9712 22.6206 1.6618 17.8672 1.6618 12.0035C1.6618 6.13885 14.9712 1.38629 31.3894 1.38629C47.8061 1.38629 61.1146 6.13885 61.1146 12.0035C61.1146 17.8672 47.8061 22.6206 31.3894 22.6206Z" fill="white"/>
</svg>
