<svg width="32" height="21" viewBox="0 0 32 21" fill="none" xmlns="http://www.w3.org/2000/svg">
<path d="M3.68739 17.1605L4.17594 17.2186C4.39695 17.2419 4.42021 17.428 4.42021 17.5443V18.1143H2.17521V17.5443C2.17521 17.428 2.19847 17.2419 2.41948 17.2186L2.90803 17.1605V16.6719H0V17.1605L0.48855 17.2186C0.70956 17.2419 0.732824 17.428 0.732824 17.5443V19.4288C0.732824 19.5451 0.70956 19.7312 0.48855 19.7545L0 19.8126V20.3012H2.90803V19.8126L2.41948 19.7545C2.19847 19.7312 2.17521 19.5451 2.17521 19.4288V18.8588H4.40858V19.4288C4.40858 19.5451 4.38531 19.7312 4.1643 19.7545L3.67575 19.8126V20.3012H6.58379V19.8126L6.09524 19.7545C5.87423 19.7312 5.85096 19.5451 5.85096 19.4288V17.5443C5.85096 17.428 5.87423 17.2419 6.09524 17.2186L6.58379 17.1605V16.6719H3.67575V17.1605H3.68739Z" fill="black"/>
<path d="M23.0549 16.6719H19.4722V17.1605L19.9026 17.207C20.0538 17.2303 20.1585 17.2884 20.1585 17.4978V19.4171C20.1585 19.5334 20.1352 19.7196 19.9142 19.7428L19.4257 19.801V20.2895H23.0549C24.3577 20.2895 25.4278 19.7661 25.4278 18.4749C25.4278 17.1838 24.3577 16.6719 23.0549 16.6719ZM22.7873 19.6032H21.566V17.3699H22.7873C23.5085 17.3699 23.7528 17.7072 23.7528 18.4865C23.7528 19.2543 23.5085 19.6032 22.7873 19.6032Z" fill="black"/>
<path d="M31.5231 19.7545C31.2905 19.7312 31.2207 19.58 31.1509 19.4753L29.4759 16.9162C29.3595 16.7301 29.2665 16.6719 29.092 16.6719H26.3468V17.1605L27.0099 17.2303C27.1029 17.2419 27.2309 17.3699 27.1262 17.5327L25.8815 19.5451C25.835 19.6265 25.7652 19.7196 25.6256 19.7428L25.1371 19.801V20.2895H27.4519V19.801L27.0564 19.7661C26.8819 19.7428 26.7888 19.6265 26.8819 19.4869L27.068 19.1845H29.3014L29.4642 19.4288C29.6155 19.6498 29.4293 19.7428 29.2665 19.7545L28.8594 19.801V20.2895H32V19.801L31.5231 19.7545ZM27.4519 18.5447L28.1382 17.428L28.871 18.5447H27.4519Z" fill="black"/>
<path d="M16.8782 17.1603L17.3667 17.2185C17.5877 17.2417 17.611 17.4278 17.611 17.5442V19.3588L15.6917 16.823C15.6103 16.7067 15.5289 16.6718 15.3195 16.6718H12.8302V17.1603L13.3187 17.2185C13.5398 17.2417 13.563 17.4278 13.563 17.5442V19.4286C13.563 19.5449 13.5398 19.731 13.3187 19.7543L12.8302 19.8124V20.301H15.1566V19.8124L14.6681 19.7543C14.4471 19.731 14.4238 19.5449 14.4238 19.4286V17.614L16.3431 20.1381C16.4362 20.2545 16.506 20.2894 16.7153 20.2894H16.7386H18.4834V17.5325C18.4834 17.4162 18.5067 17.2301 18.7277 17.2068L19.2162 17.1487V16.6601H16.9014L16.8782 17.1603Z" fill="black"/>
<path d="M9.70118 16.5438C7.33986 16.5438 6.73499 17.5791 6.73499 18.4748C6.73499 19.3704 7.33986 20.4173 9.70118 20.4173C12.0625 20.4173 12.6674 19.3821 12.6674 18.4864C12.6674 17.5791 12.0625 16.5438 9.70118 16.5438ZM9.70118 19.731C8.78224 19.731 8.41001 19.3472 8.41001 18.4864C8.41001 17.6256 8.79387 17.2418 9.70118 17.2418C10.6201 17.2418 10.9923 17.6256 10.9923 18.4864C10.9923 19.3472 10.6201 19.731 9.70118 19.731Z" fill="black"/>
<path d="M20.0189 1.3757C19.6234 3.15542 19.4606 3.9813 19.1349 5.26083C18.8208 6.49384 18.5765 7.64542 18.1578 8.20376C17.739 8.77374 17.1691 8.89006 16.7852 8.93659C16.5874 8.95985 16.4362 8.97149 16.0058 8.97149C15.5754 8.97149 15.4242 8.95985 15.2265 8.93659C14.8426 8.89006 14.2727 8.77374 13.8539 8.20376C13.4351 7.64542 13.1909 6.49384 12.8884 5.26083C12.5627 3.96967 12.3999 3.15542 12.0044 1.3757C12.0044 1.3757 11.6089 1.38733 11.4344 1.39897C11.1901 1.4106 11.004 1.43386 10.8063 1.45713C10.8063 1.45713 11.0389 5.12125 11.1436 6.67996C11.2483 8.30845 11.446 11.0653 11.6205 13.1474C11.6205 13.1474 11.9579 13.2056 12.5162 13.2288C13.0978 13.2637 13.3653 13.2637 13.3653 13.2637C13.6096 12.3448 13.9004 11.0769 14.2378 10.5302C14.5169 10.0882 14.9357 10.0416 15.18 10.0067C15.5522 9.96022 15.8779 9.94858 16.0175 9.94858C16.1687 9.94858 16.4828 9.94858 16.855 10.0067C17.0993 10.0416 17.518 10.0882 17.7972 10.5302C18.1345 11.0769 18.437 12.3448 18.6696 13.2637C18.6696 13.2637 18.9255 13.2637 19.5071 13.2288C20.0655 13.1939 20.4028 13.1474 20.4028 13.1474C20.5773 11.0653 20.775 8.32009 20.8797 6.67996C20.9844 5.13288 21.217 1.45713 21.217 1.45713C21.0193 1.43386 20.8215 1.4106 20.5889 1.39897C20.4144 1.38733 20.0189 1.3757 20.0189 1.3757Z" fill="black"/>
<path d="M24.6369 3.53918C24.4042 1.21275 22.8455 0.724201 21.4846 0.491558C20.7983 0.375236 19.5769 0.282179 18.7976 0.247283C18.1113 0.200754 16.506 0.17749 16.0175 0.17749C15.5289 0.17749 13.9237 0.200754 13.2374 0.247283C12.458 0.282179 11.2367 0.375236 10.5504 0.491558C9.18941 0.724201 7.63071 1.21275 7.39806 3.53918C7.32827 4.17894 7.31664 5.00483 7.32827 5.88887C7.35153 7.36615 7.47949 8.35488 7.54928 9.05281C7.59581 9.52973 7.79356 10.9488 8.04946 11.6817C8.39843 12.6937 8.71249 12.9845 9.08472 13.2869C9.75939 13.8336 10.8761 14.0081 11.1087 14.0546C12.365 14.2756 14.9008 14.3222 16.0291 14.3222C17.1458 14.3222 19.6932 14.2873 20.9495 14.0546C21.1821 14.0081 22.2988 13.8452 22.9735 13.2869C23.3457 12.9845 23.6598 12.6937 24.0087 11.6817C24.2647 10.9488 24.4624 9.51809 24.5089 9.05281C24.5787 8.36651 24.7067 7.36615 24.7299 5.88887C24.7183 4.99319 24.695 4.16731 24.6369 3.53918ZM23.7761 7.44757C23.6365 9.30872 23.4737 10.4254 23.241 11.228C23.0316 11.9376 22.7757 12.4029 22.4035 12.7402C21.7754 13.3102 20.9146 13.4265 20.4028 13.5079C19.3094 13.6708 17.4599 13.7289 16.0175 13.7289C14.5635 13.7289 12.7256 13.6708 11.6322 13.5079C11.1203 13.4265 10.2596 13.3102 9.63143 12.7402C9.2592 12.4029 9.0033 11.9259 8.79392 11.228C8.56128 10.4254 8.38679 9.30872 8.25884 7.44757C8.17741 6.33089 8.18905 4.51628 8.317 3.53918C8.49148 2.07353 9.21268 1.3407 10.7597 1.07316C11.4809 0.945211 12.458 0.852154 13.377 0.805625C14.1214 0.759097 15.3312 0.735833 16.0175 0.735833C16.6921 0.724201 17.9135 0.759097 18.6463 0.805625C19.5653 0.852154 20.5424 0.945211 21.2636 1.07316C22.8106 1.35234 23.5318 2.08516 23.7179 3.53918C23.8459 4.50464 23.8575 6.31926 23.7761 7.44757Z" fill="black"/>
</svg>
