<svg width="32" height="17" viewBox="0 0 32 17" fill="none" xmlns="http://www.w3.org/2000/svg">
<path fill-rule="evenodd" clip-rule="evenodd" d="M19.3499 10.4551C19.5935 11.7142 18.9336 12.7601 18.3853 13.7752C17.7762 14.7197 16.7709 15.5315 15.5627 15.41C12.8513 15.3694 10.2013 14.9531 7.74383 14.2116C7.63225 14.1813 7.52067 14.11 7.45959 14.0086C7.40875 13.8663 7.48007 13.7343 7.58141 13.6432C9.82565 11.8254 12.4961 10.983 15.1361 10.0992C16.1209 9.81495 17.1671 9.51024 18.2737 9.65253C18.7302 9.71361 19.1871 10.0286 19.3499 10.4551ZM28.6002 5.07364C29.8593 6.10925 30.9966 7.5209 30.6107 9.22668C29.9811 11.7449 27.2397 13.0853 25.0566 13.938C23.8684 14.3341 22.6704 14.7405 21.3706 14.8624C21.2894 14.8521 21.1574 14.8722 21.1369 14.7504L21.1673 14.6085C23.0153 12.5267 24.4164 10.1917 25.6455 7.82561C26.214 6.75929 26.7422 5.66293 27.2295 4.58637C27.3004 4.50516 27.3718 4.46455 27.453 4.43418C27.9095 4.47445 28.2347 4.83 28.6002 5.07364ZM10.8811 2.39298L10.8404 2.54516C8.17002 5.58104 6.4134 9.10452 4.74822 12.6075C4.42338 12.9123 4.10843 12.5059 3.81395 12.3738C2.33133 11.3993 0.990996 9.82519 1.37692 7.95699C1.99624 5.5203 4.50425 4.22057 6.59629 3.33749C7.83494 2.87035 9.12477 2.49466 10.4852 2.28139C10.6275 2.28105 10.8101 2.26092 10.8811 2.39298ZM24.1325 2.88024C24.2847 2.96146 24.4676 2.99182 24.559 3.14401C24.6403 3.31667 24.4778 3.42825 24.3864 3.54017C22.2844 5.18488 19.8781 6.09902 17.4206 6.90124C16.1714 7.20595 14.9123 7.7543 13.5215 7.44958C13.1963 7.36837 12.9021 7.15511 12.7192 6.84016C12.3739 5.88575 12.841 4.89074 13.2471 4.05815C13.7852 3.0123 14.74 1.78355 16.0598 1.76342C18.9029 1.74294 21.5836 2.16947 24.1325 2.88024ZM27.6458 2.96146C29.7986 4.13936 32.2356 6.2106 31.9817 8.97247C31.6872 11.5313 29.301 13.3183 27.1687 14.3949C20.9441 17.37 12.2016 17.4611 5.77394 14.862C3.60068 13.9584 1.16366 12.4049 0.249515 10.0692C-0.45102 8.15012 0.401701 6.14986 1.83382 4.81977C4.82909 2.0985 8.64706 1.16457 12.5769 0.626113C16.8419 0.108134 21.3297 0.565034 25.1477 1.875C26.0007 2.18995 26.8435 2.53527 27.6458 2.96146Z" fill="#003984"/>
</svg>
