<svg width="39" height="21" viewBox="0 0 39 21" fill="none" xmlns="http://www.w3.org/2000/svg">
<path d="M27.3727 14.9331L19.1957 3.94116L11.0188 14.9331C8.25737 14.665 3.51207 12.8688 3.51207 9.67842C3.51207 5.65697 10.4826 1.90362 19.2225 1.90362C28.4182 1.90362 34.933 5.65697 34.933 9.67842C34.933 12.8956 30.1609 14.6918 27.4263 14.9063M19.1957 0.723999C7.88204 0.723999 0 5.14759 0 10.858C0 13.539 1.71582 16.5417 5.36193 18.3647C8.76676 20.0538 13.5389 20.6436 14.2091 20.724L19.1957 6.16636L24.1823 20.724C27.2324 20.3823 30.2143 19.5871 33.0295 18.3647C36.6756 16.5417 38.3914 13.539 38.3914 10.858C38.3646 5.12078 30.5094 0.723999 19.1957 0.723999Z" fill="#231F20"/>
</svg>
