<svg width="32" height="7" viewBox="0 0 32 7" fill="none" xmlns="http://www.w3.org/2000/svg">
<g clip-path="url(#clip0_49_16902)">
<path d="M13.9309 6.20311C14.0443 6.20311 14.7339 6.19942 15.2906 6.16067C15.9634 6.11371 16.3101 5.88303 16.5642 5.55248C16.8793 5.1434 16.8773 4.3763 16.8769 3.77939C16.8765 3.11276 16.8857 1.18137 16.8828 1.00912C16.8806 0.836264 16.8152 0.746451 16.6175 0.748092C16.4196 0.749322 15.8617 0.748092 15.6701 0.749732L15.3289 0.748092C15.1311 0.746451 15.0659 0.836264 15.063 1.00912V1.19429C15.0659 1.39872 15.0603 3.34734 15.0595 3.8042V4.00659C15.0542 4.42736 15.0029 4.83664 14.4078 4.9C14.1511 4.92707 14.0334 4.93917 13.7154 4.93917C13.3969 4.93917 13.2796 4.92707 13.0194 4.9C12.4246 4.83746 12.3885 4.42736 12.3829 4.00659V3.8042C12.3821 3.34734 12.3766 1.39872 12.379 1.19429V1.00912C12.3766 0.836264 12.311 0.746451 12.1135 0.748092L11.7719 0.749732C11.5804 0.748092 11.0228 0.749322 10.8247 0.748092C10.6273 0.746451 10.5619 0.836264 10.5596 1.00912C10.5567 1.18137 10.5588 3.11276 10.558 3.77939C10.5576 4.3763 10.5559 5.1434 10.8707 5.55248C11.1241 5.88303 11.4662 6.11371 12.1367 6.16067C12.6934 6.19983 13.3625 6.20311 13.5107 6.20311H13.9309H13.9309ZM1.8383 5.9525C1.8344 6.14012 1.77904 6.21414 1.58691 6.21866C1.39416 6.22419 0.451118 6.22112 0.279284 6.21968C0.108269 6.21784 0.00287227 6.16596 0.00246216 5.98243C0.00123184 5.79912 0.00123184 1.18973 1.52621e-06 1.01462C-0.00040858 0.840324 0.0818176 0.757688 0.262469 0.763225C0.442711 0.767531 1.36893 0.758303 1.61479 0.76261C1.80078 0.761175 1.84445 0.868417 1.84507 1.05994C1.84958 1.31748 1.84281 5.7659 1.8383 5.9525M27.5341 4.08781C27.5376 4.52047 27.6422 4.81 28.138 4.8871C28.535 4.92811 29.072 4.93652 29.4841 4.89469C29.8614 4.85327 30.152 4.7003 30.169 4.27318C30.1881 3.91249 30.1897 3.85036 30.191 3.46998C30.193 2.54684 30.183 1.206 30.186 1.07435L30.1877 1.01837C30.1846 0.813934 30.2779 0.727607 30.451 0.727607L30.5545 0.724121C30.7516 0.725761 31.5445 0.727607 31.7364 0.727607C31.9095 0.727607 32.0028 0.813934 31.9999 1.01837L31.9975 1.08214C32.0012 1.27489 31.9952 3.31701 31.9932 3.91966C31.9823 4.22232 31.9608 4.92729 31.7276 5.37431C31.5246 5.76227 31.1613 6.06062 30.5434 6.12193C29.356 6.24025 28.2733 6.19104 27.4396 6.15618C26.8199 6.12419 26.4207 5.98537 26.0895 5.6173C25.7147 5.1953 25.695 4.47413 25.7005 3.64694C25.6933 1.82177 25.6878 1.29581 25.6907 1.12172V1.01837C25.6878 0.813934 25.7811 0.727607 25.9542 0.727607L26.0571 0.724121C26.256 0.725761 27.0787 0.727607 27.271 0.727607C27.4435 0.727607 27.5376 0.813934 27.5341 1.01837C27.5312 1.22363 27.5333 3.56103 27.5341 4.07592M18.2975 0.743786C18.4829 0.738249 21.7982 0.742145 22.8347 0.747887C23.7525 0.758139 24.0919 0.888758 24.341 1.22217C24.6285 1.60747 24.6582 2.09016 24.4259 2.48735C24.2592 2.77217 23.9508 3.02069 23.4882 3.24646C23.1209 3.4351 22.4779 3.72136 21.8494 3.99797C21.0077 4.36974 20.2455 4.69167 20.1173 4.75872C19.9439 4.84976 20.0095 4.98612 20.1473 4.98407C20.5069 4.97977 23.9797 4.95147 24.1651 4.95106C24.3513 4.95087 24.4118 5.01791 24.4118 5.21783C24.4114 5.42699 24.4134 5.7846 24.4138 5.9468C24.4095 6.1418 24.3474 6.19512 24.1626 6.19696C23.9516 6.19922 20.2523 6.20024 19.9892 6.20147C19.4044 6.20004 18.8021 6.20229 18.4429 6.0282C17.9942 5.81023 17.8425 5.37326 17.8421 5.06691C17.8634 4.32032 18.2794 4.08123 19.0291 3.73387C19.8627 3.35554 22.3233 2.29111 22.4699 2.22304C22.6516 2.13835 22.5952 1.97185 22.4266 1.97738C22.2972 1.98005 18.5282 1.99932 18.342 1.99912C18.1564 1.99851 18.0383 1.96857 18.0383 1.78853C18.0387 1.60931 18.0367 1.15984 18.0367 0.97488C18.0367 0.789102 18.1113 0.749732 18.2975 0.743785M8.56342 3.55135C7.72968 3.20501 5.29693 2.43545 4.97417 2.27572C4.81874 2.20887 4.8292 2.01038 5.03959 2.01038C5.39884 2.01571 8.96471 2.02268 9.1509 2.02391C9.33688 2.02432 9.41521 1.95194 9.41521 1.7516C9.41603 1.54265 9.41456 1.1592 9.41213 0.990854C9.40967 0.819635 9.34795 0.754838 9.19416 0.754428C9.04037 0.754428 4.92209 0.759349 4.92209 0.759349C3.77277 0.756684 3.4779 0.925852 3.15228 1.31689C2.72782 1.82706 2.86274 2.51768 3.10634 2.87385C3.38071 3.27227 3.83367 3.44841 4.55443 3.70063C5.42754 3.98463 7.48381 4.70785 7.48381 4.70785C7.67226 4.78925 7.6579 4.98672 7.42517 4.98672C7.42517 4.98672 3.50271 4.95145 3.31693 4.95104C3.13075 4.95085 3.03991 5.04167 3.03909 5.2215C3.03909 5.40134 3.03745 5.73086 3.03663 5.91786C3.03663 6.10282 3.09035 6.20842 3.27654 6.21499C3.4615 6.22134 6.83421 6.20863 7.87136 6.20658C8.66041 6.20453 9.42259 5.96072 9.57904 5.08925C9.67275 4.33834 9.35492 3.87287 8.56342 3.55135" fill="#E60012"/>
</g>
<defs>
<clipPath id="clip0_49_16902">
<rect width="32" height="5.49773" fill="white" transform="translate(0 0.724121)"/>
</clipPath>
</defs>
</svg>
