<svg width="32" height="8" viewBox="0 0 32 8" fill="none" xmlns="http://www.w3.org/2000/svg">
<path fill-rule="evenodd" clip-rule="evenodd" d="M28.2867 1.90456C28.8089 1.93354 29.1859 2.31069 29.244 2.80397C29.273 3.065 29.273 3.47113 29.273 3.73217C29.273 4.05135 29.273 4.31239 29.244 4.57342C29.1569 5.18281 28.7218 5.53098 28.2867 5.53098H27.9385H27.5322C27.126 5.53098 26.6617 5.18281 26.5748 4.57342C26.5458 4.31239 26.5458 4.05116 26.5458 3.76115C26.5458 3.47113 26.5458 3.065 26.5748 2.80378C26.6328 2.3105 27.0389 1.93335 27.5611 1.90437C27.6771 1.87539 27.7642 1.87539 27.9093 1.87539L28.2867 1.90456ZM27.9963 0.221863C28.5475 0.221863 29.0698 0.250845 29.5051 0.308811C30.7235 0.453913 31.71 1.41129 31.9129 2.6009C31.9419 2.80397 32 3.26807 32 3.73236C32 4.22563 31.9419 4.68973 31.9129 4.86381C31.71 6.08241 30.7235 7.0108 29.5051 7.18488C29.0698 7.21386 28.5475 7.27183 27.9963 7.27183H27.8222C27.242 7.27183 26.7489 7.21386 26.2846 7.18488C25.0662 7.0108 24.1088 6.08241 23.9056 4.86381C23.8766 4.68973 23.8186 4.22563 23.8186 3.73236C23.8186 3.26825 23.8766 2.80415 23.9056 2.6009C24.1086 1.41129 25.0662 0.454102 26.2846 0.308811C26.7489 0.250845 27.2421 0.221863 27.7932 0.221863H27.9963Z" fill="#003A80"/>
<path fill-rule="evenodd" clip-rule="evenodd" d="M17.5231 3.73217C17.5231 3.35501 17.5521 2.97805 17.639 2.60071C17.8421 1.4111 18.7994 0.453913 20.018 0.308621C20.4533 0.250845 20.9756 0.221863 21.5266 0.221863C22.136 0.221863 22.6873 0.250845 23.1514 0.308811C23.3255 0.337793 23.4414 0.482895 23.4414 0.65698V1.7013C23.4414 1.90437 23.2963 2.04947 23.1222 2.04947C23.1222 2.04947 22.571 2.0203 22.281 2.0203C21.9328 2.0203 21.6428 2.0203 21.3234 2.04947C20.8013 2.07845 20.4242 2.45561 20.366 2.94888C20.337 3.20991 20.3079 3.47113 20.3079 3.73217V3.76115C20.3079 4.02237 20.3368 4.2834 20.366 4.54444C20.4242 5.03771 20.7723 5.41486 21.3234 5.47283C21.6136 5.50181 21.9618 5.53098 22.281 5.53098C22.571 5.53098 23.1222 5.502 23.1222 5.502C23.2963 5.502 23.4414 5.6471 23.4414 5.85017V6.89468C23.4414 7.06876 23.3255 7.21386 23.1514 7.24285C22.6873 7.24285 22.136 7.27164 21.5266 7.27164C20.9756 7.27164 20.4533 7.21368 20.018 7.18469C18.7994 7.01061 17.8423 6.08222 17.639 4.86362C17.5521 4.51564 17.5231 4.13849 17.5231 3.76134C17.5231 2.57173 17.5231 4.92197 17.5231 3.73217Z" fill="#003A80"/>
<path fill-rule="evenodd" clip-rule="evenodd" d="M16.74 5.44387C16.9429 5.44387 17.088 5.61796 17.088 5.79204V6.83655C17.088 7.03962 16.9429 7.18472 16.74 7.18472H12.5912C11.8369 7.18472 11.2277 6.57552 11.2277 5.82122V1.70152C11.2277 0.947405 11.8369 0.338013 12.5912 0.338013H16.7398C16.9427 0.338013 17.0878 0.483115 17.0878 0.6572V1.67254C17.0878 1.87579 16.9427 2.02071 16.7398 2.02071H14.1869C13.9838 2.02071 13.8387 2.13683 13.8387 2.3399V2.97827L16.0147 2.94929C16.1886 2.94929 16.3627 3.12337 16.3627 3.29746V4.16788C16.3627 4.37095 16.1886 4.51605 16.0147 4.51605H13.8387V5.09627C13.8387 5.29934 13.9838 5.44444 14.1869 5.44444H16.74V5.44387Z" fill="#003A80"/>
<path fill-rule="evenodd" clip-rule="evenodd" d="M6.17953 7.18472C5.57033 7.18472 5.04807 6.7784 4.87399 6.22716L3.45251 0.744148C3.45251 0.715165 3.45251 0.686183 3.45251 0.6572C3.45251 0.483115 3.59762 0.338013 3.80068 0.338013H5.9185C6.09258 0.338013 6.23768 0.454132 6.26648 0.599045L7.36895 5.18303C7.36895 5.24118 7.42711 5.29896 7.51406 5.29896C7.57202 5.29896 7.62999 5.241 7.62999 5.18303L8.76144 0.599045C8.79043 0.453943 8.93553 0.338013 9.08063 0.338013H10.2701C10.4731 0.338013 10.6182 0.483115 10.6182 0.6572C10.6182 0.686183 10.6182 0.715165 10.6182 0.744148L9.25471 6.11142C9.10961 6.72062 8.61634 7.18472 7.92019 7.18472H6.17953Z" fill="#003A80"/>
<path fill-rule="evenodd" clip-rule="evenodd" d="M0.34817 0.337769H2.40802C2.61108 0.337769 2.75619 0.482871 2.75619 0.656956V6.8365C2.75619 7.03957 2.61108 7.18467 2.40802 7.18467H0.34817C0.174085 7.18467 0 7.03957 0 6.8365V0.656956C0 0.482871 0.174085 0.337769 0.34817 0.337769Z" fill="#003A80"/>
</svg>
