<svg width="32" height="14" viewBox="0 0 32 14" fill="none" xmlns="http://www.w3.org/2000/svg">
<path d="M26.6877 7.15969C26.6617 8.59518 26.9717 9.35554 28.1551 9.35554C29.3365 9.35554 29.506 8.06031 29.506 7.0747C29.506 6.08843 29.2819 5.13099 28.0406 5.13099C27.2792 5.13099 26.717 5.72267 26.6877 7.15969ZM24.2937 13.1584V3.44139H26.717C26.717 3.44139 26.717 3.5821 26.717 3.83555C26.717 4.36132 26.929 4.14451 27.0999 3.93962C27.1285 3.90537 27.6686 3.24431 28.8849 3.24431C30.0975 3.24431 31.984 4.089 31.984 7.0747C31.984 9.38416 30.8585 11.0738 28.9148 11.0738C27.8437 11.0738 27.2245 10.6521 27.083 10.4819C26.9412 10.3141 26.7443 10.2848 26.7443 10.4819C26.7443 10.6794 26.7443 13.1584 26.7443 13.1584H24.2937Z" fill="#231F20"/>
<path d="M5.56394 0.287701H8.18344C8.18344 0.287701 8.18344 5.97636 8.18344 7.15971C8.18344 8.34176 7.67589 10.821 4.04324 10.821C0.410152 10.821 0.0159912 8.51022 0.0159912 7.21565V5.94839H2.55093C2.55093 5.94839 2.55093 6.42711 2.55093 7.18703C2.55093 7.94738 3.05805 8.65115 4.01505 8.65115C4.97249 8.65115 5.56394 8.11628 5.56394 7.21565C5.56394 6.31437 5.56394 0.287701 5.56394 0.287701Z" fill="#231F20"/>
<path d="M13.6615 6.11729C13.6615 5.41244 13.268 4.73664 12.3668 4.73664C11.4937 4.73664 11.1836 5.35564 11.1836 6.11729H13.6615ZM12.1142 3.15978C14.1713 3.15978 15.973 3.9481 15.973 7.58141H11.101C11.101 8.73614 11.5793 9.21507 12.4242 9.21507C13.2693 9.21507 13.5508 8.53862 13.5508 8.53862H15.9454C15.9454 9.58105 14.5088 10.9892 12.3397 10.9613C9.86195 10.9613 8.65063 9.13052 8.65063 7.2434C8.65063 5.35564 9.72016 3.15978 12.1142 3.15978Z" fill="#231F20"/>
<path d="M21.45 6.11729C21.45 5.41244 21.0561 4.73664 20.1548 4.73664C19.2822 4.73664 18.9715 5.35564 18.9715 6.11729H21.45ZM19.9027 3.15978C21.9595 3.15978 23.7608 3.9481 23.7608 7.58141H18.8891C18.8891 8.73614 19.3678 9.21507 20.2134 9.21507C21.0576 9.21507 21.3395 8.53862 21.3395 8.53862H23.7341C23.7341 9.58105 22.2973 10.9892 20.1288 10.9613C17.6498 10.9613 16.4385 9.13052 16.4385 7.2434C16.4385 5.35564 17.5093 3.15978 19.9027 3.15978Z" fill="#231F20"/>
<path d="M30.38 11.9935C30.38 11.6086 30.6933 11.296 31.0794 11.296C31.4642 11.296 31.7769 11.6086 31.7769 11.9935C31.7769 12.3777 31.4642 12.6923 31.0794 12.6923C30.6933 12.6923 30.38 12.3777 30.38 11.9935ZM30.2993 11.9935C30.2993 12.4241 30.6479 12.7736 31.0794 12.7736C31.508 12.7736 31.8586 12.4241 31.8586 11.9935C31.8586 11.5629 31.508 11.2134 31.0794 11.2134C30.6479 11.2134 30.2993 11.5629 30.2993 11.9935Z" fill="#231F20"/>
<path d="M31.3919 12.3924L31.2299 12.0099C31.2813 11.9922 31.2985 11.9796 31.3258 11.9503C31.3613 11.9122 31.3837 11.8519 31.3837 11.7973C31.3837 11.6594 31.2776 11.5655 31.1239 11.5655H30.7987V12.3924H30.8952V12.0342H31.1302L31.2846 12.3924H31.3919ZM30.8926 11.9503V11.6555H31.122C31.2178 11.6555 31.2787 11.7101 31.2787 11.7946C31.2787 11.8907 31.2141 11.9503 31.1085 11.9503H30.8926Z" fill="#231F20"/>
</svg>
