<svg width="102" height="24" viewBox="0 0 102 24" fill="none" xmlns="http://www.w3.org/2000/svg">
<g clip-path="url(#clip0_49_16961)">
<path d="M59.1793 21.2462C59.1793 21.4399 59.2404 21.5522 59.3528 21.5522C59.4477 21.5522 59.5263 21.5013 59.5977 21.4501L91.3904 0.816087C91.9276 0.440606 92.5711 0.247497 93.2262 0.265185H100.213C101.284 0.265185 102.008 0.979038 102.008 2.05012V15.3914C102.008 17.0028 101.651 17.9414 100.223 18.798L91.7473 23.898C91.6627 23.9567 91.5627 24.0001 91.4618 24.0001C91.3609 24.0001 91.2579 23.9185 91.2579 23.6227V8.05795C91.2579 7.87422 91.207 7.75193 91.0844 7.75193C90.9949 7.75193 90.91 7.79771 90.8395 7.85403L67.6043 22.9498C67.0739 23.3067 66.4516 23.5007 65.8193 23.4905H50.4175C49.3362 23.4905 48.6224 22.7766 48.6224 21.6953V2.4688C48.6224 2.32603 48.5612 2.1935 48.4386 2.1935C48.3495 2.1935 48.2648 2.24018 48.1937 2.2956L32.8639 11.4953C32.7109 11.5974 32.6703 11.6688 32.6703 11.7402C32.6703 11.8013 32.701 11.8625 32.8028 11.9748L43.7573 22.9191C43.9001 23.0618 44.0022 23.1742 44.0022 23.2965C44.0022 23.3986 43.8389 23.4802 43.6453 23.4802H33.7513C32.976 23.4802 32.3742 23.3679 31.9561 22.9498L25.3161 16.32C25.2652 16.2591 25.192 16.2179 25.1121 16.2179C25.0402 16.2179 24.97 16.2423 24.9082 16.279L13.811 22.9498C13.1378 23.3579 12.6787 23.47 12.0158 23.47H1.80585C0.714584 23.4802 0.000427246 22.7561 0.000427246 21.685V8.59861C0.000427246 6.97693 0.357354 6.04862 1.79561 5.19199L10.3227 0.0718126C10.389 0.0267275 10.467 0.00192232 10.5471 0.000427246C10.6796 0.000427246 10.751 0.132956 10.751 0.428739V17.9519C10.751 18.1356 10.7917 18.217 10.9245 18.217C11.0149 18.217 11.098 18.1661 11.1796 18.1149L39.9838 0.785367C40.5347 0.407958 41.2079 0.224524 41.8811 0.254945H57.3847C58.4558 0.254945 59.1799 0.968799 59.1799 2.03988L59.1696 21.2462H59.1793Z" fill="black"/>
</g>
<defs>
<clipPath id="clip0_49_16961">
<rect width="102.008" height="24" fill="white"/>
</clipPath>
</defs>
</svg>
