<svg width="32" height="32" viewBox="0 0 32 32" fill="none" xmlns="http://www.w3.org/2000/svg">
<g clip-path="url(#clip0_49_16928)">
<path d="M16.2524 24.6394C20.5414 21.2648 22.5568 16.8972 23.4541 13.4633C24.3721 9.94683 24.5117 6.56814 24.5085 6.44739L24.5027 6.25707L24.3609 6.14081C20.8664 2.90846 16.3543 1.18073 16.1415 1.11071L16.0284 1.073L15.9157 1.11071C15.7029 1.18073 11.2999 2.90846 7.69636 6.14081L7.55407 6.25707L7.54867 6.44739C7.54508 6.56814 7.64473 9.9567 8.59949 13.4633C9.48287 16.7064 11.3578 21.3931 15.8048 24.6394L16.0284 24.8028L16.2524 24.6394Z" fill="#1A377A"/>
<path fill-rule="evenodd" clip-rule="evenodd" d="M16.0338 4.28589C15.2832 4.53008 10.9449 5.98533 8.30188 7.95544C8.30996 9.35818 8.77724 18.4537 16.0338 24.1037C23.1219 18.4537 23.7463 9.35773 23.7544 7.95544C21.1114 5.98533 16.7843 4.53008 16.0338 4.28589Z" fill="#CB9F18"/>
<path d="M15.8542 1.67896L15.8654 2.10539C15.7079 1.99541 15.4942 1.93706 15.2482 1.93706C15.1329 1.93706 14.9829 1.96579 14.8555 2.01561L14.8779 2.30738C15.0103 2.23242 15.1338 2.21761 15.2595 2.21761C15.6203 2.21761 15.8767 2.48783 15.8767 2.84603C15.8767 3.20199 15.6217 3.47446 15.2482 3.47446C15.1104 3.47446 14.9493 3.44977 14.8667 3.40712L14.8555 3.69889C14.9834 3.72897 15.1154 3.755 15.2482 3.755C15.4879 3.755 15.7043 3.70159 15.8654 3.5979L15.8542 3.97944H16.0225H16.2021V3.60912C16.3587 3.70114 16.5598 3.755 16.7856 3.755C16.9185 3.755 17.0505 3.72897 17.1784 3.69889L17.1672 3.40712C17.0846 3.44977 16.9234 3.47446 16.7856 3.47446C16.4126 3.47446 16.1909 3.20154 16.1909 2.84603C16.1909 2.48738 16.414 2.21761 16.7744 2.21761C16.9001 2.21761 17.0231 2.23197 17.156 2.30738L17.1784 2.01561C17.0509 1.96534 16.901 1.93706 16.7856 1.93706C16.5545 1.93706 16.3561 1.99676 16.2021 2.09416V1.67896H16.0225H15.8542Z" fill="#CB9F18"/>
<path d="M16.0225 4.28247V5.4271L18.6933 5.27C17.4014 4.74032 16.3578 4.3911 16.0225 4.28247ZM16.0225 5.4271V7.63781L20.2643 7.24505L23.7207 8.58045C23.7359 8.30574 23.7422 8.08938 23.7431 7.95203C23.3486 7.65801 22.9158 7.37926 22.4638 7.11038L20.2643 7.23383L16.0225 5.4271ZM16.0225 7.63781V7.64903V9.85975L20.2643 9.29865L23.5299 10.4433C23.6121 9.8777 23.6556 9.37855 23.687 8.97322L20.2643 9.28743L16.0225 7.63781ZM16.0225 9.85975V12.0817L20.2643 11.3635L23.1932 12.2724C23.2992 11.8007 23.3822 11.3541 23.4513 10.937L20.2643 11.341L16.0225 9.85975ZM16.0225 12.0817V14.2924L20.2643 13.4171L22.7107 14.0904C22.831 13.6985 22.9311 13.3165 23.0249 12.9458L20.2643 13.4059L16.0225 12.0817ZM16.0225 14.2924V16.5143L20.2643 15.4707L22.0711 15.8971C22.1896 15.6013 22.2941 15.3113 22.3965 15.0218L20.2643 15.4595L16.0225 14.2924ZM16.0225 16.5143V18.725L20.2643 17.5355L21.2406 17.7263C21.3273 17.5566 21.4067 17.3901 21.4875 17.2213L20.2643 17.5131L16.0225 16.5143ZM16.0225 18.725V18.7363V20.947L20.1297 19.634C20.1458 19.6098 20.1588 19.5801 20.1746 19.5555L16.0225 18.725ZM16.0225 20.947V23.1689L17.7843 22.5292C18.1506 22.1589 18.494 21.7814 18.8167 21.3958L16.0225 20.947ZM16.0225 23.1689V24.1003C16.3641 23.8341 16.6868 23.5612 16.9988 23.2811L16.0225 23.1689Z" fill="#CB9F18"/>
<path d="M16.0225 4.28247C15.6876 4.3911 14.6314 4.74032 13.3405 5.27L16.0225 5.4271V4.28247ZM16.0225 5.4271L11.7806 7.23383L9.58113 7.11038C9.12866 7.37971 8.6964 7.65756 8.30183 7.95203C8.30273 8.08983 8.29735 8.30439 8.31306 8.58045L11.7806 7.24505L16.0225 7.63781V5.4271ZM16.0225 7.63781L11.7806 9.28743L8.34672 8.97322C8.37814 9.37945 8.43246 9.87635 8.51505 10.4433L11.7806 9.29865L16.0225 9.85975V7.63781ZM16.0225 9.85975L11.7806 11.341L8.58238 10.937C8.65195 11.3549 8.74577 11.7989 8.85171 12.2724L11.7806 11.3635L16.0225 12.0817V9.85975ZM16.0225 12.0817L11.7806 13.4059L9.00881 12.9345C9.10307 13.3062 9.2135 13.6972 9.33425 14.0904L11.7806 13.4171L16.0225 14.2924V12.0817ZM16.0225 14.2924L11.7806 15.4595L9.63724 15.0218C9.74003 15.3127 9.85494 15.6 9.9739 15.8971L11.7806 15.4707L16.0225 16.5143V14.2924ZM16.0225 16.5143L11.7806 17.5131L10.5462 17.2213C10.6275 17.3914 10.7056 17.5553 10.7931 17.7263L11.7806 17.5355L16.0225 18.725V16.5143ZM16.0225 18.7363L11.8592 19.5555C11.874 19.5779 11.8892 19.6003 11.9041 19.6228L16.0225 20.947V18.7363ZM16.0225 20.947L13.217 21.3958C13.538 21.7792 13.8854 22.1612 14.2494 22.5292L16.0225 23.1689V20.947ZM16.0225 23.1689L15.035 23.2923C15.3465 23.572 15.6813 23.8346 16.0225 24.1003V23.1689Z" fill="#E3B80F"/>
<path d="M13.3516 5.27344C12.1801 5.75373 10.8069 6.38485 9.58107 7.11383L11.7806 7.23727L16.0224 5.43054L13.3516 5.27344ZM11.7806 7.24849L8.32422 8.58389C8.33095 8.7024 8.33544 8.83571 8.34666 8.97666L11.7806 9.29087L16.0224 7.64125L11.7806 7.24849ZM11.7806 9.30209L8.51499 10.4467C8.53788 10.6043 8.55449 10.7726 8.58232 10.9405L11.7806 11.3445L16.0224 9.86319L11.7806 9.30209ZM11.7806 11.3669L8.85165 12.2759C8.90013 12.4927 8.9513 12.7113 9.00875 12.938L11.7806 13.4093L16.0224 12.0851L11.7806 11.3669ZM11.7806 13.4205L9.33419 14.0938C9.42755 14.3991 9.52541 14.7097 9.63718 15.0253L11.7806 15.4629L16.0224 14.2958L11.7806 13.4205ZM11.7806 15.4741L9.97384 15.9006C10.1476 16.3342 10.3352 16.7835 10.5462 17.2247L11.7806 17.5165L16.0224 16.5178L11.7806 15.4741ZM11.7806 17.539L10.793 17.7297C11.1059 18.3411 11.4637 18.9516 11.8591 19.5589L16.0224 18.7285L11.7806 17.539ZM11.904 19.6262C12.2981 20.2264 12.7322 20.8202 13.217 21.3993L16.0224 20.9504L11.904 19.6262ZM14.2494 22.5327C14.5034 22.7899 14.7584 23.048 15.0349 23.2958L16.0224 23.1723L14.2494 22.5327Z" fill="#DA442D"/>
<path d="M18.6933 5.27344L16.0225 5.43054L20.2643 7.23727L22.4638 7.11383C21.2384 6.38485 19.8648 5.75418 18.6933 5.27344ZM20.2643 7.24849L16.0225 7.64125L20.2643 9.29087L23.6982 8.97666C23.7095 8.83392 23.7144 8.70374 23.7207 8.58389L20.2643 7.24849ZM20.2643 9.30209L16.0225 9.86319L20.2643 11.3445L23.4513 10.9405C23.4792 10.7713 23.507 10.6056 23.5299 10.4467L20.2643 9.30209ZM20.2643 11.3669L16.0225 12.0851L20.2643 13.4093L23.0249 12.9492C23.0828 12.7212 23.1443 12.494 23.1932 12.2759L20.2643 11.3669ZM20.2643 13.4205L16.0225 14.2958L20.2643 15.4629L22.3965 15.0253C22.5083 14.7088 22.6164 14.4009 22.7107 14.0938L20.2643 13.4205ZM20.2643 15.4741L16.0225 16.5178L20.2643 17.5165L21.4875 17.2247C21.6994 16.7822 21.8973 16.3355 22.0711 15.9006L20.2643 15.4741ZM20.2643 17.539L16.0225 18.7285L20.1746 19.5589C20.57 18.9516 20.9282 18.3411 21.2406 17.7297L20.2643 17.539ZM20.1297 19.6374L16.0225 20.9504L18.8167 21.3993C19.3001 20.8216 19.7365 20.2358 20.1297 19.6374ZM17.7843 22.5327L16.0225 23.1723L16.9988 23.2846C17.273 23.0386 17.532 22.7881 17.7843 22.5327Z" fill="#C83E29"/>
<path d="M14.3168 26.7858L14.2607 27.2346L15.3492 27.2234L15.3941 26.7858H14.3168ZM1.43404 26.797L1.01884 30.1187H2.10736L2.27569 28.7384H2.28691L2.96022 30.1074H4.16096L3.28566 28.3793L4.46395 26.797H3.33054L2.36546 28.1212H2.35424L2.51135 26.797H1.43404ZM22.7332 27.4142C22.252 27.4151 21.9526 27.5619 21.8915 28.0538L21.712 29.4902C21.6451 30.0289 21.953 30.1191 22.3404 30.1187H23.7319C24.166 30.1178 24.4569 29.9777 24.5175 29.4902L24.5399 29.2882H23.4514C23.4096 29.5122 23.2202 29.5796 23.1035 29.58C22.8189 29.58 22.8171 29.3587 22.8342 29.2209L22.8566 29.0301H24.5736L24.697 28.0426C24.7598 27.5381 24.4802 27.4137 24.0461 27.4142H22.7332ZM25.808 27.4142C25.4017 27.4146 25.1158 27.5596 25.0561 28.0426L24.8878 29.4566C24.8267 29.9481 25.0741 30.0854 25.4713 30.085H25.8304C26.0122 30.0846 26.2173 30.0617 26.3691 29.9279C26.4481 29.8588 26.4548 29.8318 26.5598 29.6249H26.5711L26.4813 30.3431H24.8429L24.7756 31.0052H26.7057C27.028 31.0052 27.4993 30.9527 27.5698 30.388L27.9289 27.4366H26.8404L26.7955 27.8182H26.7843C26.7151 27.5852 26.5697 27.4137 26.2007 27.4142H25.808ZM28.8154 27.4142C28.4881 27.4492 28.2729 27.62 28.2207 28.0426L28.0411 29.4566C27.9801 29.9481 28.2386 30.0854 28.6359 30.085H28.9838C29.1656 30.085 29.3702 30.0504 29.5224 29.9167C29.601 29.8475 29.6194 29.8318 29.7244 29.6249L29.6459 30.3319L28.0075 30.3431L27.9289 31.0052L29.8703 30.994C30.1926 30.9935 30.6639 30.9527 30.7344 30.388L31.0935 27.4366H30.005L29.9488 27.807C29.8797 27.574 29.7231 27.4137 29.3541 27.4142H28.9725C28.9218 27.4142 28.8622 27.4092 28.8154 27.4142ZM12.8579 27.4254C12.5406 27.4254 12.4274 27.499 12.308 27.5937C12.2084 27.6844 12.1904 27.7149 12.1285 27.8743H12.1173L12.1622 27.4591H11.0736L10.7482 30.1074H11.8367L12.0499 28.3681C12.0625 28.2644 12.1007 27.9645 12.409 27.9641C12.7264 27.9636 12.6923 28.2222 12.6784 28.3344L12.4652 30.1074L13.5537 30.0962L13.8006 28.0651C13.8656 27.5435 13.5887 27.425 13.2058 27.4254H12.8579ZM16.3255 27.4254C15.9192 27.4259 15.6333 27.5708 15.5736 28.0538L15.4053 29.4678C15.3442 29.9593 15.6028 30.0967 16 30.0962H16.3479C16.5297 30.0962 16.7349 30.0729 16.8866 29.9391C16.9656 29.87 16.9723 29.8431 17.0773 29.6361H17.0886L16.9988 30.3543H15.3716L15.2931 31.0164H17.2345C17.5567 31.0164 18.0173 30.9639 18.0873 30.3992L18.4464 27.4479H17.3579L17.313 27.8294H17.3018C17.2327 27.5964 17.0872 27.425 16.7182 27.4254H16.3255ZM19.3442 27.4254C19.0167 27.4613 18.7904 27.6316 18.7382 28.0538L18.6933 28.4129C18.6125 29.0643 19.0053 29.0777 19.4339 29.0863L20.3429 29.1087L20.3317 29.1872C20.3218 29.2649 20.2778 29.5683 19.9277 29.5688C19.8527 29.5688 19.7809 29.5558 19.7257 29.5127C19.67 29.4736 19.6341 29.4126 19.6359 29.3219H18.5586L18.5362 29.479C18.4621 30.0783 18.8675 30.1191 19.2319 30.1187H20.5674C21.0248 30.1182 21.3174 29.9445 21.3753 29.479L21.4202 29.1311C21.4952 28.5274 21.0589 28.5108 20.6908 28.5027L19.7706 28.4915L19.793 28.2895C19.8339 27.9618 20.1243 27.9641 20.1521 27.9641C20.1943 27.9641 20.2603 27.9771 20.3205 28.0202C20.3806 28.0633 20.4322 28.131 20.4215 28.2558H21.51L21.5324 28.0538C21.5912 27.5794 21.3533 27.425 20.9377 27.4254H19.4901C19.4393 27.4255 19.391 27.4203 19.3442 27.4254ZM5.50759 27.4366C5.19921 27.4371 4.76201 27.4703 4.68839 28.0651L4.50884 29.5015C4.44015 30.0531 4.76739 30.1416 5.15971 30.1411L6.50633 30.1299C6.95477 30.1294 7.25596 29.971 7.31431 29.5015L7.49386 28.0651C7.55536 27.5695 7.31386 27.4362 6.86544 27.4366H5.50759ZM8.68338 27.4366C8.20263 27.4375 7.90279 27.574 7.84174 28.0651L7.66219 29.5015C7.59531 30.0401 7.90323 30.1303 8.29061 30.1299H9.68213C10.1162 30.129 10.4071 29.9885 10.4677 29.5015L10.4901 29.3107H9.40158C9.35983 29.5351 9.17041 29.5908 9.0537 29.5912C8.76912 29.5912 8.76732 29.3704 8.78438 29.2321L8.80682 29.0526H10.5238L10.6472 28.0651C10.7101 27.5605 10.4304 27.4362 9.99634 27.4366H8.68338ZM15.3155 27.4479L14.227 27.4591L13.9016 30.0962H14.9901L15.3155 27.4479ZM26.4701 27.908C26.7829 27.9075 26.752 28.1903 26.7394 28.2895L26.6272 29.176C26.6186 29.2452 26.5809 29.5459 26.2681 29.5463C26.0113 29.5463 25.9808 29.3408 25.9987 29.1985L26.1222 28.2558C26.1419 28.0965 26.2272 27.9084 26.4701 27.908ZM29.5449 27.908C29.5706 27.9024 29.6043 27.908 29.6346 27.908C29.9475 27.908 29.9053 28.1903 29.8927 28.2895L29.7805 29.1648C29.772 29.2339 29.7343 29.5459 29.4214 29.5463C29.1647 29.5468 29.1454 29.3408 29.1633 29.1985L29.2755 28.2558C29.2928 28.1164 29.3649 27.9468 29.5449 27.908ZM16.9876 27.9192C17.3004 27.9192 17.2695 28.2015 17.2569 28.3007L17.1447 29.1872C17.1361 29.2564 17.0984 29.5571 16.7856 29.5576C16.5288 29.558 16.4987 29.352 16.5163 29.2097L16.6397 28.2671C16.6594 28.1073 16.7447 27.9196 16.9876 27.9192ZM23.2943 27.9528C23.4761 27.9528 23.6076 28.0601 23.5748 28.3232L23.5524 28.5027H22.9239L22.9464 28.2783C22.9711 28.0799 23.1165 27.9533 23.2943 27.9528ZM6.10235 27.9641C6.41522 27.9636 6.38065 28.2388 6.37167 28.3119L6.25945 29.2434C6.24329 29.3771 6.21322 29.5912 5.90035 29.5912C5.58749 29.5917 5.61442 29.3771 5.63103 29.2434L5.74325 28.3119C5.75221 28.2388 5.78993 27.9641 6.10235 27.9641ZM9.24447 27.9753C9.42626 27.9753 9.55779 28.0713 9.52502 28.3344L9.50258 28.5139H8.87415L8.8966 28.3007C8.92128 28.1028 9.06672 27.9757 9.24447 27.9753ZM24.4501 30.3319L18.4913 30.3431C18.4913 30.3431 18.4581 30.7938 18.2444 31.0052L24.3716 30.994L24.4501 30.3319ZM14.9564 30.3431L0.996391 30.3655L0.906616 31.0276L14.8779 31.0052L14.9564 30.3431Z" fill="#181A21" fill-opacity="0.941176"/>
<path d="M16.0225 1.68243V3.98292H16.202V3.6126C16.3587 3.70462 16.5598 3.75848 16.7855 3.75848C16.9184 3.75848 17.0504 3.73245 17.1783 3.70237L17.1671 3.4106C17.0845 3.45325 16.9234 3.47794 16.7855 3.47794C16.4125 3.47794 16.1908 3.20502 16.1908 2.84951C16.1908 2.49086 16.4139 2.22108 16.7743 2.22108C16.9 2.22108 17.023 2.23545 17.1559 2.31086L17.1783 2.01909C17.0508 1.96882 16.9009 1.94054 16.7855 1.94054C16.5544 1.94054 16.356 2.00024 16.202 2.09764V1.68243H16.0225Z" fill="#CB9F18"/>
<path d="M15.8542 1.68243L15.8654 2.10887C15.7079 1.99889 15.4942 1.94054 15.2482 1.94054C15.1329 1.94054 14.9829 1.96927 14.8555 2.01909L14.8779 2.31086C15.0103 2.2359 15.1338 2.22108 15.2595 2.22108C15.6203 2.22108 15.8767 2.49131 15.8767 2.84951C15.8767 3.20547 15.6217 3.47794 15.2482 3.47794C15.1104 3.47794 14.9493 3.45325 14.8667 3.4106L14.8555 3.70237C14.9834 3.73245 15.1154 3.75848 15.2482 3.75848C15.4879 3.75848 15.7043 3.70507 15.8654 3.60138L15.8542 3.98292H16.0225V1.68243H15.8542Z" fill="#E3B80F"/>
</g>
<defs>
<clipPath id="clip0_49_16928">
<rect width="32" height="31.7519" fill="white" transform="translate(0 0.174377)"/>
</clipPath>
</defs>
</svg>
