<svg width="32" height="18" viewBox="0 0 32 18" fill="none" xmlns="http://www.w3.org/2000/svg">
<path d="M18.5084 9.49915L17.1135 12.2385H17.0845L17.0139 9.49915H15.8471L15.8016 9.59771L15.9017 9.65876C15.9983 9.7268 16.0253 9.79585 16.0378 9.98597L16.1959 13.3102H17.4958L19.5937 9.49915H18.5084ZM14.3561 11.472C14.2256 11.8467 14.123 12.0879 13.9714 12.247C13.8523 12.3721 13.6952 12.4616 13.3335 12.4616C13.0498 12.4616 12.8917 12.3456 12.8917 12.1259C12.8897 11.9843 12.9282 11.7692 13.0798 11.3504C13.2109 10.9761 13.3134 10.735 13.4655 10.5759C13.5831 10.4508 13.7407 10.3607 14.103 10.3607C14.3867 10.3607 14.5443 10.4768 14.5438 10.6955C14.5468 10.839 14.5082 11.0542 14.3561 11.472ZM14.2956 9.45212H14.1745C13.4565 9.45212 13.0463 9.64575 12.7095 10.0035C12.2908 10.4463 11.8975 11.6436 11.905 12.277C11.913 12.9229 12.3308 13.3707 13.2089 13.3707H13.3375C14.0574 13.3707 14.4677 13.1771 14.8044 12.8194C15.2227 12.3756 15.608 11.1788 15.6005 10.5459C15.592 9.90042 15.1742 9.45212 14.2956 9.45212ZM10.7702 10.8826C10.7047 11.0452 10.6326 11.0842 10.5381 11.1227C10.4745 11.1478 10.3399 11.1568 10.2104 11.1568H9.70852L9.98171 10.3692H10.5881C10.7697 10.3692 10.8438 10.4638 10.8463 10.5714C10.8473 10.6399 10.8158 10.7655 10.7702 10.8826ZM10.6802 9.49915H9.03457L9.00155 9.59771L9.06809 9.66326C9.13814 9.7323 9.13564 9.81436 9.0741 9.99048L7.92432 13.3102H8.97503L9.42433 11.9923L9.78007 11.9928L10.1753 13.3102H11.231L10.7347 11.9618C11.0229 11.9153 11.1675 11.8327 11.3121 11.7041C11.5102 11.523 11.6473 11.2688 11.7609 10.8946C11.927 10.3517 11.8264 10.0415 11.7199 9.88241C11.5733 9.66326 11.2646 9.49915 10.6802 9.49915ZM21.7036 11.7817L21.9948 10.9846H20.6554L20.863 10.3762H22.314L22.6327 9.49665H19.8934L19.8553 9.60872L19.9209 9.67326C19.9914 9.74181 19.9884 9.82337 19.9274 10.0005L18.7866 13.3087H21.3463L21.6556 12.4231H20.1615L20.3817 11.7817H21.7036ZM24.7771 10.8826C24.7116 11.0452 24.6386 11.0842 24.5455 11.1227C24.4804 11.1478 24.3479 11.1568 24.2183 11.1568H23.7169L23.9876 10.3692H24.595C24.7756 10.3692 24.8507 10.4638 24.8522 10.5714C24.8542 10.6399 24.8217 10.7655 24.7771 10.8826ZM24.6856 9.49915H23.0405L23.0085 9.59771L23.0745 9.66326C23.1451 9.7323 23.1415 9.81436 23.081 9.99048L21.9302 13.3102H22.9824L23.4312 11.9928H23.7865L24.1822 13.3102H25.237L24.7416 11.9618C25.0293 11.9153 25.1739 11.8327 25.318 11.7041C25.5166 11.523 25.6542 11.2688 25.7678 10.8946C25.9339 10.3517 25.8334 10.0415 25.7273 9.88241C25.5807 9.66326 25.2715 9.49915 24.6856 9.49915ZM26.843 14.6136C23.9566 16.1051 20.1065 16.9266 16.0002 16.9266C11.8945 16.9266 8.04491 16.1051 5.15797 14.6136C2.3816 13.1786 0.851572 11.3099 0.851572 9.35255C0.851572 7.39373 2.3816 5.52498 5.15797 4.09101C8.04491 2.60001 11.8945 1.77746 16.0002 1.77746C20.1065 1.77746 23.9566 2.60001 26.843 4.09101C29.6199 5.52498 31.1484 7.39373 31.1484 9.35255C31.1484 11.3099 29.6199 13.1786 26.843 14.6136ZM27.2338 3.33451C24.2278 1.78146 20.2386 0.926388 16.0002 0.926388C11.7619 0.926388 7.77222 1.78146 4.7672 3.33451C2.98701 4.25462 0 6.25997 0 9.35255C0 12.4436 2.98701 14.4495 4.7672 15.3696C7.77172 16.9226 11.7609 17.7777 16.0002 17.7777C20.2391 17.7777 24.2283 16.9226 27.2338 15.3696C29.014 14.4495 32 12.4441 32 9.35255C32 6.25947 29.014 4.25462 27.2338 3.33451ZM26.4388 13.8316C23.3332 15.4356 19.4701 16.0455 16.0002 16.0455C12.5299 16.0455 8.66782 15.4356 5.56124 13.8316C3.91763 12.9815 1.73266 11.4154 1.73266 9.35255C1.73266 7.28766 3.91713 5.72311 5.56124 4.87354C8.66782 3.26946 12.5299 2.65955 16.0002 2.65955C19.4701 2.65955 23.3332 3.26846 26.4388 4.87354C28.0839 5.72311 30.2678 7.28766 30.2678 9.35255C30.2678 11.4164 28.0834 12.9815 26.4388 13.8316ZM26.5999 4.56083C23.4468 2.93023 19.5206 2.30631 16.0002 2.30631C12.4794 2.30631 8.55425 2.93073 5.39963 4.56083C3.62844 5.47544 1.38043 7.12655 1.38043 9.35255C1.38043 11.5765 3.62844 13.2287 5.39963 14.1443C8.55425 15.7734 12.4804 16.3978 16.0002 16.3978C19.5206 16.3978 23.4468 15.7744 26.5999 14.1443C28.3721 13.2287 30.6201 11.5765 30.6201 9.35255C30.6201 7.12655 28.3726 5.47544 26.5999 4.56083ZM8.04691 9.99048L5.17147 10.9361L4.82024 11.8998H7.35594L7.68616 10.9917H5.92848L7.92382 10.3162L8.04691 9.99048ZM19.4886 5.76814H19.9054C20.1891 5.76814 20.3457 5.8632 20.3492 6.08285C20.3517 6.22445 20.3136 6.41858 20.1665 6.83636C20.0365 7.21011 19.9324 7.42675 19.7848 7.58536C19.6662 7.71045 19.5086 7.76598 19.1469 7.76598H18.7986L19.4886 5.76814ZM18.575 5.35536L17.4372 8.67509H19.1158C19.8353 8.67509 20.2461 8.51549 20.5793 8.15825C20.9976 7.71595 21.3799 6.56518 21.3674 5.93175C21.3548 5.28532 20.9376 4.86453 20.0595 4.86453H18.5345L18.5024 4.9626L18.5685 5.02714C18.6385 5.09669 18.636 5.17875 18.575 5.35536ZM24.9092 6.23095H22.3735L22.0433 7.13806H23.8005L21.8047 7.81552L21.6816 8.14023L24.557 7.1946L24.9092 6.23095ZM13.5761 8.67309H14.5318L15.3653 6.20794L15.8527 8.67309H16.8093L18.1132 4.86303L17.1135 4.86453L16.417 6.93542L16.0193 4.86453H14.6719L14.6388 4.9626L14.7049 5.02714C14.7759 5.09669 14.7724 5.17875 14.7119 5.35536L13.5761 8.67309ZM6.72452 8.67509L9.32477 8.67409L9.63898 7.76598H8.12746L9.12613 4.86453H7.82226L7.78973 4.9626L7.85478 5.02714C7.92583 5.09669 7.92282 5.17875 7.86178 5.35536L6.72452 8.67509ZM12.2567 5.91774H12.2908L12.3088 7.06851H11.6073L12.2567 5.91774ZM9.59445 8.67309H10.7007L11.18 7.83103H12.3253L12.3368 8.67309H13.3405L13.1238 4.86453H11.6213L11.5878 4.9626L11.6363 5.01113C11.7154 5.08869 11.6828 5.20026 11.3902 5.66457L9.59445 8.67309Z" fill="black"/>
</svg>
