<svg width="32" height="33" viewBox="0 0 32 33" fill="none" xmlns="http://www.w3.org/2000/svg">
<g clip-path="url(#clip0_49_17907)">
<path d="M14.6387 20.8382H17.372L20.6133 25.8475H17.8747L17.524 25.3022H14.4867L14.1347 25.8488H11.3973L14.6387 20.8382ZM16.0053 22.9288L15.3947 23.8768H16.616L16.0053 22.9288ZM0 24.0768C0 15.1862 7.16267 7.98083 16 7.98083C24.8373 7.98083 32 15.1875 32 24.0782C32 24.6768 31.968 25.2675 31.904 25.8488H30.1067C30.1787 25.2688 30.216 24.6782 30.216 24.0782C30.216 16.1795 23.8507 9.77683 16 9.77683C8.148 9.77683 1.78533 16.1795 1.78533 24.0782C1.78533 24.6782 1.82133 25.2688 1.892 25.8488H0.0973333C0.0329151 25.2604 0.00042285 24.6688 0 24.0768ZM2.98267 20.8368H5.42267L7.04933 22.4742L8.676 20.8382H11.1173V25.8475H8.484V24.0075L7.05067 25.4502L5.616 24.0075V25.8475H2.98267V20.8368ZM20.876 20.8368H23.4453L26.3387 22.9968V20.8368H28.972V25.8475H26.3827L23.508 23.7075V25.8475H20.8747L20.876 20.8368Z" fill="black"/>
</g>
<defs>
<clipPath id="clip0_49_17907">
<rect width="32" height="32" fill="white" transform="translate(0 0.914185)"/>
</clipPath>
</defs>
</svg>
