<svg width="33" height="32" viewBox="0 0 33 32" fill="none" xmlns="http://www.w3.org/2000/svg">
<g clip-path="url(#clip0_49_5348)">
<path d="M16.5742 17.168C16.5262 17.168 16.4342 17.1067 16.2782 16.8213C15.6253 15.6057 14.7289 14.5377 13.6449 13.684C12.7942 13.0168 11.8498 12.4786 10.8422 12.0867C10.6895 12.0246 10.5362 11.9642 10.3822 11.9053C9.0329 11.372 7.63423 10.8213 6.33556 10.0693C6.19161 9.98784 6.04935 9.90338 5.9089 9.81599C6.16756 9.36266 6.46889 8.92933 6.80223 8.53333C7.28598 7.95512 7.84833 7.44753 8.47289 7.02533C9.14347 6.57698 9.86841 6.21585 10.6302 5.95066C12.2542 5.37199 14.1996 5.08799 16.5742 5.08533C18.9516 5.08799 20.8956 5.37199 22.5196 5.95199C23.2819 6.21627 24.0074 6.57698 24.6782 7.02533C25.3024 7.44746 25.8647 7.95457 26.3489 8.53199C26.6822 8.92933 26.9822 9.36266 27.2422 9.81599C27.1049 9.90133 26.9596 9.98799 26.8156 10.072C25.5142 10.824 24.1182 11.3747 22.7662 11.9067L22.3062 12.088C21.2996 12.4802 20.3562 13.0184 19.5062 13.6853C18.4218 14.5391 17.5253 15.6077 16.8729 16.824C16.7169 17.108 16.6236 17.168 16.5742 17.168ZM16.5742 26.5987C14.5156 26.596 12.8436 26.4267 11.4676 26.0827C10.1169 25.7467 8.99423 25.2293 8.0329 24.4987C7.29599 23.9328 6.66725 23.2385 6.1769 22.4493C5.71752 21.713 5.35456 20.9207 5.0969 20.092C4.69505 18.804 4.48524 17.4638 4.47423 16.1147C4.47423 15.216 4.5369 14.364 4.65423 13.58C6.12889 14.3747 7.5249 14.7733 8.76089 15.1267L9.04756 15.2067C10.7676 15.7013 12.1329 16.3493 13.2276 17.1907C13.8609 17.6813 14.4142 18.248 14.8676 18.876C15.3596 19.5533 15.7516 20.3267 16.0369 21.176C16.1649 21.5613 16.3036 21.8 16.5742 21.8C16.8502 21.8 16.9849 21.56 17.1142 21.176C17.6232 19.5929 18.6033 18.203 19.9236 17.192C21.0169 16.3493 22.3836 15.7013 24.1036 15.2067L24.3916 15.1267C25.6262 14.7733 27.0222 14.3747 28.4956 13.58C28.6156 14.3653 28.6769 15.216 28.6769 16.1133C28.6769 16.724 28.6156 18.332 28.0569 20.092C27.7994 20.9206 27.4369 21.7128 26.9782 22.4493C26.4864 23.239 25.8558 23.9333 25.1169 24.4987C24.1529 25.2293 23.0302 25.7467 21.6849 26.0827C20.3049 26.4267 18.6342 26.596 16.5742 26.5987ZM29.4969 7.19066C26.9516 4.45733 22.8436 3.20399 16.5742 3.19733C10.3076 3.20399 6.19956 4.45599 3.65423 7.18933C1.76223 9.21733 0.575562 12.024 0.575562 15.832C0.575562 17.9373 1.09556 23.2987 5.32756 26.0667C7.86089 27.7227 11.1329 28.7947 16.5742 28.8027C22.0182 28.7947 25.2889 27.7227 27.8236 26.0667C32.0542 23.2987 32.5756 17.936 32.5756 15.832C32.5756 12.0347 31.3796 9.20799 29.4956 7.18799L29.4969 7.19066Z" fill="black"/>
</g>
<defs>
<clipPath id="clip0_49_5348">
<rect width="32" height="32" fill="white" transform="translate(0.575562)"/>
</clipPath>
</defs>
</svg>
