<svg width="37" height="7" viewBox="0 0 37 7" fill="none" xmlns="http://www.w3.org/2000/svg">
<g clip-path="url(#clip0_49_5351)">
<path d="M7.29873 6.37065H8.83297V3.17337H7.94282C7.56649 3.17337 7.3132 3.34791 7.05267 3.57799C6.77043 3.84773 5.75001 4.81564 5.75001 4.81564V3.1813H4.84538C4.33156 3.1813 4.07103 3.37964 3.78879 3.62558C3.58615 3.78427 0.575562 6.37065 0.575562 6.37065H2.39928L4.20853 4.73631V6.37065H5.67764L7.29873 4.76011V6.37065ZM10.6495 6.37065H13.1317V5.54555H11.0981C10.91 5.54555 10.7073 5.41861 10.7073 5.01399V4.95845C10.7073 4.60144 10.8738 4.4507 11.0909 4.4507H13.1317V3.61766H10.5988C9.5639 3.61766 9.15139 4.10955 9.15139 4.87118V5.12506C9.15139 6.01364 9.60009 6.37065 10.6495 6.37065H10.6495ZM16.193 6.37065V5.52968H15.0061V3.1813H13.4646V6.37859H16.193V6.37065ZM19.1746 5.2996C19.1746 5.45828 19.1167 5.55348 18.943 5.55348H18.1108C17.9661 5.55348 17.872 5.50588 17.872 5.38687C17.872 5.25993 17.9299 5.18853 18.1108 5.18853H19.1746V5.2996ZM20.7089 5.2996V4.69664C20.7089 4.00641 20.2964 3.61766 19.4135 3.61766H16.6634V4.41103H18.8707C19.095 4.41103 19.1746 4.49037 19.1746 4.68077V4.71251H17.416C16.6779 4.71251 16.4173 5.05366 16.4173 5.49795V5.58522C16.4142 5.67279 16.4273 5.76016 16.4559 5.84199C16.4845 5.92383 16.528 5.99843 16.5838 6.06124C16.8009 6.28338 17.2134 6.35479 17.7706 6.35479H19.2977C20.2964 6.37065 20.7089 6.12471 20.7089 5.2996H20.7089ZM22.5833 4.4507H23.5458V3.61766H21.5773C21.2589 3.61766 21.0562 3.80014 21.0562 4.10955V6.37065H22.5977V4.4507H22.5833ZM26.5564 4.60144C26.5564 4.72044 26.5057 4.79185 26.332 4.79185H25.2392V4.68077C25.2392 4.5221 25.2971 4.4269 25.4781 4.4269H26.3175C26.455 4.4269 26.5564 4.4745 26.5564 4.60144H26.5564ZM28.011 4.53797V4.4269C28.011 3.97468 27.7794 3.6256 26.7011 3.6256H25.1162C24.1175 3.6256 23.705 3.99848 23.705 4.80772V5.28374C23.705 5.97397 24.1175 6.37066 25.0076 6.37066H27.8228V5.56935H25.5432C25.3188 5.56935 25.2392 5.49795 25.2392 5.30754V5.28374H27.005C27.6274 5.2758 28.011 5.05366 28.011 4.53797H28.011ZM32.4038 6.37065V4.83152C32.4038 3.87154 31.9841 3.61766 30.7393 3.61766H28.3005V6.37065H29.8419V4.51417H30.2545C30.7176 4.51417 30.8696 4.80771 30.8696 5.12506V6.37859H32.4038L32.4038 6.37065Z" fill="black"/>
<path d="M35.2769 0.753601C34.4953 0.753601 33.3736 1.00748 32.1578 1.49144C31.0798 1.92379 30.0464 2.47958 29.0748 3.14958C30.0066 2.7702 30.9903 2.56634 31.9841 2.54662C33.3591 2.54662 34.3578 3.12578 32.9032 5.16474C37.1947 2.0944 37.0717 0.753601 35.2769 0.753601Z" fill="black"/>
</g>
<defs>
<clipPath id="clip0_49_5351">
<rect width="36" height="5.625" fill="white" transform="translate(0.575562 0.753601)"/>
</clipPath>
</defs>
</svg>
