<svg width="32" height="15" viewBox="0 0 32 15" fill="none" xmlns="http://www.w3.org/2000/svg">
<g clip-path="url(#clip0_49_17624)">
<path d="M15.9999 0.421875C14.8214 0.422075 13.6618 0.719176 12.6284 1.28576C11.5949 1.85233 10.7208 2.67013 10.0868 3.66365H0L1.00416 4.66782H9.56285C9.4004 5.04573 9.27151 5.4372 9.17766 5.83771H2.17405L3.16597 6.82962H9.01529C8.99609 7.03181 8.98568 7.23475 8.98409 7.43785C8.98593 7.62541 8.9953 7.81281 9.01217 7.99962H4.33597L5.32788 8.99154H9.16472C9.25366 9.39156 9.37749 9.78302 9.53476 10.1614H6.49777L7.50193 11.1656H10.0663C10.6966 12.1706 11.5716 12.9994 12.6093 13.5745C13.647 14.1495 14.8136 14.452 15.9999 14.4537C17.1863 14.452 18.353 14.1496 19.3907 13.5745C20.4284 12.9995 21.3034 12.1707 21.9337 11.1656H24.4981L25.5022 10.1614H22.4652C22.6225 9.78302 22.7463 9.39156 22.8353 8.99154H26.6721L27.664 7.99962H22.9878C23.0047 7.81281 23.0141 7.62541 23.0159 7.43785C23.0144 7.23475 23.004 7.03182 22.9848 6.82962H28.834L29.8259 5.83771H22.8223C22.7285 5.4372 22.5996 5.04573 22.4372 4.66782H30.9958L32 3.66365H21.9132C21.2792 2.67011 20.4051 1.85231 19.3716 1.28573C18.3381 0.719146 17.1785 0.422055 15.9999 0.421875ZM15.9999 1.37288C16.7964 1.37288 17.5851 1.52975 18.3209 1.83455C19.0567 2.13934 19.7253 2.58608 20.2885 3.14927C20.8517 3.71245 21.2985 4.38105 21.6032 5.11689C21.908 5.85272 22.0649 6.64139 22.0649 7.43785C22.0649 8.23431 21.908 9.02298 21.6032 9.75881C21.2985 10.4946 20.8517 11.1632 20.2885 11.7264C19.7253 12.2896 19.0567 12.7364 18.3209 13.0412C17.5851 13.3459 16.7964 13.5028 15.9999 13.5028C14.3914 13.5028 12.8488 12.8638 11.7114 11.7264C10.574 10.589 9.93497 9.04638 9.93497 7.43785C9.93497 5.82932 10.574 4.28667 11.7114 3.14927C12.8488 2.01187 14.3914 1.37288 15.9999 1.37288ZM11.1752 5.8659V9.00968H11.8309V6.53504L12.5224 9.00968H13.2019L13.8958 6.53504V9.00968H14.5515V5.8659H13.4928L12.8658 8.01037L12.2315 5.8659H11.1752ZM15.2358 5.8659V9.00968H15.9416V5.8659H15.2358ZM16.6187 5.8659V9.00968H17.2744V6.95963L18.6836 9.00968H19.3918V5.8659H18.7361V7.9653L17.3055 5.8659H16.6187ZM20.119 5.8659V9.00968H20.8248V5.8659H20.119Z" fill="#120A08"/>
</g>
<defs>
<clipPath id="clip0_49_17624">
<rect width="32" height="14.0367" fill="white" transform="translate(0 0.419434)"/>
</clipPath>
</defs>
</svg>
