<svg width="47" height="41" viewBox="0 0 47 41" fill="none" xmlns="http://www.w3.org/2000/svg">
<path d="M5.66083 40.5579C6.1994 40.319 6.59823 39.9606 6.85941 39.4828C7.12058 39.005 7.2522 38.4057 7.2522 37.691C7.2522 36.9743 7.12058 36.377 6.85941 35.8972C6.59823 35.4194 6.1994 35.0611 5.66083 34.8242C5.12429 34.5853 4.44201 34.4679 3.61599 34.4679C2.78997 34.4679 2.11172 34.5853 1.58124 34.8242C1.05081 35.0611 0.653947 35.4194 0.392775 35.8972C0.131603 36.3771 0 36.9743 0 37.691C0 38.4057 0.131603 39.005 0.392775 39.4828C0.653952 39.9606 1.05076 40.319 1.58124 40.5579C2.11167 40.7947 2.79194 40.9142 3.6261 40.9142C4.44605 40.9142 5.12429 40.7947 5.66083 40.5579ZM2.35667 39.4464C2.0469 39.3087 1.82422 39.0961 1.69055 38.8066C1.5549 38.5171 1.48809 38.1486 1.48809 37.7011C1.48809 37.2456 1.55288 36.8751 1.68448 36.5897C1.81608 36.3042 2.03474 36.0896 2.34651 35.9438C2.65628 35.8001 3.07943 35.7272 3.61593 35.7272C4.16662 35.7272 4.59583 35.796 4.90157 35.9337C5.20931 36.0714 5.42796 36.286 5.55753 36.5755C5.68913 36.865 5.75392 37.2355 5.75392 37.691C5.75392 38.1526 5.68913 38.5232 5.55753 38.8066C5.42796 39.088 5.20525 39.3006 4.89142 39.4424C4.5776 39.5821 4.15242 39.6529 3.61593 39.6529C3.0855 39.6529 2.66641 39.5841 2.35662 39.4464M14.5346 34.5813V40.7988H15.9498V38.8775H18.0777C18.8977 38.8775 19.5111 38.7115 19.9161 38.3774C20.323 38.0433 20.5275 37.4967 20.5275 36.7394C20.5275 36.1968 20.4344 35.7677 20.2522 35.4538C20.07 35.14 19.8007 34.9173 19.4464 34.7816C19.0921 34.648 18.6365 34.5812 18.0777 34.5812L14.5346 34.5813ZM15.9498 37.6911V35.7576H17.9947C18.2923 35.7576 18.5231 35.794 18.6871 35.8669C18.8531 35.9398 18.9685 36.0451 19.0333 36.1827C19.0981 36.3204 19.1325 36.4945 19.1325 36.7091C19.1325 37.0614 19.0414 37.3125 18.8632 37.4623C18.683 37.6141 18.3955 37.691 17.9947 37.691L15.9498 37.6911ZM27.6137 40.7989H32.9625V39.5699H29.0267V38.2276H32.5697V37.0817H29.0267V35.8103H32.9423V34.5813H27.6136L27.6137 40.7989ZM46.5679 40.7989V39.5294H42.8082V34.5813H41.393V40.7988L46.5679 40.7989Z" fill="black"/>
<path d="M25.4872 30.1462C17.6867 30.1462 11.3403 23.7997 11.3403 15.9993C11.3403 15.5967 11.3609 15.1988 11.3954 14.8054L23.2215 15.5438L18.1033 19.0818C18.0342 19.1301 17.9882 19.2106 17.9882 19.3003C17.9882 19.4475 18.1079 19.5694 18.2551 19.5694H39.1789C37.5917 25.6468 32.0545 30.1465 25.4872 30.1465M25.4872 1.85212C33.29 1.85212 39.6341 8.19857 39.6341 15.999C39.6341 16.3993 39.6134 16.795 39.5812 17.186H39.5743L27.7483 16.4337L32.8803 12.9165C32.9516 12.8682 32.9953 12.7877 32.9953 12.698C32.9953 12.5485 32.8757 12.4288 32.7285 12.4288H11.7976C13.3825 6.3515 18.9196 1.8518 25.4869 1.8518M45.7689 17.5793L41.8974 17.3331L41.4304 17.3032C41.4649 16.8731 41.4879 16.4382 41.4879 15.9989C41.4879 7.17738 34.3106 0 25.4867 0C17.8912 0 11.5211 5.32074 9.89286 12.4285H6.35722C6.1571 12.4285 5.97997 12.5228 5.86725 12.67L4.96319 13.9191C4.9218 13.972 4.89648 14.0388 4.89648 14.1101C4.89648 14.2803 5.0345 14.4183 5.20703 14.4183L9.06243 14.6575L9.54551 14.6898C9.511 15.1222 9.48803 15.557 9.48803 15.9987C9.48803 24.8202 16.6654 32 25.487 32C33.0825 32 39.4548 26.677 41.0807 19.5691H44.6187C44.8188 19.5691 44.9959 19.4748 45.1087 19.3276L46.0127 18.0785C46.0541 18.0256 46.0771 17.9589 46.0771 17.8876C46.0771 17.7173 45.9391 17.5793 45.7689 17.5793" fill="black"/>
</svg>
