<svg width="33" height="33" viewBox="0 0 33 33" fill="none" xmlns="http://www.w3.org/2000/svg">
<g clip-path="url(#clip0_49_16769)">
<path d="M16.3613 0.506958C15.4525 0.511253 14.5442 0.55173 13.6386 0.628291C11.7299 0.786255 9.83628 1.09161 7.97465 1.54162C6.62536 1.88263 5.30022 2.31292 4.00798 2.82962L3.92798 2.85896C3.92798 2.85896 4.08531 12.5163 4.20798 17.3003C4.23958 18.7088 4.49569 20.1032 4.96665 21.431C5.51167 22.9416 6.23786 24.3805 7.12931 25.7163C8.06196 27.0957 9.1902 28.3322 10.4786 29.387C10.9823 29.8094 11.5132 30.1983 12.068 30.551C12.938 31.0766 13.8464 31.5361 14.7853 31.9256C15.096 32.0563 15.3666 32.1816 15.612 32.2656C15.8685 32.3637 16.1313 32.4443 16.3986 32.507C16.666 32.4439 16.9288 32.3628 17.1853 32.2643C17.428 32.1803 17.7013 32.0563 18.012 31.9243C18.9505 31.5347 19.8583 31.0752 20.728 30.5496C21.2836 30.197 21.8154 29.8081 22.32 29.3856C23.6079 28.3312 24.7357 27.0952 25.668 25.7163C26.5595 24.3806 27.2857 22.9416 27.8306 21.431C28.3021 20.1033 28.5586 18.7088 28.5906 17.3003C28.712 12.5163 28.8706 2.86429 28.8706 2.86429C28.8459 2.85149 28.8205 2.83992 28.7946 2.82962C27.502 2.31286 26.1764 1.88257 24.8266 1.54162C22.965 1.09205 21.0713 0.787139 19.1626 0.629625C18.257 0.553156 17.3488 0.512235 16.44 0.506958L16.3613 0.506958ZM16.3613 0.988291H16.4373C17.3426 0.998958 18.1546 1.02829 19.0546 1.10829C20.89 1.26105 22.7106 1.55661 24.5 1.99229C25.798 2.32322 27.0724 2.7406 28.3146 3.24162C28.3405 3.25145 28.3659 3.26258 28.3906 3.27496L28.34 6.30696C28.332 6.30172 28.3235 6.29726 28.3146 6.29362C27.0728 5.79273 25.7988 5.37535 24.5013 5.04429C22.7114 4.60913 20.8904 4.31401 19.0546 4.16162C18.1546 4.08162 17.3466 4.02829 16.4413 4.01762H16.364C15.4586 4.02962 14.644 4.08162 13.744 4.16162C11.9086 4.31539 10.088 4.61184 8.29865 5.04829C7.00064 5.37972 5.72625 5.79754 4.48398 6.29896C4.47468 6.30253 4.46575 6.307 4.45731 6.31229L4.40665 3.27096L4.48398 3.24162C5.72582 2.74064 6.99977 2.32327 8.29731 1.99229C10.0875 1.55601 11.9091 1.26 13.7453 1.10696C14.6453 1.02696 15.456 1.00029 16.3613 0.988291ZM16.7453 1.27629C16.3444 1.26897 15.9434 1.27253 15.5426 1.28696C15.3813 1.29362 15.1586 1.43229 15.156 1.59362L15.1466 2.45762C15.144 2.63362 15.376 2.77229 15.5533 2.77629C16.1693 2.78962 16.7133 2.77896 17.3106 2.81629C17.3546 2.82029 17.3933 2.84696 17.3933 2.89096L17.3893 3.06429C17.3901 3.07243 17.3891 3.08065 17.3864 3.08836C17.3837 3.09608 17.3793 3.1031 17.3736 3.10895C17.3679 3.11479 17.361 3.11932 17.3533 3.1222C17.3457 3.12508 17.3375 3.12625 17.3293 3.12562C16.6346 3.12562 15.908 3.09229 15.2053 3.14829C15.168 3.15096 15.1693 3.14162 15.168 3.17896L15.136 3.69096L15.1333 3.73096C15.9691 3.68268 16.8069 3.68268 17.6426 3.73096C17.7402 3.72799 17.8337 3.6917 17.9077 3.62814C17.9817 3.56457 18.0317 3.47757 18.0493 3.38162L18.0573 2.54562C18.0573 2.37362 17.8466 2.24696 17.7093 2.23896C17.12 2.20162 16.4493 2.22162 15.8506 2.20562C15.8423 2.2053 15.8342 2.20329 15.8267 2.19972C15.8192 2.19615 15.8125 2.19109 15.807 2.18486C15.8015 2.17862 15.7974 2.17134 15.7948 2.16345C15.7922 2.15556 15.7913 2.14723 15.792 2.13896L15.804 1.94562C15.804 1.90829 15.8293 1.89762 15.8666 1.89629C16.4586 1.87496 17.3426 1.90296 17.9493 1.92162C17.9715 1.91788 17.9916 1.9065 18.0062 1.88944C18.0208 1.87239 18.029 1.85075 18.0293 1.82829V1.40562C18.0293 1.38296 17.9866 1.31629 17.9453 1.31496C17.5455 1.29708 17.1455 1.2833 16.7453 1.27629ZM14.2386 1.36162C13.6746 1.37229 12.4506 1.52829 11.756 1.61496L11.752 4.02696V4.05762L12.3786 3.97762C12.3813 3.97733 12.3839 3.97646 12.3862 3.97508C12.3885 3.9737 12.3905 3.97184 12.392 3.96962C12.395 3.96586 12.3964 3.96109 12.396 3.95629V3.25896L13.6586 3.12296C13.7693 3.10296 13.8986 3.18429 14 3.34829C14.0811 3.48696 14.1328 3.64081 14.152 3.80029L14.7746 3.75362C14.788 3.75362 14.8146 3.75362 14.812 3.74029C14.7935 3.40415 14.647 3.08783 14.4026 2.85629C14.484 2.82335 14.5531 2.76581 14.6002 2.69171C14.6473 2.6176 14.6701 2.53063 14.6653 2.44296C14.6719 2.19192 14.6621 1.94072 14.636 1.69096C14.6147 1.59978 14.564 1.51814 14.4917 1.45862C14.4194 1.39911 14.3296 1.36502 14.236 1.36162H14.2386ZM19.0253 1.38696C18.8956 1.382 18.7684 1.42406 18.6673 1.5054C18.5661 1.58673 18.4977 1.70187 18.4746 1.82962L18.4613 3.42296C18.4656 3.51323 18.4991 3.59966 18.5568 3.66918C18.6146 3.73871 18.6934 3.78754 18.7813 3.80829C19.5946 3.88429 20.3946 3.95762 21.3013 4.09496C21.316 4.09496 21.344 4.08562 21.344 4.07229V3.51762C21.344 3.50562 21.3173 3.48029 21.308 3.47762C20.7026 3.40162 19.904 3.29496 19.1893 3.22029C19.1681 3.21515 19.1491 3.20328 19.1352 3.18646C19.1212 3.16964 19.1131 3.14877 19.112 3.12696V2.04429C19.112 1.99896 19.1786 1.97496 19.224 1.97762C19.9293 2.03629 20.632 2.16429 21.336 2.24029C21.3546 2.24296 21.384 2.23096 21.3853 2.21229L21.3986 1.70296C21.3977 1.69246 21.3935 1.68252 21.3865 1.6746C21.3796 1.66668 21.3703 1.6612 21.36 1.65896C20.5845 1.54947 19.8052 1.45878 19.0253 1.38696ZM21.6653 1.70296C21.6493 1.70296 21.636 1.72162 21.636 1.73629C21.628 2.10162 21.576 3.67896 21.5653 4.09896V4.13496C21.772 4.17096 22 4.19896 22.1693 4.23362C22.188 4.23629 22.216 4.22296 22.216 4.20429C22.2133 3.92829 22.216 3.60696 22.2106 3.35629C22.2106 3.33896 22.2186 3.33762 22.2373 3.34029C22.7288 3.42929 23.2187 3.52709 23.7066 3.63362C23.7173 3.63362 23.776 3.64296 23.776 3.67362C23.772 3.96296 23.7666 4.20696 23.7586 4.49629C23.7582 4.50785 23.7615 4.51923 23.768 4.52882C23.7744 4.5384 23.7838 4.54568 23.7946 4.54962C23.988 4.59363 24.172 4.63896 24.3546 4.68296C24.404 4.69362 24.412 4.68429 24.4133 4.66696C24.4426 4.06562 24.4533 3.10162 24.4613 2.28829C24.4613 2.27762 24.4573 2.26162 24.448 2.25896C24.244 2.21229 24.052 2.16296 23.844 2.11896C23.8253 2.11496 23.8146 2.14562 23.8133 2.16562C23.7933 2.46296 23.8013 2.73896 23.7786 3.03496C23.7786 3.04562 23.7786 3.05096 23.7666 3.04829C23.2733 2.94696 22.7466 2.83762 22.2573 2.74562C22.244 2.74296 22.2493 2.71896 22.2506 2.70429L22.2546 1.83362C22.254 1.8241 22.2503 1.81504 22.244 1.80783C22.2377 1.80061 22.2293 1.79563 22.22 1.79362C22.0349 1.76172 21.8509 1.73149 21.6653 1.70296ZM10.9773 1.73362C10.9609 1.73262 10.9444 1.73262 10.928 1.73362C10.204 1.84829 9.47598 2.00162 8.74131 2.16029C8.6235 2.19442 8.51738 2.2604 8.43465 2.35096C8.35735 2.42233 8.30896 2.51959 8.29865 2.62429L8.30398 4.11496C8.30961 4.24576 8.35943 4.3708 8.44531 4.46962C8.47458 4.51505 8.51487 4.55232 8.56243 4.57797C8.61 4.60361 8.66328 4.6168 8.71731 4.61629C9.4399 4.45707 10.1659 4.31348 10.8946 4.18562C11.0346 4.15258 11.16 4.07489 11.252 3.96429C11.3306 3.88083 11.3769 3.77212 11.3826 3.65762L11.38 2.10696C11.3753 2.05517 11.3598 2.00493 11.3345 1.95947C11.3093 1.914 11.2748 1.87432 11.2333 1.84296C11.1636 1.7786 11.0734 1.74084 10.9786 1.73629L10.9773 1.73362ZM13.8533 1.99629C13.8795 1.9948 13.9053 2.00356 13.9252 2.02073C13.9451 2.03789 13.9576 2.06212 13.96 2.08829L13.964 2.34029C13.9631 2.39302 13.944 2.44383 13.91 2.48414C13.876 2.52446 13.8291 2.55182 13.7773 2.56162L12.3613 2.70029L12.3493 2.68962V2.14696L12.3613 2.14162L13.8426 1.99762C13.8462 1.99744 13.8498 1.99744 13.8533 1.99762V1.99629ZM10.4933 2.38296C10.5299 2.38405 10.5656 2.39412 10.5973 2.41229C10.6209 2.42726 10.64 2.44827 10.6526 2.47312C10.6653 2.49798 10.671 2.52578 10.6693 2.55362L10.6573 3.49229C10.6585 3.51917 10.6532 3.54594 10.6418 3.57032C10.6305 3.5947 10.6134 3.61596 10.592 3.63229C10.544 3.66488 10.4893 3.68629 10.432 3.69496C9.98958 3.78308 9.54645 3.86753 9.10264 3.94829C9.08262 3.95331 9.06174 3.95389 9.04146 3.94997C9.02119 3.94605 9.00203 3.93774 8.98531 3.92562C8.97 3.90725 8.95856 3.88596 8.95168 3.86305C8.94481 3.84013 8.94264 3.81606 8.94531 3.79229V2.82429C8.94606 2.77598 8.96512 2.72975 8.99864 2.69496C9.04341 2.65381 9.09886 2.62608 9.15865 2.61496C9.54531 2.54296 10.052 2.44296 10.4493 2.38562C10.4639 2.38328 10.4786 2.38239 10.4933 2.38296ZM24.9066 2.38296L24.9053 2.38429C24.8946 2.38429 24.8946 2.40029 24.8946 2.40962C24.876 3.21762 24.8546 3.96562 24.848 4.77362C24.848 4.79096 24.856 4.81362 24.872 4.81763C25.8463 5.07959 26.8067 5.39111 27.7493 5.75096C27.792 5.76562 27.7906 5.73362 27.7906 5.72162C27.7946 5.53762 27.804 5.35096 27.7946 5.16696C27.7935 5.15733 27.7898 5.14817 27.7839 5.14044C27.7781 5.13271 27.7703 5.12668 27.7613 5.12296C27.0367 4.84386 26.2979 4.60308 25.548 4.40162C25.5407 4.39916 25.5344 4.3945 25.5298 4.3883C25.5253 4.38209 25.5228 4.37464 25.5226 4.36696L25.5333 4.12696C25.5333 4.11629 25.552 4.11362 25.5626 4.11629C26.3143 4.32725 27.0571 4.56833 27.7893 4.83896C27.8026 4.84296 27.8026 4.82562 27.8026 4.81362C27.8122 4.60573 27.8122 4.39752 27.8026 4.18962C27.8022 4.18183 27.7994 4.17435 27.7947 4.16816C27.7899 4.16197 27.7834 4.15737 27.776 4.15496C27.0576 3.89343 26.329 3.66079 25.592 3.45762C25.5813 3.45496 25.568 3.44429 25.568 3.43362V3.17762C25.568 3.16696 25.5853 3.16029 25.596 3.16429C26.348 3.35629 27.1746 3.64429 27.7493 3.85629C27.8 3.87496 27.8293 3.86696 27.8293 3.82029C27.8293 3.61096 27.8373 3.59629 27.8266 3.38829C27.824 3.36162 27.8213 3.33496 27.7973 3.32562C26.8508 2.96017 25.8854 2.6455 24.9053 2.38296H24.9066ZM7.61331 2.46829C7.57564 2.46794 7.53806 2.47197 7.50131 2.48029C6.63465 2.70162 5.76398 3.03229 4.89331 3.34962C4.8814 3.35694 4.87151 3.36711 4.86452 3.37922C4.85754 3.39133 4.85368 3.40499 4.85331 3.41896V5.37362L4.85731 5.81362C4.85731 5.81362 5.48531 5.57762 5.62131 5.53362C5.63865 5.52829 5.63865 5.51096 5.63865 5.49229L5.62531 4.79896C5.62531 4.77896 5.62798 4.74962 5.64665 4.74562L7.81331 4.07629C7.8862 4.0498 7.95002 4.00309 7.99731 3.94162C8.04451 3.88279 8.0691 3.80901 8.06665 3.73362L8.04398 2.82296C8.03834 2.77024 8.02121 2.7194 7.9938 2.67402C7.96638 2.62863 7.92935 2.58981 7.88531 2.56029C7.80581 2.50344 7.71103 2.47185 7.61331 2.46962V2.46829ZM7.23198 3.12962C7.27998 3.11629 7.32531 3.17096 7.32798 3.21362C7.34079 3.32425 7.34614 3.43561 7.34398 3.54696C7.34265 3.60696 7.25598 3.67629 7.19731 3.69362L5.61865 4.20829C5.60398 4.21362 5.57731 4.20829 5.57731 4.19229L5.57998 3.71496C5.57998 3.69229 5.60664 3.67362 5.62798 3.66696C6.15165 3.45656 6.68724 3.27714 7.23198 3.12962ZM16.5213 4.43762C17.392 4.45096 18.1826 4.47762 19.0546 4.55496C20.8895 4.70782 22.7097 5.00338 24.4986 5.43896C25.7967 5.76978 27.0711 6.18715 28.3133 6.68829C28.3198 6.69094 28.326 6.69406 28.332 6.69763C28.3284 6.89673 28.3253 7.09584 28.3226 7.29496H16.5213V4.43762ZM16.0986 4.44029L16.0973 10.5976H12.168C12.1106 10.5923 12.148 10.567 12.188 10.5283C12.4695 10.318 12.7957 10.1757 13.1413 10.1123C13.1706 10.1096 13.1786 10.0936 13.1373 10.0403C12.978 9.88146 12.7773 9.7707 12.5579 9.72071C12.3386 9.67072 12.1097 9.68351 11.8973 9.75763C11.7064 9.81922 11.5322 9.9237 11.388 10.0631C11.2438 10.2024 11.1334 10.373 11.0653 10.5616C11.0625 10.5736 11.0557 10.5843 11.046 10.5918C11.0363 10.5993 11.0243 10.6033 11.012 10.603C10.8034 10.616 10.5943 10.6218 10.3853 10.6203C10.352 10.6203 10.336 10.5776 10.3386 10.5456C10.366 10.4122 10.4208 10.286 10.4995 10.1749C10.5782 10.0638 10.6792 9.9703 10.796 9.90029C11.0029 9.764 11.241 9.68235 11.488 9.66296C11.4963 9.66047 11.5039 9.65598 11.5101 9.64989C11.5163 9.6438 11.5209 9.63628 11.5235 9.62801C11.5261 9.61973 11.5267 9.61093 11.5252 9.60238C11.5236 9.59383 11.52 9.58579 11.5146 9.57896C11.4739 9.53143 11.4267 9.48971 11.3746 9.45496C11.1692 9.34417 10.9318 9.30789 10.7026 9.35229C10.3746 9.3841 10.0682 9.53031 9.83711 9.7653C9.60602 10.0003 9.46496 10.3091 9.43865 10.6376C9.42531 10.7176 9.44665 10.7363 9.36798 10.763C9.21865 10.8136 8.93865 10.8483 8.78931 10.8803C8.76265 10.8843 8.72265 10.823 8.72931 10.7963C8.78471 10.543 8.89585 10.3052 9.05465 10.1003C9.17547 9.93825 9.33135 9.80562 9.51065 9.71229C9.54531 9.69496 9.57731 9.65363 9.54531 9.62696C9.20798 9.33362 8.51731 9.64296 8.23865 9.94829C7.97552 10.296 7.84546 10.7264 7.87198 11.1616C7.87198 11.183 7.89065 11.2163 7.87198 11.2243C7.69717 11.2986 7.51922 11.3653 7.33864 11.4243C7.32265 11.4283 7.31998 11.387 7.31731 11.371C7.26396 11.0561 7.33417 10.7327 7.51331 10.4683C7.5916 10.3344 7.70382 10.2236 7.83864 10.147C7.85198 10.139 7.84931 10.123 7.83864 10.1096C7.68531 9.91096 7.07998 10.0536 6.89465 10.235C6.46798 10.651 6.49865 11.055 6.47865 11.6976C6.47731 11.7283 6.43865 11.8456 6.40398 11.8616C6.32823 11.9067 6.24522 11.9383 6.15865 11.955C6.13065 11.963 6.12798 11.9736 6.12131 11.9456C6.09828 11.8706 6.05858 11.8018 6.00517 11.7443C5.95177 11.6868 5.88605 11.6422 5.81294 11.6137C5.73983 11.5852 5.66122 11.5737 5.58301 11.5799C5.5048 11.5861 5.429 11.61 5.36131 11.6496C5.30416 11.6864 5.25556 11.735 5.21881 11.7921C5.18205 11.8493 5.15799 11.9136 5.14826 11.9809C5.13853 12.0481 5.14334 12.1167 5.16239 12.1819C5.18143 12.2471 5.21426 12.3075 5.25865 12.359C5.27865 12.3816 5.28531 12.4043 5.25465 12.4136C5.18334 12.4356 5.11714 12.4715 5.05992 12.5194C5.00271 12.5673 4.95564 12.6261 4.92149 12.6925C4.88733 12.7588 4.86677 12.8313 4.86102 12.9057C4.85526 12.98 4.86443 13.0548 4.88798 13.1256C4.92005 13.2052 4.97429 13.2739 5.04426 13.3235C5.11422 13.3731 5.19696 13.4016 5.28265 13.4056C5.45812 13.4105 5.63069 13.3602 5.77598 13.2616C5.78211 13.2572 5.78904 13.2541 5.79637 13.2524C5.80371 13.2507 5.81131 13.2505 5.81874 13.2517C5.82617 13.253 5.83328 13.2556 5.83967 13.2596C5.84606 13.2636 5.8516 13.2688 5.85598 13.275C5.92804 13.3907 6.04306 13.473 6.17579 13.504C6.30852 13.535 6.44813 13.5121 6.56398 13.4403C6.77998 13.2976 6.87598 13.0763 6.71598 12.695C6.70665 12.6736 6.74265 12.6336 6.76131 12.623C8.03867 11.8877 9.47989 11.4844 10.9533 11.4496C11.161 11.4676 11.3654 11.5129 11.5613 11.5843C11.572 11.5865 11.5823 11.5901 11.592 11.595L11.5946 12.8496C11.5808 12.8624 11.5656 12.8736 11.5493 12.883C11.2757 13.0506 11.0713 13.3108 10.9733 13.6163C10.968 13.639 10.9653 13.6443 10.9266 13.6483C10.6693 13.6736 10.3946 13.711 10.1386 13.731C10.124 13.7336 10.096 13.7056 10.1013 13.691C10.2868 13.195 10.6254 12.771 11.068 12.4803C11.0795 12.4688 11.087 12.4539 11.0894 12.4378C11.0918 12.4217 11.0889 12.4053 11.0813 12.391C11.0187 12.3309 10.9415 12.2881 10.8573 12.267C10.6347 12.25 10.4111 12.2848 10.2041 12.3685C9.99712 12.4523 9.81227 12.5827 9.66398 12.7496C9.39825 13.0808 9.25171 13.4917 9.24798 13.9163C9.24665 13.9456 9.25198 13.9936 9.22265 14.003C9.05731 14.055 8.87465 14.1016 8.70265 14.1496C8.68265 14.155 8.65598 14.135 8.65198 14.1136C8.60857 13.846 8.64725 13.5716 8.76292 13.3264C8.8786 13.0813 9.06585 12.8769 9.29998 12.7403C9.36798 12.687 9.24931 12.6043 9.16398 12.6043C8.9143 12.5908 8.6661 12.6504 8.44985 12.776C8.2336 12.9015 8.05871 13.0874 7.94664 13.311C7.82352 13.6506 7.80954 14.0203 7.90665 14.3683C7.91065 14.399 7.93198 14.4523 7.89865 14.4603C7.79331 14.4856 7.54531 14.5803 7.46798 14.6043C7.43998 14.6136 7.42131 14.6003 7.40531 14.5643C7.34451 14.3527 7.33491 14.1297 7.37731 13.9136C7.43771 13.6674 7.56081 13.4409 7.73464 13.2563C7.74531 13.243 7.74931 13.2136 7.73464 13.207C7.57618 13.1353 7.39716 13.1235 7.23065 13.1736C7.09472 13.208 6.96769 13.271 6.85802 13.3584C6.74836 13.4458 6.65857 13.5555 6.59465 13.6803C6.38264 14.0763 6.43731 14.4576 6.66265 15.0203C6.67331 15.047 6.68665 15.0976 6.66265 15.1136L6.47998 15.2203C6.45731 15.2376 6.43731 15.223 6.42131 15.2003C6.34798 15.0963 6.25598 14.931 6.14131 14.8803C6.05098 14.8353 5.95006 14.8158 5.84947 14.8241C5.74889 14.8323 5.65247 14.8679 5.57065 14.927C5.49062 14.9965 5.43279 15.0881 5.40435 15.1903C5.3759 15.2924 5.37809 15.4007 5.41065 15.5016C5.44793 15.5736 5.49261 15.6416 5.54398 15.7043C5.55731 15.723 5.54265 15.7523 5.52665 15.767C5.44798 15.8363 5.33998 15.887 5.27598 15.9536C5.2066 16.043 5.16784 16.1523 5.16544 16.2654C5.16304 16.3785 5.19712 16.4894 5.26265 16.5816C5.32779 16.6747 5.42344 16.742 5.53303 16.772C5.64261 16.8019 5.75922 16.7926 5.86265 16.7456C5.96997 16.6998 6.07342 16.6454 6.17198 16.583C6.20798 16.559 6.23198 16.515 6.26531 16.5496C6.34612 16.6417 6.44885 16.7118 6.56398 16.7536C6.64393 16.775 6.72758 16.7786 6.8091 16.7644C6.89062 16.7501 6.96804 16.7182 7.03598 16.671C7.11848 16.6319 7.18543 16.5662 7.22607 16.4844C7.2667 16.4027 7.27864 16.3097 7.25998 16.2203C7.21803 16.09 7.15349 15.9682 7.06931 15.8603C7.02531 15.8136 7.02264 15.8163 7.06931 15.7883C7.765 15.3775 8.50829 15.0533 9.28265 14.823C10.0126 14.6034 10.7746 14.5101 11.536 14.547H11.5973L11.6013 17.1456H4.67331C4.60131 14.3016 4.51865 9.79896 4.46531 6.69763C4.47131 6.69409 4.47755 6.69097 4.48398 6.68829C5.72578 6.1872 6.99974 5.76983 8.29731 5.43896C10.0867 5.00331 11.9073 4.70775 13.7426 4.55496C14.5267 4.48699 15.313 4.44874 16.1 4.44029H16.0986ZM11.9813 5.52829C11.6492 5.53599 11.3271 5.64381 11.0573 5.83762C10.676 6.08829 10.4493 6.86829 10.404 7.14696C10.4017 7.15973 10.3952 7.17138 10.3855 7.18006C10.3759 7.18875 10.3636 7.19399 10.3506 7.19496C10.0473 7.23324 9.74632 7.28888 9.44931 7.36162C9.43998 7.36296 9.43331 7.34829 9.43331 7.33896C9.4564 7.04555 9.57757 6.76845 9.77731 6.55229C9.98007 6.35685 10.2001 6.18013 10.4346 6.02429C10.452 6.00962 10.44 5.96429 10.4186 5.95629C10.2493 5.88859 10.0681 5.85514 9.88571 5.85789C9.70331 5.86064 9.52326 5.89952 9.35598 5.97229C9.11993 6.07239 8.91337 6.23111 8.75586 6.43342C8.59836 6.63572 8.49513 6.87491 8.45598 7.12829C8.42492 7.30877 8.41196 7.4919 8.41731 7.67496C8.41998 7.69762 8.37731 7.69896 8.35731 7.70563C8.02931 7.80829 7.68531 7.92829 7.41065 8.02029C7.39731 8.02563 7.35864 8.02296 7.35864 8.00696C7.34836 7.69918 7.42956 7.39526 7.59198 7.13362C7.75198 6.87362 8.04931 6.72696 8.26531 6.50829C8.27998 6.49229 8.30264 6.44962 8.27998 6.44029C7.73331 6.22029 7.21731 6.44562 6.78131 6.94029C6.63369 7.15716 6.53361 7.40281 6.48765 7.6611C6.44169 7.91939 6.45089 8.18448 6.51465 8.43896C6.52664 8.48696 6.51464 8.53896 6.48931 8.54963C6.38991 8.59613 6.28745 8.63577 6.18264 8.66829C6.178 8.66992 6.17306 8.67049 6.16817 8.66998C6.16328 8.66947 6.15856 8.66789 6.15436 8.66534C6.15015 8.66279 6.14656 8.65934 6.14384 8.65524C6.14113 8.65114 6.13935 8.64649 6.13864 8.64162C6.01464 8.24696 5.55198 8.32429 5.34265 8.44429C5.23201 8.50656 5.15046 8.61002 5.11575 8.73214C5.08104 8.85425 5.09598 8.98514 5.15731 9.09629C5.16045 9.10097 5.16261 9.10624 5.16364 9.11178C5.16467 9.11732 5.16456 9.12301 5.16331 9.1285C5.16206 9.134 5.1597 9.13918 5.15638 9.14373C5.15305 9.14828 5.14883 9.1521 5.14398 9.15496C5.0734 9.18868 5.01025 9.23612 4.95819 9.2945C4.90614 9.35289 4.86623 9.42105 4.84079 9.49501C4.81535 9.56898 4.80488 9.64727 4.81001 9.72532C4.81514 9.80337 4.83575 9.87962 4.87065 9.94963C4.92956 10.0418 5.01884 10.1105 5.12304 10.1439C5.22723 10.1772 5.33981 10.1731 5.44131 10.1323C5.5569 10.0878 5.66696 10.03 5.76931 9.96029C5.77575 9.95708 5.783 9.95588 5.79013 9.95683C5.79726 9.95778 5.80394 9.96084 5.80931 9.96562C5.85055 10.0239 5.90325 10.0731 5.96418 10.1102C6.02511 10.1474 6.09298 10.1717 6.16364 10.1817C6.23431 10.1917 6.30626 10.1871 6.3751 10.1683C6.44394 10.1495 6.50822 10.1168 6.56398 10.0723C6.71731 9.96296 6.77731 9.94429 6.83598 9.74696C6.84471 9.67561 6.83855 9.60323 6.8179 9.53438C6.79724 9.46554 6.76254 9.40172 6.71598 9.34696C6.69998 9.33362 6.71465 9.29362 6.73331 9.28429C8.46641 8.3915 10.379 7.9024 12.328 7.85363C13.0355 7.87458 13.715 8.13447 14.256 8.59096C14.2652 8.60425 14.2776 8.615 14.292 8.62223C14.3065 8.62945 14.3225 8.63291 14.3386 8.63229C14.3551 8.62542 14.37 8.61525 14.3824 8.60241C14.3948 8.58957 14.4044 8.57433 14.4106 8.55762C14.4559 8.39667 14.4543 8.22616 14.4061 8.06606C14.358 7.90597 14.2652 7.76291 14.1386 7.65363C13.918 7.42345 13.634 7.26384 13.3226 7.19496C13.3066 7.19096 13.296 7.15629 13.3093 7.14563C13.4361 7.01776 13.5883 6.91784 13.756 6.85229C14.0225 6.80731 14.2924 6.78501 14.5626 6.78562C14.5813 6.78429 14.6093 6.76562 14.6026 6.74829C14.5498 6.60086 14.4553 6.47196 14.3305 6.37727C14.2058 6.28258 14.0562 6.22619 13.9 6.21496C13.5856 6.17575 13.2665 6.2218 12.976 6.34829C12.6759 6.51055 12.4406 6.77081 12.3093 7.08562C12.3054 7.09358 12.2993 7.10029 12.2918 7.105C12.2842 7.1097 12.2755 7.11223 12.2666 7.11229C12.0028 7.10272 11.7387 7.09961 11.4746 7.10296C11.456 7.10296 11.428 7.10296 11.428 7.08429C11.4666 6.82466 11.5855 6.58361 11.768 6.39496C12.0332 6.1651 12.3413 5.99017 12.6746 5.88029C12.7 5.87229 12.728 5.83229 12.7133 5.81229C12.6437 5.71612 12.5517 5.63833 12.4453 5.58562C12.2945 5.5456 12.1387 5.5272 11.9826 5.53096L11.9813 5.52829ZM16.5213 7.67096H28.3146C28.2986 8.58562 28.2813 9.58162 28.2613 10.5976H16.5213V7.67096ZM11.9733 10.9083L20.8613 10.9123C20.8666 10.9119 20.8718 10.9134 20.876 10.9166C20.8802 10.9198 20.883 10.9244 20.884 10.9296L20.8813 17.7803C20.8746 18.1281 20.8102 18.4723 20.6906 18.799C20.3368 19.7651 19.658 20.5782 18.7706 21.099C18.0688 21.5185 17.2683 21.7444 16.4506 21.7536C15.3421 21.7401 14.2744 21.3338 13.4373 20.607C12.9851 20.2294 12.6194 19.7589 12.3651 19.2274C12.1109 18.696 11.9741 18.116 11.964 17.527L11.9546 10.9336C11.9546 10.9163 11.956 10.9083 11.9733 10.9083ZM21.2986 11.023H28.2546C28.2386 11.883 28.2213 12.751 28.2093 13.591H21.2986V11.5976V11.023ZM12.18 11.1176C12.1626 11.1176 12.1613 11.1243 12.1613 11.1416L12.1706 17.479C12.1792 18.0452 12.309 18.603 12.5514 19.1148C12.7939 19.6265 13.1432 20.0804 13.576 20.4456C14.3712 21.1431 15.389 21.5341 16.4466 21.5483C17.2275 21.5392 17.9916 21.3214 18.66 20.9176C19.5087 20.4144 20.1562 19.6321 20.492 18.7043C20.6058 18.3902 20.667 18.0596 20.6733 17.7256L20.676 11.139C20.6758 11.1363 20.6751 11.1338 20.674 11.1314C20.6728 11.129 20.6712 11.1269 20.6692 11.1252C20.6672 11.1235 20.6649 11.1221 20.6624 11.1213C20.6599 11.1205 20.6573 11.1201 20.6546 11.1203L12.18 11.1176ZM18.0946 11.523C18.0942 11.523 18.0951 11.523 18.0946 11.523C18.1207 11.5269 18.1466 11.5377 18.167 11.5544C18.1874 11.571 18.2029 11.5929 18.212 11.6176L18.5346 12.571C18.5412 12.5858 18.5443 12.6019 18.5436 12.6181C18.5429 12.6343 18.5384 12.6501 18.5306 12.6643C18.522 12.6749 18.5109 12.6832 18.4984 12.6888C18.4859 12.6944 18.4723 12.6969 18.4586 12.6963C18.4402 12.6967 18.4222 12.6912 18.407 12.6807C18.3919 12.6702 18.3806 12.6551 18.3746 12.6376L18.324 12.471H17.884L17.836 12.6416C17.8226 12.695 17.7826 12.7003 17.7413 12.7003C17.7294 12.6986 17.7181 12.6944 17.7079 12.688C17.6978 12.6815 17.6892 12.673 17.6826 12.663C17.675 12.6533 17.6698 12.642 17.6674 12.6299C17.6651 12.6179 17.6658 12.6054 17.6693 12.5936L17.9786 11.623C17.9855 11.5965 18.0003 11.5727 18.021 11.5549C18.0418 11.537 18.0674 11.5259 18.0946 11.523ZM17.0773 11.5323C17.0875 11.5318 17.0978 11.5318 17.108 11.5323C17.176 11.5278 17.2435 11.5459 17.3002 11.5837C17.3569 11.6216 17.3994 11.6771 17.4213 11.7416C17.424 11.7495 17.425 11.7578 17.4244 11.7661C17.4237 11.7744 17.4214 11.7825 17.4175 11.7898C17.4136 11.7972 17.4083 11.8037 17.4019 11.8089C17.3954 11.8141 17.388 11.818 17.38 11.8203C17.364 11.8286 17.3454 11.8305 17.328 11.8255C17.3107 11.8206 17.2959 11.8091 17.2866 11.7936C17.2698 11.7604 17.2448 11.732 17.214 11.7111C17.1833 11.6901 17.1477 11.6772 17.1106 11.6736C17.0713 11.676 17.0335 11.69 17.002 11.7137C16.9704 11.7374 16.9466 11.7698 16.9333 11.807C16.8862 11.8986 16.8611 11.9999 16.86 12.103C16.8574 12.2076 16.8784 12.3115 16.9213 12.407C16.9371 12.4482 16.9654 12.4835 17.0022 12.5078C17.039 12.5322 17.0825 12.5445 17.1266 12.543C17.1952 12.5227 17.2546 12.4793 17.2949 12.4203C17.3353 12.3613 17.354 12.2902 17.348 12.219V12.167H17.168C17.1571 12.1674 17.1462 12.1655 17.1361 12.1614C17.126 12.1572 17.1169 12.1509 17.1094 12.143C17.1019 12.135 17.0963 12.1255 17.0928 12.1152C17.0893 12.1048 17.0882 12.0938 17.0893 12.083C17.0893 12.0523 17.0986 12.0163 17.168 12.0163H17.424C17.5093 12.0163 17.5213 12.0803 17.5213 12.1363C17.5229 12.2042 17.518 12.272 17.5066 12.339C17.4801 12.4645 17.4091 12.5763 17.3066 12.6536C17.2462 12.69 17.1772 12.7098 17.1066 12.711C17.0432 12.7099 16.9814 12.6913 16.928 12.6571C16.8745 12.623 16.8316 12.5747 16.804 12.5176C16.736 12.3907 16.7024 12.2482 16.7066 12.1043C16.704 11.9619 16.7409 11.8216 16.8133 11.699C16.8379 11.6497 16.8755 11.6082 16.922 11.5788C16.9686 11.5494 17.0223 11.5333 17.0773 11.5323ZM13.0933 11.535C13.0951 11.5349 13.0969 11.5349 13.0986 11.535C13.3426 11.5376 13.4226 11.683 13.4226 11.735C13.4226 11.7816 13.3413 11.8416 13.296 11.787C13.27 11.7573 13.2377 11.7338 13.2015 11.7181C13.1653 11.7024 13.1261 11.695 13.0866 11.6963C13.0437 11.6919 13.0006 11.7021 12.9643 11.7254C12.928 11.7486 12.9006 11.7835 12.8866 11.8243C12.8826 11.8444 12.8827 11.8651 12.8869 11.8851C12.891 11.9052 12.8992 11.9242 12.9109 11.941C12.9227 11.9578 12.9376 11.9721 12.955 11.983C12.9724 11.9938 12.9917 12.0011 13.012 12.0043C13.1373 12.0119 13.2591 12.0484 13.368 12.111H13.3666C13.4037 12.1384 13.433 12.1748 13.452 12.2169C13.4709 12.2589 13.4787 12.3051 13.4746 12.351C13.4767 12.4375 13.4446 12.5213 13.3853 12.5843C13.3415 12.6255 13.2896 12.6572 13.2329 12.6774C13.1762 12.6976 13.116 12.7058 13.056 12.7016C12.9863 12.7042 12.9171 12.6882 12.8555 12.6554C12.794 12.6227 12.7421 12.5742 12.7053 12.515C12.7 12.5016 12.692 12.431 12.7506 12.411C12.7703 12.4063 12.7908 12.4071 12.8101 12.4132C12.8293 12.4193 12.8466 12.4305 12.86 12.4456C12.9168 12.4979 12.9908 12.5278 13.068 12.5296C13.1396 12.5319 13.2097 12.5082 13.2653 12.463C13.2856 12.4434 13.2995 12.4182 13.3052 12.3906C13.3109 12.363 13.3082 12.3343 13.2973 12.3083C13.2694 12.2661 13.231 12.2319 13.1859 12.2089C13.1408 12.186 13.0905 12.1752 13.04 12.1776C12.9544 12.1771 12.8723 12.1437 12.8106 12.0843C12.7775 12.0499 12.7521 12.0087 12.7362 11.9636C12.7203 11.9185 12.7143 11.8706 12.7186 11.823C12.723 11.779 12.7372 11.7366 12.7603 11.699C12.7834 11.6613 12.8148 11.6294 12.852 11.6056C12.9234 11.5582 13.0076 11.5336 13.0933 11.535ZM15.292 11.535C15.2915 11.535 15.2924 11.535 15.292 11.535C15.2946 11.5348 15.2986 11.5348 15.3013 11.535H15.7746C15.7959 11.535 15.8162 11.5434 15.8312 11.5584C15.8462 11.5734 15.8546 11.5937 15.8546 11.615C15.8546 11.6362 15.8462 11.6565 15.8312 11.6715C15.8162 11.6865 15.7959 11.695 15.7746 11.695L15.6226 11.6976V12.607C15.6201 12.6272 15.6102 12.6459 15.5948 12.6594C15.5795 12.6729 15.5598 12.6804 15.5393 12.6804C15.5189 12.6804 15.4991 12.6729 15.4838 12.6594C15.4684 12.6459 15.4585 12.6272 15.456 12.607V11.6963H15.3013C15.2801 11.6975 15.2593 11.6903 15.2434 11.6762C15.2275 11.662 15.2179 11.6422 15.2166 11.621C15.2154 11.5997 15.2226 11.5789 15.2368 11.563C15.2509 11.5471 15.2708 11.5375 15.292 11.5363V11.535ZM16.0386 11.535C16.0391 11.535 16.0395 11.535 16.04 11.535C16.0426 11.5348 16.0453 11.5348 16.048 11.535H16.52C16.5412 11.535 16.5615 11.5434 16.5765 11.5584C16.5915 11.5734 16.6 11.5937 16.6 11.615C16.6 11.6362 16.5915 11.6565 16.5765 11.6715C16.5615 11.6865 16.5412 11.695 16.52 11.695L16.368 11.6976V12.607C16.3654 12.6272 16.3555 12.6459 16.3402 12.6594C16.3248 12.6729 16.3051 12.6804 16.2846 12.6804C16.2642 12.6804 16.2444 12.6729 16.2291 12.6594C16.2138 12.6459 16.2039 12.6272 16.2013 12.607V11.6963H16.048C16.0268 11.6975 16.0059 11.6903 15.99 11.6762C15.9742 11.662 15.9646 11.6422 15.9633 11.621C15.9621 11.5997 15.9693 11.5789 15.9834 11.563C15.9976 11.5471 16.0174 11.5375 16.0386 11.5363V11.535ZM19.692 11.535C19.6929 11.5349 19.6938 11.5349 19.6946 11.535C19.6973 11.5348 19.7 11.5348 19.7026 11.535H20.1733C20.1945 11.535 20.2149 11.5434 20.2299 11.5584C20.2449 11.5734 20.2533 11.5937 20.2533 11.615C20.2533 11.6362 20.2449 11.6565 20.2299 11.6715C20.2149 11.6865 20.1945 11.695 20.1733 11.695L20.024 11.6976V12.607C20.0214 12.6272 20.0115 12.6459 19.9962 12.6594C19.9808 12.6729 19.9611 12.6804 19.9406 12.6804C19.9202 12.6804 19.9004 12.6729 19.8851 12.6594C19.8698 12.6459 19.8599 12.6272 19.8573 12.607V11.6963H19.7026C19.6814 11.6975 19.6606 11.6903 19.6447 11.6762C19.6288 11.662 19.6192 11.6422 19.618 11.621C19.6167 11.5997 19.624 11.5789 19.6381 11.563C19.6522 11.5471 19.6721 11.5375 19.6933 11.5363L19.692 11.535ZM18.7893 11.5403C18.7946 11.5398 18.8 11.5398 18.8053 11.5403H19.0586C19.1568 11.5374 19.2535 11.5644 19.336 11.6176C19.3784 11.6503 19.4132 11.6918 19.4381 11.7392C19.4629 11.7866 19.4772 11.8388 19.48 11.8923C19.4858 11.9406 19.4803 11.9896 19.4638 12.0355C19.4474 12.0813 19.4205 12.1227 19.3853 12.1563C19.3417 12.2012 19.2883 12.2354 19.2293 12.2563L19.2026 12.2656L19.4133 12.5323C19.4322 12.5526 19.4431 12.5792 19.444 12.607C19.4413 12.6496 19.4133 12.6736 19.364 12.6736C19.3495 12.6742 19.3352 12.6712 19.3221 12.665C19.3091 12.6587 19.2978 12.6493 19.2893 12.6376L19.04 12.2936H18.884V12.6003C18.8856 12.6119 18.8846 12.6238 18.881 12.635C18.8775 12.6462 18.8714 12.6565 18.8634 12.6651C18.8553 12.6737 18.8454 12.6803 18.8345 12.6846C18.8235 12.6888 18.8117 12.6905 18.8 12.6896C18.7884 12.6901 18.7769 12.688 18.7662 12.6836C18.7555 12.6792 18.7459 12.6725 18.738 12.664C18.7302 12.6555 18.7243 12.6454 18.7207 12.6344C18.7171 12.6234 18.716 12.6118 18.7173 12.6003V11.6323C18.7159 11.6082 18.7235 11.5844 18.7386 11.5656C18.7521 11.5516 18.77 11.5426 18.7893 11.5403ZM13.6293 11.543C13.6306 11.5429 13.632 11.5429 13.6333 11.543H14.1093C14.1307 11.543 14.1512 11.5515 14.1664 11.5666C14.1815 11.5817 14.19 11.6022 14.19 11.6236C14.19 11.645 14.1815 11.6655 14.1664 11.6807C14.1512 11.6958 14.1307 11.7043 14.1093 11.7043H13.9546V12.6163C13.9521 12.6366 13.9422 12.6552 13.9268 12.6687C13.9115 12.6823 13.8918 12.6897 13.8713 12.6897C13.8509 12.6897 13.8311 12.6823 13.8158 12.6687C13.8004 12.6552 13.7905 12.6366 13.788 12.6163V11.7043H13.6333C13.6121 11.7048 13.5915 11.6969 13.5762 11.6823C13.5608 11.6676 13.5518 11.6475 13.5513 11.6263C13.5508 11.6051 13.5587 11.5845 13.5733 11.5691C13.588 11.5538 13.6081 11.5435 13.6293 11.543ZM14.4066 11.543C14.4075 11.5429 14.4084 11.5429 14.4093 11.543C14.4207 11.5426 14.432 11.5445 14.4426 11.5487C14.4532 11.5528 14.4628 11.5591 14.4709 11.5671C14.479 11.575 14.4854 11.5846 14.4897 11.5951C14.494 11.6056 14.4962 11.6169 14.496 11.6283V12.2563C14.4913 12.3269 14.5086 12.3972 14.5453 12.4576C14.5651 12.4831 14.591 12.5033 14.6205 12.5164C14.6501 12.5294 14.6824 12.5349 14.7146 12.5323C14.7465 12.5354 14.7787 12.5302 14.8079 12.5171C14.8371 12.504 14.8624 12.4835 14.8813 12.4576C14.9163 12.397 14.9326 12.3274 14.928 12.2576V11.627C14.9305 11.6067 14.9418 11.588 14.9571 11.5745C14.9724 11.561 14.9922 11.5535 15.0126 11.5535C15.0331 11.5535 15.0528 11.561 15.0682 11.5745C15.0835 11.588 15.0934 11.6067 15.096 11.627V12.203C15.1052 12.3242 15.0793 12.4455 15.0213 12.5523C14.9873 12.6001 14.9413 12.6381 14.8879 12.6625C14.8346 12.6868 14.7757 12.6966 14.7173 12.691C14.6586 12.6958 14.5997 12.6856 14.546 12.6613C14.4924 12.6371 14.4458 12.5995 14.4106 12.5523C14.349 12.4467 14.3207 12.3249 14.3293 12.203V11.627C14.3292 11.6058 14.3372 11.5854 14.3515 11.5698C14.3659 11.5542 14.3855 11.5446 14.4066 11.543ZM18.8786 11.6963V12.1336H19.052C19.085 12.1373 19.1184 12.1341 19.1501 12.1242C19.1819 12.1144 19.2112 12.098 19.2363 12.0762C19.2613 12.0544 19.2816 12.0276 19.2958 11.9976C19.31 11.9675 19.3177 11.9348 19.3186 11.9016C19.318 11.874 19.3116 11.8469 19.2999 11.8218C19.2882 11.7968 19.2714 11.7745 19.2506 11.7563C19.2272 11.7353 19.1998 11.7192 19.17 11.7089C19.1403 11.6986 19.1087 11.6943 19.0773 11.6963H18.8786ZM18.1 11.7163L17.9186 12.3416H18.2893L18.1 11.7163ZM16.58 13.0563C16.5946 13.0563 16.608 13.059 16.6093 13.071C16.612 13.095 16.588 13.1096 16.5533 13.127C16.5016 13.1489 16.4579 13.1861 16.428 13.2336C16.391 13.2999 16.373 13.3751 16.376 13.451C16.381 13.4738 16.3912 13.4951 16.4058 13.5133C16.4203 13.5316 16.4389 13.5463 16.46 13.5563C16.5191 13.5841 16.5841 13.5969 16.6493 13.5936C16.75 13.5876 16.848 13.5589 16.936 13.5096C17.0547 13.4712 17.181 13.4621 17.304 13.483C17.3968 13.4839 17.487 13.5132 17.5626 13.567C17.5946 13.5896 17.5893 13.6176 17.5773 13.6203C17.5586 13.627 17.5386 13.6043 17.5186 13.607C17.4543 13.6134 17.3908 13.6268 17.3293 13.647C17.2493 13.683 17.2133 13.6963 17.1746 13.767C17.1592 13.797 17.1558 13.8318 17.1653 13.8643C17.1786 13.8963 17.212 13.9176 17.2186 13.9403C17.2381 14 17.2669 14.0563 17.304 14.107C17.3163 14.1184 17.3297 14.1287 17.344 14.1376C17.4767 14.2367 17.6023 14.345 17.72 14.4616C17.7457 14.4991 17.7638 14.5412 17.7733 14.5856C17.7773 14.6016 17.764 14.6256 17.7493 14.619C17.7322 14.6075 17.7161 14.5946 17.7013 14.5803C17.6812 14.5587 17.6572 14.5411 17.6306 14.5283C17.5563 14.4982 17.4757 14.4867 17.396 14.495C17.36 14.495 17.288 14.527 17.3293 14.543C17.3999 14.579 17.4604 14.6322 17.5053 14.6976C17.6056 14.8111 17.6569 14.9597 17.648 15.111C17.648 15.119 17.632 15.1243 17.628 15.119C17.5933 15.0615 17.547 15.012 17.492 14.9736C17.4111 14.9144 17.3121 14.8852 17.212 14.891C17.192 14.8923 17.132 14.891 17.1386 14.9096C17.2013 14.9891 17.2562 15.0744 17.3026 15.1643C17.3506 15.2806 17.3685 15.4072 17.3546 15.5323C17.3533 15.539 17.328 15.5456 17.324 15.539C17.2928 15.5022 17.2585 15.4683 17.2213 15.4376C17.1841 15.4044 17.1418 15.3774 17.096 15.3576C17.0038 15.3364 16.907 15.3497 16.824 15.395C16.7503 15.4356 16.6901 15.4967 16.6506 15.571C16.6034 15.6549 16.5751 15.7482 16.568 15.8443C16.5532 15.9615 16.5727 16.0805 16.624 16.187C16.6802 16.2873 16.7699 16.3647 16.8773 16.4056C17.0211 16.4514 17.1719 16.4713 17.3226 16.4643C17.508 16.471 17.6933 16.443 17.8786 16.4376C18.0543 16.421 18.2312 16.4223 18.4066 16.4416C18.5487 16.4698 18.6843 16.5241 18.8066 16.6016C18.9065 16.6778 19.0022 16.7592 19.0933 16.8456C19.104 16.8536 19.128 16.8416 19.14 16.8336C19.2275 16.7495 19.2883 16.6415 19.3146 16.523C19.3319 16.4081 19.3053 16.291 19.24 16.195C19.1773 16.0816 19.0853 15.955 19.0133 15.835C18.9157 15.709 18.8257 15.5772 18.744 15.4403C18.6997 15.3484 18.6916 15.2432 18.7213 15.1456C18.7467 15.0734 18.7974 15.0128 18.864 14.975C18.8786 14.9656 18.8933 14.983 18.8866 15.003C18.8676 15.0504 18.8639 15.1026 18.876 15.1523C18.8984 15.2239 18.9394 15.2882 18.9946 15.339C19.012 15.3523 19.0573 15.3323 19.068 15.311C19.092 15.2536 19.0773 15.1643 19.0986 15.1056C19.1256 14.9964 19.1746 14.8939 19.2426 14.8043C19.3897 14.6952 19.5512 14.6072 19.7226 14.543C19.7666 14.5176 19.7946 14.403 19.844 14.4216C19.8933 14.439 19.8666 14.555 19.8293 14.611C19.776 14.6936 19.7133 14.7443 19.6546 14.819C19.5745 14.9218 19.5044 15.0321 19.4453 15.1483C19.4131 15.2034 19.3995 15.2675 19.4066 15.331C19.4127 15.3577 19.4245 15.3828 19.4413 15.4045C19.4582 15.4261 19.4795 15.4438 19.504 15.4563C19.5333 15.4696 19.5706 15.443 19.5973 15.423C19.6485 15.3856 19.6924 15.339 19.7266 15.2856C19.7573 15.235 19.74 15.167 19.7693 15.115C19.7773 15.103 19.8093 15.1056 19.8186 15.115C19.8507 15.1443 19.8715 15.1839 19.8773 15.227C19.8802 15.2776 19.8757 15.3283 19.864 15.3776C19.86 15.3883 19.832 15.4136 19.8226 15.4376C19.8154 15.4562 19.8065 15.474 19.796 15.491C19.748 15.575 19.692 15.6456 19.6293 15.659C19.616 15.6603 19.6066 15.687 19.616 15.699C19.6524 15.7682 19.7039 15.8283 19.7666 15.875C19.7979 15.8905 19.8319 15.8996 19.8666 15.9019C19.9014 15.9042 19.9363 15.8996 19.9693 15.8883C20.0053 15.8776 20.0333 15.8523 20.0746 15.839C20.092 15.8336 20.0813 15.8443 20.0813 15.8616C20.0809 15.9007 20.0742 15.9394 20.0613 15.9763C20.0398 16.0224 20.005 16.0609 19.9613 16.087C19.8934 16.1253 19.8178 16.1481 19.74 16.1536C19.704 16.1603 19.6493 16.187 19.6626 16.2216C19.6741 16.2626 19.6931 16.301 19.7186 16.335C19.7464 16.3651 19.7845 16.3837 19.8253 16.387C19.8846 16.3895 19.9431 16.3726 19.992 16.339C20.0453 16.3043 20.0733 16.2403 20.12 16.195C20.1293 16.187 20.1546 16.195 20.1546 16.2083C20.1528 16.2818 20.1341 16.3538 20.1 16.419C20.0553 16.4906 19.9974 16.5531 19.9293 16.603C19.9093 16.6203 19.8853 16.6416 19.8853 16.6683C19.8956 16.7098 19.9157 16.7482 19.944 16.7803C19.9703 16.8175 20.0099 16.8433 20.0546 16.8523C20.0987 16.8606 20.1439 16.8606 20.188 16.8523C20.2053 16.8523 20.2013 16.883 20.1866 16.8936C20.1438 16.9375 20.0899 16.9688 20.0306 16.9843C19.9757 17.0026 19.9168 17.0063 19.86 16.995C19.752 16.9683 19.6813 16.9283 19.5746 16.8976C19.5172 16.8757 19.4545 16.8715 19.3946 16.8856C19.3374 16.9074 19.2881 16.946 19.2533 16.9963C19.2325 17.0206 19.2187 17.0501 19.2133 17.0816C19.2053 17.1656 19.2466 17.255 19.22 17.3376C19.1932 17.4446 19.157 17.549 19.112 17.6496C19.0666 17.7268 19.0153 17.8003 18.9586 17.8696C18.9053 17.9416 18.8346 17.9683 18.7986 18.047C18.7834 18.0759 18.7665 18.104 18.748 18.131C18.6989 18.2254 18.6724 18.3299 18.6706 18.4363C18.6843 18.5373 18.7233 18.6331 18.784 18.715L18.988 19.031C19.0024 19.066 19.0066 19.1043 19 19.1416C18.9986 19.1608 18.9925 19.1793 18.9823 19.1956C18.9721 19.2119 18.958 19.2254 18.9413 19.235C18.6705 19.3873 18.4701 19.6395 18.3826 19.9376L18.38 19.955V19.9603C18.3749 19.9808 18.3654 20 18.352 20.0163C18.2838 20.0854 18.1948 20.1304 18.0986 20.1443C18.0253 20.1643 17.952 20.183 17.8786 20.2056C17.8548 20.2119 17.8339 20.2266 17.82 20.247C17.8075 20.2668 17.8019 20.2903 17.804 20.3137C17.8062 20.337 17.816 20.3591 17.832 20.3763C17.8541 20.4034 17.868 20.4362 17.872 20.471C17.8731 20.4911 17.867 20.511 17.8546 20.527C17.8439 20.5387 17.8313 20.5486 17.8173 20.5563C17.727 20.6078 17.6301 20.6468 17.5293 20.6723C17.4626 20.687 17.4146 20.6696 17.436 20.5936C17.473 20.4613 17.5166 20.3309 17.5666 20.203C17.6105 20.1278 17.6712 20.0639 17.744 20.0163C17.8339 19.9389 17.9283 19.8667 18.0266 19.8003C18.0909 19.7562 18.145 19.6989 18.1853 19.6323C18.2635 19.5059 18.3481 19.3835 18.4386 19.2656C18.4567 19.2412 18.4695 19.2133 18.4762 19.1837C18.4829 19.1541 18.4832 19.1234 18.4773 19.0936C18.4686 19.0401 18.4468 18.9895 18.4137 18.9464C18.3807 18.9034 18.3375 18.8692 18.288 18.847C18.2509 18.8302 18.2131 18.8151 18.1746 18.8016C18.0451 18.757 17.9313 18.676 17.8466 18.5683C17.8374 18.5541 17.8253 18.542 17.811 18.5328C17.7968 18.5236 17.7807 18.5175 17.764 18.515C17.68 18.5176 17.656 18.635 17.6533 18.699C17.6465 18.7931 17.6483 18.8878 17.6586 18.9816C17.6669 19.0129 17.6687 19.0456 17.664 19.0776C17.6597 19.0889 17.6527 19.0989 17.6436 19.1068C17.6346 19.1147 17.6237 19.1202 17.612 19.123C17.3474 19.2176 17.0946 19.3424 16.8586 19.495C16.8248 19.5202 16.7962 19.5519 16.7746 19.5883L16.752 19.627C16.7224 19.6763 16.6766 19.7139 16.6224 19.7334C16.5682 19.7528 16.5089 19.7529 16.4546 19.7336C16.4353 19.7279 16.4157 19.723 16.396 19.719C16.3657 19.7159 16.3354 19.724 16.3106 19.7416C16.2898 19.7544 16.2714 19.7706 16.256 19.7896C16.25 19.7972 16.2455 19.8058 16.2426 19.815V19.823C16.2424 19.8265 16.2424 19.8301 16.2426 19.8336C16.2435 19.8414 16.2453 19.849 16.248 19.8563L16.2773 19.9363C16.2839 19.9478 16.2878 19.9606 16.2888 19.9738C16.2897 19.987 16.2877 20.0002 16.2828 20.0125C16.278 20.0248 16.2704 20.0358 16.2606 20.0448C16.2509 20.0538 16.2393 20.0604 16.2266 20.0643C16.1397 20.0995 16.0488 20.1241 15.956 20.1376C15.9026 20.1443 15.856 20.1243 15.8693 20.0616C15.8885 19.9531 15.9198 19.8471 15.9626 19.7456C15.9684 19.7274 15.9782 19.7107 15.9914 19.6968C16.0045 19.6829 16.0207 19.6723 16.0386 19.6656C16.1268 19.6152 16.2072 19.5524 16.2773 19.479C16.3384 19.4207 16.4183 19.3862 16.5026 19.3816C16.6292 19.3706 16.7502 19.3244 16.852 19.2483C16.9588 19.1742 17.0591 19.0913 17.152 19.0003C17.2201 18.9122 17.2563 18.8036 17.2549 18.6922C17.2534 18.5809 17.2143 18.4733 17.144 18.387L17.1173 18.3403C17.092 18.3003 17.0773 18.243 17.056 18.2016C17.028 18.1601 17.0102 18.1126 17.004 18.063C17.004 17.9723 17.04 17.8856 17.0453 17.795C17.046 17.7878 17.0443 17.7806 17.0404 17.7746C17.0365 17.7686 17.0308 17.764 17.024 17.7616C16.9653 17.7396 16.9038 17.7261 16.8413 17.7216C16.5934 17.7504 16.3431 17.7531 16.0946 17.7296C15.9102 17.6764 15.7348 17.5955 15.5746 17.4896C15.504 17.4456 15.4613 17.3963 15.3893 17.355C15.3706 17.3443 15.3693 17.3483 15.352 17.363C15.1751 17.4913 14.9575 17.5506 14.74 17.5296H14.7373C14.6039 17.5067 14.4728 17.4724 14.3453 17.427C14.248 17.391 14.092 17.3283 13.9986 17.407C13.96 17.4403 13.9693 17.487 13.9693 17.531C13.9816 17.6665 13.9771 17.8031 13.956 17.9376C13.9535 17.9446 13.9526 17.952 13.9532 17.9594C13.9539 17.9668 13.9562 17.9739 13.96 17.9803C13.9624 17.9832 13.9651 17.9859 13.968 17.9883C13.9825 17.9996 13.9987 18.0086 14.016 18.015L14.0293 18.0203C14.0666 18.0336 14.0733 18.051 14.096 18.0976C14.1076 18.1238 14.1148 18.1518 14.1173 18.1803C14.1214 18.2078 14.1201 18.2359 14.1133 18.263C14.11 18.2804 14.1059 18.2978 14.1013 18.315C14.0846 18.3745 14.0884 18.4378 14.112 18.495C14.1231 18.5236 14.1427 18.5482 14.168 18.5656C14.1723 18.5677 14.1767 18.5695 14.1813 18.571C14.1856 18.5727 14.1901 18.574 14.1946 18.575C14.1991 18.5753 14.2035 18.5753 14.208 18.575H14.2213C14.2307 18.5727 14.2397 18.5691 14.248 18.5643L14.2533 18.5616C14.2662 18.5505 14.2829 18.5448 14.3 18.5456C14.3046 18.5464 14.309 18.5478 14.3133 18.5496C14.3362 18.5546 14.3568 18.5669 14.372 18.5847C14.3872 18.6026 14.3961 18.6249 14.3973 18.6483C14.4004 18.75 14.3794 18.8509 14.336 18.943C14.3319 18.9524 14.326 18.9609 14.3187 18.968C14.3113 18.9751 14.3026 18.9807 14.293 18.9844C14.2835 18.9882 14.2733 18.99 14.263 18.9897C14.2528 18.9894 14.2427 18.9872 14.2333 18.983L14.2093 18.9736C14.137 18.9351 14.0734 18.882 14.0226 18.8176C13.985 18.7764 13.962 18.7239 13.9573 18.6683C13.9589 18.6285 13.9456 18.5895 13.92 18.559C13.9073 18.5491 13.8928 18.5418 13.8773 18.5376C13.8408 18.5269 13.8083 18.5055 13.784 18.4763C13.7519 18.4356 13.7291 18.3883 13.7172 18.3379C13.7052 18.2875 13.7043 18.2351 13.7146 18.1843C13.756 17.8988 13.7351 17.6076 13.6533 17.331C13.6362 17.2843 13.6371 17.2329 13.656 17.187L13.6773 17.1296C13.68 17.1223 13.6831 17.1152 13.6866 17.1083C13.6921 17.0974 13.7 17.0879 13.7097 17.0805C13.7194 17.0731 13.7307 17.068 13.7426 17.0656C13.7554 17.0632 13.7683 17.0618 13.7813 17.0616C13.9849 17.0609 14.1872 17.0294 14.3813 16.9683C14.4076 16.9581 14.4358 16.9536 14.464 16.955C14.4964 16.9572 14.5288 16.9581 14.5613 16.9576C14.6013 16.9576 14.6413 16.9216 14.5933 16.891C14.5533 16.855 14.5158 16.8162 14.4813 16.775C14.4747 16.7631 14.4642 16.7537 14.4517 16.7484C14.4391 16.7431 14.4252 16.7421 14.412 16.7456C14.4074 16.7475 14.4029 16.7497 14.3986 16.7523L14.3866 16.759C14.3717 16.7721 14.354 16.7817 14.3348 16.7869C14.3155 16.7921 14.2954 16.7929 14.2759 16.7892C14.2563 16.7855 14.2379 16.7773 14.2219 16.7654C14.206 16.7534 14.193 16.738 14.184 16.7203C14.1334 16.6361 14.0944 16.5455 14.068 16.451C14.0455 16.3351 13.9957 16.2263 13.9226 16.1336C13.8892 16.1018 13.8492 16.0778 13.8054 16.0633C13.7616 16.0488 13.7151 16.0441 13.6693 16.0496C13.5967 16.0689 13.5345 16.1158 13.496 16.1803L13.412 16.2976C13.3907 16.3233 13.3764 16.3541 13.3706 16.387C13.3701 16.3941 13.3701 16.4012 13.3706 16.4083C13.3725 16.4229 13.3761 16.4372 13.3813 16.451C13.3959 16.4862 13.3987 16.5253 13.3893 16.5622C13.38 16.5992 13.3589 16.6322 13.3293 16.6563L13.204 16.7563C13.1923 16.7663 13.1828 16.7785 13.176 16.7923C13.1691 16.806 13.165 16.821 13.164 16.8363C13.1602 16.8632 13.1549 16.89 13.148 16.9163C13.1432 16.9359 13.1418 16.9562 13.144 16.9763C13.1445 16.9817 13.1454 16.987 13.1466 16.9923C13.1544 17.014 13.1689 17.0327 13.188 17.0456C13.1941 17.0506 13.1998 17.056 13.2053 17.0616C13.2117 17.0684 13.2171 17.076 13.2213 17.0843C13.2289 17.0995 13.2315 17.1168 13.2286 17.1336C13.2257 17.1504 13.2176 17.1658 13.2053 17.1776C13.1953 17.1877 13.1846 17.1971 13.1733 17.2056C13.0963 17.2657 13.011 17.3142 12.92 17.3496C12.9088 17.3539 12.8972 17.3566 12.8853 17.3576C12.8346 17.3616 12.8186 17.323 12.816 17.2776C12.812 17.219 12.812 17.159 12.812 17.099C12.8139 17.0308 12.8409 16.9657 12.888 16.9163C12.9528 16.8299 12.9866 16.7242 12.984 16.6163C12.9806 16.554 12.9995 16.4926 13.0373 16.443C13.0695 16.4077 13.0952 16.3671 13.1133 16.323C13.1261 16.2912 13.1437 16.2615 13.1653 16.235C13.3006 16.0722 13.4257 15.9012 13.54 15.723C13.612 15.6083 13.7466 15.467 13.856 15.6256C13.8844 15.6683 13.9195 15.7061 13.96 15.7376C14.0703 15.8178 14.1856 15.8909 14.3053 15.9563C14.4306 16.027 14.4506 15.9003 14.472 15.795V15.791C14.4826 15.7477 14.4997 15.7064 14.5226 15.6683C14.5981 15.5475 14.6886 15.4369 14.792 15.339C14.8493 15.2883 14.932 15.2376 14.992 15.1883C15.016 15.167 15.0226 15.1643 15.032 15.135C15.044 15.1056 15.064 15.0683 15.0773 15.031C15.0906 14.995 15.0973 14.9576 15.1093 14.9296C15.1356 14.8894 15.1554 14.8453 15.168 14.799V14.795C15.1682 14.7927 15.1682 14.7905 15.168 14.7883V14.779L15.164 14.7696C15.1584 14.7562 15.1486 14.745 15.136 14.7376C15.0951 14.7128 15.0478 14.7007 15 14.703H14.996C14.9281 14.7035 14.861 14.7176 14.7986 14.7443C14.7665 14.7585 14.7409 14.7842 14.7266 14.8163C14.7128 14.8472 14.6939 14.8756 14.6706 14.9003C14.6477 14.9226 14.6174 14.9357 14.5855 14.9372C14.5536 14.9387 14.5222 14.9284 14.4973 14.9083C14.4653 14.887 14.4786 14.851 14.4973 14.8243C14.5145 14.8032 14.5301 14.781 14.544 14.7576C14.5496 14.7475 14.5519 14.7358 14.5506 14.7243V14.719L14.548 14.7123C14.5461 14.7094 14.5439 14.7067 14.5413 14.7043C14.533 14.6977 14.5231 14.6933 14.5125 14.6917C14.502 14.69 14.4913 14.6912 14.4813 14.695C14.4439 14.7053 14.407 14.7173 14.3706 14.731C14.3586 14.7376 14.3451 14.7411 14.3313 14.7414C14.3175 14.7416 14.3039 14.7385 14.2916 14.7324C14.2793 14.7262 14.2686 14.7172 14.2606 14.706C14.2525 14.6949 14.2473 14.6819 14.2453 14.6683C14.2401 14.6442 14.2387 14.6195 14.2413 14.595C14.2421 14.5797 14.2477 14.565 14.2573 14.5531C14.2668 14.5411 14.2799 14.5324 14.2946 14.5283C14.3213 14.5203 14.3613 14.5056 14.356 14.4723C14.3545 14.4621 14.3545 14.4518 14.356 14.4416C14.3584 14.4297 14.3639 14.4187 14.372 14.4096C14.3837 14.3967 14.3972 14.3855 14.412 14.3763C14.5594 14.2797 14.7018 14.1755 14.8386 14.0643C14.849 14.0523 14.8632 14.0444 14.8789 14.0419C14.8945 14.0395 14.9105 14.0427 14.924 14.051L14.9373 14.059C14.9992 14.0912 15.0705 14.1006 15.1386 14.0856C15.1507 14.0851 15.1623 14.081 15.172 14.0739C15.1817 14.0667 15.1891 14.0569 15.1933 14.0456C15.1935 14.0434 15.1935 14.0412 15.1933 14.039V14.0323L15.1906 14.0243L15.1866 14.019C15.1742 14.0053 15.1579 13.9955 15.14 13.991L15.0626 13.963C15.0384 13.9544 15.0152 13.9432 14.9933 13.9296C14.9799 13.9219 14.9694 13.9101 14.9634 13.8959C14.9574 13.8817 14.9562 13.8659 14.96 13.851C14.9906 13.7003 15.156 13.699 15.2813 13.711H15.2866C15.3499 13.71 15.4128 13.7001 15.4733 13.6816C15.5533 13.6536 15.6146 13.5923 15.6906 13.5563C15.7666 13.5203 15.8466 13.4803 15.9253 13.4496C15.9493 13.4416 15.9693 13.447 15.9906 13.4376C16.0086 13.4304 16.0246 13.419 16.0373 13.4043C16.0921 13.325 16.1556 13.2521 16.2266 13.187C16.3246 13.1301 16.4307 13.0887 16.5413 13.0643C16.5542 13.0597 16.5677 13.057 16.5813 13.0563H16.58ZM16.0133 13.799C15.9645 13.7986 15.9163 13.8105 15.8733 13.8336C15.8613 13.8403 15.8533 13.855 15.8626 13.8656C15.8866 13.8936 15.928 13.9056 15.956 13.9323C15.9751 13.9497 15.9909 13.9705 16.0026 13.9936C16.0146 14.019 16.0346 14.047 16.0466 14.0736C16.0694 14.1272 16.0894 14.182 16.1066 14.2376C16.137 14.3284 16.1593 14.4216 16.1733 14.5163C16.1866 14.5923 16.1826 14.6723 16.1866 14.7496V14.8576C16.1853 14.8883 16.1853 14.9203 16.1826 14.951C16.179 14.9944 16.1772 15.038 16.1773 15.0816V15.1883C16.18 15.2816 16.1946 15.3483 16.236 15.3483C16.2748 15.349 16.3132 15.3403 16.348 15.323C16.3821 15.3025 16.4105 15.2736 16.4303 15.239C16.4502 15.2045 16.4608 15.1655 16.4613 15.1256C16.4966 14.8707 16.4952 14.6121 16.4573 14.3576C16.451 14.2643 16.4255 14.1732 16.3823 14.0901C16.3392 14.0071 16.2794 13.9338 16.2066 13.875C16.154 13.8271 16.0844 13.8001 16.0133 13.799ZM21.2933 14.0136H28.196C28.1733 15.1136 28.1506 16.147 28.1293 17.031H21.2893L21.2946 14.5483L21.2933 14.0136ZM21.2853 17.4056H28.116C28.0739 18.729 27.8288 20.038 27.3893 21.287C26.8658 22.7514 26.1674 24.1472 25.3093 25.4443C24.414 26.7802 23.3294 27.979 22.0893 29.003C21.605 29.4131 21.0941 29.7908 20.56 30.1336C19.7236 30.6427 18.85 31.088 17.9466 31.4656C17.648 31.5936 17.3893 31.7136 17.152 31.795C16.8946 31.8816 16.6746 31.9616 16.52 32.003V31.8496L16.524 22.123C16.6648 22.119 16.8054 22.1088 16.9453 22.0923C16.952 22.1123 16.9666 22.1683 16.9866 22.2256C17.0168 22.2812 17.0584 22.3296 17.1087 22.3678C17.1591 22.406 17.217 22.433 17.2786 22.447C17.3532 22.4621 17.4305 22.4568 17.5023 22.4317C17.5741 22.4066 17.6378 22.3626 17.6866 22.3043C17.756 22.366 17.8411 22.407 17.9326 22.4228C18.024 22.4386 18.118 22.4285 18.204 22.3936C18.2708 22.376 18.3299 22.3367 18.3721 22.282C18.4143 22.2272 18.4373 22.1601 18.4373 22.091C18.4459 21.9963 18.4307 21.901 18.3933 21.8136L18.3453 21.7256C18.6948 21.5798 19.0274 21.3965 19.3373 21.179L19.364 21.171C19.8613 21.0456 21.86 20.3296 23.0853 20.3136C23.8412 20.2965 24.5886 20.4757 25.2546 20.8336C25.5954 21.0327 25.9024 21.2848 26.164 21.5803C26.172 21.5923 26.1813 21.6176 26.2133 21.623C26.2229 21.6232 26.2324 21.6205 26.2405 21.6153C26.2486 21.61 26.2549 21.6025 26.2586 21.5936C26.3465 21.3755 26.3826 21.14 26.364 20.9056C26.3373 20.5296 25.964 20.2576 25.8533 20.1456C25.8493 20.1416 25.84 20.1176 25.88 20.091C25.9227 20.0486 25.9696 20.0106 26.02 19.9776C26.2341 19.8075 26.4962 19.7087 26.7693 19.695C26.8093 19.699 26.796 19.6416 26.7853 19.5936C26.708 19.2603 26.232 19.0443 25.732 19.1216C25.5658 19.1557 25.408 19.2224 25.2677 19.3178C25.1274 19.4133 25.0074 19.5355 24.9146 19.6776C24.9053 19.6923 24.8586 19.7136 24.84 19.695C24.6793 19.6367 24.5149 19.589 24.348 19.5523C24.288 19.539 24.32 19.4936 24.3226 19.4856C24.4216 19.3068 24.5603 19.1531 24.728 19.0363C24.9199 18.8845 25.146 18.782 25.3866 18.7376C25.416 18.7376 25.416 18.6976 25.408 18.6843C25.3606 18.5837 25.291 18.4951 25.2044 18.4253C25.1178 18.3556 25.0164 18.3064 24.908 18.2816C24.7326 18.2252 24.546 18.2128 24.3647 18.2453C24.1834 18.2779 24.0128 18.3544 23.868 18.4683C23.5863 18.7025 23.3799 19.0147 23.2746 19.3656C23.256 19.3923 23.2506 19.4136 23.2266 19.4083C23.0946 19.3816 22.7666 19.399 22.7373 19.379C22.7173 19.3696 22.7213 19.339 22.7253 19.319C22.781 19.1284 22.8827 18.9544 23.0213 18.8123C23.1463 18.6442 23.3138 18.5126 23.5066 18.431C23.5182 18.4257 23.5282 18.4174 23.5356 18.4071C23.543 18.3968 23.5476 18.3847 23.5489 18.3721C23.5503 18.3594 23.5483 18.3467 23.5432 18.335C23.5382 18.3234 23.5302 18.3132 23.52 18.3056C23.2503 18.1659 22.9405 18.1245 22.6436 18.1885C22.3468 18.2525 22.0815 18.4179 21.8933 18.6563C21.7052 18.9397 21.5681 19.2537 21.488 19.5843C21.4853 19.5963 21.4653 19.6323 21.44 19.6323L20.7626 19.7816L20.652 19.807L20.6226 19.8376C21.0351 19.1762 21.2638 18.4168 21.2853 17.6376V17.4056ZM4.68531 17.519H11.6053V17.639C11.6181 18.6774 12.0157 19.6742 12.7213 20.4363H5.13998C4.87756 19.4843 4.72591 18.5056 4.68531 17.519ZM5.23865 20.7763H13.056C13.1044 20.8222 13.1542 20.8666 13.2053 20.9096C14.0237 21.5968 15.034 22.0149 16.0986 22.107V23.7203H6.47198C6.05809 22.9351 5.7016 22.121 5.40531 21.2843C5.34651 21.1165 5.29095 20.9476 5.23865 20.7776V20.7763ZM19.3506 21.163L19.3373 21.179H19.3346L19.332 21.1763C19.3387 21.1719 19.3453 21.1674 19.352 21.163H19.3506ZM21.668 21.4096C21.4271 21.41 21.1918 21.4819 20.992 21.6163C20.7653 21.7399 20.5826 21.931 20.4693 22.163C20.3414 22.4939 20.2641 22.8423 20.24 23.1963C20.2353 23.2072 20.2284 23.217 20.2196 23.2251C20.2109 23.2331 20.2006 23.2392 20.1893 23.243C20.0382 23.2727 19.8891 23.3114 19.7426 23.359C19.7354 23.3583 19.7285 23.3554 19.723 23.3506C19.7175 23.3458 19.7136 23.3394 19.712 23.3323C19.6649 22.9958 19.7355 22.6533 19.912 22.363C19.9852 22.2283 20.0839 22.1092 20.2026 22.0123C20.2113 22.0067 20.218 21.9986 20.2218 21.989C20.2256 21.9794 20.2263 21.9688 20.2238 21.9588C20.2213 21.9488 20.2157 21.9399 20.2079 21.9332C20.2 21.9265 20.1903 21.9225 20.18 21.9216C19.8831 21.8712 19.5779 21.9249 19.316 22.0736C19.1525 22.1638 19.0127 22.2914 18.908 22.446C18.8032 22.6006 18.7365 22.7777 18.7133 22.963C18.6819 23.2281 18.7009 23.4968 18.7693 23.755C18.7693 23.763 18.7773 23.791 18.748 23.7963C18.6466 23.8456 18.372 23.9896 18.2746 24.0363C18.268 24.039 18.2493 24.043 18.2453 24.0283C18.2203 23.929 18.1758 23.8357 18.1145 23.7538C18.0532 23.6719 17.9762 23.6029 17.888 23.551C17.7928 23.5119 17.6901 23.4943 17.5874 23.4994C17.4846 23.5045 17.3842 23.5321 17.2933 23.5803C17.1705 23.6499 17.0704 23.7537 17.0053 23.879C16.9597 23.9842 16.9516 24.1019 16.9824 24.2123C17.0133 24.3228 17.0811 24.4193 17.1746 24.4856C17.1826 24.4936 17.1973 24.5123 17.1746 24.519C17.0546 24.5843 17.052 24.599 16.9613 24.7336C16.9156 24.8301 16.8978 24.9375 16.9101 25.0435C16.9223 25.1496 16.9641 25.2501 17.0306 25.3336C17.0806 25.4075 17.1459 25.4698 17.2221 25.5162C17.2983 25.5626 17.3836 25.5919 17.4722 25.6023C17.5608 25.6127 17.6506 25.6038 17.7355 25.5763C17.8204 25.5488 17.8983 25.5033 17.964 25.443C17.9693 25.439 17.988 25.4496 17.9973 25.4696C18.0474 25.5483 18.1122 25.6166 18.188 25.671C18.2805 25.7232 18.385 25.7506 18.4913 25.7506C18.5976 25.7506 18.7021 25.7232 18.7946 25.671C18.8915 25.6175 18.97 25.5361 19.0199 25.4375C19.0699 25.3388 19.0889 25.2273 19.0746 25.1176C19.0727 24.9863 19.0196 24.861 18.9266 24.7683C18.9093 24.747 18.9266 24.7363 18.972 24.707C19.7777 24.2453 20.6651 23.9438 21.5853 23.819C22.0616 23.7456 22.5471 23.7555 23.02 23.8483C23.3284 23.9188 23.6158 24.0614 23.8586 24.2643C24.0566 24.4243 24.238 24.6039 24.4 24.8003C24.4543 24.8092 24.51 24.7973 24.556 24.767C24.6053 24.6592 24.6324 24.5427 24.6356 24.4242C24.6389 24.3057 24.6181 24.1879 24.5746 24.0776C24.4643 23.7807 24.2895 23.512 24.0626 23.291C24.0586 23.2883 24.0586 23.2736 24.0586 23.2643C24.0533 23.2243 24.0786 23.2043 24.128 23.159C24.338 22.9626 24.5967 22.8259 24.8773 22.763C24.9133 22.7603 24.928 22.7336 24.904 22.6923C24.8025 22.5072 24.6376 22.3651 24.4396 22.2921C24.2417 22.2191 24.0239 22.2201 23.8266 22.295C23.5669 22.4045 23.3517 22.6004 23.22 22.8496C23.212 22.8643 23.1906 22.9163 23.1706 22.9003C23.0506 22.8896 22.848 22.8576 22.7293 22.847C22.6746 22.8443 22.696 22.795 22.6973 22.787C22.7466 22.6269 22.8356 22.482 22.956 22.3656C23.1173 22.1798 23.3201 22.0345 23.548 21.9416C23.5525 21.9411 23.5569 21.9395 23.5607 21.9368C23.5645 21.9342 23.5676 21.9307 23.5697 21.9266C23.5718 21.9226 23.5728 21.918 23.5728 21.9134C23.5727 21.9088 23.5715 21.9043 23.5693 21.9003C23.4937 21.8081 23.3993 21.7332 23.2923 21.6806C23.1854 21.6279 23.0684 21.5987 22.9493 21.595C22.7976 21.587 22.6459 21.6112 22.5041 21.6658C22.3624 21.7205 22.2337 21.8045 22.1266 21.9123C21.8715 22.1822 21.7134 22.5293 21.6773 22.899C21.6653 22.9296 21.6506 22.9456 21.628 22.9456C21.5054 22.9654 21.3815 22.9765 21.2573 22.979C21.2373 22.9736 21.2386 22.9523 21.2386 22.931C21.2409 22.7425 21.287 22.5572 21.3733 22.3896C21.5424 22.0689 21.796 21.8006 22.1066 21.6136C22.1546 21.5803 22.1573 21.5123 22.1413 21.5043C21.9915 21.4414 21.8305 21.4092 21.668 21.4096ZM6.67464 24.0963H16.1V27.0163H8.68264C8.24928 26.5184 7.8493 25.9923 7.48531 25.4416C7.19863 25.0026 6.92779 24.5534 6.67331 24.095L6.67464 24.0963ZM20.1093 25.6643C19.9816 25.6592 19.8552 25.6912 19.7453 25.7563C19.4456 25.9139 19.2186 26.1815 19.112 26.503C19.0495 26.7536 19.0551 27.0164 19.128 27.2643C19.132 27.2736 19.144 27.2963 19.1253 27.3043C19.0213 27.3443 18.944 27.391 18.8413 27.4323C18.836 27.4323 18.8093 27.439 18.804 27.4256C18.7175 27.2706 18.6823 27.0922 18.7034 26.9159C18.7244 26.7397 18.8007 26.5746 18.9213 26.4443C18.944 26.4243 18.9573 26.3976 18.9106 26.3816C18.7805 26.3616 18.6474 26.3747 18.5237 26.4197C18.4 26.4647 18.2896 26.5401 18.2026 26.639C18.1027 26.7593 18.0358 26.9036 18.0085 27.0577C17.9811 27.2117 17.9943 27.3702 18.0466 27.5176C18.0727 27.6397 18.1172 27.757 18.1786 27.8656C18.1826 27.8723 18.2186 27.8936 18.1973 27.903L17.9973 28.0563C17.9933 28.0603 17.9786 28.067 17.972 28.0563C17.9318 27.9804 17.8769 27.9133 17.8105 27.8588C17.7441 27.8043 17.6676 27.7636 17.5853 27.739C17.5107 27.7213 17.4328 27.7228 17.3589 27.7433C17.285 27.7638 17.2175 27.8027 17.1626 27.8563C17.1034 27.9147 17.0603 27.9876 17.0375 28.0676C17.0148 28.1477 17.0133 28.2323 17.033 28.3132C17.0527 28.3941 17.0931 28.4684 17.1502 28.529C17.2073 28.5896 17.2791 28.6344 17.3586 28.659C17.368 28.663 17.3813 28.675 17.3653 28.6856C17.259 28.7576 17.1719 28.8547 17.112 28.9683C17.0759 29.0597 17.0674 29.1597 17.0875 29.2559C17.1076 29.3522 17.1556 29.4404 17.2253 29.5096C17.2777 29.5556 17.3393 29.59 17.4059 29.6104C17.4726 29.6309 17.5428 29.637 17.612 29.6283C17.7154 29.5944 17.8108 29.54 17.8926 29.4683C17.9744 29.3966 18.0409 29.309 18.088 29.211C18.0906 29.207 18.116 29.1883 18.1293 29.203C18.2152 29.3271 18.3385 29.4205 18.4813 29.4696C18.5543 29.495 18.6327 29.5004 18.7085 29.4851C18.7842 29.4699 18.8545 29.4346 18.912 29.383C18.9903 29.3215 19.047 29.2366 19.0736 29.1406C19.1002 29.0446 19.0954 28.9427 19.06 28.8496C18.9956 28.7331 18.9035 28.6342 18.792 28.5616C18.7746 28.5483 18.788 28.515 18.8226 28.4883C19.3627 28.054 20.0073 27.769 20.692 27.6616C21.1594 27.5996 21.6347 27.6766 22.0586 27.883C22.2243 27.9801 22.3755 28.1 22.508 28.239C22.5253 28.2483 22.5746 28.2656 22.592 28.2496C22.6924 28.1573 22.7533 28.0298 22.762 27.8937C22.7707 27.7575 22.7265 27.6233 22.6386 27.519C22.563 27.4277 22.4695 27.3529 22.364 27.299C22.3596 27.293 22.3564 27.2862 22.3546 27.279C22.4372 27.0704 22.5762 26.889 22.756 26.755C22.8791 26.676 23.0111 26.612 23.1493 26.5643C23.1786 26.5563 23.1733 26.5376 23.1586 26.5016C22.988 26.111 22.312 26.0963 21.9933 26.3016C21.7987 26.4373 21.6403 26.6186 21.532 26.8296C21.5253 26.843 21.516 26.883 21.4986 26.871L21.2146 26.7856C21.2093 26.7856 21.2093 26.7536 21.212 26.7483C21.3061 26.5653 21.4372 26.4039 21.5969 26.2743C21.7567 26.1446 21.9416 26.0495 22.14 25.995C22.16 25.987 22.1533 25.9683 22.1493 25.9576C22.0026 25.6003 21.268 25.631 20.9093 25.859C20.576 26.08 20.3406 26.4209 20.252 26.811C20.248 26.8376 20.26 26.8603 20.2426 26.8643C20.143 26.8985 20.0403 26.923 19.936 26.9376C19.9282 26.937 19.9209 26.9335 19.9155 26.9279C19.9101 26.9222 19.9069 26.9148 19.9066 26.907C19.8804 26.7277 19.9116 26.5447 19.996 26.3843C20.1156 26.1849 20.2609 26.002 20.428 25.8403C20.4335 25.8347 20.4378 25.8279 20.4406 25.8206C20.4434 25.8132 20.4447 25.8053 20.4443 25.7974C20.4439 25.7895 20.4419 25.7818 20.4384 25.7747C20.4349 25.7677 20.43 25.7614 20.424 25.7563C20.3286 25.6993 20.2204 25.6685 20.1093 25.6643ZM16.1013 27.3923V31.9483C15.9706 31.9056 15.816 31.8496 15.6453 31.7923C15.408 31.7123 15.148 31.591 14.8493 31.463C13.9459 31.0849 13.0723 30.6392 12.236 30.1296C11.7019 29.7872 11.191 29.41 10.7066 29.0003C10.1082 28.5032 9.54418 27.966 9.01865 27.3923H16.0986H16.1013Z" fill="black"/>
</g>
<defs>
<clipPath id="clip0_49_16769">
<rect width="32" height="32" fill="white" transform="translate(0.398682 0.506958)"/>
</clipPath>
</defs>
</svg>
