<svg width="32" height="33" viewBox="0 0 32 33" fill="none" xmlns="http://www.w3.org/2000/svg">
<path d="M14.9314 0.157287C23.7479 -0.432696 31.3737 6.23607 31.9637 15.0524C32.5537 23.869 25.8848 31.4944 17.0682 32.0847C8.2514 32.6746 0.625893 26.0059 0.0358967 17.1892C-0.373641 11.0738 2.74695 5.26162 8.07094 2.22431C10.1723 1.02615 12.5177 0.319249 14.9314 0.157287ZM15.4146 1.51741C7.3488 1.83805 1.07032 8.63657 1.39127 16.7019C1.71192 24.7674 8.5103 31.0458 16.5761 30.7251C24.6415 30.4042 30.92 23.606 30.5994 15.5404C30.404 10.6284 27.7526 6.14391 23.5427 3.60531C21.0956 2.12767 18.2679 1.40138 15.4116 1.51741H15.4146Z" fill="#0D392E"/>
<path d="M12.4451 3.79754C13.9792 3.27399 15.5941 3.051 17.2069 3.14007C17.3763 3.13189 17.5451 3.16189 17.7021 3.22794C19.4723 4.68313 20.8733 6.56218 21.7841 8.70271C22.7707 11.1726 23.1349 13.8612 22.8419 16.5165C22.6614 18.4479 22.2145 20.3424 21.5145 22.1427H22.7745C22.8976 21.8125 23.0089 21.4792 23.1379 21.152C24.6048 21.3447 25.9656 22.044 27 23.1365C25.9694 24.2363 24.6051 24.9368 23.1349 25.121C23.0148 24.7968 22.8946 24.4756 22.7833 24.1515C18.9211 24.1515 15.0561 24.1515 11.1939 24.1515C11.0005 24.1648 10.8147 24.2342 10.6577 24.3514C10.2328 24.5726 9.81373 24.8029 9.38884 25.024C9.23324 25.0983 9.06153 25.1295 8.89069 25.1149C8.39254 25.1149 7.89438 25.1149 7.3933 25.1149C6.34161 23.9554 5.49035 22.6181 4.87616 21.1611H8.28997C8.53289 21.1353 8.77845 21.162 9.01082 21.2399C9.57725 21.4922 10.144 21.7479 10.7104 22.0064C11.1382 22.2669 11.651 22.1124 12.1228 22.1518C12.0504 20.8999 11.7006 19.6816 11.1001 18.5918C10.4619 17.5381 9.57315 16.6713 8.51853 16.0741C7.10495 15.2882 5.58002 14.7389 4 14.4471C4.21069 12.7208 4.75895 11.0571 5.61167 9.5571C6.72343 9.81857 7.81672 10.1567 8.88482 10.569C10.0306 10.9908 11.1151 11.5728 12.1082 12.299L12.4276 12.1385C11.7858 11.398 11.0629 10.7372 10.2738 10.1691C9.15118 9.3226 7.97672 8.55243 6.75741 7.86347C7.78214 6.56885 9.0413 5.4936 10.4643 4.69737C11.438 5.10821 12.3482 5.66477 13.166 6.34859C14.4093 7.37992 15.5633 8.52153 16.615 9.7601L17.0252 9.648C15.9703 7.36356 14.2912 5.44269 12.4451 3.79754ZM18.1534 17.5072C17.3361 17.7762 16.8843 18.6791 17.1445 19.5244C17.4047 20.3694 18.2779 20.8366 19.0955 20.5675C19.9128 20.2985 20.3643 19.3953 20.1044 18.5503C20.0068 18.2337 19.8166 17.9559 19.5599 17.7556C19.1573 17.4427 18.6337 17.3503 18.1534 17.5072Z" fill="#0D392E"/>
</svg>
