<svg width="33" height="31" viewBox="0 0 33 31" fill="none" xmlns="http://www.w3.org/2000/svg">
<path fill-rule="evenodd" clip-rule="evenodd" d="M23.2611 2.55447C26.5553 4.68911 31.3011 11.3486 32.5757 15.0254C31.3011 18.7122 26.5553 25.355 23.2611 27.4943V2.55447Z" fill="black"/>
<path fill-rule="evenodd" clip-rule="evenodd" d="M16.2116 7.28376C17.9328 7.28376 20.1307 7.96734 21.8547 9.20005V1.6953C20.138 0.626955 18.0453 0 15.5966 0C7.29102 0 0.575684 6.72729 0.575684 15.0255C0.575684 23.331 7.29102 30.0324 15.5966 30.0324C18.0453 30.0324 20.138 29.4294 21.8547 28.3558V20.8303C20.1307 22.063 17.9328 22.7673 16.2116 22.7673C11.539 22.7673 8.10376 19.3533 8.10376 15.0255C8.10376 10.6771 11.539 7.28376 16.2116 7.28376Z" fill="black"/>
</svg>
