<svg width="33" height="19" viewBox="0 0 33 19" fill="none" xmlns="http://www.w3.org/2000/svg">
<path d="M16.5757 0.0324097C20.581 0.0324097 24.8743 0.84841 28.2903 3.01774C30.5103 4.43641 32.5757 6.58841 32.5757 9.39108C32.5757 12.6657 29.7797 15.0471 27.101 16.4404C23.913 18.0911 20.1464 18.7444 16.5757 18.7444C12.5717 18.7444 8.28635 17.9377 4.86902 15.7604C2.65035 14.3404 0.575684 12.1897 0.575684 9.39241C0.575684 6.10308 3.36502 3.73108 6.05035 2.33508C9.24768 0.687077 13.0064 0.0324097 16.5757 0.0324097ZM16.5424 1.02708C12.8184 1.02708 8.80635 1.72441 5.57568 3.67108C3.54368 4.88708 1.53568 6.80041 1.53568 9.34174C1.53568 12.3271 4.25568 14.4164 6.68768 15.6164C9.69835 17.0857 13.217 17.6564 16.5424 17.6564C20.273 17.6564 24.2877 16.9591 27.5184 15.0124C29.541 13.7884 31.557 11.8844 31.557 9.34174C31.557 6.35108 28.8437 4.25774 26.405 3.06841C23.3944 1.59641 19.8744 1.02708 16.5424 1.02708ZM2.48902 7.27508L8.61835 6.22974L10.4637 2.22574L12.301 6.22841L18.429 7.27374L12.301 8.32974L10.4637 12.3431L8.61835 8.32974L2.48902 7.27508ZM15.9637 10.3271L18.6677 9.85241L19.4743 8.04041L20.2824 9.85241L22.9864 10.3271L20.2824 10.7937L19.4743 12.6071L18.6677 10.7937L15.9637 10.3271ZM21.5584 5.49908L24.2624 5.03241L25.069 3.21241L25.877 5.03108L28.581 5.49774L25.877 5.97374L25.069 7.78708L24.261 5.97374L21.5584 5.49908ZM18.669 14.0684L21.3624 13.6017L22.1717 11.7817L22.9877 13.6017L25.6904 14.0684L22.9877 14.5444L22.1717 16.3577L21.3637 14.5444L18.669 14.0684ZM10.3624 14.7231L13.0664 14.2564L13.8823 12.4351L14.689 14.2564L17.393 14.7231L14.689 15.1991L13.8823 17.0111L13.0664 15.1991L10.3624 14.7231ZM23.957 10.2524L26.653 9.77641L27.4597 7.96441L28.2757 9.77641L30.9797 10.2524L28.2757 10.7191L27.4597 12.5284L26.6517 10.7191L23.957 10.2524Z" fill="black"/>
</svg>
