<svg width="33" height="22" viewBox="0 0 33 22" fill="none" xmlns="http://www.w3.org/2000/svg">
<g clip-path="url(#clip0_49_5198)">
<path d="M23.6045 10.3975C23.6045 10.3975 22.2858 10.7785 19.7349 12.346C17.4481 13.7537 16.5514 14.6995 16.5514 14.6995L9.49634 9.82375C9.49634 9.82375 12.4644 7.64112 14.9444 9.31282L18.2711 11.5949L18.6769 11.328L9.49777 4.89713C9.49777 4.89713 10.817 4.5156 13.3664 2.94903C15.6546 1.54088 16.5514 0.594665 16.5514 0.594665L23.6059 5.47038C23.6059 5.47038 20.6383 7.65301 18.1579 5.98131L14.8311 3.69878L14.4253 3.96518L23.6045 10.3975Z" fill="#E20A17"/>
<path d="M18.1405 17.0488H12.771V18.2429H15.3647L12.6797 20.7495V21.7499H18.1306V20.5511H15.4184L18.1405 18.0507V17.0488Z" fill="#003399"/>
<path d="M9.6095 21.8702C11.7569 21.8702 12.3069 21.3217 12.3069 20.1124V17.0487H10.6057V19.9292C10.6057 20.413 10.1918 20.7013 9.6095 20.7013C9.0039 20.7013 8.61428 20.4116 8.61428 19.9216V17.0487H6.91309V20.1124C6.91309 21.3217 7.46303 21.8702 9.6095 21.8702Z" fill="#003399"/>
<path d="M21.6974 21.8215C23.8448 21.8215 24.3947 21.273 24.3947 20.0637V17H22.6931V19.8805C22.6931 20.3643 22.2787 20.6526 21.6974 20.6526C21.0918 20.6526 20.7007 20.3629 20.7007 19.8729V17H19V20.0637C19 21.273 19.5499 21.8215 21.6974 21.8215Z" fill="#003399"/>
<path d="M32.4477 17.0488H30.6737V21.7499H32.4477V17.0488Z" fill="#003399"/>
<path d="M30.4035 17.0488H28.0696L26.181 18.671V17.0488H24.4065V21.7499H26.181V20.0825L27.935 21.7499H30.3183L27.7242 19.338L30.4035 17.0488Z" fill="#003399"/>
<path d="M2.71986 18.3478C2.71986 17.9843 3.25838 17.9724 3.44011 17.9724C3.62231 17.9724 4.03287 18.0452 4.31212 18.5033H6.31825C6.31825 17.6175 5.4786 16.913 3.4463 16.913C1.18898 16.913 0.804589 17.9034 0.804589 18.4724C0.804589 19.5214 1.61713 19.8287 3.38398 20.0171C3.53526 20.0328 4.45436 19.9895 4.45436 20.4314C4.45436 20.7587 3.93772 20.7806 3.74743 20.7806C3.55857 20.7806 3.2051 20.7497 2.91301 20.2297H0.703735C0.703735 21.2621 1.39972 21.8586 3.7441 21.8586C5.90342 21.8586 6.47667 20.9771 6.47667 20.3068C6.47667 19.656 6.02996 18.9938 4.1889 18.7583C3.42108 18.6589 2.71986 18.617 2.71986 18.3478Z" fill="#003399"/>
</g>
<defs>
<clipPath id="clip0_49_5198">
<rect width="32" height="21.5315" fill="white" transform="translate(0.575684 0.466675)"/>
</clipPath>
</defs>
</svg>
