<svg width="33" height="33" viewBox="0 0 33 33" fill="none" xmlns="http://www.w3.org/2000/svg">
<path d="M16.0704 32.9142L20.5663 7.62881C24.8517 7.62881 26.2034 8.09873 26.3986 10.0168C26.3986 10.0168 29.2734 8.94492 30.7233 6.76792C25.0653 4.1461 19.3802 4.02785 19.3802 4.02785L16.0629 8.06831L16.0704 8.06781L12.753 4.02722C12.753 4.02722 7.06785 4.14559 1.41055 6.76741C2.85922 8.94441 5.73514 10.0163 5.73514 10.0163C5.93145 8.0981 7.28152 7.62818 11.5382 7.62513L16.0704 32.9142Z" fill="#E82127"/>
<path d="M16.0686 2.86078C20.6423 2.82581 25.8775 3.56833 31.2367 5.90412C31.953 4.61488 32.1371 4.04509 32.1371 4.04509C26.2787 1.7273 20.7924 0.934081 16.0679 0.914185C11.3438 0.934081 5.85766 1.72742 0 4.04509C0 4.04509 0.26132 4.74693 0.899795 5.90412C6.25801 3.56833 11.4941 2.82581 16.0679 2.86078H16.0686Z" fill="#E82127"/>
</svg>
