<svg width="33" height="22" viewBox="0 0 33 22" fill="none" xmlns="http://www.w3.org/2000/svg">
<g clip-path="url(#clip0_49_5216)">
<path d="M16.5757 0.37616C7.82155 0.37616 0.723633 4.96783 0.723633 10.6303C0.723633 16.2949 7.82155 20.8887 16.5757 20.8887C25.3299 20.8887 32.4278 16.297 32.4278 10.6303C32.4278 4.96366 25.3299 0.37616 16.5757 0.37616ZM16.5757 16.4866C15.2736 16.4866 14.2111 13.922 14.1445 10.6949C14.9278 10.7637 15.7424 10.8012 16.5757 10.8012C17.409 10.8012 18.2236 10.7637 19.007 10.6949C18.9403 13.9199 17.8778 16.4866 16.5757 16.4866ZM14.3049 8.13241C14.659 5.85116 15.5424 4.23241 16.5757 4.23241C17.609 4.23241 18.4924 5.85116 18.8465 8.13241C18.1195 8.19699 17.3611 8.23241 16.5757 8.23241C15.7903 8.23241 15.032 8.19699 14.3049 8.13241ZM16.5757 1.85949C14.8757 1.85949 13.4257 4.40533 12.8903 7.95949C9.66738 7.45741 7.41738 6.31158 7.41738 4.98033C7.41738 3.18449 11.5174 1.72824 16.5757 1.72824C21.634 1.72824 25.734 3.18449 25.734 4.98033C25.734 6.31158 23.484 7.45741 20.2611 7.95949C19.7257 4.40533 18.2757 1.85949 16.5757 1.85949ZM2.99655 10.247C2.99655 8.50949 3.6653 6.87824 4.82988 5.47824C4.81738 5.57616 4.80905 5.67616 4.80905 5.77616C4.80905 7.96574 8.09238 9.83241 12.6736 10.5199C12.6695 10.6782 12.6695 10.8387 12.6695 10.9991C12.6695 15.0803 13.8132 18.5366 15.3945 19.7095C8.44655 19.2907 2.99655 15.2137 2.99655 10.247ZM17.757 19.7095C19.3382 18.5366 20.482 15.0803 20.482 10.9991C20.482 10.8366 20.4799 10.6782 20.4778 10.5199C25.057 9.83241 28.3424 7.96783 28.3424 5.77616C28.3424 5.67616 28.334 5.57616 28.3215 5.47824C29.4861 6.88241 30.1549 8.50949 30.1549 10.247C30.1549 15.2137 24.7049 19.2907 17.757 19.7095Z" fill="#282830"/>
</g>
<defs>
<clipPath id="clip0_49_5216">
<rect width="32" height="20.8" fill="white" transform="translate(0.575684 0.232422)"/>
</clipPath>
</defs>
</svg>
