<svg width="33" height="32" viewBox="0 0 33 32" fill="none" xmlns="http://www.w3.org/2000/svg">
<path d="M16.5946 30.4665C8.66681 30.4665 2.17171 23.9395 2.17171 16.0117C2.17171 14.2287 2.4901 12.5413 3.09503 10.9493L11.5323 27.9194C11.6278 28.1423 11.787 28.3333 12.0417 28.3333C12.2964 28.3333 12.4556 28.1423 12.5511 27.9194L16.4355 19.2274C16.4673 19.1319 16.531 19.0364 16.6265 19.0364C16.722 19.0364 16.7538 19.1319 16.8175 19.2274L20.7018 27.9194C20.7974 28.1423 20.9566 28.3333 21.2113 28.3333C21.466 28.3333 21.6252 28.1423 21.7207 27.9194L30.1579 10.9493C30.7629 12.5413 31.0813 14.2287 31.0813 16.0117C31.0176 23.9395 24.5225 30.4665 16.5946 30.4665ZM16.5946 12.7323C16.4991 12.7323 16.4673 12.6368 16.4036 12.5413L11.8825 2.35289C13.3471 1.81164 14.939 1.52509 16.5946 1.52509C18.2503 1.52509 19.8422 1.81164 21.3068 2.35289L16.7857 12.5413C16.722 12.6686 16.6902 12.7323 16.5946 12.7323ZM11.978 23.2073C11.8825 23.2073 11.8507 23.1117 11.787 23.0162L4.4641 8.24306C5.76949 6.23722 7.52062 4.54977 9.65381 3.37173L14.939 15.1202C15.0027 15.3112 15.1619 15.3749 15.3211 15.3749H17.8682C18.0592 15.3749 18.1866 15.3431 18.2821 15.1202L23.5673 3.37173C25.6687 4.54977 27.4516 6.23722 28.757 8.24306L21.3705 23.0162C21.3386 23.1117 21.2749 23.2073 21.1794 23.2073C21.0839 23.2073 21.0521 23.1117 20.9884 23.0162L18.2184 16.7122C18.1229 16.4893 17.9956 16.4574 17.8045 16.4574H15.2574C15.0664 16.4574 14.939 16.4893 14.8435 16.7122L12.1691 23.0162C12.1372 23.1117 12.0736 23.2073 11.978 23.2073ZM16.5946 31.9311C25.414 31.9311 32.514 24.831 32.514 16.0117C32.514 7.19238 25.414 0.0923462 16.5946 0.0923462C7.77533 0.0923462 0.675293 7.19238 0.675293 16.0117C0.675293 24.831 7.77533 31.9311 16.5946 31.9311Z" fill="black"/>
</svg>
