<svg width="33" height="33" viewBox="0 0 33 33" fill="none" xmlns="http://www.w3.org/2000/svg">
<g clip-path="url(#clip0_49_5241)">
<path d="M15.073 16.8111H15.7264L15.725 14.8751H15.073V14.4458H17.6597V14.8751H17.0157V16.8098H17.6144C18.1677 16.8098 18.5303 16.4444 18.5303 15.9484H18.957V17.2444H15.073V16.8111ZM20.8237 17.2471H22.3357L23.6184 14.8751H24.261V14.4458H22.3277V14.8751H22.8864L21.9517 16.6018L21.005 14.8751H21.685L21.6824 14.4458H18.877V14.8751H19.5197L20.8237 17.2471ZM7.33968 14.4458H4.53302V14.8751H5.17435L6.48102 17.2471H7.99168L9.27435 14.8751H9.91702V14.4458H7.98368V14.8751H8.54102L7.60768 16.6018L6.66102 14.8751H7.33968V14.4458ZM12.2824 14.3871C13.5824 14.3871 14.2797 15.0351 14.2797 15.8484C14.2797 16.6724 13.621 17.3298 12.289 17.3298C10.957 17.3298 10.293 16.6724 10.293 15.8484C10.293 15.0351 10.9824 14.3871 12.2824 14.3871ZM12.305 14.8271C11.861 14.8204 11.6024 15.2911 11.593 15.8311C11.585 16.3511 11.793 16.8764 12.2677 16.8844C12.7557 16.8938 12.9663 16.3644 12.9743 15.8551C12.985 15.3151 12.7504 14.8364 12.305 14.8284V14.8271ZM26.6224 14.3871C27.921 14.3871 28.6184 15.0351 28.6184 15.8484C28.6184 16.6724 27.961 17.3298 26.629 17.3298C25.2957 17.3298 24.6317 16.6724 24.6317 15.8484C24.6317 15.0351 25.3224 14.3871 26.6224 14.3871ZM25.933 15.8311C25.9237 16.3511 26.133 16.8764 26.6077 16.8844C27.0957 16.8938 27.3064 16.3644 27.3144 15.8551C27.325 15.3151 27.0904 14.8364 26.645 14.8284C26.201 14.8204 25.9424 15.2911 25.933 15.8311ZM29.7424 6.94176L28.117 8.56576C29.5589 10.7888 30.3241 13.3827 30.3197 16.0324C30.3197 23.6231 24.1664 29.7764 16.5757 29.7764C8.98502 29.7764 2.83168 23.6231 2.83168 16.0324C2.83168 8.44176 8.98502 2.28843 16.5757 2.28843C19.3357 2.28843 21.9037 3.10176 24.057 4.50176L25.6824 2.87643C23.0088 1.02008 19.8305 0.0275293 16.5757 0.0324277C7.73968 0.0324277 0.575684 7.19643 0.575684 16.0324C0.575684 24.8684 7.73968 32.0324 16.5757 32.0324C25.4117 32.0324 32.5757 24.8684 32.5757 16.0324C32.5757 12.6551 31.529 9.52309 29.7424 6.94176ZM24.6237 0.661761V1.11109C25.5944 1.63643 26.5077 2.25643 27.353 2.95376L25.073 5.23376C25.9334 5.9086 26.71 6.68388 27.3864 7.54309L29.6637 5.26576C30.3624 6.11376 30.9824 7.02843 31.509 7.98309H31.9464V0.663094L24.6237 0.661761Z" fill="black"/>
</g>
<defs>
<clipPath id="clip0_49_5241">
<rect width="32" height="32" fill="white" transform="translate(0.575684 0.0324097)"/>
</clipPath>
</defs>
</svg>
